<?xml version="1.0" encoding="UTF-8" standalone="no"?>
<svg width="1275.59px" height="283.465px" viewBox="0 0 1275.59 283.465"
 xmlns="http://www.w3.org/2000/svg" xmlns:xlink="http://www.w3.org/1999/xlink" version="1.2" baseProfile="tiny">
<title>drum_rudiments (39)</title>
<desc>Generated by MuseScore 3.6.2</desc>
<polyline class="StaffLines" fill="none" stroke="#000000" stroke-width="2.73" stroke-linejoin="bevel" points="0,173.622 1275.59,173.622"/>
<path class="MeasureNumber" d="M14.5938,59.8469 C16.4844,59.2532 17.2344,58.9251 18.2031,58.2844 C20.0781,57.0501 21.2344,54.8469 21.2344,52.6126 C21.2344,48.8157 18.2031,46.2532 13.7188,46.2532 C9.35938,46.2532 5.67188,48.9719 5.67188,52.2532 C5.67188,53.8938 6.67188,55.0188 8.20313,55.0188 C9.51563,55.0188 10.4844,54.0501 10.4844,52.7376 C10.4844,52.0501 10.2813,51.5657 9.64063,50.9407 C9.23438,50.5657 9.07813,50.3001 9.07813,50.0188 C9.07813,49.0501 11.0781,48.0501 12.9531,48.0501 C15.6406,48.0501 17.2344,49.5344 17.2344,52.0188 C17.2344,55.5657 14.7188,58.9251 12.0313,58.9251 C11.9219,58.9251 11.5625,58.8938 11.125,58.8469 C9.95313,58.7688 9.95313,58.7688 9.71875,58.7688 C8.84375,58.7688 8.35938,59.1751 8.35938,59.8938 C8.35938,60.5344 8.79688,60.9251 9.51563,60.9251 C9.71875,60.9251 10,60.8938 10.3125,60.8469 C10.875,60.7376 11.4844,60.6907 11.8438,60.6907 C13.7188,60.6907 15,62.3782 15,64.8469 C15,66.7688 14.5625,68.6126 13.6719,70.1282 C12.4844,72.2844 10.6406,73.3313 8.03125,73.3313 C5.79688,73.3313 3.875,72.2063 3.875,70.9251 C3.875,70.4876 4.04688,70.3313 4.67188,70.0501 C5.84375,69.5344 6.3125,68.8157 6.3125,67.7376 C6.3125,66.3313 5.20313,65.2532 3.76563,65.2532 C2.04688,65.2532 0.921875,66.6126 0.921875,68.6907 C0.921875,72.5657 3.875,75.0032 8.67188,75.0032 C14.7188,75.0032 19.3125,70.9719 19.3125,65.6126 C19.3125,64.1751 18.875,62.9251 18.0313,61.9251 C17.1563,60.8938 16.3594,60.4094 14.5938,59.8469 M38.9531,60.7376 C38.2656,63.8938 37.5469,65.8157 36.3906,68.0501 C34.4375,71.6907 32.3594,73.3313 29.5469,73.3313 C28.3906,73.3313 27.6406,72.8469 27.6406,72.1282 C27.6406,71.8469 27.7188,71.7376 28.0313,71.2532 C28.4375,70.7376 28.6406,70.2532 28.6406,69.6907 C28.6406,68.3782 27.5938,67.3782 26.2344,67.3782 C24.6406,67.3782 23.5156,68.5657 23.5156,70.3313 C23.5156,73.0501 26.0781,75.0032 29.6406,75.0032 C32.8281,75.0032 35.7969,73.6126 38.2344,70.8157 C41.7188,66.9251 43.9844,61.1282 43.9844,56.2063 C43.9844,49.9719 40.9844,46.2532 36.0313,46.2532 C33.0781,46.2532 30.3125,47.5813 28.4688,49.8469 C26.6719,52.0501 25.6406,54.8469 25.6406,57.4563 C25.6406,61.2532 28.5469,64.1282 32.4375,64.1282 C35.0781,64.1282 37.1094,63.0501 38.9531,60.7376 M36,47.9407 C38.5469,47.9407 40.1875,49.9719 40.1875,53.1751 C40.1875,58.1282 37.4688,61.7688 33.7969,61.7688 C31.2656,61.7688 29.875,60.0501 29.875,57.0501 C29.875,54.6907 30.4375,52.5657 31.5156,50.7688 C32.7188,48.8469 34.1563,47.9407 36,47.9407"/>
<path class="SlurSegment" stroke="#000000" stroke-width="1.74" stroke-linecap="round" stroke-linejoin="round" fill-rule="evenodd" d="M203.998,208.346 C215.615,210.098 235.032,195.216 236.359,183.543 C237.144,197.972 217.727,212.854 203.998,208.346"/>
<path class="SlurSegment" stroke="#000000" stroke-width="1.74" stroke-linecap="round" stroke-linejoin="round" fill-rule="evenodd" d="M352.525,208.346 C364.142,210.098 383.559,195.216 384.886,183.543 C385.671,197.972 366.254,212.854 352.525,208.346"/>
<path class="SlurSegment" stroke="#000000" stroke-width="1.74" stroke-linecap="round" stroke-linejoin="round" fill-rule="evenodd" d="M729.441,183.543 C730.768,195.216 750.185,210.098 761.802,208.346 C748.073,212.854 728.656,197.972 729.441,183.543"/>
<path class="SlurSegment" stroke="#000000" stroke-width="1.74" stroke-linecap="round" stroke-linejoin="round" fill-rule="evenodd" d="M877.968,183.543 C879.296,195.216 898.712,210.098 910.329,208.346 C896.6,212.854 877.183,197.972 877.968,183.543"/>
<polyline class="BarLine" stroke="#000000" stroke-width="4.46" stroke-linejoin="bevel" points="1273.36,122.652 1273.36,224.593"/>
<polyline class="Stem" stroke="#000000" stroke-width="2.73" stroke-linejoin="bevel" points="251.113,158.046 251.113,80.6102"/>
<polyline class="Stem" stroke="#000000" stroke-width="1.91" stroke-linejoin="bevel" points="188.288,183.801 188.288,124.016"/>
<polyline class="Stem" stroke="#000000" stroke-width="1.91" stroke-linejoin="bevel" points="214.326,183.801 214.326,124.016"/>
<polyline class="Stem" stroke="#000000" stroke-width="2.73" stroke-linejoin="bevel" points="399.64,158.046 399.64,80.6102"/>
<polyline class="Stem" stroke="#000000" stroke-width="1.91" stroke-linejoin="bevel" points="336.815,183.801 336.815,130.217"/>
<polyline class="Stem" stroke="#000000" stroke-width="1.91" stroke-linejoin="bevel" points="362.853,183.801 362.853,130.217"/>
<polyline class="Stem" stroke="#000000" stroke-width="2.73" stroke-linejoin="bevel" points="475.77,182.849 475.77,80.6102"/>
<polyline class="Stem" stroke="#000000" stroke-width="2.73" stroke-linejoin="bevel" points="551.9,158.046 551.9,80.6102"/>
<polyline class="Stem" stroke="#000000" stroke-width="2.73" stroke-linejoin="bevel" points="628.029,182.849 628.029,80.6102"/>
<polyline class="Stem" stroke="#000000" stroke-width="2.73" stroke-linejoin="bevel" points="776.556,182.849 776.556,80.6102"/>
<polyline class="Stem" stroke="#000000" stroke-width="1.91" stroke-linejoin="bevel" points="713.731,158.998 713.731,99.2126"/>
<polyline class="Stem" stroke="#000000" stroke-width="1.91" stroke-linejoin="bevel" points="739.769,158.998 739.769,99.2126"/>
<polyline class="Stem" stroke="#000000" stroke-width="2.73" stroke-linejoin="bevel" points="925.083,182.849 925.083,80.6102"/>
<polyline class="Stem" stroke="#000000" stroke-width="1.91" stroke-linejoin="bevel" points="862.258,158.998 862.258,105.413"/>
<polyline class="Stem" stroke="#000000" stroke-width="1.91" stroke-linejoin="bevel" points="888.296,158.998 888.296,105.413"/>
<polyline class="Stem" stroke="#000000" stroke-width="2.73" stroke-linejoin="bevel" points="1001.21,158.046 1001.21,80.6102"/>
<polyline class="Stem" stroke="#000000" stroke-width="2.73" stroke-linejoin="bevel" points="1077.34,182.849 1077.34,80.6102"/>
<polyline class="Stem" stroke="#000000" stroke-width="2.73" stroke-linejoin="bevel" points="1153.47,158.046 1153.47,80.6102"/>
<path class="Note" transform="matrix(0.992126,0,0,0.992126,220.241,161.22)" d="M31.5,-8.09375 C29.7031,-11.4063 25.9063,-13.2031 21.2969,-13.2031 C17.9063,-13.2031 14.2031,-12.2031 10.5938,-10.2969 C4,-6.79688 0,-0.90625 0,4.20313 C0,5.59375 0.296875,7 1,8.29688 C2.79688,11.5938 6.59375,13.2969 11.2031,13.2969 C14.5938,13.2969 18.2969,12.4063 21.9063,10.5 C28.5,7 32.5,1.09375 32.5,-4 C32.5,-5.40625 32.2031,-6.79688 31.5,-8.09375"/>
<path class="Note" transform="matrix(0.694488,0,0,0.694488,166.677,186.024)" d="M31.5,-8.09375 C29.7031,-11.4063 25.9063,-13.2031 21.2969,-13.2031 C17.9063,-13.2031 14.2031,-12.2031 10.5938,-10.2969 C4,-6.79688 0,-0.90625 0,4.20313 C0,5.59375 0.296875,7 1,8.29688 C2.79688,11.5938 6.59375,13.2969 11.2031,13.2969 C14.5938,13.2969 18.2969,12.4063 21.9063,10.5 C28.5,7 32.5,1.09375 32.5,-4 C32.5,-5.40625 32.2031,-6.79688 31.5,-8.09375"/>
<path class="Note" transform="matrix(0.694488,0,0,0.694488,192.715,186.024)" d="M31.5,-8.09375 C29.7031,-11.4063 25.9063,-13.2031 21.2969,-13.2031 C17.9063,-13.2031 14.2031,-12.2031 10.5938,-10.2969 C4,-6.79688 0,-0.90625 0,4.20313 C0,5.59375 0.296875,7 1,8.29688 C2.79688,11.5938 6.59375,13.2969 11.2031,13.2969 C14.5938,13.2969 18.2969,12.4063 21.9063,10.5 C28.5,7 32.5,1.09375 32.5,-4 C32.5,-5.40625 32.2031,-6.79688 31.5,-8.09375"/>
<path class="Note" transform="matrix(0.992126,0,0,0.992126,368.768,161.22)" d="M31.5,-8.09375 C29.7031,-11.4063 25.9063,-13.2031 21.2969,-13.2031 C17.9063,-13.2031 14.2031,-12.2031 10.5938,-10.2969 C4,-6.79688 0,-0.90625 0,4.20313 C0,5.59375 0.296875,7 1,8.29688 C2.79688,11.5938 6.59375,13.2969 11.2031,13.2969 C14.5938,13.2969 18.2969,12.4063 21.9063,10.5 C28.5,7 32.5,1.09375 32.5,-4 C32.5,-5.40625 32.2031,-6.79688 31.5,-8.09375"/>
<path class="Note" transform="matrix(0.694488,0,0,0.694488,315.204,186.024)" d="M31.5,-8.09375 C29.7031,-11.4063 25.9063,-13.2031 21.2969,-13.2031 C17.9063,-13.2031 14.2031,-12.2031 10.5938,-10.2969 C4,-6.79688 0,-0.90625 0,4.20313 C0,5.59375 0.296875,7 1,8.29688 C2.79688,11.5938 6.59375,13.2969 11.2031,13.2969 C14.5938,13.2969 18.2969,12.4063 21.9063,10.5 C28.5,7 32.5,1.09375 32.5,-4 C32.5,-5.40625 32.2031,-6.79688 31.5,-8.09375"/>
<path class="Note" transform="matrix(0.694488,0,0,0.694488,341.242,186.024)" d="M31.5,-8.09375 C29.7031,-11.4063 25.9063,-13.2031 21.2969,-13.2031 C17.9063,-13.2031 14.2031,-12.2031 10.5938,-10.2969 C4,-6.79688 0,-0.90625 0,4.20313 C0,5.59375 0.296875,7 1,8.29688 C2.79688,11.5938 6.59375,13.2969 11.2031,13.2969 C14.5938,13.2969 18.2969,12.4063 21.9063,10.5 C28.5,7 32.5,1.09375 32.5,-4 C32.5,-5.40625 32.2031,-6.79688 31.5,-8.09375"/>
<path class="Note" transform="matrix(0.992126,0,0,0.992126,444.898,186.024)" d="M31.5,-8.09375 C29.7031,-11.4063 25.9063,-13.2031 21.2969,-13.2031 C17.9063,-13.2031 14.2031,-12.2031 10.5938,-10.2969 C4,-6.79688 0,-0.90625 0,4.20313 C0,5.59375 0.296875,7 1,8.29688 C2.79688,11.5938 6.59375,13.2969 11.2031,13.2969 C14.5938,13.2969 18.2969,12.4063 21.9063,10.5 C28.5,7 32.5,1.09375 32.5,-4 C32.5,-5.40625 32.2031,-6.79688 31.5,-8.09375"/>
<path class="Note" transform="matrix(0.992126,0,0,0.992126,521.027,161.22)" d="M31.5,-8.09375 C29.7031,-11.4063 25.9063,-13.2031 21.2969,-13.2031 C17.9063,-13.2031 14.2031,-12.2031 10.5938,-10.2969 C4,-6.79688 0,-0.90625 0,4.20313 C0,5.59375 0.296875,7 1,8.29688 C2.79688,11.5938 6.59375,13.2969 11.2031,13.2969 C14.5938,13.2969 18.2969,12.4063 21.9063,10.5 C28.5,7 32.5,1.09375 32.5,-4 C32.5,-5.40625 32.2031,-6.79688 31.5,-8.09375"/>
<path class="Note" transform="matrix(0.992126,0,0,0.992126,597.157,186.024)" d="M31.5,-8.09375 C29.7031,-11.4063 25.9063,-13.2031 21.2969,-13.2031 C17.9063,-13.2031 14.2031,-12.2031 10.5938,-10.2969 C4,-6.79688 0,-0.90625 0,4.20313 C0,5.59375 0.296875,7 1,8.29688 C2.79688,11.5938 6.59375,13.2969 11.2031,13.2969 C14.5938,13.2969 18.2969,12.4063 21.9063,10.5 C28.5,7 32.5,1.09375 32.5,-4 C32.5,-5.40625 32.2031,-6.79688 31.5,-8.09375"/>
<path class="Note" transform="matrix(0.992126,0,0,0.992126,745.684,186.024)" d="M31.5,-8.09375 C29.7031,-11.4063 25.9063,-13.2031 21.2969,-13.2031 C17.9063,-13.2031 14.2031,-12.2031 10.5938,-10.2969 C4,-6.79688 0,-0.90625 0,4.20313 C0,5.59375 0.296875,7 1,8.29688 C2.79688,11.5938 6.59375,13.2969 11.2031,13.2969 C14.5938,13.2969 18.2969,12.4063 21.9063,10.5 C28.5,7 32.5,1.09375 32.5,-4 C32.5,-5.40625 32.2031,-6.79688 31.5,-8.09375"/>
<path class="Note" transform="matrix(0.694488,0,0,0.694488,692.12,161.22)" d="M31.5,-8.09375 C29.7031,-11.4063 25.9063,-13.2031 21.2969,-13.2031 C17.9063,-13.2031 14.2031,-12.2031 10.5938,-10.2969 C4,-6.79688 0,-0.90625 0,4.20313 C0,5.59375 0.296875,7 1,8.29688 C2.79688,11.5938 6.59375,13.2969 11.2031,13.2969 C14.5938,13.2969 18.2969,12.4063 21.9063,10.5 C28.5,7 32.5,1.09375 32.5,-4 C32.5,-5.40625 32.2031,-6.79688 31.5,-8.09375"/>
<path class="Note" transform="matrix(0.694488,0,0,0.694488,718.158,161.22)" d="M31.5,-8.09375 C29.7031,-11.4063 25.9063,-13.2031 21.2969,-13.2031 C17.9063,-13.2031 14.2031,-12.2031 10.5938,-10.2969 C4,-6.79688 0,-0.90625 0,4.20313 C0,5.59375 0.296875,7 1,8.29688 C2.79688,11.5938 6.59375,13.2969 11.2031,13.2969 C14.5938,13.2969 18.2969,12.4063 21.9063,10.5 C28.5,7 32.5,1.09375 32.5,-4 C32.5,-5.40625 32.2031,-6.79688 31.5,-8.09375"/>
<path class="Note" transform="matrix(0.992126,0,0,0.992126,894.211,186.024)" d="M31.5,-8.09375 C29.7031,-11.4063 25.9063,-13.2031 21.2969,-13.2031 C17.9063,-13.2031 14.2031,-12.2031 10.5938,-10.2969 C4,-6.79688 0,-0.90625 0,4.20313 C0,5.59375 0.296875,7 1,8.29688 C2.79688,11.5938 6.59375,13.2969 11.2031,13.2969 C14.5938,13.2969 18.2969,12.4063 21.9063,10.5 C28.5,7 32.5,1.09375 32.5,-4 C32.5,-5.40625 32.2031,-6.79688 31.5,-8.09375"/>
<path class="Note" transform="matrix(0.694488,0,0,0.694488,840.647,161.22)" d="M31.5,-8.09375 C29.7031,-11.4063 25.9063,-13.2031 21.2969,-13.2031 C17.9063,-13.2031 14.2031,-12.2031 10.5938,-10.2969 C4,-6.79688 0,-0.90625 0,4.20313 C0,5.59375 0.296875,7 1,8.29688 C2.79688,11.5938 6.59375,13.2969 11.2031,13.2969 C14.5938,13.2969 18.2969,12.4063 21.9063,10.5 C28.5,7 32.5,1.09375 32.5,-4 C32.5,-5.40625 32.2031,-6.79688 31.5,-8.09375"/>
<path class="Note" transform="matrix(0.694488,0,0,0.694488,866.685,161.22)" d="M31.5,-8.09375 C29.7031,-11.4063 25.9063,-13.2031 21.2969,-13.2031 C17.9063,-13.2031 14.2031,-12.2031 10.5938,-10.2969 C4,-6.79688 0,-0.90625 0,4.20313 C0,5.59375 0.296875,7 1,8.29688 C2.79688,11.5938 6.59375,13.2969 11.2031,13.2969 C14.5938,13.2969 18.2969,12.4063 21.9063,10.5 C28.5,7 32.5,1.09375 32.5,-4 C32.5,-5.40625 32.2031,-6.79688 31.5,-8.09375"/>
<path class="Note" transform="matrix(0.992126,0,0,0.992126,970.341,161.22)" d="M31.5,-8.09375 C29.7031,-11.4063 25.9063,-13.2031 21.2969,-13.2031 C17.9063,-13.2031 14.2031,-12.2031 10.5938,-10.2969 C4,-6.79688 0,-0.90625 0,4.20313 C0,5.59375 0.296875,7 1,8.29688 C2.79688,11.5938 6.59375,13.2969 11.2031,13.2969 C14.5938,13.2969 18.2969,12.4063 21.9063,10.5 C28.5,7 32.5,1.09375 32.5,-4 C32.5,-5.40625 32.2031,-6.79688 31.5,-8.09375"/>
<path class="Note" transform="matrix(0.992126,0,0,0.992126,1046.47,186.024)" d="M31.5,-8.09375 C29.7031,-11.4063 25.9063,-13.2031 21.2969,-13.2031 C17.9063,-13.2031 14.2031,-12.2031 10.5938,-10.2969 C4,-6.79688 0,-0.90625 0,4.20313 C0,5.59375 0.296875,7 1,8.29688 C2.79688,11.5938 6.59375,13.2969 11.2031,13.2969 C14.5938,13.2969 18.2969,12.4063 21.9063,10.5 C28.5,7 32.5,1.09375 32.5,-4 C32.5,-5.40625 32.2031,-6.79688 31.5,-8.09375"/>
<path class="Note" transform="matrix(0.992126,0,0,0.992126,1122.6,161.22)" d="M31.5,-8.09375 C29.7031,-11.4063 25.9063,-13.2031 21.2969,-13.2031 C17.9063,-13.2031 14.2031,-12.2031 10.5938,-10.2969 C4,-6.79688 0,-0.90625 0,4.20313 C0,5.59375 0.296875,7 1,8.29688 C2.79688,11.5938 6.59375,13.2969 11.2031,13.2969 C14.5938,13.2969 18.2969,12.4063 21.9063,10.5 C28.5,7 32.5,1.09375 32.5,-4 C32.5,-5.40625 32.2031,-6.79688 31.5,-8.09375"/>
<path class="Clef" transform="matrix(0.992126,0,0,0.992126,19.8425,173.622)" d="M12.2969,-25.2031 L1.29688,-25.2031 C0.59375,-25.2031 0,-24.5938 0,-23.9063 L0,23.9063 C0,24.5938 0.59375,25.2031 1.29688,25.2031 L12.2969,25.2031 C13,25.2031 13.5938,24.5938 13.5938,23.9063 L13.5938,-23.9063 C13.5938,-24.5938 13,-25.2031 12.2969,-25.2031 M33.9063,-25.2031 L22.9063,-25.2031 C22.2031,-25.2031 21.5938,-24.5938 21.5938,-23.9063 L21.5938,23.9063 C21.5938,24.5938 22.2031,25.2031 22.9063,25.2031 L33.9063,25.2031 C34.6094,25.2031 35.2031,24.5938 35.2031,23.9063 L35.2031,-23.9063 C35.2031,-24.5938 34.6094,-25.2031 33.9063,-25.2031"/>
<path class="TimeSig" transform="matrix(0.992126,0,0,0.992126,78.378,149.315)" d="M24.7031,-4.79688 C18.5938,-4.79688 16.4063,-3 15,-1.5 C14.7031,-3.59375 14.5,-5.20313 14.5,-6.79688 C14.5,-8.40625 14.7031,-9.79688 15,-11.5938 C15.5938,-15.2969 18.0938,-19.9063 23.5,-19.9063 C26,-19.9063 27.5,-19.0938 28.5,-18 C26.4063,-17.0938 24.7031,-14.4063 24.7031,-12.0938 C24.7031,-8.5 27.5,-5.70313 31.1094,-5.70313 C34.7031,-5.70313 37.6094,-8.5 37.6094,-12.0938 L37.6094,-12.2969 L37.6094,-12.4063 C37.6094,-13.2969 37.4063,-14.7969 37,-15.5938 C35.7031,-19.2031 31.5,-24.5 21.5,-24.5 C12.5,-24.5 6,-15.9063 4,-11.2969 C3,-8.90625 1.5,-4 1.5,1.59375 C1.5,7.70313 3.20313,14.5938 9.09375,19.7969 C14.9063,24.2031 18.5938,24.4063 22.0938,24.4063 C25.6094,24.4063 38.7031,20.2969 38.7031,8.70313 C38.7031,-1.09375 31,-4.79688 24.7031,-4.79688 M21,20.2031 C17.7031,20.2031 15,15.7031 15,10.0938 C15,4.5 17.7031,-0.09375 21,-0.09375 C24.2969,-0.09375 27.1094,4.5 27.1094,10.0938 C27.1094,15.7031 24.2969,20.2031 21,20.2031"/>
<path class="TimeSig" transform="matrix(0.992126,0,0,0.992126,78.0834,197.991)" d="M32.375,-1.79688 C35.7188,-4.29688 38.0156,-7.48438 38.0156,-11.5 C38.0156,-18.7344 30.125,-24.5938 20.4063,-24.5938 C10.6719,-24.5938 2.78125,-18.7344 2.78125,-11.5 C2.78125,-7.48438 3.78125,-3.89063 8.51563,-0.9375 C3.95313,1.73438 1.5,5.40625 1.5,10.1719 C1.5,18.25 9.95313,24.7969 20.4063,24.7969 C30.8438,24.7969 39.2969,18.25 39.2969,10.1719 C39.2969,5.40625 37.5625,0.84375 32.375,-1.79688 M20.3906,19.1875 C14.0313,19.1875 8.5,15.7031 8.5,10.125 C8.5,3.42188 13.6719,1.8125 13.6719,1.8125 C20.4688,4.07813 30.2188,7.51563 30.2188,12.9688 C30.2188,15.7031 26.75,19.1875 20.3906,19.1875 M26.7813,-4.54688 C19.9688,-6.65625 12.4844,-9.95313 12.4844,-14.5 C12.4844,-18.4375 16.0938,-19.9844 20.3906,-19.9844 C26.5469,-19.9844 30.7969,-17.0938 30.7969,-12.5 C30.7969,-7.70313 28.5781,-5.42188 26.7813,-4.54688"/>
<path class="Articulation" transform="matrix(0.992126,0,0,0.992126,595.37,212.191)" d="M35.1094,10.4063 L1.79688,0.09375 C1.70313,0.09375 1.5,0 1.40625,0 C0.59375,0 0,0.59375 0,1.40625 L0,3.70313 C0,4.29688 0.5,4.79688 1,5 L22.4063,11.7031 L1,18.5 C0.5,18.7031 0,19.2031 0,19.7969 L0,22.0938 C0,22.9063 0.59375,23.5 1.40625,23.5 C1.5,23.5 1.70313,23.4063 1.79688,23.4063 L35.1094,13.0938 C35.6094,12.9063 36.1094,12.2969 36.1094,11.7031 C36.1094,11.0938 35.6094,10.5938 35.1094,10.4063"/>
<path class="Articulation" transform="matrix(0.992126,0,0,0.992126,1120.81,212.191)" d="M35.1094,10.4063 L1.79688,0.09375 C1.70313,0.09375 1.5,0 1.40625,0 C0.59375,0 0,0.59375 0,1.40625 L0,3.70313 C0,4.29688 0.5,4.79688 1,5 L22.4063,11.7031 L1,18.5 C0.5,18.7031 0,19.2031 0,19.7969 L0,22.0938 C0,22.9063 0.59375,23.5 1.40625,23.5 C1.5,23.5 1.70313,23.4063 1.79688,23.4063 L35.1094,13.0938 C35.6094,12.9063 36.1094,12.2969 36.1094,11.7031 C36.1094,11.0938 35.6094,10.5938 35.1094,10.4063"/>
<path class="Beam" fill-rule="evenodd" d="M187.333,119.675 L215.28,119.675 L215.28,128.356 L187.333,128.356 L187.333,119.675 "/>
<path class="Beam" fill-rule="evenodd" d="M187.333,132.697 L215.28,132.697 L215.28,141.378 L187.333,141.378 L187.333,132.697 "/>
<path class="Beam" fill-rule="evenodd" d="M249.749,74.4094 L629.393,74.4094 L629.393,86.811 L249.749,86.811 L249.749,74.4094 "/>
<path class="Beam" fill-rule="evenodd" d="M398.276,93.0118 L553.264,93.0118 L553.264,105.413 L398.276,105.413 L398.276,93.0118 "/>
<path class="Beam" fill-rule="evenodd" d="M335.86,125.876 L363.808,125.876 L363.808,134.557 L335.86,134.557 L335.86,125.876 "/>
<path class="Beam" fill-rule="evenodd" d="M335.86,138.898 L363.808,138.898 L363.808,147.579 L335.86,147.579 L335.86,138.898 "/>
<path class="Beam" fill-rule="evenodd" d="M712.776,94.872 L740.723,94.872 L740.723,103.553 L712.776,103.553 L712.776,94.872 "/>
<path class="Beam" fill-rule="evenodd" d="M712.776,107.894 L740.723,107.894 L740.723,116.575 L712.776,116.575 L712.776,107.894 "/>
<path class="Beam" fill-rule="evenodd" d="M775.192,74.4094 L1154.84,74.4094 L1154.84,86.811 L775.192,86.811 L775.192,74.4094 "/>
<path class="Beam" fill-rule="evenodd" d="M923.719,93.0118 L1078.71,93.0118 L1078.71,105.413 L923.719,105.413 L923.719,93.0118 "/>
<path class="Beam" fill-rule="evenodd" d="M861.303,101.073 L889.251,101.073 L889.251,109.754 L861.303,109.754 L861.303,101.073 "/>
<path class="Beam" fill-rule="evenodd" d="M861.303,114.094 L889.251,114.094 L889.251,122.776 L861.303,122.776 L861.303,114.094 "/>
<path class="Tuplet" d="M478.703,41.1663 C480.828,40.4945 481.671,40.1195 482.75,39.4007 C484.875,38.0101 486.171,35.5413 486.171,33.0101 C486.171,28.7445 482.75,25.8695 477.718,25.8695 C472.812,25.8695 468.671,28.9163 468.671,32.6195 C468.671,34.4632 469.796,35.7132 471.5,35.7132 C472.984,35.7132 474.078,34.6351 474.078,33.1507 C474.078,32.3851 473.843,31.8538 473.125,31.1351 C472.671,30.7288 472.5,30.4007 472.5,30.0882 C472.5,29.0101 474.75,27.8851 476.859,27.8851 C479.875,27.8851 481.671,29.557 481.671,32.3382 C481.671,36.3538 478.843,40.1195 475.828,40.1195 C475.687,40.1195 475.281,40.0882 474.796,40.0413 C473.484,39.9476 473.484,39.9476 473.218,39.9476 C472.218,39.9476 471.687,40.4007 471.687,41.2132 C471.687,41.932 472.187,42.3695 472.984,42.3695 C473.218,42.3695 473.531,42.3382 473.89,42.2913 C474.515,42.1507 475.203,42.1038 475.593,42.1038 C477.718,42.1038 479.156,43.9945 479.156,46.7913 C479.156,48.9476 478.656,51.0101 477.671,52.7288 C476.328,55.1507 474.25,56.3226 471.328,56.3226 C468.812,56.3226 466.64,55.0726 466.64,53.6195 C466.64,53.1351 466.828,52.9476 467.546,52.6351 C468.843,52.057 469.39,51.2445 469.39,50.0257 C469.39,48.4476 468.125,47.2445 466.515,47.2445 C464.578,47.2445 463.312,48.7601 463.312,51.1038 C463.312,55.4788 466.64,58.2132 472.046,58.2132 C478.843,58.2132 484.015,53.6663 484.015,47.6351 C484.015,46.0257 483.515,44.6195 482.578,43.4945 C481.578,42.3382 480.687,41.7913 478.703,41.1663"/>
<path class="Tuplet" d="M1004.15,41.1663 C1006.27,40.4945 1007.11,40.1195 1008.19,39.4007 C1010.32,38.0101 1011.61,35.5413 1011.61,33.0101 C1011.61,28.7445 1008.19,25.8695 1003.16,25.8695 C998.255,25.8695 994.114,28.9163 994.114,32.6195 C994.114,34.4632 995.239,35.7132 996.943,35.7132 C998.427,35.7132 999.521,34.6351 999.521,33.1507 C999.521,32.3851 999.286,31.8538 998.568,31.1351 C998.114,30.7288 997.943,30.4007 997.943,30.0882 C997.943,29.0101 1000.19,27.8851 1002.3,27.8851 C1005.32,27.8851 1007.11,29.557 1007.11,32.3382 C1007.11,36.3538 1004.29,40.1195 1001.27,40.1195 C1001.13,40.1195 1000.72,40.0882 1000.24,40.0413 C998.927,39.9476 998.927,39.9476 998.661,39.9476 C997.661,39.9476 997.13,40.4007 997.13,41.2132 C997.13,41.932 997.63,42.3695 998.427,42.3695 C998.661,42.3695 998.974,42.3382 999.333,42.2913 C999.958,42.1507 1000.65,42.1038 1001.04,42.1038 C1003.16,42.1038 1004.6,43.9945 1004.6,46.7913 C1004.6,48.9476 1004.1,51.0101 1003.11,52.7288 C1001.77,55.1507 999.693,56.3226 996.771,56.3226 C994.255,56.3226 992.083,55.0726 992.083,53.6195 C992.083,53.1351 992.271,52.9476 992.989,52.6351 C994.286,52.057 994.833,51.2445 994.833,50.0257 C994.833,48.4476 993.568,47.2445 991.958,47.2445 C990.021,47.2445 988.755,48.7601 988.755,51.1038 C988.755,55.4788 992.083,58.2132 997.489,58.2132 C1004.29,58.2132 1009.46,53.6663 1009.46,47.6351 C1009.46,46.0257 1008.96,44.6195 1008.02,43.4945 C1007.02,42.3382 1006.13,41.7913 1004.15,41.1663"/>
</svg>
