<?xml version="1.0" encoding="UTF-8" standalone="no"?>
<svg width="1275.59px" height="283.465px" viewBox="0 0 1275.59 283.465"
 xmlns="http://www.w3.org/2000/svg" xmlns:xlink="http://www.w3.org/1999/xlink" version="1.2" baseProfile="tiny">
<title>drum_rudiments (3)</title>
<desc>Generated by MuseScore 3.6.2</desc>
<polyline class="StaffLines" fill="none" stroke="#000000" stroke-width="2.73" stroke-linejoin="bevel" points="0,173.622 1275.59,173.622"/>
<path class="MeasureNumber" d="M14.5938,59.8469 C16.4844,59.2532 17.2344,58.9251 18.2031,58.2844 C20.0781,57.0501 21.2344,54.8469 21.2344,52.6126 C21.2344,48.8157 18.2031,46.2532 13.7188,46.2532 C9.35938,46.2532 5.67188,48.9719 5.67188,52.2532 C5.67188,53.8938 6.67188,55.0188 8.20313,55.0188 C9.51563,55.0188 10.4844,54.0501 10.4844,52.7376 C10.4844,52.0501 10.2813,51.5657 9.64063,50.9407 C9.23438,50.5657 9.07813,50.3001 9.07813,50.0188 C9.07813,49.0501 11.0781,48.0501 12.9531,48.0501 C15.6406,48.0501 17.2344,49.5344 17.2344,52.0188 C17.2344,55.5657 14.7188,58.9251 12.0313,58.9251 C11.9219,58.9251 11.5625,58.8938 11.125,58.8469 C9.95313,58.7688 9.95313,58.7688 9.71875,58.7688 C8.84375,58.7688 8.35938,59.1751 8.35938,59.8938 C8.35938,60.5344 8.79688,60.9251 9.51563,60.9251 C9.71875,60.9251 10,60.8938 10.3125,60.8469 C10.875,60.7376 11.4844,60.6907 11.8438,60.6907 C13.7188,60.6907 15,62.3782 15,64.8469 C15,66.7688 14.5625,68.6126 13.6719,70.1282 C12.4844,72.2844 10.6406,73.3313 8.03125,73.3313 C5.79688,73.3313 3.875,72.2063 3.875,70.9251 C3.875,70.4876 4.04688,70.3313 4.67188,70.0501 C5.84375,69.5344 6.3125,68.8157 6.3125,67.7376 C6.3125,66.3313 5.20313,65.2532 3.76563,65.2532 C2.04688,65.2532 0.921875,66.6126 0.921875,68.6907 C0.921875,72.5657 3.875,75.0032 8.67188,75.0032 C14.7188,75.0032 19.3125,70.9719 19.3125,65.6126 C19.3125,64.1751 18.875,62.9251 18.0313,61.9251 C17.1563,60.8938 16.3594,60.4094 14.5938,59.8469"/>
<polyline class="BarLine" fill="none" stroke="#000000" stroke-width="4.46" stroke-linejoin="bevel" points="1273.36,122.652 1273.36,224.593"/>
<polyline class="Stem" fill="none" stroke="#000000" stroke-width="2.73" stroke-linejoin="bevel" points="147.641,158.046 147.641,80.6102"/>
<polyline class="Stem" fill="none" stroke="#000000" stroke-width="2.73" stroke-linejoin="bevel" points="215.139,182.849 215.139,80.6102"/>
<polyline class="Stem" fill="none" stroke="#000000" stroke-width="2.73" stroke-linejoin="bevel" points="282.638,158.046 282.638,80.6102"/>
<polyline class="Stem" fill="none" stroke="#000000" stroke-width="2.73" stroke-linejoin="bevel" points="350.137,182.849 350.137,80.6102"/>
<polyline class="Stem" fill="none" stroke="#000000" stroke-width="2.73" stroke-linejoin="bevel" points="417.635,158.046 417.635,80.6102"/>
<polyline class="Stem" fill="none" stroke="#000000" stroke-width="2.73" stroke-linejoin="bevel" points="485.134,182.849 485.134,80.6102"/>
<polyline class="Stem" fill="none" stroke="#000000" stroke-width="2.73" stroke-linejoin="bevel" points="552.633,158.046 552.633,99.2126"/>
<polyline class="Stem" fill="none" stroke="#000000" stroke-width="2.73" stroke-linejoin="bevel" points="724.82,158.046 724.82,80.6102"/>
<polyline class="Stem" fill="none" stroke="#000000" stroke-width="2.73" stroke-linejoin="bevel" points="792.319,182.849 792.319,80.6102"/>
<polyline class="Stem" fill="none" stroke="#000000" stroke-width="2.73" stroke-linejoin="bevel" points="859.817,158.046 859.817,80.6102"/>
<polyline class="Stem" fill="none" stroke="#000000" stroke-width="2.73" stroke-linejoin="bevel" points="927.316,182.849 927.316,80.6102"/>
<polyline class="Stem" fill="none" stroke="#000000" stroke-width="2.73" stroke-linejoin="bevel" points="994.814,158.046 994.814,80.6102"/>
<polyline class="Stem" fill="none" stroke="#000000" stroke-width="2.73" stroke-linejoin="bevel" points="1062.31,182.849 1062.31,80.6102"/>
<polyline class="Stem" fill="none" stroke="#000000" stroke-width="2.73" stroke-linejoin="bevel" points="1129.81,158.046 1129.81,99.2126"/>
<path class="Note" transform="matrix(0.992126,0,0,0.992126,116.769,161.22)" d="M31.5,-8.09375 C29.7031,-11.4063 25.9063,-13.2031 21.2969,-13.2031 C17.9063,-13.2031 14.2031,-12.2031 10.5938,-10.2969 C4,-6.79688 0,-0.90625 0,4.20313 C0,5.59375 0.296875,7 1,8.29688 C2.79688,11.5938 6.59375,13.2969 11.2031,13.2969 C14.5938,13.2969 18.2969,12.4063 21.9063,10.5 C28.5,7 32.5,1.09375 32.5,-4 C32.5,-5.40625 32.2031,-6.79688 31.5,-8.09375"/>
<path class="Note" transform="matrix(0.992126,0,0,0.992126,184.267,186.024)" d="M31.5,-8.09375 C29.7031,-11.4063 25.9063,-13.2031 21.2969,-13.2031 C17.9063,-13.2031 14.2031,-12.2031 10.5938,-10.2969 C4,-6.79688 0,-0.90625 0,4.20313 C0,5.59375 0.296875,7 1,8.29688 C2.79688,11.5938 6.59375,13.2969 11.2031,13.2969 C14.5938,13.2969 18.2969,12.4063 21.9063,10.5 C28.5,7 32.5,1.09375 32.5,-4 C32.5,-5.40625 32.2031,-6.79688 31.5,-8.09375"/>
<path class="Note" transform="matrix(0.992126,0,0,0.992126,251.766,161.22)" d="M31.5,-8.09375 C29.7031,-11.4063 25.9063,-13.2031 21.2969,-13.2031 C17.9063,-13.2031 14.2031,-12.2031 10.5938,-10.2969 C4,-6.79688 0,-0.90625 0,4.20313 C0,5.59375 0.296875,7 1,8.29688 C2.79688,11.5938 6.59375,13.2969 11.2031,13.2969 C14.5938,13.2969 18.2969,12.4063 21.9063,10.5 C28.5,7 32.5,1.09375 32.5,-4 C32.5,-5.40625 32.2031,-6.79688 31.5,-8.09375"/>
<path class="Note" transform="matrix(0.992126,0,0,0.992126,319.264,186.024)" d="M31.5,-8.09375 C29.7031,-11.4063 25.9063,-13.2031 21.2969,-13.2031 C17.9063,-13.2031 14.2031,-12.2031 10.5938,-10.2969 C4,-6.79688 0,-0.90625 0,4.20313 C0,5.59375 0.296875,7 1,8.29688 C2.79688,11.5938 6.59375,13.2969 11.2031,13.2969 C14.5938,13.2969 18.2969,12.4063 21.9063,10.5 C28.5,7 32.5,1.09375 32.5,-4 C32.5,-5.40625 32.2031,-6.79688 31.5,-8.09375"/>
<path class="Note" transform="matrix(0.992126,0,0,0.992126,386.763,161.22)" d="M31.5,-8.09375 C29.7031,-11.4063 25.9063,-13.2031 21.2969,-13.2031 C17.9063,-13.2031 14.2031,-12.2031 10.5938,-10.2969 C4,-6.79688 0,-0.90625 0,4.20313 C0,5.59375 0.296875,7 1,8.29688 C2.79688,11.5938 6.59375,13.2969 11.2031,13.2969 C14.5938,13.2969 18.2969,12.4063 21.9063,10.5 C28.5,7 32.5,1.09375 32.5,-4 C32.5,-5.40625 32.2031,-6.79688 31.5,-8.09375"/>
<path class="Note" transform="matrix(0.992126,0,0,0.992126,454.262,186.024)" d="M31.5,-8.09375 C29.7031,-11.4063 25.9063,-13.2031 21.2969,-13.2031 C17.9063,-13.2031 14.2031,-12.2031 10.5938,-10.2969 C4,-6.79688 0,-0.90625 0,4.20313 C0,5.59375 0.296875,7 1,8.29688 C2.79688,11.5938 6.59375,13.2969 11.2031,13.2969 C14.5938,13.2969 18.2969,12.4063 21.9063,10.5 C28.5,7 32.5,1.09375 32.5,-4 C32.5,-5.40625 32.2031,-6.79688 31.5,-8.09375"/>
<path class="Note" transform="matrix(0.992126,0,0,0.992126,521.76,161.22)" d="M31.5,-8.09375 C29.7031,-11.4063 25.9063,-13.2031 21.2969,-13.2031 C17.9063,-13.2031 14.2031,-12.2031 10.5938,-10.2969 C4,-6.79688 0,-0.90625 0,4.20313 C0,5.59375 0.296875,7 1,8.29688 C2.79688,11.5938 6.59375,13.2969 11.2031,13.2969 C14.5938,13.2969 18.2969,12.4063 21.9063,10.5 C28.5,7 32.5,1.09375 32.5,-4 C32.5,-5.40625 32.2031,-6.79688 31.5,-8.09375"/>
<path class="Note" transform="matrix(0.992126,0,0,0.992126,693.948,161.22)" d="M31.5,-8.09375 C29.7031,-11.4063 25.9063,-13.2031 21.2969,-13.2031 C17.9063,-13.2031 14.2031,-12.2031 10.5938,-10.2969 C4,-6.79688 0,-0.90625 0,4.20313 C0,5.59375 0.296875,7 1,8.29688 C2.79688,11.5938 6.59375,13.2969 11.2031,13.2969 C14.5938,13.2969 18.2969,12.4063 21.9063,10.5 C28.5,7 32.5,1.09375 32.5,-4 C32.5,-5.40625 32.2031,-6.79688 31.5,-8.09375"/>
<path class="Note" transform="matrix(0.992126,0,0,0.992126,761.446,186.024)" d="M31.5,-8.09375 C29.7031,-11.4063 25.9063,-13.2031 21.2969,-13.2031 C17.9063,-13.2031 14.2031,-12.2031 10.5938,-10.2969 C4,-6.79688 0,-0.90625 0,4.20313 C0,5.59375 0.296875,7 1,8.29688 C2.79688,11.5938 6.59375,13.2969 11.2031,13.2969 C14.5938,13.2969 18.2969,12.4063 21.9063,10.5 C28.5,7 32.5,1.09375 32.5,-4 C32.5,-5.40625 32.2031,-6.79688 31.5,-8.09375"/>
<path class="Note" transform="matrix(0.992126,0,0,0.992126,828.945,161.22)" d="M31.5,-8.09375 C29.7031,-11.4063 25.9063,-13.2031 21.2969,-13.2031 C17.9063,-13.2031 14.2031,-12.2031 10.5938,-10.2969 C4,-6.79688 0,-0.90625 0,4.20313 C0,5.59375 0.296875,7 1,8.29688 C2.79688,11.5938 6.59375,13.2969 11.2031,13.2969 C14.5938,13.2969 18.2969,12.4063 21.9063,10.5 C28.5,7 32.5,1.09375 32.5,-4 C32.5,-5.40625 32.2031,-6.79688 31.5,-8.09375"/>
<path class="Note" transform="matrix(0.992126,0,0,0.992126,896.444,186.024)" d="M31.5,-8.09375 C29.7031,-11.4063 25.9063,-13.2031 21.2969,-13.2031 C17.9063,-13.2031 14.2031,-12.2031 10.5938,-10.2969 C4,-6.79688 0,-0.90625 0,4.20313 C0,5.59375 0.296875,7 1,8.29688 C2.79688,11.5938 6.59375,13.2969 11.2031,13.2969 C14.5938,13.2969 18.2969,12.4063 21.9063,10.5 C28.5,7 32.5,1.09375 32.5,-4 C32.5,-5.40625 32.2031,-6.79688 31.5,-8.09375"/>
<path class="Note" transform="matrix(0.992126,0,0,0.992126,963.942,161.22)" d="M31.5,-8.09375 C29.7031,-11.4063 25.9063,-13.2031 21.2969,-13.2031 C17.9063,-13.2031 14.2031,-12.2031 10.5938,-10.2969 C4,-6.79688 0,-0.90625 0,4.20313 C0,5.59375 0.296875,7 1,8.29688 C2.79688,11.5938 6.59375,13.2969 11.2031,13.2969 C14.5938,13.2969 18.2969,12.4063 21.9063,10.5 C28.5,7 32.5,1.09375 32.5,-4 C32.5,-5.40625 32.2031,-6.79688 31.5,-8.09375"/>
<path class="Note" transform="matrix(0.992126,0,0,0.992126,1031.44,186.024)" d="M31.5,-8.09375 C29.7031,-11.4063 25.9063,-13.2031 21.2969,-13.2031 C17.9063,-13.2031 14.2031,-12.2031 10.5938,-10.2969 C4,-6.79688 0,-0.90625 0,4.20313 C0,5.59375 0.296875,7 1,8.29688 C2.79688,11.5938 6.59375,13.2969 11.2031,13.2969 C14.5938,13.2969 18.2969,12.4063 21.9063,10.5 C28.5,7 32.5,1.09375 32.5,-4 C32.5,-5.40625 32.2031,-6.79688 31.5,-8.09375"/>
<path class="Note" transform="matrix(0.992126,0,0,0.992126,1098.94,161.22)" d="M31.5,-8.09375 C29.7031,-11.4063 25.9063,-13.2031 21.2969,-13.2031 C17.9063,-13.2031 14.2031,-12.2031 10.5938,-10.2969 C4,-6.79688 0,-0.90625 0,4.20313 C0,5.59375 0.296875,7 1,8.29688 C2.79688,11.5938 6.59375,13.2969 11.2031,13.2969 C14.5938,13.2969 18.2969,12.4063 21.9063,10.5 C28.5,7 32.5,1.09375 32.5,-4 C32.5,-5.40625 32.2031,-6.79688 31.5,-8.09375"/>
<path class="Clef" transform="matrix(0.992126,0,0,0.992126,19.8425,173.622)" d="M12.2969,-25.2031 L1.29688,-25.2031 C0.59375,-25.2031 0,-24.5938 0,-23.9063 L0,23.9063 C0,24.5938 0.59375,25.2031 1.29688,25.2031 L12.2969,25.2031 C13,25.2031 13.5938,24.5938 13.5938,23.9063 L13.5938,-23.9063 C13.5938,-24.5938 13,-25.2031 12.2969,-25.2031 M33.9063,-25.2031 L22.9063,-25.2031 C22.2031,-25.2031 21.5938,-24.5938 21.5938,-23.9063 L21.5938,23.9063 C21.5938,24.5938 22.2031,25.2031 22.9063,25.2031 L33.9063,25.2031 C34.6094,25.2031 35.2031,24.5938 35.2031,23.9063 L35.2031,-23.9063 C35.2031,-24.5938 34.6094,-25.2031 33.9063,-25.2031"/>
<path class="Beam" fill-rule="evenodd" d="M146.277,74.4094 L486.498,74.4094 L486.498,86.811 L146.277,86.811 L146.277,74.4094 "/>
<path class="Beam" fill-rule="evenodd" d="M146.277,93.0118 L284.002,93.0118 L284.002,105.413 L146.277,105.413 L146.277,93.0118 "/>
<path class="Beam" fill-rule="evenodd" d="M348.772,93.0118 L486.498,93.0118 L486.498,105.413 L348.772,105.413 L348.772,93.0118 "/>
<path class="Beam" fill-rule="evenodd" d="M723.456,74.4094 L1063.68,74.4094 L1063.68,86.811 L723.456,86.811 L723.456,74.4094 "/>
<path class="Beam" fill-rule="evenodd" d="M723.456,93.0118 L861.181,93.0118 L861.181,105.413 L723.456,105.413 L723.456,93.0118 "/>
<path class="Beam" fill-rule="evenodd" d="M925.952,93.0118 L1063.68,93.0118 L1063.68,105.413 L925.952,105.413 L925.952,93.0118 "/>
<path class="Tuplet" d="M218.072,41.1663 C220.197,40.4945 221.041,40.1195 222.119,39.4007 C224.244,38.0101 225.541,35.5413 225.541,33.0101 C225.541,28.7445 222.119,25.8695 217.088,25.8695 C212.181,25.8695 208.041,28.9163 208.041,32.6195 C208.041,34.4632 209.166,35.7132 210.869,35.7132 C212.353,35.7132 213.447,34.6351 213.447,33.1507 C213.447,32.3851 213.213,31.8538 212.494,31.1351 C212.041,30.7288 211.869,30.4007 211.869,30.0882 C211.869,29.0101 214.119,27.8851 216.228,27.8851 C219.244,27.8851 221.041,29.557 221.041,32.3382 C221.041,36.3538 218.213,40.1195 215.197,40.1195 C215.056,40.1195 214.65,40.0882 214.166,40.0413 C212.853,39.9476 212.853,39.9476 212.588,39.9476 C211.588,39.9476 211.056,40.4007 211.056,41.2132 C211.056,41.932 211.556,42.3695 212.353,42.3695 C212.588,42.3695 212.9,42.3382 213.26,42.2913 C213.885,42.1507 214.572,42.1038 214.963,42.1038 C217.088,42.1038 218.525,43.9945 218.525,46.7913 C218.525,48.9476 218.025,51.0101 217.041,52.7288 C215.697,55.1507 213.619,56.3226 210.697,56.3226 C208.181,56.3226 206.01,55.0726 206.01,53.6195 C206.01,53.1351 206.197,52.9476 206.916,52.6351 C208.213,52.057 208.76,51.2445 208.76,50.0257 C208.76,48.4476 207.494,47.2445 205.885,47.2445 C203.947,47.2445 202.681,48.7601 202.681,51.1038 C202.681,55.4788 206.01,58.2132 211.416,58.2132 C218.213,58.2132 223.385,53.6663 223.385,47.6351 C223.385,46.0257 222.885,44.6195 221.947,43.4945 C220.947,42.3382 220.056,41.7913 218.072,41.1663"/>
<path class="Tuplet" d="M420.568,41.1663 C422.693,40.4945 423.537,40.1195 424.615,39.4007 C426.74,38.0101 428.037,35.5413 428.037,33.0101 C428.037,28.7445 424.615,25.8695 419.584,25.8695 C414.677,25.8695 410.537,28.9163 410.537,32.6195 C410.537,34.4632 411.662,35.7132 413.365,35.7132 C414.849,35.7132 415.943,34.6351 415.943,33.1507 C415.943,32.3851 415.709,31.8538 414.99,31.1351 C414.537,30.7288 414.365,30.4007 414.365,30.0882 C414.365,29.0101 416.615,27.8851 418.724,27.8851 C421.74,27.8851 423.537,29.557 423.537,32.3382 C423.537,36.3538 420.709,40.1195 417.693,40.1195 C417.552,40.1195 417.146,40.0882 416.662,40.0413 C415.349,39.9476 415.349,39.9476 415.084,39.9476 C414.084,39.9476 413.552,40.4007 413.552,41.2132 C413.552,41.932 414.052,42.3695 414.849,42.3695 C415.084,42.3695 415.396,42.3382 415.755,42.2913 C416.38,42.1507 417.068,42.1038 417.459,42.1038 C419.584,42.1038 421.021,43.9945 421.021,46.7913 C421.021,48.9476 420.521,51.0101 419.537,52.7288 C418.193,55.1507 416.115,56.3226 413.193,56.3226 C410.677,56.3226 408.505,55.0726 408.505,53.6195 C408.505,53.1351 408.693,52.9476 409.412,52.6351 C410.709,52.057 411.255,51.2445 411.255,50.0257 C411.255,48.4476 409.99,47.2445 408.38,47.2445 C406.443,47.2445 405.177,48.7601 405.177,51.1038 C405.177,55.4788 408.505,58.2132 413.912,58.2132 C420.709,58.2132 425.88,53.6663 425.88,47.6351 C425.88,46.0257 425.38,44.6195 424.443,43.4945 C423.443,42.3382 422.552,41.7913 420.568,41.1663"/>
<path class="Tuplet" d="M795.251,41.1663 C797.376,40.4945 798.22,40.1195 799.298,39.4007 C801.423,38.0101 802.72,35.5413 802.72,33.0101 C802.72,28.7445 799.298,25.8695 794.267,25.8695 C789.361,25.8695 785.22,28.9163 785.22,32.6195 C785.22,34.4632 786.345,35.7132 788.048,35.7132 C789.533,35.7132 790.626,34.6351 790.626,33.1507 C790.626,32.3851 790.392,31.8538 789.673,31.1351 C789.22,30.7288 789.048,30.4007 789.048,30.0882 C789.048,29.0101 791.298,27.8851 793.408,27.8851 C796.423,27.8851 798.22,29.557 798.22,32.3382 C798.22,36.3538 795.392,40.1195 792.376,40.1195 C792.236,40.1195 791.829,40.0882 791.345,40.0413 C790.033,39.9476 790.033,39.9476 789.767,39.9476 C788.767,39.9476 788.236,40.4007 788.236,41.2132 C788.236,41.932 788.736,42.3695 789.533,42.3695 C789.767,42.3695 790.079,42.3382 790.439,42.2913 C791.064,42.1507 791.751,42.1038 792.142,42.1038 C794.267,42.1038 795.704,43.9945 795.704,46.7913 C795.704,48.9476 795.204,51.0101 794.22,52.7288 C792.876,55.1507 790.798,56.3226 787.876,56.3226 C785.361,56.3226 783.189,55.0726 783.189,53.6195 C783.189,53.1351 783.376,52.9476 784.095,52.6351 C785.392,52.057 785.939,51.2445 785.939,50.0257 C785.939,48.4476 784.673,47.2445 783.064,47.2445 C781.126,47.2445 779.861,48.7601 779.861,51.1038 C779.861,55.4788 783.189,58.2132 788.595,58.2132 C795.392,58.2132 800.564,53.6663 800.564,47.6351 C800.564,46.0257 800.064,44.6195 799.126,43.4945 C798.126,42.3382 797.236,41.7913 795.251,41.1663"/>
<path class="Tuplet" d="M997.747,41.1663 C999.872,40.4945 1000.72,40.1195 1001.79,39.4007 C1003.92,38.0101 1005.22,35.5413 1005.22,33.0101 C1005.22,28.7445 1001.79,25.8695 996.763,25.8695 C991.857,25.8695 987.716,28.9163 987.716,32.6195 C987.716,34.4632 988.841,35.7132 990.544,35.7132 C992.028,35.7132 993.122,34.6351 993.122,33.1507 C993.122,32.3851 992.888,31.8538 992.169,31.1351 C991.716,30.7288 991.544,30.4007 991.544,30.0882 C991.544,29.0101 993.794,27.8851 995.903,27.8851 C998.919,27.8851 1000.72,29.557 1000.72,32.3382 C1000.72,36.3538 997.888,40.1195 994.872,40.1195 C994.732,40.1195 994.325,40.0882 993.841,40.0413 C992.528,39.9476 992.528,39.9476 992.263,39.9476 C991.263,39.9476 990.732,40.4007 990.732,41.2132 C990.732,41.932 991.232,42.3695 992.028,42.3695 C992.263,42.3695 992.575,42.3382 992.935,42.2913 C993.56,42.1507 994.247,42.1038 994.638,42.1038 C996.763,42.1038 998.2,43.9945 998.2,46.7913 C998.2,48.9476 997.7,51.0101 996.716,52.7288 C995.372,55.1507 993.294,56.3226 990.372,56.3226 C987.857,56.3226 985.685,55.0726 985.685,53.6195 C985.685,53.1351 985.872,52.9476 986.591,52.6351 C987.888,52.057 988.435,51.2445 988.435,50.0257 C988.435,48.4476 987.169,47.2445 985.56,47.2445 C983.622,47.2445 982.357,48.7601 982.357,51.1038 C982.357,55.4788 985.685,58.2132 991.091,58.2132 C997.888,58.2132 1003.06,53.6663 1003.06,47.6351 C1003.06,46.0257 1002.56,44.6195 1001.62,43.4945 C1000.62,42.3382 999.732,41.7913 997.747,41.1663"/>
</svg>
