<?xml version="1.0" encoding="UTF-8" standalone="no"?>
<svg width="1275.59px" height="283.465px" viewBox="0 0 1275.59 283.465"
 xmlns="http://www.w3.org/2000/svg" xmlns:xlink="http://www.w3.org/1999/xlink" version="1.2" baseProfile="tiny">
<title>drum_rudiments (16)</title>
<desc>Generated by MuseScore 3.6.2</desc>
<polyline class="StaffLines" fill="none" stroke="#000000" stroke-width="2.73" stroke-linejoin="bevel" points="0,173.622 1275.59,173.622"/>
<path class="MeasureNumber" d="M17.3594,46.0969 L16.2031,46.0969 C14,47.7376 9.76563,49.1282 6.875,49.1282 L6.40625,50.8938 L9.15625,50.8938 C11.5938,50.8938 11.875,50.9719 11.875,51.6907 C11.875,52.0501 11.875,52.0501 11.4844,53.4876 L7.20313,69.4876 C6.67188,71.4876 6.64063,71.6126 6.28125,71.9719 C5.875,72.3626 5.03125,72.4876 2.92188,72.5344 L1.20313,72.5344 L1,74.4094 L15.7969,74.4094 L16.0313,72.5344 L13.875,72.5344 C11.2813,72.5344 10.7188,72.3313 10.7188,71.4563 C10.7188,71.1751 10.875,70.2532 11.0781,69.4876 L17.3594,46.0969 M27.5469,61.0188 C28.2344,57.4876 29.0313,55.3001 30.5469,52.6126 C32.3594,49.4563 34.5156,47.8469 36.9063,47.8469 C38.1563,47.8469 38.9063,48.3313 38.9063,49.0969 C38.9063,49.3782 38.8281,49.5344 38.5469,50.0501 C38.1875,50.7376 38.0313,51.2063 38.0313,51.8157 C38.0313,53.0969 38.9844,53.9719 40.3438,53.9719 C41.9844,53.9719 43.1094,52.7688 43.1094,50.9719 C43.1094,48.2532 40.5469,46.2532 36.9844,46.2532 C33.2344,46.2532 29.875,48.2532 27.1563,52.0969 C24.3594,56.0501 22.6719,61.1282 22.6719,65.5657 C22.6719,71.4563 25.5938,75.0032 30.4688,75.0032 C33.4688,75.0032 36.1563,73.8157 38.0781,71.6907 C39.8281,69.6907 40.9063,66.8157 40.9063,64.1751 C40.9063,60.0969 38.1563,57.2532 34.1563,57.2532 C31.3594,57.2532 29.1875,58.4563 27.5469,61.0188 M32.875,59.5657 C35.3594,59.5657 36.7188,61.2844 36.7188,64.4094 C36.7188,69.4876 34.0313,73.3626 30.4688,73.3626 C27.9063,73.3626 26.3906,71.4876 26.3906,68.2844 C26.3906,63.2844 29.1563,59.5657 32.875,59.5657"/>
<polyline class="BarLine" fill="none" stroke="#000000" stroke-width="4.46" stroke-linejoin="bevel" points="1273.36,122.652 1273.36,224.593"/>
<polyline class="Stem" fill="none" stroke="#000000" stroke-width="2.73" stroke-linejoin="bevel" points="147.641,158.046 147.641,80.6102"/>
<polyline class="Stem" fill="none" stroke="#000000" stroke-width="2.73" stroke-linejoin="bevel" points="219.788,182.849 219.788,80.6102"/>
<polyline class="Stem" fill="none" stroke="#000000" stroke-width="2.73" stroke-linejoin="bevel" points="291.936,158.046 291.936,80.6102"/>
<polyline class="Stem" fill="none" stroke="#000000" stroke-width="2.73" stroke-linejoin="bevel" points="364.083,158.046 364.083,80.6102"/>
<polyline class="Stem" fill="none" stroke="#000000" stroke-width="2.73" stroke-linejoin="bevel" points="436.23,182.849 436.23,80.6102"/>
<polyline class="Stem" fill="none" stroke="#000000" stroke-width="2.73" stroke-linejoin="bevel" points="508.378,158.046 508.378,80.6102"/>
<polyline class="Stem" fill="none" stroke="#000000" stroke-width="2.73" stroke-linejoin="bevel" points="580.525,182.849 580.525,80.6102"/>
<polyline class="Stem" fill="none" stroke="#000000" stroke-width="2.73" stroke-linejoin="bevel" points="652.673,182.849 652.673,80.6102"/>
<polyline class="Stem" fill="none" stroke="#000000" stroke-width="2.73" stroke-linejoin="bevel" points="724.82,158.046 724.82,80.6102"/>
<polyline class="Stem" fill="none" stroke="#000000" stroke-width="2.73" stroke-linejoin="bevel" points="796.967,182.849 796.967,80.6102"/>
<polyline class="Stem" fill="none" stroke="#000000" stroke-width="2.73" stroke-linejoin="bevel" points="869.115,158.046 869.115,80.6102"/>
<polyline class="Stem" fill="none" stroke="#000000" stroke-width="2.73" stroke-linejoin="bevel" points="941.262,158.046 941.262,80.6102"/>
<polyline class="Stem" fill="none" stroke="#000000" stroke-width="2.73" stroke-linejoin="bevel" points="1013.41,182.849 1013.41,80.6102"/>
<polyline class="Stem" fill="none" stroke="#000000" stroke-width="2.73" stroke-linejoin="bevel" points="1085.56,158.046 1085.56,80.6102"/>
<polyline class="Stem" fill="none" stroke="#000000" stroke-width="2.73" stroke-linejoin="bevel" points="1157.7,182.849 1157.7,80.6102"/>
<polyline class="Stem" fill="none" stroke="#000000" stroke-width="2.73" stroke-linejoin="bevel" points="1229.85,182.849 1229.85,80.6102"/>
<path class="Note" transform="matrix(0.992126,0,0,0.992126,116.769,161.22)" d="M31.5,-8.09375 C29.7031,-11.4063 25.9063,-13.2031 21.2969,-13.2031 C17.9063,-13.2031 14.2031,-12.2031 10.5938,-10.2969 C4,-6.79688 0,-0.90625 0,4.20313 C0,5.59375 0.296875,7 1,8.29688 C2.79688,11.5938 6.59375,13.2969 11.2031,13.2969 C14.5938,13.2969 18.2969,12.4063 21.9063,10.5 C28.5,7 32.5,1.09375 32.5,-4 C32.5,-5.40625 32.2031,-6.79688 31.5,-8.09375"/>
<path class="Note" transform="matrix(0.992126,0,0,0.992126,188.916,186.024)" d="M31.5,-8.09375 C29.7031,-11.4063 25.9063,-13.2031 21.2969,-13.2031 C17.9063,-13.2031 14.2031,-12.2031 10.5938,-10.2969 C4,-6.79688 0,-0.90625 0,4.20313 C0,5.59375 0.296875,7 1,8.29688 C2.79688,11.5938 6.59375,13.2969 11.2031,13.2969 C14.5938,13.2969 18.2969,12.4063 21.9063,10.5 C28.5,7 32.5,1.09375 32.5,-4 C32.5,-5.40625 32.2031,-6.79688 31.5,-8.09375"/>
<path class="Note" transform="matrix(0.992126,0,0,0.992126,261.063,161.22)" d="M31.5,-8.09375 C29.7031,-11.4063 25.9063,-13.2031 21.2969,-13.2031 C17.9063,-13.2031 14.2031,-12.2031 10.5938,-10.2969 C4,-6.79688 0,-0.90625 0,4.20313 C0,5.59375 0.296875,7 1,8.29688 C2.79688,11.5938 6.59375,13.2969 11.2031,13.2969 C14.5938,13.2969 18.2969,12.4063 21.9063,10.5 C28.5,7 32.5,1.09375 32.5,-4 C32.5,-5.40625 32.2031,-6.79688 31.5,-8.09375"/>
<path class="Note" transform="matrix(0.992126,0,0,0.992126,333.211,161.22)" d="M31.5,-8.09375 C29.7031,-11.4063 25.9063,-13.2031 21.2969,-13.2031 C17.9063,-13.2031 14.2031,-12.2031 10.5938,-10.2969 C4,-6.79688 0,-0.90625 0,4.20313 C0,5.59375 0.296875,7 1,8.29688 C2.79688,11.5938 6.59375,13.2969 11.2031,13.2969 C14.5938,13.2969 18.2969,12.4063 21.9063,10.5 C28.5,7 32.5,1.09375 32.5,-4 C32.5,-5.40625 32.2031,-6.79688 31.5,-8.09375"/>
<path class="Note" transform="matrix(0.992126,0,0,0.992126,405.358,186.024)" d="M31.5,-8.09375 C29.7031,-11.4063 25.9063,-13.2031 21.2969,-13.2031 C17.9063,-13.2031 14.2031,-12.2031 10.5938,-10.2969 C4,-6.79688 0,-0.90625 0,4.20313 C0,5.59375 0.296875,7 1,8.29688 C2.79688,11.5938 6.59375,13.2969 11.2031,13.2969 C14.5938,13.2969 18.2969,12.4063 21.9063,10.5 C28.5,7 32.5,1.09375 32.5,-4 C32.5,-5.40625 32.2031,-6.79688 31.5,-8.09375"/>
<path class="Note" transform="matrix(0.992126,0,0,0.992126,477.506,161.22)" d="M31.5,-8.09375 C29.7031,-11.4063 25.9063,-13.2031 21.2969,-13.2031 C17.9063,-13.2031 14.2031,-12.2031 10.5938,-10.2969 C4,-6.79688 0,-0.90625 0,4.20313 C0,5.59375 0.296875,7 1,8.29688 C2.79688,11.5938 6.59375,13.2969 11.2031,13.2969 C14.5938,13.2969 18.2969,12.4063 21.9063,10.5 C28.5,7 32.5,1.09375 32.5,-4 C32.5,-5.40625 32.2031,-6.79688 31.5,-8.09375"/>
<path class="Note" transform="matrix(0.992126,0,0,0.992126,549.653,186.024)" d="M31.5,-8.09375 C29.7031,-11.4063 25.9063,-13.2031 21.2969,-13.2031 C17.9063,-13.2031 14.2031,-12.2031 10.5938,-10.2969 C4,-6.79688 0,-0.90625 0,4.20313 C0,5.59375 0.296875,7 1,8.29688 C2.79688,11.5938 6.59375,13.2969 11.2031,13.2969 C14.5938,13.2969 18.2969,12.4063 21.9063,10.5 C28.5,7 32.5,1.09375 32.5,-4 C32.5,-5.40625 32.2031,-6.79688 31.5,-8.09375"/>
<path class="Note" transform="matrix(0.992126,0,0,0.992126,621.8,186.024)" d="M31.5,-8.09375 C29.7031,-11.4063 25.9063,-13.2031 21.2969,-13.2031 C17.9063,-13.2031 14.2031,-12.2031 10.5938,-10.2969 C4,-6.79688 0,-0.90625 0,4.20313 C0,5.59375 0.296875,7 1,8.29688 C2.79688,11.5938 6.59375,13.2969 11.2031,13.2969 C14.5938,13.2969 18.2969,12.4063 21.9063,10.5 C28.5,7 32.5,1.09375 32.5,-4 C32.5,-5.40625 32.2031,-6.79688 31.5,-8.09375"/>
<path class="Note" transform="matrix(0.992126,0,0,0.992126,693.948,161.22)" d="M31.5,-8.09375 C29.7031,-11.4063 25.9063,-13.2031 21.2969,-13.2031 C17.9063,-13.2031 14.2031,-12.2031 10.5938,-10.2969 C4,-6.79688 0,-0.90625 0,4.20313 C0,5.59375 0.296875,7 1,8.29688 C2.79688,11.5938 6.59375,13.2969 11.2031,13.2969 C14.5938,13.2969 18.2969,12.4063 21.9063,10.5 C28.5,7 32.5,1.09375 32.5,-4 C32.5,-5.40625 32.2031,-6.79688 31.5,-8.09375"/>
<path class="Note" transform="matrix(0.992126,0,0,0.992126,766.095,186.024)" d="M31.5,-8.09375 C29.7031,-11.4063 25.9063,-13.2031 21.2969,-13.2031 C17.9063,-13.2031 14.2031,-12.2031 10.5938,-10.2969 C4,-6.79688 0,-0.90625 0,4.20313 C0,5.59375 0.296875,7 1,8.29688 C2.79688,11.5938 6.59375,13.2969 11.2031,13.2969 C14.5938,13.2969 18.2969,12.4063 21.9063,10.5 C28.5,7 32.5,1.09375 32.5,-4 C32.5,-5.40625 32.2031,-6.79688 31.5,-8.09375"/>
<path class="Note" transform="matrix(0.992126,0,0,0.992126,838.243,161.22)" d="M31.5,-8.09375 C29.7031,-11.4063 25.9063,-13.2031 21.2969,-13.2031 C17.9063,-13.2031 14.2031,-12.2031 10.5938,-10.2969 C4,-6.79688 0,-0.90625 0,4.20313 C0,5.59375 0.296875,7 1,8.29688 C2.79688,11.5938 6.59375,13.2969 11.2031,13.2969 C14.5938,13.2969 18.2969,12.4063 21.9063,10.5 C28.5,7 32.5,1.09375 32.5,-4 C32.5,-5.40625 32.2031,-6.79688 31.5,-8.09375"/>
<path class="Note" transform="matrix(0.992126,0,0,0.992126,910.39,161.22)" d="M31.5,-8.09375 C29.7031,-11.4063 25.9063,-13.2031 21.2969,-13.2031 C17.9063,-13.2031 14.2031,-12.2031 10.5938,-10.2969 C4,-6.79688 0,-0.90625 0,4.20313 C0,5.59375 0.296875,7 1,8.29688 C2.79688,11.5938 6.59375,13.2969 11.2031,13.2969 C14.5938,13.2969 18.2969,12.4063 21.9063,10.5 C28.5,7 32.5,1.09375 32.5,-4 C32.5,-5.40625 32.2031,-6.79688 31.5,-8.09375"/>
<path class="Note" transform="matrix(0.992126,0,0,0.992126,982.537,186.024)" d="M31.5,-8.09375 C29.7031,-11.4063 25.9063,-13.2031 21.2969,-13.2031 C17.9063,-13.2031 14.2031,-12.2031 10.5938,-10.2969 C4,-6.79688 0,-0.90625 0,4.20313 C0,5.59375 0.296875,7 1,8.29688 C2.79688,11.5938 6.59375,13.2969 11.2031,13.2969 C14.5938,13.2969 18.2969,12.4063 21.9063,10.5 C28.5,7 32.5,1.09375 32.5,-4 C32.5,-5.40625 32.2031,-6.79688 31.5,-8.09375"/>
<path class="Note" transform="matrix(0.992126,0,0,0.992126,1054.68,161.22)" d="M31.5,-8.09375 C29.7031,-11.4063 25.9063,-13.2031 21.2969,-13.2031 C17.9063,-13.2031 14.2031,-12.2031 10.5938,-10.2969 C4,-6.79688 0,-0.90625 0,4.20313 C0,5.59375 0.296875,7 1,8.29688 C2.79688,11.5938 6.59375,13.2969 11.2031,13.2969 C14.5938,13.2969 18.2969,12.4063 21.9063,10.5 C28.5,7 32.5,1.09375 32.5,-4 C32.5,-5.40625 32.2031,-6.79688 31.5,-8.09375"/>
<path class="Note" transform="matrix(0.992126,0,0,0.992126,1126.83,186.024)" d="M31.5,-8.09375 C29.7031,-11.4063 25.9063,-13.2031 21.2969,-13.2031 C17.9063,-13.2031 14.2031,-12.2031 10.5938,-10.2969 C4,-6.79688 0,-0.90625 0,4.20313 C0,5.59375 0.296875,7 1,8.29688 C2.79688,11.5938 6.59375,13.2969 11.2031,13.2969 C14.5938,13.2969 18.2969,12.4063 21.9063,10.5 C28.5,7 32.5,1.09375 32.5,-4 C32.5,-5.40625 32.2031,-6.79688 31.5,-8.09375"/>
<path class="Note" transform="matrix(0.992126,0,0,0.992126,1198.98,186.024)" d="M31.5,-8.09375 C29.7031,-11.4063 25.9063,-13.2031 21.2969,-13.2031 C17.9063,-13.2031 14.2031,-12.2031 10.5938,-10.2969 C4,-6.79688 0,-0.90625 0,4.20313 C0,5.59375 0.296875,7 1,8.29688 C2.79688,11.5938 6.59375,13.2969 11.2031,13.2969 C14.5938,13.2969 18.2969,12.4063 21.9063,10.5 C28.5,7 32.5,1.09375 32.5,-4 C32.5,-5.40625 32.2031,-6.79688 31.5,-8.09375"/>
<path class="Clef" transform="matrix(0.992126,0,0,0.992126,19.8425,173.622)" d="M12.2969,-25.2031 L1.29688,-25.2031 C0.59375,-25.2031 0,-24.5938 0,-23.9063 L0,23.9063 C0,24.5938 0.59375,25.2031 1.29688,25.2031 L12.2969,25.2031 C13,25.2031 13.5938,24.5938 13.5938,23.9063 L13.5938,-23.9063 C13.5938,-24.5938 13,-25.2031 12.2969,-25.2031 M33.9063,-25.2031 L22.9063,-25.2031 C22.2031,-25.2031 21.5938,-24.5938 21.5938,-23.9063 L21.5938,23.9063 C21.5938,24.5938 22.2031,25.2031 22.9063,25.2031 L33.9063,25.2031 C34.6094,25.2031 35.2031,24.5938 35.2031,23.9063 L35.2031,-23.9063 C35.2031,-24.5938 34.6094,-25.2031 33.9063,-25.2031"/>
<path class="Articulation" transform="matrix(0.992126,0,0,0.992126,114.982,212.191)" d="M35.1094,10.4063 L1.79688,0.09375 C1.70313,0.09375 1.5,0 1.40625,0 C0.59375,0 0,0.59375 0,1.40625 L0,3.70313 C0,4.29688 0.5,4.79688 1,5 L22.4063,11.7031 L1,18.5 C0.5,18.7031 0,19.2031 0,19.7969 L0,22.0938 C0,22.9063 0.59375,23.5 1.40625,23.5 C1.5,23.5 1.70313,23.4063 1.79688,23.4063 L35.1094,13.0938 C35.6094,12.9063 36.1094,12.2969 36.1094,11.7031 C36.1094,11.0938 35.6094,10.5938 35.1094,10.4063"/>
<path class="Articulation" transform="matrix(0.992126,0,0,0.992126,403.572,212.191)" d="M35.1094,10.4063 L1.79688,0.09375 C1.70313,0.09375 1.5,0 1.40625,0 C0.59375,0 0,0.59375 0,1.40625 L0,3.70313 C0,4.29688 0.5,4.79688 1,5 L22.4063,11.7031 L1,18.5 C0.5,18.7031 0,19.2031 0,19.7969 L0,22.0938 C0,22.9063 0.59375,23.5 1.40625,23.5 C1.5,23.5 1.70313,23.4063 1.79688,23.4063 L35.1094,13.0938 C35.6094,12.9063 36.1094,12.2969 36.1094,11.7031 C36.1094,11.0938 35.6094,10.5938 35.1094,10.4063"/>
<path class="Articulation" transform="matrix(0.992126,0,0,0.992126,692.161,212.191)" d="M35.1094,10.4063 L1.79688,0.09375 C1.70313,0.09375 1.5,0 1.40625,0 C0.59375,0 0,0.59375 0,1.40625 L0,3.70313 C0,4.29688 0.5,4.79688 1,5 L22.4063,11.7031 L1,18.5 C0.5,18.7031 0,19.2031 0,19.7969 L0,22.0938 C0,22.9063 0.59375,23.5 1.40625,23.5 C1.5,23.5 1.70313,23.4063 1.79688,23.4063 L35.1094,13.0938 C35.6094,12.9063 36.1094,12.2969 36.1094,11.7031 C36.1094,11.0938 35.6094,10.5938 35.1094,10.4063"/>
<path class="Articulation" transform="matrix(0.992126,0,0,0.992126,980.751,212.191)" d="M35.1094,10.4063 L1.79688,0.09375 C1.70313,0.09375 1.5,0 1.40625,0 C0.59375,0 0,0.59375 0,1.40625 L0,3.70313 C0,4.29688 0.5,4.79688 1,5 L22.4063,11.7031 L1,18.5 C0.5,18.7031 0,19.2031 0,19.7969 L0,22.0938 C0,22.9063 0.59375,23.5 1.40625,23.5 C1.5,23.5 1.70313,23.4063 1.79688,23.4063 L35.1094,13.0938 C35.6094,12.9063 36.1094,12.2969 36.1094,11.7031 C36.1094,11.0938 35.6094,10.5938 35.1094,10.4063"/>
<path class="Beam" fill-rule="evenodd" d="M146.277,74.4094 L365.447,74.4094 L365.447,86.811 L146.277,86.811 L146.277,74.4094 "/>
<path class="Beam" fill-rule="evenodd" d="M146.277,93.0118 L365.447,93.0118 L365.447,105.413 L146.277,105.413 L146.277,93.0118 "/>
<path class="Beam" fill-rule="evenodd" d="M434.866,74.4094 L654.037,74.4094 L654.037,86.811 L434.866,86.811 L434.866,74.4094 "/>
<path class="Beam" fill-rule="evenodd" d="M434.866,93.0118 L654.037,93.0118 L654.037,105.413 L434.866,105.413 L434.866,93.0118 "/>
<path class="Beam" fill-rule="evenodd" d="M723.456,74.4094 L942.626,74.4094 L942.626,86.811 L723.456,86.811 L723.456,74.4094 "/>
<path class="Beam" fill-rule="evenodd" d="M723.456,93.0118 L942.626,93.0118 L942.626,105.413 L723.456,105.413 L723.456,93.0118 "/>
<path class="Beam" fill-rule="evenodd" d="M1012.05,74.4094 L1231.22,74.4094 L1231.22,86.811 L1012.05,86.811 L1012.05,74.4094 "/>
<path class="Beam" fill-rule="evenodd" d="M1012.05,93.0118 L1231.22,93.0118 L1231.22,105.413 L1012.05,105.413 L1012.05,93.0118 "/>
</svg>
