<?xml version="1.0" encoding="UTF-8" standalone="no"?>
<svg width="1275.59px" height="283.465px" viewBox="0 0 1275.59 283.465"
 xmlns="http://www.w3.org/2000/svg" xmlns:xlink="http://www.w3.org/1999/xlink" version="1.2" baseProfile="tiny">
<title>drum_rudiments (38)</title>
<desc>Generated by MuseScore 3.6.2</desc>
<polyline class="StaffLines" fill="none" stroke="#000000" stroke-width="2.73" stroke-linejoin="bevel" points="0,173.622 1275.59,173.622"/>
<path class="MeasureNumber" d="M14.5938,59.8469 C16.4844,59.2532 17.2344,58.9251 18.2031,58.2844 C20.0781,57.0501 21.2344,54.8469 21.2344,52.6126 C21.2344,48.8157 18.2031,46.2532 13.7188,46.2532 C9.35938,46.2532 5.67188,48.9719 5.67188,52.2532 C5.67188,53.8938 6.67188,55.0188 8.20313,55.0188 C9.51563,55.0188 10.4844,54.0501 10.4844,52.7376 C10.4844,52.0501 10.2813,51.5657 9.64063,50.9407 C9.23438,50.5657 9.07813,50.3001 9.07813,50.0188 C9.07813,49.0501 11.0781,48.0501 12.9531,48.0501 C15.6406,48.0501 17.2344,49.5344 17.2344,52.0188 C17.2344,55.5657 14.7188,58.9251 12.0313,58.9251 C11.9219,58.9251 11.5625,58.8938 11.125,58.8469 C9.95313,58.7688 9.95313,58.7688 9.71875,58.7688 C8.84375,58.7688 8.35938,59.1751 8.35938,59.8938 C8.35938,60.5344 8.79688,60.9251 9.51563,60.9251 C9.71875,60.9251 10,60.8938 10.3125,60.8469 C10.875,60.7376 11.4844,60.6907 11.8438,60.6907 C13.7188,60.6907 15,62.3782 15,64.8469 C15,66.7688 14.5625,68.6126 13.6719,70.1282 C12.4844,72.2844 10.6406,73.3313 8.03125,73.3313 C5.79688,73.3313 3.875,72.2063 3.875,70.9251 C3.875,70.4876 4.04688,70.3313 4.67188,70.0501 C5.84375,69.5344 6.3125,68.8157 6.3125,67.7376 C6.3125,66.3313 5.20313,65.2532 3.76563,65.2532 C2.04688,65.2532 0.921875,66.6126 0.921875,68.6907 C0.921875,72.5657 3.875,75.0032 8.67188,75.0032 C14.7188,75.0032 19.3125,70.9719 19.3125,65.6126 C19.3125,64.1751 18.875,62.9251 18.0313,61.9251 C17.1563,60.8938 16.3594,60.4094 14.5938,59.8469 M38.2656,59.6126 C40.1094,58.7376 40.9531,58.2532 41.6719,57.6907 C43.3906,56.3782 44.3125,54.5344 44.3125,52.4876 C44.3125,48.8469 41.2344,46.2532 36.9531,46.2532 C31.7969,46.2532 27.7969,49.9719 27.7969,54.8157 C27.7969,57.2532 28.6406,58.8157 30.7969,60.3782 C26.0781,62.1751 23.5469,65.0969 23.5469,68.7376 C23.5469,72.6126 26.75,75.0032 31.875,75.0032 C38.0313,75.0032 42.4375,71.2532 42.4375,66.0501 C42.4375,64.5657 41.9531,63.1282 41.0781,61.9719 C40.4688,61.1751 39.75,60.5657 38.2656,59.6126 M36.5469,58.6594 C32.4688,56.7376 31,55.1751 31,52.8938 C31,50.1282 33.4688,47.9719 36.625,47.9719 C39.3906,47.9719 41.3125,49.7376 41.3125,52.2532 C41.3125,53.8938 40.5469,55.6907 39.2344,56.9719 C38.4688,57.7376 37.875,58.1282 36.5469,58.6594 M32.3125,61.4563 C34.2344,62.3313 34.875,62.6438 35.875,63.2532 C37.875,64.4563 38.9531,66.0501 38.9531,67.8469 C38.9531,70.9251 36.0781,73.2532 32.3125,73.2532 C28.9063,73.2532 26.7969,71.3313 26.7969,68.2532 C26.7969,65.2532 28.7188,62.8938 32.3125,61.4563"/>
<path class="SlurSegment" stroke="#000000" stroke-width="1.74" stroke-linecap="round" stroke-linejoin="round" fill-rule="evenodd" d="M154.089,208.346 C165.706,210.098 185.123,195.216 186.451,183.543 C187.235,197.972 167.818,212.854 154.089,208.346"/>
<path class="SlurSegment" stroke="#000000" stroke-width="1.74" stroke-linecap="round" stroke-linejoin="round" fill-rule="evenodd" d="M429.288,183.543 C430.615,195.216 450.032,210.098 461.649,208.346 C447.92,212.854 428.503,197.972 429.288,183.543"/>
<path class="SlurSegment" stroke="#000000" stroke-width="1.74" stroke-linecap="round" stroke-linejoin="round" fill-rule="evenodd" d="M704.486,208.346 C716.103,210.098 735.52,195.216 736.848,183.543 C737.633,197.972 718.216,212.854 704.486,208.346"/>
<path class="SlurSegment" stroke="#000000" stroke-width="1.74" stroke-linecap="round" stroke-linejoin="round" fill-rule="evenodd" d="M979.685,183.543 C981.013,195.216 1000.43,210.098 1012.05,208.346 C998.317,212.854 978.9,197.972 979.685,183.543"/>
<polyline class="BarLine" stroke="#000000" stroke-width="4.46" stroke-linejoin="bevel" points="1273.36,122.652 1273.36,224.593"/>
<polyline class="Stem" stroke="#000000" stroke-width="2.73" stroke-linejoin="bevel" points="201.205,158.046 201.205,80.6102"/>
<polyline class="Stem" stroke="#000000" stroke-width="1.91" stroke-linejoin="bevel" points="138.379,183.801 138.379,124.016"/>
<polyline class="Stem" stroke="#000000" stroke-width="1.91" stroke-linejoin="bevel" points="164.417,183.801 164.417,124.016"/>
<polyline class="Stem" stroke="#000000" stroke-width="2.73" stroke-linejoin="bevel" points="256.789,182.849 256.789,80.6102"/>
<polyline class="Stem" stroke="#000000" stroke-width="2.73" stroke-linejoin="bevel" points="312.374,158.046 312.374,80.6102"/>
<polyline class="Stem" stroke="#000000" stroke-width="2.73" stroke-linejoin="bevel" points="367.959,182.849 367.959,80.6102"/>
<polyline class="Stem" stroke="#000000" stroke-width="2.73" stroke-linejoin="bevel" points="476.403,182.849 476.403,80.6102"/>
<polyline class="Stem" stroke="#000000" stroke-width="1.91" stroke-linejoin="bevel" points="413.578,158.998 413.578,99.2126"/>
<polyline class="Stem" stroke="#000000" stroke-width="1.91" stroke-linejoin="bevel" points="439.616,158.998 439.616,99.2126"/>
<polyline class="Stem" stroke="#000000" stroke-width="2.73" stroke-linejoin="bevel" points="531.988,158.046 531.988,80.6102"/>
<polyline class="Stem" stroke="#000000" stroke-width="2.73" stroke-linejoin="bevel" points="587.573,182.849 587.573,80.6102"/>
<polyline class="Stem" stroke="#000000" stroke-width="2.73" stroke-linejoin="bevel" points="643.157,158.046 643.157,80.6102"/>
<polyline class="Stem" stroke="#000000" stroke-width="2.73" stroke-linejoin="bevel" points="751.602,158.046 751.602,80.6102"/>
<polyline class="Stem" stroke="#000000" stroke-width="1.91" stroke-linejoin="bevel" points="688.776,183.801 688.776,124.016"/>
<polyline class="Stem" stroke="#000000" stroke-width="1.91" stroke-linejoin="bevel" points="714.814,183.801 714.814,124.016"/>
<polyline class="Stem" stroke="#000000" stroke-width="2.73" stroke-linejoin="bevel" points="807.187,182.849 807.187,80.6102"/>
<polyline class="Stem" stroke="#000000" stroke-width="2.73" stroke-linejoin="bevel" points="862.771,158.046 862.771,80.6102"/>
<polyline class="Stem" stroke="#000000" stroke-width="2.73" stroke-linejoin="bevel" points="918.356,182.849 918.356,80.6102"/>
<polyline class="Stem" stroke="#000000" stroke-width="2.73" stroke-linejoin="bevel" points="1026.8,182.849 1026.8,80.6102"/>
<polyline class="Stem" stroke="#000000" stroke-width="1.91" stroke-linejoin="bevel" points="963.975,158.998 963.975,99.2126"/>
<polyline class="Stem" stroke="#000000" stroke-width="1.91" stroke-linejoin="bevel" points="990.013,158.998 990.013,99.2126"/>
<polyline class="Stem" stroke="#000000" stroke-width="2.73" stroke-linejoin="bevel" points="1082.39,158.046 1082.39,80.6102"/>
<polyline class="Stem" stroke="#000000" stroke-width="2.73" stroke-linejoin="bevel" points="1137.97,182.849 1137.97,80.6102"/>
<polyline class="Stem" stroke="#000000" stroke-width="2.73" stroke-linejoin="bevel" points="1193.55,158.046 1193.55,80.6102"/>
<path class="Note" transform="matrix(0.992126,0,0,0.992126,170.333,161.22)" d="M31.5,-8.09375 C29.7031,-11.4063 25.9063,-13.2031 21.2969,-13.2031 C17.9063,-13.2031 14.2031,-12.2031 10.5938,-10.2969 C4,-6.79688 0,-0.90625 0,4.20313 C0,5.59375 0.296875,7 1,8.29688 C2.79688,11.5938 6.59375,13.2969 11.2031,13.2969 C14.5938,13.2969 18.2969,12.4063 21.9063,10.5 C28.5,7 32.5,1.09375 32.5,-4 C32.5,-5.40625 32.2031,-6.79688 31.5,-8.09375"/>
<path class="Note" transform="matrix(0.694488,0,0,0.694488,116.769,186.024)" d="M31.5,-8.09375 C29.7031,-11.4063 25.9063,-13.2031 21.2969,-13.2031 C17.9063,-13.2031 14.2031,-12.2031 10.5938,-10.2969 C4,-6.79688 0,-0.90625 0,4.20313 C0,5.59375 0.296875,7 1,8.29688 C2.79688,11.5938 6.59375,13.2969 11.2031,13.2969 C14.5938,13.2969 18.2969,12.4063 21.9063,10.5 C28.5,7 32.5,1.09375 32.5,-4 C32.5,-5.40625 32.2031,-6.79688 31.5,-8.09375"/>
<path class="Note" transform="matrix(0.694488,0,0,0.694488,142.806,186.024)" d="M31.5,-8.09375 C29.7031,-11.4063 25.9063,-13.2031 21.2969,-13.2031 C17.9063,-13.2031 14.2031,-12.2031 10.5938,-10.2969 C4,-6.79688 0,-0.90625 0,4.20313 C0,5.59375 0.296875,7 1,8.29688 C2.79688,11.5938 6.59375,13.2969 11.2031,13.2969 C14.5938,13.2969 18.2969,12.4063 21.9063,10.5 C28.5,7 32.5,1.09375 32.5,-4 C32.5,-5.40625 32.2031,-6.79688 31.5,-8.09375"/>
<path class="Note" transform="matrix(0.992126,0,0,0.992126,225.917,186.024)" d="M31.5,-8.09375 C29.7031,-11.4063 25.9063,-13.2031 21.2969,-13.2031 C17.9063,-13.2031 14.2031,-12.2031 10.5938,-10.2969 C4,-6.79688 0,-0.90625 0,4.20313 C0,5.59375 0.296875,7 1,8.29688 C2.79688,11.5938 6.59375,13.2969 11.2031,13.2969 C14.5938,13.2969 18.2969,12.4063 21.9063,10.5 C28.5,7 32.5,1.09375 32.5,-4 C32.5,-5.40625 32.2031,-6.79688 31.5,-8.09375"/>
<path class="Note" transform="matrix(0.992126,0,0,0.992126,281.502,161.22)" d="M31.5,-8.09375 C29.7031,-11.4063 25.9063,-13.2031 21.2969,-13.2031 C17.9063,-13.2031 14.2031,-12.2031 10.5938,-10.2969 C4,-6.79688 0,-0.90625 0,4.20313 C0,5.59375 0.296875,7 1,8.29688 C2.79688,11.5938 6.59375,13.2969 11.2031,13.2969 C14.5938,13.2969 18.2969,12.4063 21.9063,10.5 C28.5,7 32.5,1.09375 32.5,-4 C32.5,-5.40625 32.2031,-6.79688 31.5,-8.09375"/>
<path class="Note" transform="matrix(0.992126,0,0,0.992126,337.087,186.024)" d="M31.5,-8.09375 C29.7031,-11.4063 25.9063,-13.2031 21.2969,-13.2031 C17.9063,-13.2031 14.2031,-12.2031 10.5938,-10.2969 C4,-6.79688 0,-0.90625 0,4.20313 C0,5.59375 0.296875,7 1,8.29688 C2.79688,11.5938 6.59375,13.2969 11.2031,13.2969 C14.5938,13.2969 18.2969,12.4063 21.9063,10.5 C28.5,7 32.5,1.09375 32.5,-4 C32.5,-5.40625 32.2031,-6.79688 31.5,-8.09375"/>
<path class="Note" transform="matrix(0.992126,0,0,0.992126,445.531,186.024)" d="M31.5,-8.09375 C29.7031,-11.4063 25.9063,-13.2031 21.2969,-13.2031 C17.9063,-13.2031 14.2031,-12.2031 10.5938,-10.2969 C4,-6.79688 0,-0.90625 0,4.20313 C0,5.59375 0.296875,7 1,8.29688 C2.79688,11.5938 6.59375,13.2969 11.2031,13.2969 C14.5938,13.2969 18.2969,12.4063 21.9063,10.5 C28.5,7 32.5,1.09375 32.5,-4 C32.5,-5.40625 32.2031,-6.79688 31.5,-8.09375"/>
<path class="Note" transform="matrix(0.694488,0,0,0.694488,391.967,161.22)" d="M31.5,-8.09375 C29.7031,-11.4063 25.9063,-13.2031 21.2969,-13.2031 C17.9063,-13.2031 14.2031,-12.2031 10.5938,-10.2969 C4,-6.79688 0,-0.90625 0,4.20313 C0,5.59375 0.296875,7 1,8.29688 C2.79688,11.5938 6.59375,13.2969 11.2031,13.2969 C14.5938,13.2969 18.2969,12.4063 21.9063,10.5 C28.5,7 32.5,1.09375 32.5,-4 C32.5,-5.40625 32.2031,-6.79688 31.5,-8.09375"/>
<path class="Note" transform="matrix(0.694488,0,0,0.694488,418.005,161.22)" d="M31.5,-8.09375 C29.7031,-11.4063 25.9063,-13.2031 21.2969,-13.2031 C17.9063,-13.2031 14.2031,-12.2031 10.5938,-10.2969 C4,-6.79688 0,-0.90625 0,4.20313 C0,5.59375 0.296875,7 1,8.29688 C2.79688,11.5938 6.59375,13.2969 11.2031,13.2969 C14.5938,13.2969 18.2969,12.4063 21.9063,10.5 C28.5,7 32.5,1.09375 32.5,-4 C32.5,-5.40625 32.2031,-6.79688 31.5,-8.09375"/>
<path class="Note" transform="matrix(0.992126,0,0,0.992126,501.116,161.22)" d="M31.5,-8.09375 C29.7031,-11.4063 25.9063,-13.2031 21.2969,-13.2031 C17.9063,-13.2031 14.2031,-12.2031 10.5938,-10.2969 C4,-6.79688 0,-0.90625 0,4.20313 C0,5.59375 0.296875,7 1,8.29688 C2.79688,11.5938 6.59375,13.2969 11.2031,13.2969 C14.5938,13.2969 18.2969,12.4063 21.9063,10.5 C28.5,7 32.5,1.09375 32.5,-4 C32.5,-5.40625 32.2031,-6.79688 31.5,-8.09375"/>
<path class="Note" transform="matrix(0.992126,0,0,0.992126,556.701,186.024)" d="M31.5,-8.09375 C29.7031,-11.4063 25.9063,-13.2031 21.2969,-13.2031 C17.9063,-13.2031 14.2031,-12.2031 10.5938,-10.2969 C4,-6.79688 0,-0.90625 0,4.20313 C0,5.59375 0.296875,7 1,8.29688 C2.79688,11.5938 6.59375,13.2969 11.2031,13.2969 C14.5938,13.2969 18.2969,12.4063 21.9063,10.5 C28.5,7 32.5,1.09375 32.5,-4 C32.5,-5.40625 32.2031,-6.79688 31.5,-8.09375"/>
<path class="Note" transform="matrix(0.992126,0,0,0.992126,612.285,161.22)" d="M31.5,-8.09375 C29.7031,-11.4063 25.9063,-13.2031 21.2969,-13.2031 C17.9063,-13.2031 14.2031,-12.2031 10.5938,-10.2969 C4,-6.79688 0,-0.90625 0,4.20313 C0,5.59375 0.296875,7 1,8.29688 C2.79688,11.5938 6.59375,13.2969 11.2031,13.2969 C14.5938,13.2969 18.2969,12.4063 21.9063,10.5 C28.5,7 32.5,1.09375 32.5,-4 C32.5,-5.40625 32.2031,-6.79688 31.5,-8.09375"/>
<path class="Note" transform="matrix(0.992126,0,0,0.992126,720.73,161.22)" d="M31.5,-8.09375 C29.7031,-11.4063 25.9063,-13.2031 21.2969,-13.2031 C17.9063,-13.2031 14.2031,-12.2031 10.5938,-10.2969 C4,-6.79688 0,-0.90625 0,4.20313 C0,5.59375 0.296875,7 1,8.29688 C2.79688,11.5938 6.59375,13.2969 11.2031,13.2969 C14.5938,13.2969 18.2969,12.4063 21.9063,10.5 C28.5,7 32.5,1.09375 32.5,-4 C32.5,-5.40625 32.2031,-6.79688 31.5,-8.09375"/>
<path class="Note" transform="matrix(0.694488,0,0,0.694488,667.166,186.024)" d="M31.5,-8.09375 C29.7031,-11.4063 25.9063,-13.2031 21.2969,-13.2031 C17.9063,-13.2031 14.2031,-12.2031 10.5938,-10.2969 C4,-6.79688 0,-0.90625 0,4.20313 C0,5.59375 0.296875,7 1,8.29688 C2.79688,11.5938 6.59375,13.2969 11.2031,13.2969 C14.5938,13.2969 18.2969,12.4063 21.9063,10.5 C28.5,7 32.5,1.09375 32.5,-4 C32.5,-5.40625 32.2031,-6.79688 31.5,-8.09375"/>
<path class="Note" transform="matrix(0.694488,0,0,0.694488,693.204,186.024)" d="M31.5,-8.09375 C29.7031,-11.4063 25.9063,-13.2031 21.2969,-13.2031 C17.9063,-13.2031 14.2031,-12.2031 10.5938,-10.2969 C4,-6.79688 0,-0.90625 0,4.20313 C0,5.59375 0.296875,7 1,8.29688 C2.79688,11.5938 6.59375,13.2969 11.2031,13.2969 C14.5938,13.2969 18.2969,12.4063 21.9063,10.5 C28.5,7 32.5,1.09375 32.5,-4 C32.5,-5.40625 32.2031,-6.79688 31.5,-8.09375"/>
<path class="Note" transform="matrix(0.992126,0,0,0.992126,776.314,186.024)" d="M31.5,-8.09375 C29.7031,-11.4063 25.9063,-13.2031 21.2969,-13.2031 C17.9063,-13.2031 14.2031,-12.2031 10.5938,-10.2969 C4,-6.79688 0,-0.90625 0,4.20313 C0,5.59375 0.296875,7 1,8.29688 C2.79688,11.5938 6.59375,13.2969 11.2031,13.2969 C14.5938,13.2969 18.2969,12.4063 21.9063,10.5 C28.5,7 32.5,1.09375 32.5,-4 C32.5,-5.40625 32.2031,-6.79688 31.5,-8.09375"/>
<path class="Note" transform="matrix(0.992126,0,0,0.992126,831.899,161.22)" d="M31.5,-8.09375 C29.7031,-11.4063 25.9063,-13.2031 21.2969,-13.2031 C17.9063,-13.2031 14.2031,-12.2031 10.5938,-10.2969 C4,-6.79688 0,-0.90625 0,4.20313 C0,5.59375 0.296875,7 1,8.29688 C2.79688,11.5938 6.59375,13.2969 11.2031,13.2969 C14.5938,13.2969 18.2969,12.4063 21.9063,10.5 C28.5,7 32.5,1.09375 32.5,-4 C32.5,-5.40625 32.2031,-6.79688 31.5,-8.09375"/>
<path class="Note" transform="matrix(0.992126,0,0,0.992126,887.484,186.024)" d="M31.5,-8.09375 C29.7031,-11.4063 25.9063,-13.2031 21.2969,-13.2031 C17.9063,-13.2031 14.2031,-12.2031 10.5938,-10.2969 C4,-6.79688 0,-0.90625 0,4.20313 C0,5.59375 0.296875,7 1,8.29688 C2.79688,11.5938 6.59375,13.2969 11.2031,13.2969 C14.5938,13.2969 18.2969,12.4063 21.9063,10.5 C28.5,7 32.5,1.09375 32.5,-4 C32.5,-5.40625 32.2031,-6.79688 31.5,-8.09375"/>
<path class="Note" transform="matrix(0.992126,0,0,0.992126,995.928,186.024)" d="M31.5,-8.09375 C29.7031,-11.4063 25.9063,-13.2031 21.2969,-13.2031 C17.9063,-13.2031 14.2031,-12.2031 10.5938,-10.2969 C4,-6.79688 0,-0.90625 0,4.20313 C0,5.59375 0.296875,7 1,8.29688 C2.79688,11.5938 6.59375,13.2969 11.2031,13.2969 C14.5938,13.2969 18.2969,12.4063 21.9063,10.5 C28.5,7 32.5,1.09375 32.5,-4 C32.5,-5.40625 32.2031,-6.79688 31.5,-8.09375"/>
<path class="Note" transform="matrix(0.694488,0,0,0.694488,942.364,161.22)" d="M31.5,-8.09375 C29.7031,-11.4063 25.9063,-13.2031 21.2969,-13.2031 C17.9063,-13.2031 14.2031,-12.2031 10.5938,-10.2969 C4,-6.79688 0,-0.90625 0,4.20313 C0,5.59375 0.296875,7 1,8.29688 C2.79688,11.5938 6.59375,13.2969 11.2031,13.2969 C14.5938,13.2969 18.2969,12.4063 21.9063,10.5 C28.5,7 32.5,1.09375 32.5,-4 C32.5,-5.40625 32.2031,-6.79688 31.5,-8.09375"/>
<path class="Note" transform="matrix(0.694488,0,0,0.694488,968.402,161.22)" d="M31.5,-8.09375 C29.7031,-11.4063 25.9063,-13.2031 21.2969,-13.2031 C17.9063,-13.2031 14.2031,-12.2031 10.5938,-10.2969 C4,-6.79688 0,-0.90625 0,4.20313 C0,5.59375 0.296875,7 1,8.29688 C2.79688,11.5938 6.59375,13.2969 11.2031,13.2969 C14.5938,13.2969 18.2969,12.4063 21.9063,10.5 C28.5,7 32.5,1.09375 32.5,-4 C32.5,-5.40625 32.2031,-6.79688 31.5,-8.09375"/>
<path class="Note" transform="matrix(0.992126,0,0,0.992126,1051.51,161.22)" d="M31.5,-8.09375 C29.7031,-11.4063 25.9063,-13.2031 21.2969,-13.2031 C17.9063,-13.2031 14.2031,-12.2031 10.5938,-10.2969 C4,-6.79688 0,-0.90625 0,4.20313 C0,5.59375 0.296875,7 1,8.29688 C2.79688,11.5938 6.59375,13.2969 11.2031,13.2969 C14.5938,13.2969 18.2969,12.4063 21.9063,10.5 C28.5,7 32.5,1.09375 32.5,-4 C32.5,-5.40625 32.2031,-6.79688 31.5,-8.09375"/>
<path class="Note" transform="matrix(0.992126,0,0,0.992126,1107.1,186.024)" d="M31.5,-8.09375 C29.7031,-11.4063 25.9063,-13.2031 21.2969,-13.2031 C17.9063,-13.2031 14.2031,-12.2031 10.5938,-10.2969 C4,-6.79688 0,-0.90625 0,4.20313 C0,5.59375 0.296875,7 1,8.29688 C2.79688,11.5938 6.59375,13.2969 11.2031,13.2969 C14.5938,13.2969 18.2969,12.4063 21.9063,10.5 C28.5,7 32.5,1.09375 32.5,-4 C32.5,-5.40625 32.2031,-6.79688 31.5,-8.09375"/>
<path class="Note" transform="matrix(0.992126,0,0,0.992126,1162.68,161.22)" d="M31.5,-8.09375 C29.7031,-11.4063 25.9063,-13.2031 21.2969,-13.2031 C17.9063,-13.2031 14.2031,-12.2031 10.5938,-10.2969 C4,-6.79688 0,-0.90625 0,4.20313 C0,5.59375 0.296875,7 1,8.29688 C2.79688,11.5938 6.59375,13.2969 11.2031,13.2969 C14.5938,13.2969 18.2969,12.4063 21.9063,10.5 C28.5,7 32.5,1.09375 32.5,-4 C32.5,-5.40625 32.2031,-6.79688 31.5,-8.09375"/>
<path class="Clef" transform="matrix(0.992126,0,0,0.992126,19.8425,173.622)" d="M12.2969,-25.2031 L1.29688,-25.2031 C0.59375,-25.2031 0,-24.5938 0,-23.9063 L0,23.9063 C0,24.5938 0.59375,25.2031 1.29688,25.2031 L12.2969,25.2031 C13,25.2031 13.5938,24.5938 13.5938,23.9063 L13.5938,-23.9063 C13.5938,-24.5938 13,-25.2031 12.2969,-25.2031 M33.9063,-25.2031 L22.9063,-25.2031 C22.2031,-25.2031 21.5938,-24.5938 21.5938,-23.9063 L21.5938,23.9063 C21.5938,24.5938 22.2031,25.2031 22.9063,25.2031 L33.9063,25.2031 C34.6094,25.2031 35.2031,24.5938 35.2031,23.9063 L35.2031,-23.9063 C35.2031,-24.5938 34.6094,-25.2031 33.9063,-25.2031"/>
<path class="Articulation" transform="matrix(0.992126,0,0,0.992126,335.3,212.191)" d="M35.1094,10.4063 L1.79688,0.09375 C1.70313,0.09375 1.5,0 1.40625,0 C0.59375,0 0,0.59375 0,1.40625 L0,3.70313 C0,4.29688 0.5,4.79688 1,5 L22.4063,11.7031 L1,18.5 C0.5,18.7031 0,19.2031 0,19.7969 L0,22.0938 C0,22.9063 0.59375,23.5 1.40625,23.5 C1.5,23.5 1.70313,23.4063 1.79688,23.4063 L35.1094,13.0938 C35.6094,12.9063 36.1094,12.2969 36.1094,11.7031 C36.1094,11.0938 35.6094,10.5938 35.1094,10.4063"/>
<path class="Articulation" transform="matrix(0.992126,0,0,0.992126,610.499,212.191)" d="M35.1094,10.4063 L1.79688,0.09375 C1.70313,0.09375 1.5,0 1.40625,0 C0.59375,0 0,0.59375 0,1.40625 L0,3.70313 C0,4.29688 0.5,4.79688 1,5 L22.4063,11.7031 L1,18.5 C0.5,18.7031 0,19.2031 0,19.7969 L0,22.0938 C0,22.9063 0.59375,23.5 1.40625,23.5 C1.5,23.5 1.70313,23.4063 1.79688,23.4063 L35.1094,13.0938 C35.6094,12.9063 36.1094,12.2969 36.1094,11.7031 C36.1094,11.0938 35.6094,10.5938 35.1094,10.4063"/>
<path class="Articulation" transform="matrix(0.992126,0,0,0.992126,885.697,212.191)" d="M35.1094,10.4063 L1.79688,0.09375 C1.70313,0.09375 1.5,0 1.40625,0 C0.59375,0 0,0.59375 0,1.40625 L0,3.70313 C0,4.29688 0.5,4.79688 1,5 L22.4063,11.7031 L1,18.5 C0.5,18.7031 0,19.2031 0,19.7969 L0,22.0938 C0,22.9063 0.59375,23.5 1.40625,23.5 C1.5,23.5 1.70313,23.4063 1.79688,23.4063 L35.1094,13.0938 C35.6094,12.9063 36.1094,12.2969 36.1094,11.7031 C36.1094,11.0938 35.6094,10.5938 35.1094,10.4063"/>
<path class="Articulation" transform="matrix(0.992126,0,0,0.992126,1160.9,212.191)" d="M35.1094,10.4063 L1.79688,0.09375 C1.70313,0.09375 1.5,0 1.40625,0 C0.59375,0 0,0.59375 0,1.40625 L0,3.70313 C0,4.29688 0.5,4.79688 1,5 L22.4063,11.7031 L1,18.5 C0.5,18.7031 0,19.2031 0,19.7969 L0,22.0938 C0,22.9063 0.59375,23.5 1.40625,23.5 C1.5,23.5 1.70313,23.4063 1.79688,23.4063 L35.1094,13.0938 C35.6094,12.9063 36.1094,12.2969 36.1094,11.7031 C36.1094,11.0938 35.6094,10.5938 35.1094,10.4063"/>
<path class="Beam" fill-rule="evenodd" d="M137.424,119.675 L165.372,119.675 L165.372,128.356 L137.424,128.356 L137.424,119.675 "/>
<path class="Beam" fill-rule="evenodd" d="M137.424,132.697 L165.372,132.697 L165.372,141.378 L137.424,141.378 L137.424,132.697 "/>
<path class="Beam" fill-rule="evenodd" d="M199.841,74.4094 L369.323,74.4094 L369.323,86.811 L199.841,86.811 L199.841,74.4094 "/>
<path class="Beam" fill-rule="evenodd" d="M199.841,93.0118 L313.738,93.0118 L313.738,105.413 L199.841,105.413 L199.841,93.0118 "/>
<path class="Beam" fill-rule="evenodd" d="M412.623,94.872 L440.571,94.872 L440.571,103.553 L412.623,103.553 L412.623,94.872 "/>
<path class="Beam" fill-rule="evenodd" d="M412.623,107.894 L440.571,107.894 L440.571,116.575 L412.623,116.575 L412.623,107.894 "/>
<path class="Beam" fill-rule="evenodd" d="M475.039,74.4094 L644.522,74.4094 L644.522,86.811 L475.039,86.811 L475.039,74.4094 "/>
<path class="Beam" fill-rule="evenodd" d="M475.039,93.0118 L588.937,93.0118 L588.937,105.413 L475.039,105.413 L475.039,93.0118 "/>
<path class="Beam" fill-rule="evenodd" d="M687.821,119.675 L715.769,119.675 L715.769,128.356 L687.821,128.356 L687.821,119.675 "/>
<path class="Beam" fill-rule="evenodd" d="M687.821,132.697 L715.769,132.697 L715.769,141.378 L687.821,141.378 L687.821,132.697 "/>
<path class="Beam" fill-rule="evenodd" d="M750.238,74.4094 L919.72,74.4094 L919.72,86.811 L750.238,86.811 L750.238,74.4094 "/>
<path class="Beam" fill-rule="evenodd" d="M750.238,93.0118 L864.136,93.0118 L864.136,105.413 L750.238,105.413 L750.238,93.0118 "/>
<path class="Beam" fill-rule="evenodd" d="M963.02,94.872 L990.968,94.872 L990.968,103.553 L963.02,103.553 L963.02,94.872 "/>
<path class="Beam" fill-rule="evenodd" d="M963.02,107.894 L990.968,107.894 L990.968,116.575 L963.02,116.575 L963.02,107.894 "/>
<path class="Beam" fill-rule="evenodd" d="M1025.44,74.4094 L1194.92,74.4094 L1194.92,86.811 L1025.44,86.811 L1025.44,74.4094 "/>
<path class="Beam" fill-rule="evenodd" d="M1025.44,93.0118 L1139.33,93.0118 L1139.33,105.413 L1025.44,105.413 L1025.44,93.0118 "/>
<path class="Tuplet" d="M259.722,41.1663 C261.847,40.4945 262.691,40.1195 263.769,39.4007 C265.894,38.0101 267.191,35.5413 267.191,33.0101 C267.191,28.7445 263.769,25.8695 258.738,25.8695 C253.831,25.8695 249.691,28.9163 249.691,32.6195 C249.691,34.4632 250.816,35.7132 252.519,35.7132 C254.003,35.7132 255.097,34.6351 255.097,33.1507 C255.097,32.3851 254.863,31.8538 254.144,31.1351 C253.691,30.7288 253.519,30.4007 253.519,30.0882 C253.519,29.0101 255.769,27.8851 257.878,27.8851 C260.894,27.8851 262.691,29.557 262.691,32.3382 C262.691,36.3538 259.863,40.1195 256.847,40.1195 C256.706,40.1195 256.3,40.0882 255.816,40.0413 C254.503,39.9476 254.503,39.9476 254.238,39.9476 C253.238,39.9476 252.706,40.4007 252.706,41.2132 C252.706,41.932 253.206,42.3695 254.003,42.3695 C254.238,42.3695 254.55,42.3382 254.91,42.2913 C255.535,42.1507 256.222,42.1038 256.613,42.1038 C258.738,42.1038 260.175,43.9945 260.175,46.7913 C260.175,48.9476 259.675,51.0101 258.691,52.7288 C257.347,55.1507 255.269,56.3226 252.347,56.3226 C249.831,56.3226 247.66,55.0726 247.66,53.6195 C247.66,53.1351 247.847,52.9476 248.566,52.6351 C249.863,52.057 250.41,51.2445 250.41,50.0257 C250.41,48.4476 249.144,47.2445 247.535,47.2445 C245.597,47.2445 244.331,48.7601 244.331,51.1038 C244.331,55.4788 247.66,58.2132 253.066,58.2132 C259.863,58.2132 265.035,53.6663 265.035,47.6351 C265.035,46.0257 264.535,44.6195 263.597,43.4945 C262.597,42.3382 261.706,41.7913 259.722,41.1663"/>
<path class="Tuplet" d="M534.921,41.1663 C537.046,40.4945 537.889,40.1195 538.968,39.4007 C541.093,38.0101 542.389,35.5413 542.389,33.0101 C542.389,28.7445 538.968,25.8695 533.936,25.8695 C529.03,25.8695 524.889,28.9163 524.889,32.6195 C524.889,34.4632 526.014,35.7132 527.718,35.7132 C529.202,35.7132 530.296,34.6351 530.296,33.1507 C530.296,32.3851 530.061,31.8538 529.343,31.1351 C528.889,30.7288 528.718,30.4007 528.718,30.0882 C528.718,29.0101 530.968,27.8851 533.077,27.8851 C536.093,27.8851 537.889,29.557 537.889,32.3382 C537.889,36.3538 535.061,40.1195 532.046,40.1195 C531.905,40.1195 531.499,40.0882 531.014,40.0413 C529.702,39.9476 529.702,39.9476 529.436,39.9476 C528.436,39.9476 527.905,40.4007 527.905,41.2132 C527.905,41.932 528.405,42.3695 529.202,42.3695 C529.436,42.3695 529.749,42.3382 530.108,42.2913 C530.733,42.1507 531.421,42.1038 531.811,42.1038 C533.936,42.1038 535.374,43.9945 535.374,46.7913 C535.374,48.9476 534.874,51.0101 533.889,52.7288 C532.546,55.1507 530.468,56.3226 527.546,56.3226 C525.03,56.3226 522.858,55.0726 522.858,53.6195 C522.858,53.1351 523.046,52.9476 523.764,52.6351 C525.061,52.057 525.608,51.2445 525.608,50.0257 C525.608,48.4476 524.343,47.2445 522.733,47.2445 C520.796,47.2445 519.53,48.7601 519.53,51.1038 C519.53,55.4788 522.858,58.2132 528.264,58.2132 C535.061,58.2132 540.233,53.6663 540.233,47.6351 C540.233,46.0257 539.733,44.6195 538.796,43.4945 C537.796,42.3382 536.905,41.7913 534.921,41.1663"/>
<path class="Tuplet" d="M810.119,41.1663 C812.244,40.4945 813.088,40.1195 814.166,39.4007 C816.291,38.0101 817.588,35.5413 817.588,33.0101 C817.588,28.7445 814.166,25.8695 809.135,25.8695 C804.229,25.8695 800.088,28.9163 800.088,32.6195 C800.088,34.4632 801.213,35.7132 802.916,35.7132 C804.401,35.7132 805.494,34.6351 805.494,33.1507 C805.494,32.3851 805.26,31.8538 804.541,31.1351 C804.088,30.7288 803.916,30.4007 803.916,30.0882 C803.916,29.0101 806.166,27.8851 808.276,27.8851 C811.291,27.8851 813.088,29.557 813.088,32.3382 C813.088,36.3538 810.26,40.1195 807.244,40.1195 C807.104,40.1195 806.697,40.0882 806.213,40.0413 C804.901,39.9476 804.901,39.9476 804.635,39.9476 C803.635,39.9476 803.104,40.4007 803.104,41.2132 C803.104,41.932 803.604,42.3695 804.401,42.3695 C804.635,42.3695 804.947,42.3382 805.307,42.2913 C805.932,42.1507 806.619,42.1038 807.01,42.1038 C809.135,42.1038 810.572,43.9945 810.572,46.7913 C810.572,48.9476 810.072,51.0101 809.088,52.7288 C807.744,55.1507 805.666,56.3226 802.744,56.3226 C800.229,56.3226 798.057,55.0726 798.057,53.6195 C798.057,53.1351 798.244,52.9476 798.963,52.6351 C800.26,52.057 800.807,51.2445 800.807,50.0257 C800.807,48.4476 799.541,47.2445 797.932,47.2445 C795.994,47.2445 794.729,48.7601 794.729,51.1038 C794.729,55.4788 798.057,58.2132 803.463,58.2132 C810.26,58.2132 815.432,53.6663 815.432,47.6351 C815.432,46.0257 814.932,44.6195 813.994,43.4945 C812.994,42.3382 812.104,41.7913 810.119,41.1663"/>
<path class="Tuplet" d="M1085.32,41.1663 C1087.44,40.4945 1088.29,40.1195 1089.36,39.4007 C1091.49,38.0101 1092.79,35.5413 1092.79,33.0101 C1092.79,28.7445 1089.36,25.8695 1084.33,25.8695 C1079.43,25.8695 1075.29,28.9163 1075.29,32.6195 C1075.29,34.4632 1076.41,35.7132 1078.11,35.7132 C1079.6,35.7132 1080.69,34.6351 1080.69,33.1507 C1080.69,32.3851 1080.46,31.8538 1079.74,31.1351 C1079.29,30.7288 1079.11,30.4007 1079.11,30.0882 C1079.11,29.0101 1081.36,27.8851 1083.47,27.8851 C1086.49,27.8851 1088.29,29.557 1088.29,32.3382 C1088.29,36.3538 1085.46,40.1195 1082.44,40.1195 C1082.3,40.1195 1081.9,40.0882 1081.41,40.0413 C1080.1,39.9476 1080.1,39.9476 1079.83,39.9476 C1078.83,39.9476 1078.3,40.4007 1078.3,41.2132 C1078.3,41.932 1078.8,42.3695 1079.6,42.3695 C1079.83,42.3695 1080.15,42.3382 1080.51,42.2913 C1081.13,42.1507 1081.82,42.1038 1082.21,42.1038 C1084.33,42.1038 1085.77,43.9945 1085.77,46.7913 C1085.77,48.9476 1085.27,51.0101 1084.29,52.7288 C1082.94,55.1507 1080.86,56.3226 1077.94,56.3226 C1075.43,56.3226 1073.26,55.0726 1073.26,53.6195 C1073.26,53.1351 1073.44,52.9476 1074.16,52.6351 C1075.46,52.057 1076.01,51.2445 1076.01,50.0257 C1076.01,48.4476 1074.74,47.2445 1073.13,47.2445 C1071.19,47.2445 1069.93,48.7601 1069.93,51.1038 C1069.93,55.4788 1073.26,58.2132 1078.66,58.2132 C1085.46,58.2132 1090.63,53.6663 1090.63,47.6351 C1090.63,46.0257 1090.13,44.6195 1089.19,43.4945 C1088.19,42.3382 1087.3,41.7913 1085.32,41.1663"/>
</svg>
