<?xml version="1.0" encoding="UTF-8" standalone="no"?>
<svg width="1275.59px" height="283.465px" viewBox="0 0 1275.59 283.465"
 xmlns="http://www.w3.org/2000/svg" xmlns:xlink="http://www.w3.org/1999/xlink" version="1.2" baseProfile="tiny">
<title>drum_rudiments (31)</title>
<desc>Generated by MuseScore 3.6.2</desc>
<polyline class="StaffLines" fill="none" stroke="#000000" stroke-width="2.73" stroke-linejoin="bevel" points="0,173.622 1275.59,173.622"/>
<path class="MeasureNumber" d="M14.5938,59.8469 C16.4844,59.2532 17.2344,58.9251 18.2031,58.2844 C20.0781,57.0501 21.2344,54.8469 21.2344,52.6126 C21.2344,48.8157 18.2031,46.2532 13.7188,46.2532 C9.35938,46.2532 5.67188,48.9719 5.67188,52.2532 C5.67188,53.8938 6.67188,55.0188 8.20313,55.0188 C9.51563,55.0188 10.4844,54.0501 10.4844,52.7376 C10.4844,52.0501 10.2813,51.5657 9.64063,50.9407 C9.23438,50.5657 9.07813,50.3001 9.07813,50.0188 C9.07813,49.0501 11.0781,48.0501 12.9531,48.0501 C15.6406,48.0501 17.2344,49.5344 17.2344,52.0188 C17.2344,55.5657 14.7188,58.9251 12.0313,58.9251 C11.9219,58.9251 11.5625,58.8938 11.125,58.8469 C9.95313,58.7688 9.95313,58.7688 9.71875,58.7688 C8.84375,58.7688 8.35938,59.1751 8.35938,59.8938 C8.35938,60.5344 8.79688,60.9251 9.51563,60.9251 C9.71875,60.9251 10,60.8938 10.3125,60.8469 C10.875,60.7376 11.4844,60.6907 11.8438,60.6907 C13.7188,60.6907 15,62.3782 15,64.8469 C15,66.7688 14.5625,68.6126 13.6719,70.1282 C12.4844,72.2844 10.6406,73.3313 8.03125,73.3313 C5.79688,73.3313 3.875,72.2063 3.875,70.9251 C3.875,70.4876 4.04688,70.3313 4.67188,70.0501 C5.84375,69.5344 6.3125,68.8157 6.3125,67.7376 C6.3125,66.3313 5.20313,65.2532 3.76563,65.2532 C2.04688,65.2532 0.921875,66.6126 0.921875,68.6907 C0.921875,72.5657 3.875,75.0032 8.67188,75.0032 C14.7188,75.0032 19.3125,70.9719 19.3125,65.6126 C19.3125,64.1751 18.875,62.9251 18.0313,61.9251 C17.1563,60.8938 16.3594,60.4094 14.5938,59.8469 M41.5938,46.0969 L40.4375,46.0969 C38.2344,47.7376 34,49.1282 31.1094,49.1282 L30.6406,50.8938 L33.3906,50.8938 C35.8281,50.8938 36.1094,50.9719 36.1094,51.6907 C36.1094,52.0501 36.1094,52.0501 35.7188,53.4876 L31.4375,69.4876 C30.9063,71.4876 30.875,71.6126 30.5156,71.9719 C30.1094,72.3626 29.2656,72.4876 27.1563,72.5344 L25.4375,72.5344 L25.2344,74.4094 L40.0313,74.4094 L40.2656,72.5344 L38.1094,72.5344 C35.5156,72.5344 34.9531,72.3313 34.9531,71.4563 C34.9531,71.1751 35.1094,70.2532 35.3125,69.4876 L41.5938,46.0969 "/>
<path class="SlurSegment" stroke="#000000" stroke-width="1.74" stroke-linecap="round" stroke-linejoin="round" fill-rule="evenodd" d="M429.288,183.543 C430.615,195.216 450.032,210.098 461.649,208.346 C447.92,212.854 428.503,197.972 429.288,183.543"/>
<path class="SlurSegment" stroke="#000000" stroke-width="1.74" stroke-linecap="round" stroke-linejoin="round" fill-rule="evenodd" d="M704.486,208.346 C716.103,210.098 735.52,195.216 736.848,183.543 C737.633,197.972 718.216,212.854 704.486,208.346"/>
<path class="SlurSegment" stroke="#000000" stroke-width="1.74" stroke-linecap="round" stroke-linejoin="round" fill-rule="evenodd" d="M979.685,183.543 C981.013,195.216 1000.43,210.098 1012.05,208.346 C998.317,212.854 978.9,197.972 979.685,183.543"/>
<polyline class="BarLine" stroke="#000000" stroke-width="4.46" stroke-linejoin="bevel" points="1273.36,122.652 1273.36,224.593"/>
<polyline class="Stem" stroke="#000000" stroke-width="2.73" stroke-linejoin="bevel" points="201.205,158.046 201.205,99.2126"/>
<polyline class="Stem" stroke="#000000" stroke-width="1.91" stroke-linejoin="bevel" points="138.379,183.801 138.379,124.016"/>
<polyline class="Stem" stroke="#000000" stroke-width="1.91" stroke-linejoin="bevel" points="164.417,183.801 164.417,124.016"/>
<polyline class="Stem" stroke="#000000" stroke-width="2.73" stroke-linejoin="bevel" points="476.403,182.849 476.403,117.815"/>
<polyline class="Stem" stroke="#000000" stroke-width="1.91" stroke-linejoin="bevel" points="413.578,158.998 413.578,99.2126"/>
<polyline class="Stem" stroke="#000000" stroke-width="1.91" stroke-linejoin="bevel" points="439.616,158.998 439.616,99.2126"/>
<polyline class="Stem" stroke="#000000" stroke-width="2.73" stroke-linejoin="bevel" points="751.602,158.046 751.602,99.2126"/>
<polyline class="Stem" stroke="#000000" stroke-width="1.91" stroke-linejoin="bevel" points="688.776,183.801 688.776,124.016"/>
<polyline class="Stem" stroke="#000000" stroke-width="1.91" stroke-linejoin="bevel" points="714.814,183.801 714.814,124.016"/>
<polyline class="Stem" stroke="#000000" stroke-width="2.73" stroke-linejoin="bevel" points="1026.8,182.849 1026.8,117.815"/>
<polyline class="Stem" stroke="#000000" stroke-width="1.91" stroke-linejoin="bevel" points="963.975,158.998 963.975,99.2126"/>
<polyline class="Stem" stroke="#000000" stroke-width="1.91" stroke-linejoin="bevel" points="990.013,158.998 990.013,99.2126"/>
<path class="Note" transform="matrix(0.992126,0,0,0.992126,170.333,161.22)" d="M31.5,-8.09375 C29.7031,-11.4063 25.9063,-13.2031 21.2969,-13.2031 C17.9063,-13.2031 14.2031,-12.2031 10.5938,-10.2969 C4,-6.79688 0,-0.90625 0,4.20313 C0,5.59375 0.296875,7 1,8.29688 C2.79688,11.5938 6.59375,13.2969 11.2031,13.2969 C14.5938,13.2969 18.2969,12.4063 21.9063,10.5 C28.5,7 32.5,1.09375 32.5,-4 C32.5,-5.40625 32.2031,-6.79688 31.5,-8.09375"/>
<path class="Note" transform="matrix(0.694488,0,0,0.694488,116.769,186.024)" d="M31.5,-8.09375 C29.7031,-11.4063 25.9063,-13.2031 21.2969,-13.2031 C17.9063,-13.2031 14.2031,-12.2031 10.5938,-10.2969 C4,-6.79688 0,-0.90625 0,4.20313 C0,5.59375 0.296875,7 1,8.29688 C2.79688,11.5938 6.59375,13.2969 11.2031,13.2969 C14.5938,13.2969 18.2969,12.4063 21.9063,10.5 C28.5,7 32.5,1.09375 32.5,-4 C32.5,-5.40625 32.2031,-6.79688 31.5,-8.09375"/>
<path class="Note" transform="matrix(0.694488,0,0,0.694488,142.806,186.024)" d="M31.5,-8.09375 C29.7031,-11.4063 25.9063,-13.2031 21.2969,-13.2031 C17.9063,-13.2031 14.2031,-12.2031 10.5938,-10.2969 C4,-6.79688 0,-0.90625 0,4.20313 C0,5.59375 0.296875,7 1,8.29688 C2.79688,11.5938 6.59375,13.2969 11.2031,13.2969 C14.5938,13.2969 18.2969,12.4063 21.9063,10.5 C28.5,7 32.5,1.09375 32.5,-4 C32.5,-5.40625 32.2031,-6.79688 31.5,-8.09375"/>
<path class="Note" transform="matrix(0.992126,0,0,0.992126,445.531,186.024)" d="M31.5,-8.09375 C29.7031,-11.4063 25.9063,-13.2031 21.2969,-13.2031 C17.9063,-13.2031 14.2031,-12.2031 10.5938,-10.2969 C4,-6.79688 0,-0.90625 0,4.20313 C0,5.59375 0.296875,7 1,8.29688 C2.79688,11.5938 6.59375,13.2969 11.2031,13.2969 C14.5938,13.2969 18.2969,12.4063 21.9063,10.5 C28.5,7 32.5,1.09375 32.5,-4 C32.5,-5.40625 32.2031,-6.79688 31.5,-8.09375"/>
<path class="Note" transform="matrix(0.694488,0,0,0.694488,391.967,161.22)" d="M31.5,-8.09375 C29.7031,-11.4063 25.9063,-13.2031 21.2969,-13.2031 C17.9063,-13.2031 14.2031,-12.2031 10.5938,-10.2969 C4,-6.79688 0,-0.90625 0,4.20313 C0,5.59375 0.296875,7 1,8.29688 C2.79688,11.5938 6.59375,13.2969 11.2031,13.2969 C14.5938,13.2969 18.2969,12.4063 21.9063,10.5 C28.5,7 32.5,1.09375 32.5,-4 C32.5,-5.40625 32.2031,-6.79688 31.5,-8.09375"/>
<path class="Note" transform="matrix(0.694488,0,0,0.694488,418.005,161.22)" d="M31.5,-8.09375 C29.7031,-11.4063 25.9063,-13.2031 21.2969,-13.2031 C17.9063,-13.2031 14.2031,-12.2031 10.5938,-10.2969 C4,-6.79688 0,-0.90625 0,4.20313 C0,5.59375 0.296875,7 1,8.29688 C2.79688,11.5938 6.59375,13.2969 11.2031,13.2969 C14.5938,13.2969 18.2969,12.4063 21.9063,10.5 C28.5,7 32.5,1.09375 32.5,-4 C32.5,-5.40625 32.2031,-6.79688 31.5,-8.09375"/>
<path class="Note" transform="matrix(0.992126,0,0,0.992126,720.73,161.22)" d="M31.5,-8.09375 C29.7031,-11.4063 25.9063,-13.2031 21.2969,-13.2031 C17.9063,-13.2031 14.2031,-12.2031 10.5938,-10.2969 C4,-6.79688 0,-0.90625 0,4.20313 C0,5.59375 0.296875,7 1,8.29688 C2.79688,11.5938 6.59375,13.2969 11.2031,13.2969 C14.5938,13.2969 18.2969,12.4063 21.9063,10.5 C28.5,7 32.5,1.09375 32.5,-4 C32.5,-5.40625 32.2031,-6.79688 31.5,-8.09375"/>
<path class="Note" transform="matrix(0.694488,0,0,0.694488,667.166,186.024)" d="M31.5,-8.09375 C29.7031,-11.4063 25.9063,-13.2031 21.2969,-13.2031 C17.9063,-13.2031 14.2031,-12.2031 10.5938,-10.2969 C4,-6.79688 0,-0.90625 0,4.20313 C0,5.59375 0.296875,7 1,8.29688 C2.79688,11.5938 6.59375,13.2969 11.2031,13.2969 C14.5938,13.2969 18.2969,12.4063 21.9063,10.5 C28.5,7 32.5,1.09375 32.5,-4 C32.5,-5.40625 32.2031,-6.79688 31.5,-8.09375"/>
<path class="Note" transform="matrix(0.694488,0,0,0.694488,693.204,186.024)" d="M31.5,-8.09375 C29.7031,-11.4063 25.9063,-13.2031 21.2969,-13.2031 C17.9063,-13.2031 14.2031,-12.2031 10.5938,-10.2969 C4,-6.79688 0,-0.90625 0,4.20313 C0,5.59375 0.296875,7 1,8.29688 C2.79688,11.5938 6.59375,13.2969 11.2031,13.2969 C14.5938,13.2969 18.2969,12.4063 21.9063,10.5 C28.5,7 32.5,1.09375 32.5,-4 C32.5,-5.40625 32.2031,-6.79688 31.5,-8.09375"/>
<path class="Note" transform="matrix(0.992126,0,0,0.992126,995.928,186.024)" d="M31.5,-8.09375 C29.7031,-11.4063 25.9063,-13.2031 21.2969,-13.2031 C17.9063,-13.2031 14.2031,-12.2031 10.5938,-10.2969 C4,-6.79688 0,-0.90625 0,4.20313 C0,5.59375 0.296875,7 1,8.29688 C2.79688,11.5938 6.59375,13.2969 11.2031,13.2969 C14.5938,13.2969 18.2969,12.4063 21.9063,10.5 C28.5,7 32.5,1.09375 32.5,-4 C32.5,-5.40625 32.2031,-6.79688 31.5,-8.09375"/>
<path class="Note" transform="matrix(0.694488,0,0,0.694488,942.364,161.22)" d="M31.5,-8.09375 C29.7031,-11.4063 25.9063,-13.2031 21.2969,-13.2031 C17.9063,-13.2031 14.2031,-12.2031 10.5938,-10.2969 C4,-6.79688 0,-0.90625 0,4.20313 C0,5.59375 0.296875,7 1,8.29688 C2.79688,11.5938 6.59375,13.2969 11.2031,13.2969 C14.5938,13.2969 18.2969,12.4063 21.9063,10.5 C28.5,7 32.5,1.09375 32.5,-4 C32.5,-5.40625 32.2031,-6.79688 31.5,-8.09375"/>
<path class="Note" transform="matrix(0.694488,0,0,0.694488,968.402,161.22)" d="M31.5,-8.09375 C29.7031,-11.4063 25.9063,-13.2031 21.2969,-13.2031 C17.9063,-13.2031 14.2031,-12.2031 10.5938,-10.2969 C4,-6.79688 0,-0.90625 0,4.20313 C0,5.59375 0.296875,7 1,8.29688 C2.79688,11.5938 6.59375,13.2969 11.2031,13.2969 C14.5938,13.2969 18.2969,12.4063 21.9063,10.5 C28.5,7 32.5,1.09375 32.5,-4 C32.5,-5.40625 32.2031,-6.79688 31.5,-8.09375"/>
<path class="Clef" transform="matrix(0.992126,0,0,0.992126,19.8425,173.622)" d="M12.2969,-25.2031 L1.29688,-25.2031 C0.59375,-25.2031 0,-24.5938 0,-23.9063 L0,23.9063 C0,24.5938 0.59375,25.2031 1.29688,25.2031 L12.2969,25.2031 C13,25.2031 13.5938,24.5938 13.5938,23.9063 L13.5938,-23.9063 C13.5938,-24.5938 13,-25.2031 12.2969,-25.2031 M33.9063,-25.2031 L22.9063,-25.2031 C22.2031,-25.2031 21.5938,-24.5938 21.5938,-23.9063 L21.5938,23.9063 C21.5938,24.5938 22.2031,25.2031 22.9063,25.2031 L33.9063,25.2031 C34.6094,25.2031 35.2031,24.5938 35.2031,23.9063 L35.2031,-23.9063 C35.2031,-24.5938 34.6094,-25.2031 33.9063,-25.2031"/>
<path class="Beam" fill-rule="evenodd" d="M137.424,119.675 L165.372,119.675 L165.372,128.356 L137.424,128.356 L137.424,119.675 "/>
<path class="Beam" fill-rule="evenodd" d="M137.424,132.697 L165.372,132.697 L165.372,141.378 L137.424,141.378 L137.424,132.697 "/>
<path class="Beam" fill-rule="evenodd" d="M412.623,94.872 L440.571,94.872 L440.571,103.553 L412.623,103.553 L412.623,94.872 "/>
<path class="Beam" fill-rule="evenodd" d="M412.623,107.894 L440.571,107.894 L440.571,116.575 L412.623,116.575 L412.623,107.894 "/>
<path class="Beam" fill-rule="evenodd" d="M687.821,119.675 L715.769,119.675 L715.769,128.356 L687.821,128.356 L687.821,119.675 "/>
<path class="Beam" fill-rule="evenodd" d="M687.821,132.697 L715.769,132.697 L715.769,141.378 L687.821,141.378 L687.821,132.697 "/>
<path class="Beam" fill-rule="evenodd" d="M963.02,94.872 L990.968,94.872 L990.968,103.553 L963.02,103.553 L963.02,94.872 "/>
<path class="Beam" fill-rule="evenodd" d="M963.02,107.894 L990.968,107.894 L990.968,116.575 L963.02,116.575 L963.02,107.894 "/>
</svg>
