<?xml version="1.0" encoding="UTF-8" standalone="no"?>
<svg width="1275.59px" height="283.465px" viewBox="0 0 1275.59 283.465"
 xmlns="http://www.w3.org/2000/svg" xmlns:xlink="http://www.w3.org/1999/xlink" version="1.2" baseProfile="tiny">
<title>drum_rudiments (26)</title>
<desc>Generated by MuseScore 3.6.2</desc>
<polyline class="StaffLines" fill="none" stroke="#000000" stroke-width="2.73" stroke-linejoin="bevel" points="0,173.622 1275.59,173.622"/>
<path class="MeasureNumber" d="M19.3906,66.1282 L18.3594,67.9719 C16.75,70.7376 16.4375,70.9719 14.3906,71.0032 L5.125,71.0032 C6.07813,69.7376 7.84375,68.2532 11.0313,66.0032 C16.3125,62.3782 16.6719,62.1282 17.7969,61.2532 C21,58.7688 22.3125,56.4094 22.3125,53.2532 C22.3125,49.0501 19.2031,46.2532 14.5938,46.2532 C9.48438,46.2532 5.04688,50.0188 5.04688,54.3782 C5.04688,56.6126 6.23438,58.0501 8.15625,58.0501 C9.59375,58.0501 10.7188,56.9719 10.7188,55.4876 C10.7188,54.4563 10.2031,53.7688 8.875,53.0501 C7.92188,52.5657 7.76563,52.3782 7.76563,51.8938 C7.76563,50.1751 10.7188,48.2532 13.4375,48.2532 C16.2344,48.2532 18.125,50.1282 18.125,52.9407 C18.125,55.9251 16.7969,58.1282 13.2031,61.2532 C2.5625,70.4876 0.953125,72.1751 0.59375,74.4094 L17.75,74.4094 L20.8438,66.6907 L19.3906,66.1282 M30.5469,61.0188 C31.2344,57.4876 32.0313,55.3001 33.5469,52.6126 C35.3594,49.4563 37.5156,47.8469 39.9063,47.8469 C41.1563,47.8469 41.9063,48.3313 41.9063,49.0969 C41.9063,49.3782 41.8281,49.5344 41.5469,50.0501 C41.1875,50.7376 41.0313,51.2063 41.0313,51.8157 C41.0313,53.0969 41.9844,53.9719 43.3438,53.9719 C44.9844,53.9719 46.1094,52.7688 46.1094,50.9719 C46.1094,48.2532 43.5469,46.2532 39.9844,46.2532 C36.2344,46.2532 32.875,48.2532 30.1563,52.0969 C27.3594,56.0501 25.6719,61.1282 25.6719,65.5657 C25.6719,71.4563 28.5938,75.0032 33.4688,75.0032 C36.4688,75.0032 39.1563,73.8157 41.0781,71.6907 C42.8281,69.6907 43.9063,66.8157 43.9063,64.1751 C43.9063,60.0969 41.1563,57.2532 37.1563,57.2532 C34.3594,57.2532 32.1875,58.4563 30.5469,61.0188 M35.875,59.5657 C38.3594,59.5657 39.7188,61.2844 39.7188,64.4094 C39.7188,69.4876 37.0313,73.3626 33.4688,73.3626 C30.9063,73.3626 29.3906,71.4876 29.3906,68.2844 C29.3906,63.2844 32.1563,59.5657 35.875,59.5657"/>
<path class="SlurSegment" stroke="#000000" stroke-width="1.74" stroke-linecap="round" stroke-linejoin="round" fill-rule="evenodd" d="M128.051,208.346 C146.418,213.262 172.633,200.861 180.482,183.543 C175.603,207.139 149.388,219.54 128.051,208.346"/>
<path class="SlurSegment" stroke="#000000" stroke-width="1.74" stroke-linecap="round" stroke-linejoin="round" fill-rule="evenodd" d="M409.448,183.543 C417.297,200.861 443.513,213.262 461.879,208.346 C440.543,219.54 414.327,207.139 409.448,183.543"/>
<path class="SlurSegment" stroke="#000000" stroke-width="1.74" stroke-linecap="round" stroke-linejoin="round" fill-rule="evenodd" d="M690.845,208.346 C709.211,213.262 735.427,200.861 743.276,183.543 C738.397,207.139 712.181,219.54 690.845,208.346"/>
<path class="SlurSegment" stroke="#000000" stroke-width="1.74" stroke-linecap="round" stroke-linejoin="round" fill-rule="evenodd" d="M972.241,183.543 C980.09,200.861 1006.31,213.262 1024.67,208.346 C1003.34,219.54 977.121,207.139 972.241,183.543"/>
<polyline class="BarLine" stroke="#000000" stroke-width="4.46" stroke-linejoin="bevel" points="1273.36,122.652 1273.36,224.593"/>
<polyline class="Stem" stroke="#000000" stroke-width="2.73" stroke-linejoin="bevel" points="195.236,158.046 195.236,80.6102"/>
<polyline class="Stem" stroke="#000000" stroke-width="1.91" stroke-linejoin="bevel" points="138.379,183.801 138.379,125.256"/>
<polyline class="Stem" stroke="#000000" stroke-width="2.73" stroke-linejoin="bevel" points="259.614,158.046 259.614,80.6102"/>
<polyline class="Stem" stroke="#000000" stroke-width="2.73" stroke-linejoin="bevel" points="323.991,182.849 323.991,80.6102"/>
<polyline class="Stem" stroke="#000000" stroke-width="2.73" stroke-linejoin="bevel" points="388.368,158.046 388.368,80.6102"/>
<polyline class="Stem" stroke="#000000" stroke-width="2.73" stroke-linejoin="bevel" points="476.633,182.849 476.633,80.6102"/>
<polyline class="Stem" stroke="#000000" stroke-width="1.91" stroke-linejoin="bevel" points="419.776,158.998 419.776,100.453"/>
<polyline class="Stem" stroke="#000000" stroke-width="2.73" stroke-linejoin="bevel" points="541.01,182.849 541.01,80.6102"/>
<polyline class="Stem" stroke="#000000" stroke-width="2.73" stroke-linejoin="bevel" points="605.388,158.046 605.388,80.6102"/>
<polyline class="Stem" stroke="#000000" stroke-width="2.73" stroke-linejoin="bevel" points="669.765,182.849 669.765,80.6102"/>
<polyline class="Stem" stroke="#000000" stroke-width="2.73" stroke-linejoin="bevel" points="758.03,158.046 758.03,80.6102"/>
<polyline class="Stem" stroke="#000000" stroke-width="1.91" stroke-linejoin="bevel" points="701.172,183.801 701.172,125.256"/>
<polyline class="Stem" stroke="#000000" stroke-width="2.73" stroke-linejoin="bevel" points="822.407,158.046 822.407,80.6102"/>
<polyline class="Stem" stroke="#000000" stroke-width="2.73" stroke-linejoin="bevel" points="886.784,182.849 886.784,80.6102"/>
<polyline class="Stem" stroke="#000000" stroke-width="2.73" stroke-linejoin="bevel" points="951.161,158.046 951.161,80.6102"/>
<polyline class="Stem" stroke="#000000" stroke-width="2.73" stroke-linejoin="bevel" points="1039.43,182.849 1039.43,80.6102"/>
<polyline class="Stem" stroke="#000000" stroke-width="1.91" stroke-linejoin="bevel" points="982.569,158.998 982.569,100.453"/>
<polyline class="Stem" stroke="#000000" stroke-width="2.73" stroke-linejoin="bevel" points="1103.8,182.849 1103.8,80.6102"/>
<polyline class="Stem" stroke="#000000" stroke-width="2.73" stroke-linejoin="bevel" points="1168.18,158.046 1168.18,80.6102"/>
<polyline class="Stem" stroke="#000000" stroke-width="2.73" stroke-linejoin="bevel" points="1232.56,182.849 1232.56,80.6102"/>
<path class="Note" transform="matrix(0.992126,0,0,0.992126,164.364,161.22)" d="M31.5,-8.09375 C29.7031,-11.4063 25.9063,-13.2031 21.2969,-13.2031 C17.9063,-13.2031 14.2031,-12.2031 10.5938,-10.2969 C4,-6.79688 0,-0.90625 0,4.20313 C0,5.59375 0.296875,7 1,8.29688 C2.79688,11.5938 6.59375,13.2969 11.2031,13.2969 C14.5938,13.2969 18.2969,12.4063 21.9063,10.5 C28.5,7 32.5,1.09375 32.5,-4 C32.5,-5.40625 32.2031,-6.79688 31.5,-8.09375"/>
<path class="Note" transform="matrix(0.694488,0,0,0.694488,116.769,186.024)" d="M31.5,-8.09375 C29.7031,-11.4063 25.9063,-13.2031 21.2969,-13.2031 C17.9063,-13.2031 14.2031,-12.2031 10.5938,-10.2969 C4,-6.79688 0,-0.90625 0,4.20313 C0,5.59375 0.296875,7 1,8.29688 C2.79688,11.5938 6.59375,13.2969 11.2031,13.2969 C14.5938,13.2969 18.2969,12.4063 21.9063,10.5 C28.5,7 32.5,1.09375 32.5,-4 C32.5,-5.40625 32.2031,-6.79688 31.5,-8.09375"/>
<path class="Note" transform="matrix(0.992126,0,0,0.992126,228.741,161.22)" d="M31.5,-8.09375 C29.7031,-11.4063 25.9063,-13.2031 21.2969,-13.2031 C17.9063,-13.2031 14.2031,-12.2031 10.5938,-10.2969 C4,-6.79688 0,-0.90625 0,4.20313 C0,5.59375 0.296875,7 1,8.29688 C2.79688,11.5938 6.59375,13.2969 11.2031,13.2969 C14.5938,13.2969 18.2969,12.4063 21.9063,10.5 C28.5,7 32.5,1.09375 32.5,-4 C32.5,-5.40625 32.2031,-6.79688 31.5,-8.09375"/>
<path class="Note" transform="matrix(0.992126,0,0,0.992126,293.119,186.024)" d="M31.5,-8.09375 C29.7031,-11.4063 25.9063,-13.2031 21.2969,-13.2031 C17.9063,-13.2031 14.2031,-12.2031 10.5938,-10.2969 C4,-6.79688 0,-0.90625 0,4.20313 C0,5.59375 0.296875,7 1,8.29688 C2.79688,11.5938 6.59375,13.2969 11.2031,13.2969 C14.5938,13.2969 18.2969,12.4063 21.9063,10.5 C28.5,7 32.5,1.09375 32.5,-4 C32.5,-5.40625 32.2031,-6.79688 31.5,-8.09375"/>
<path class="Note" transform="matrix(0.992126,0,0,0.992126,357.496,161.22)" d="M31.5,-8.09375 C29.7031,-11.4063 25.9063,-13.2031 21.2969,-13.2031 C17.9063,-13.2031 14.2031,-12.2031 10.5938,-10.2969 C4,-6.79688 0,-0.90625 0,4.20313 C0,5.59375 0.296875,7 1,8.29688 C2.79688,11.5938 6.59375,13.2969 11.2031,13.2969 C14.5938,13.2969 18.2969,12.4063 21.9063,10.5 C28.5,7 32.5,1.09375 32.5,-4 C32.5,-5.40625 32.2031,-6.79688 31.5,-8.09375"/>
<path class="Note" transform="matrix(0.992126,0,0,0.992126,445.761,186.024)" d="M31.5,-8.09375 C29.7031,-11.4063 25.9063,-13.2031 21.2969,-13.2031 C17.9063,-13.2031 14.2031,-12.2031 10.5938,-10.2969 C4,-6.79688 0,-0.90625 0,4.20313 C0,5.59375 0.296875,7 1,8.29688 C2.79688,11.5938 6.59375,13.2969 11.2031,13.2969 C14.5938,13.2969 18.2969,12.4063 21.9063,10.5 C28.5,7 32.5,1.09375 32.5,-4 C32.5,-5.40625 32.2031,-6.79688 31.5,-8.09375"/>
<path class="Note" transform="matrix(0.694488,0,0,0.694488,398.165,161.22)" d="M31.5,-8.09375 C29.7031,-11.4063 25.9063,-13.2031 21.2969,-13.2031 C17.9063,-13.2031 14.2031,-12.2031 10.5938,-10.2969 C4,-6.79688 0,-0.90625 0,4.20313 C0,5.59375 0.296875,7 1,8.29688 C2.79688,11.5938 6.59375,13.2969 11.2031,13.2969 C14.5938,13.2969 18.2969,12.4063 21.9063,10.5 C28.5,7 32.5,1.09375 32.5,-4 C32.5,-5.40625 32.2031,-6.79688 31.5,-8.09375"/>
<path class="Note" transform="matrix(0.992126,0,0,0.992126,510.138,186.024)" d="M31.5,-8.09375 C29.7031,-11.4063 25.9063,-13.2031 21.2969,-13.2031 C17.9063,-13.2031 14.2031,-12.2031 10.5938,-10.2969 C4,-6.79688 0,-0.90625 0,4.20313 C0,5.59375 0.296875,7 1,8.29688 C2.79688,11.5938 6.59375,13.2969 11.2031,13.2969 C14.5938,13.2969 18.2969,12.4063 21.9063,10.5 C28.5,7 32.5,1.09375 32.5,-4 C32.5,-5.40625 32.2031,-6.79688 31.5,-8.09375"/>
<path class="Note" transform="matrix(0.992126,0,0,0.992126,574.515,161.22)" d="M31.5,-8.09375 C29.7031,-11.4063 25.9063,-13.2031 21.2969,-13.2031 C17.9063,-13.2031 14.2031,-12.2031 10.5938,-10.2969 C4,-6.79688 0,-0.90625 0,4.20313 C0,5.59375 0.296875,7 1,8.29688 C2.79688,11.5938 6.59375,13.2969 11.2031,13.2969 C14.5938,13.2969 18.2969,12.4063 21.9063,10.5 C28.5,7 32.5,1.09375 32.5,-4 C32.5,-5.40625 32.2031,-6.79688 31.5,-8.09375"/>
<path class="Note" transform="matrix(0.992126,0,0,0.992126,638.893,186.024)" d="M31.5,-8.09375 C29.7031,-11.4063 25.9063,-13.2031 21.2969,-13.2031 C17.9063,-13.2031 14.2031,-12.2031 10.5938,-10.2969 C4,-6.79688 0,-0.90625 0,4.20313 C0,5.59375 0.296875,7 1,8.29688 C2.79688,11.5938 6.59375,13.2969 11.2031,13.2969 C14.5938,13.2969 18.2969,12.4063 21.9063,10.5 C28.5,7 32.5,1.09375 32.5,-4 C32.5,-5.40625 32.2031,-6.79688 31.5,-8.09375"/>
<path class="Note" transform="matrix(0.992126,0,0,0.992126,727.158,161.22)" d="M31.5,-8.09375 C29.7031,-11.4063 25.9063,-13.2031 21.2969,-13.2031 C17.9063,-13.2031 14.2031,-12.2031 10.5938,-10.2969 C4,-6.79688 0,-0.90625 0,4.20313 C0,5.59375 0.296875,7 1,8.29688 C2.79688,11.5938 6.59375,13.2969 11.2031,13.2969 C14.5938,13.2969 18.2969,12.4063 21.9063,10.5 C28.5,7 32.5,1.09375 32.5,-4 C32.5,-5.40625 32.2031,-6.79688 31.5,-8.09375"/>
<path class="Note" transform="matrix(0.694488,0,0,0.694488,679.562,186.024)" d="M31.5,-8.09375 C29.7031,-11.4063 25.9063,-13.2031 21.2969,-13.2031 C17.9063,-13.2031 14.2031,-12.2031 10.5938,-10.2969 C4,-6.79688 0,-0.90625 0,4.20313 C0,5.59375 0.296875,7 1,8.29688 C2.79688,11.5938 6.59375,13.2969 11.2031,13.2969 C14.5938,13.2969 18.2969,12.4063 21.9063,10.5 C28.5,7 32.5,1.09375 32.5,-4 C32.5,-5.40625 32.2031,-6.79688 31.5,-8.09375"/>
<path class="Note" transform="matrix(0.992126,0,0,0.992126,791.535,161.22)" d="M31.5,-8.09375 C29.7031,-11.4063 25.9063,-13.2031 21.2969,-13.2031 C17.9063,-13.2031 14.2031,-12.2031 10.5938,-10.2969 C4,-6.79688 0,-0.90625 0,4.20313 C0,5.59375 0.296875,7 1,8.29688 C2.79688,11.5938 6.59375,13.2969 11.2031,13.2969 C14.5938,13.2969 18.2969,12.4063 21.9063,10.5 C28.5,7 32.5,1.09375 32.5,-4 C32.5,-5.40625 32.2031,-6.79688 31.5,-8.09375"/>
<path class="Note" transform="matrix(0.992126,0,0,0.992126,855.912,186.024)" d="M31.5,-8.09375 C29.7031,-11.4063 25.9063,-13.2031 21.2969,-13.2031 C17.9063,-13.2031 14.2031,-12.2031 10.5938,-10.2969 C4,-6.79688 0,-0.90625 0,4.20313 C0,5.59375 0.296875,7 1,8.29688 C2.79688,11.5938 6.59375,13.2969 11.2031,13.2969 C14.5938,13.2969 18.2969,12.4063 21.9063,10.5 C28.5,7 32.5,1.09375 32.5,-4 C32.5,-5.40625 32.2031,-6.79688 31.5,-8.09375"/>
<path class="Note" transform="matrix(0.992126,0,0,0.992126,920.289,161.22)" d="M31.5,-8.09375 C29.7031,-11.4063 25.9063,-13.2031 21.2969,-13.2031 C17.9063,-13.2031 14.2031,-12.2031 10.5938,-10.2969 C4,-6.79688 0,-0.90625 0,4.20313 C0,5.59375 0.296875,7 1,8.29688 C2.79688,11.5938 6.59375,13.2969 11.2031,13.2969 C14.5938,13.2969 18.2969,12.4063 21.9063,10.5 C28.5,7 32.5,1.09375 32.5,-4 C32.5,-5.40625 32.2031,-6.79688 31.5,-8.09375"/>
<path class="Note" transform="matrix(0.992126,0,0,0.992126,1008.55,186.024)" d="M31.5,-8.09375 C29.7031,-11.4063 25.9063,-13.2031 21.2969,-13.2031 C17.9063,-13.2031 14.2031,-12.2031 10.5938,-10.2969 C4,-6.79688 0,-0.90625 0,4.20313 C0,5.59375 0.296875,7 1,8.29688 C2.79688,11.5938 6.59375,13.2969 11.2031,13.2969 C14.5938,13.2969 18.2969,12.4063 21.9063,10.5 C28.5,7 32.5,1.09375 32.5,-4 C32.5,-5.40625 32.2031,-6.79688 31.5,-8.09375"/>
<path class="Note" transform="matrix(0.694488,0,0,0.694488,960.959,161.22)" d="M31.5,-8.09375 C29.7031,-11.4063 25.9063,-13.2031 21.2969,-13.2031 C17.9063,-13.2031 14.2031,-12.2031 10.5938,-10.2969 C4,-6.79688 0,-0.90625 0,4.20313 C0,5.59375 0.296875,7 1,8.29688 C2.79688,11.5938 6.59375,13.2969 11.2031,13.2969 C14.5938,13.2969 18.2969,12.4063 21.9063,10.5 C28.5,7 32.5,1.09375 32.5,-4 C32.5,-5.40625 32.2031,-6.79688 31.5,-8.09375"/>
<path class="Note" transform="matrix(0.992126,0,0,0.992126,1072.93,186.024)" d="M31.5,-8.09375 C29.7031,-11.4063 25.9063,-13.2031 21.2969,-13.2031 C17.9063,-13.2031 14.2031,-12.2031 10.5938,-10.2969 C4,-6.79688 0,-0.90625 0,4.20313 C0,5.59375 0.296875,7 1,8.29688 C2.79688,11.5938 6.59375,13.2969 11.2031,13.2969 C14.5938,13.2969 18.2969,12.4063 21.9063,10.5 C28.5,7 32.5,1.09375 32.5,-4 C32.5,-5.40625 32.2031,-6.79688 31.5,-8.09375"/>
<path class="Note" transform="matrix(0.992126,0,0,0.992126,1137.31,161.22)" d="M31.5,-8.09375 C29.7031,-11.4063 25.9063,-13.2031 21.2969,-13.2031 C17.9063,-13.2031 14.2031,-12.2031 10.5938,-10.2969 C4,-6.79688 0,-0.90625 0,4.20313 C0,5.59375 0.296875,7 1,8.29688 C2.79688,11.5938 6.59375,13.2969 11.2031,13.2969 C14.5938,13.2969 18.2969,12.4063 21.9063,10.5 C28.5,7 32.5,1.09375 32.5,-4 C32.5,-5.40625 32.2031,-6.79688 31.5,-8.09375"/>
<path class="Note" transform="matrix(0.992126,0,0,0.992126,1201.69,186.024)" d="M31.5,-8.09375 C29.7031,-11.4063 25.9063,-13.2031 21.2969,-13.2031 C17.9063,-13.2031 14.2031,-12.2031 10.5938,-10.2969 C4,-6.79688 0,-0.90625 0,4.20313 C0,5.59375 0.296875,7 1,8.29688 C2.79688,11.5938 6.59375,13.2969 11.2031,13.2969 C14.5938,13.2969 18.2969,12.4063 21.9063,10.5 C28.5,7 32.5,1.09375 32.5,-4 C32.5,-5.40625 32.2031,-6.79688 31.5,-8.09375"/>
<path class="Clef" transform="matrix(0.992126,0,0,0.992126,19.8425,173.622)" d="M12.2969,-25.2031 L1.29688,-25.2031 C0.59375,-25.2031 0,-24.5938 0,-23.9063 L0,23.9063 C0,24.5938 0.59375,25.2031 1.29688,25.2031 L12.2969,25.2031 C13,25.2031 13.5938,24.5938 13.5938,23.9063 L13.5938,-23.9063 C13.5938,-24.5938 13,-25.2031 12.2969,-25.2031 M33.9063,-25.2031 L22.9063,-25.2031 C22.2031,-25.2031 21.5938,-24.5938 21.5938,-23.9063 L21.5938,23.9063 C21.5938,24.5938 22.2031,25.2031 22.9063,25.2031 L33.9063,25.2031 C34.6094,25.2031 35.2031,24.5938 35.2031,23.9063 L35.2031,-23.9063 C35.2031,-24.5938 34.6094,-25.2031 33.9063,-25.2031"/>
<path class="Articulation" transform="matrix(0.992126,0,0,0.992126,162.578,212.191)" d="M35.1094,10.4063 L1.79688,0.09375 C1.70313,0.09375 1.5,0 1.40625,0 C0.59375,0 0,0.59375 0,1.40625 L0,3.70313 C0,4.29688 0.5,4.79688 1,5 L22.4063,11.7031 L1,18.5 C0.5,18.7031 0,19.2031 0,19.7969 L0,22.0938 C0,22.9063 0.59375,23.5 1.40625,23.5 C1.5,23.5 1.70313,23.4063 1.79688,23.4063 L35.1094,13.0938 C35.6094,12.9063 36.1094,12.2969 36.1094,11.7031 C36.1094,11.0938 35.6094,10.5938 35.1094,10.4063"/>
<path class="Articulation" transform="matrix(0.992126,0,0,0.992126,443.974,228.424)" d="M35.1094,10.4063 L1.79688,0.09375 C1.70313,0.09375 1.5,0 1.40625,0 C0.59375,0 0,0.59375 0,1.40625 L0,3.70313 C0,4.29688 0.5,4.79688 1,5 L22.4063,11.7031 L1,18.5 C0.5,18.7031 0,19.2031 0,19.7969 L0,22.0938 C0,22.9063 0.59375,23.5 1.40625,23.5 C1.5,23.5 1.70313,23.4063 1.79688,23.4063 L35.1094,13.0938 C35.6094,12.9063 36.1094,12.2969 36.1094,11.7031 C36.1094,11.0938 35.6094,10.5938 35.1094,10.4063"/>
<path class="Articulation" transform="matrix(0.992126,0,0,0.992126,725.371,212.191)" d="M35.1094,10.4063 L1.79688,0.09375 C1.70313,0.09375 1.5,0 1.40625,0 C0.59375,0 0,0.59375 0,1.40625 L0,3.70313 C0,4.29688 0.5,4.79688 1,5 L22.4063,11.7031 L1,18.5 C0.5,18.7031 0,19.2031 0,19.7969 L0,22.0938 C0,22.9063 0.59375,23.5 1.40625,23.5 C1.5,23.5 1.70313,23.4063 1.79688,23.4063 L35.1094,13.0938 C35.6094,12.9063 36.1094,12.2969 36.1094,11.7031 C36.1094,11.0938 35.6094,10.5938 35.1094,10.4063"/>
<path class="Articulation" transform="matrix(0.992126,0,0,0.992126,1006.77,228.424)" d="M35.1094,10.4063 L1.79688,0.09375 C1.70313,0.09375 1.5,0 1.40625,0 C0.59375,0 0,0.59375 0,1.40625 L0,3.70313 C0,4.29688 0.5,4.79688 1,5 L22.4063,11.7031 L1,18.5 C0.5,18.7031 0,19.2031 0,19.7969 L0,22.0938 C0,22.9063 0.59375,23.5 1.40625,23.5 C1.5,23.5 1.70313,23.4063 1.79688,23.4063 L35.1094,13.0938 C35.6094,12.9063 36.1094,12.2969 36.1094,11.7031 C36.1094,11.0938 35.6094,10.5938 35.1094,10.4063"/>
<path class="Beam" fill-rule="evenodd" d="M193.872,74.4094 L389.732,74.4094 L389.732,86.811 L193.872,86.811 L193.872,74.4094 "/>
<path class="Beam" fill-rule="evenodd" d="M193.872,93.0118 L389.732,93.0118 L389.732,105.413 L193.872,105.413 L193.872,93.0118 "/>
<path class="Beam" fill-rule="evenodd" d="M475.269,74.4094 L671.129,74.4094 L671.129,86.811 L475.269,86.811 L475.269,74.4094 "/>
<path class="Beam" fill-rule="evenodd" d="M475.269,93.0118 L671.129,93.0118 L671.129,105.413 L475.269,105.413 L475.269,93.0118 "/>
<path class="Beam" fill-rule="evenodd" d="M756.666,74.4094 L952.526,74.4094 L952.526,86.811 L756.666,86.811 L756.666,74.4094 "/>
<path class="Beam" fill-rule="evenodd" d="M756.666,93.0118 L952.526,93.0118 L952.526,105.413 L756.666,105.413 L756.666,93.0118 "/>
<path class="Beam" fill-rule="evenodd" d="M1038.06,74.4094 L1233.92,74.4094 L1233.92,86.811 L1038.06,86.811 L1038.06,74.4094 "/>
<path class="Beam" fill-rule="evenodd" d="M1038.06,93.0118 L1233.92,93.0118 L1233.92,105.413 L1038.06,105.413 L1038.06,93.0118 "/>
<path class="Hook" transform="matrix(0.694488,0,0,0.694488,137.424,125.256)" d="M3.5,3.5 C3.40625,3.20313 2.5,-0.296875 2.5,-0.5 C2.40625,-0.90625 1.79688,-1.20313 1.29688,-1.20313 C0.59375,-1.20313 0,-0.59375 0,0.09375 L0,16.5 L0,22.7031 C0,23.2031 0.40625,23.5938 0.796875,23.7969 C5,25.0938 13.7031,30.6094 20.2031,41.7031 C22,44.7969 24.9063,49 24.9063,57.4063 C24.9063,64.6094 23.7969,72.2031 22,79.2031 C21.7031,80.3125 21.4063,81.3125 22.5,81.7031 C23.5938,82.1094 24,81.3125 24.4063,80.3125 C28,71.5 28.9063,62.2969 28.9063,56.1094 L28.9063,54.2031 C28.4063,41.2969 21,31.7969 21,31.7969 C21.2969,31.7969 11.7969,19.5 9.09375,15.2969 C5.40625,9.59375 3.59375,3.90625 3.5,3.5"/>
<path class="Hook" transform="matrix(0.694488,0,0,0.694488,418.821,100.453)" d="M3.5,3.5 C3.40625,3.20313 2.5,-0.296875 2.5,-0.5 C2.40625,-0.90625 1.79688,-1.20313 1.29688,-1.20313 C0.59375,-1.20313 0,-0.59375 0,0.09375 L0,16.5 L0,22.7031 C0,23.2031 0.40625,23.5938 0.796875,23.7969 C5,25.0938 13.7031,30.6094 20.2031,41.7031 C22,44.7969 24.9063,49 24.9063,57.4063 C24.9063,64.6094 23.7969,72.2031 22,79.2031 C21.7031,80.3125 21.4063,81.3125 22.5,81.7031 C23.5938,82.1094 24,81.3125 24.4063,80.3125 C28,71.5 28.9063,62.2969 28.9063,56.1094 L28.9063,54.2031 C28.4063,41.2969 21,31.7969 21,31.7969 C21.2969,31.7969 11.7969,19.5 9.09375,15.2969 C5.40625,9.59375 3.59375,3.90625 3.5,3.5"/>
<path class="Hook" transform="matrix(0.694488,0,0,0.694488,700.218,125.256)" d="M3.5,3.5 C3.40625,3.20313 2.5,-0.296875 2.5,-0.5 C2.40625,-0.90625 1.79688,-1.20313 1.29688,-1.20313 C0.59375,-1.20313 0,-0.59375 0,0.09375 L0,16.5 L0,22.7031 C0,23.2031 0.40625,23.5938 0.796875,23.7969 C5,25.0938 13.7031,30.6094 20.2031,41.7031 C22,44.7969 24.9063,49 24.9063,57.4063 C24.9063,64.6094 23.7969,72.2031 22,79.2031 C21.7031,80.3125 21.4063,81.3125 22.5,81.7031 C23.5938,82.1094 24,81.3125 24.4063,80.3125 C28,71.5 28.9063,62.2969 28.9063,56.1094 L28.9063,54.2031 C28.4063,41.2969 21,31.7969 21,31.7969 C21.2969,31.7969 11.7969,19.5 9.09375,15.2969 C5.40625,9.59375 3.59375,3.90625 3.5,3.5"/>
<path class="Hook" transform="matrix(0.694488,0,0,0.694488,981.614,100.453)" d="M3.5,3.5 C3.40625,3.20313 2.5,-0.296875 2.5,-0.5 C2.40625,-0.90625 1.79688,-1.20313 1.29688,-1.20313 C0.59375,-1.20313 0,-0.59375 0,0.09375 L0,16.5 L0,22.7031 C0,23.2031 0.40625,23.5938 0.796875,23.7969 C5,25.0938 13.7031,30.6094 20.2031,41.7031 C22,44.7969 24.9063,49 24.9063,57.4063 C24.9063,64.6094 23.7969,72.2031 22,79.2031 C21.7031,80.3125 21.4063,81.3125 22.5,81.7031 C23.5938,82.1094 24,81.3125 24.4063,80.3125 C28,71.5 28.9063,62.2969 28.9063,56.1094 L28.9063,54.2031 C28.4063,41.2969 21,31.7969 21,31.7969 C21.2969,31.7969 11.7969,19.5 9.09375,15.2969 C5.40625,9.59375 3.59375,3.90625 3.5,3.5"/>
</svg>
