<?xml version="1.0" encoding="UTF-8" standalone="no"?>
<svg width="1275.59px" height="283.465px" viewBox="0 0 1275.59 283.465"
 xmlns="http://www.w3.org/2000/svg" xmlns:xlink="http://www.w3.org/1999/xlink" version="1.2" baseProfile="tiny">
<title>drum_rudiments (21)</title>
<desc>Generated by MuseScore 3.6.2</desc>
<polyline class="StaffLines" fill="none" stroke="#000000" stroke-width="2.73" stroke-linejoin="bevel" points="0,173.622 1275.59,173.622"/>
<path class="MeasureNumber" d="M19.3906,66.1282 L18.3594,67.9719 C16.75,70.7376 16.4375,70.9719 14.3906,71.0032 L5.125,71.0032 C6.07813,69.7376 7.84375,68.2532 11.0313,66.0032 C16.3125,62.3782 16.6719,62.1282 17.7969,61.2532 C21,58.7688 22.3125,56.4094 22.3125,53.2532 C22.3125,49.0501 19.2031,46.2532 14.5938,46.2532 C9.48438,46.2532 5.04688,50.0188 5.04688,54.3782 C5.04688,56.6126 6.23438,58.0501 8.15625,58.0501 C9.59375,58.0501 10.7188,56.9719 10.7188,55.4876 C10.7188,54.4563 10.2031,53.7688 8.875,53.0501 C7.92188,52.5657 7.76563,52.3782 7.76563,51.8938 C7.76563,50.1751 10.7188,48.2532 13.4375,48.2532 C16.2344,48.2532 18.125,50.1282 18.125,52.9407 C18.125,55.9251 16.7969,58.1282 13.2031,61.2532 C2.5625,70.4876 0.953125,72.1751 0.59375,74.4094 L17.75,74.4094 L20.8438,66.6907 L19.3906,66.1282 M42.5938,46.0969 L41.4375,46.0969 C39.2344,47.7376 35,49.1282 32.1094,49.1282 L31.6406,50.8938 L34.3906,50.8938 C36.8281,50.8938 37.1094,50.9719 37.1094,51.6907 C37.1094,52.0501 37.1094,52.0501 36.7188,53.4876 L32.4375,69.4876 C31.9063,71.4876 31.875,71.6126 31.5156,71.9719 C31.1094,72.3626 30.2656,72.4876 28.1563,72.5344 L26.4375,72.5344 L26.2344,74.4094 L41.0313,74.4094 L41.2656,72.5344 L39.1094,72.5344 C36.5156,72.5344 35.9531,72.3313 35.9531,71.4563 C35.9531,71.1751 36.1094,70.2532 36.3125,69.4876 L42.5938,46.0969 "/>
<path class="SlurSegment" stroke="#000000" stroke-width="1.74" stroke-linecap="round" stroke-linejoin="round" fill-rule="evenodd" d="M128.051,208.346 C146.418,213.262 172.633,200.861 180.482,183.543 C175.603,207.139 149.388,219.54 128.051,208.346"/>
<path class="SlurSegment" stroke="#000000" stroke-width="1.74" stroke-linecap="round" stroke-linejoin="round" fill-rule="evenodd" d="M404.742,183.543 C412.591,200.861 438.807,213.262 457.173,208.346 C435.837,219.54 409.621,207.139 404.742,183.543"/>
<path class="SlurSegment" stroke="#000000" stroke-width="1.74" stroke-linecap="round" stroke-linejoin="round" fill-rule="evenodd" d="M681.433,208.346 C699.799,213.262 726.015,200.861 733.864,183.543 C728.985,207.139 702.769,219.54 681.433,208.346"/>
<path class="SlurSegment" stroke="#000000" stroke-width="1.74" stroke-linecap="round" stroke-linejoin="round" fill-rule="evenodd" d="M958.123,183.543 C965.972,200.861 992.188,213.262 1010.55,208.346 C989.218,219.54 963.003,207.139 958.123,183.543"/>
<polyline class="BarLine" stroke="#000000" stroke-width="4.46" stroke-linejoin="bevel" points="1273.36,122.652 1273.36,224.593"/>
<polyline class="Stem" stroke="#000000" stroke-width="2.73" stroke-linejoin="bevel" points="195.236,158.046 195.236,93.0118"/>
<polyline class="Stem" stroke="#000000" stroke-width="1.91" stroke-linejoin="bevel" points="138.379,183.801 138.379,125.256"/>
<polyline class="Stem" stroke="#000000" stroke-width="2.73" stroke-linejoin="bevel" points="287.467,182.849 287.467,93.0118"/>
<polyline class="Stem" stroke="#000000" stroke-width="2.73" stroke-linejoin="bevel" points="379.697,158.046 379.697,93.0118"/>
<polyline class="Stem" stroke="#000000" stroke-width="2.73" stroke-linejoin="bevel" points="471.927,182.849 471.927,99.2126"/>
<polyline class="Stem" stroke="#000000" stroke-width="1.91" stroke-linejoin="bevel" points="415.07,158.998 415.07,100.453"/>
<polyline class="Stem" stroke="#000000" stroke-width="2.73" stroke-linejoin="bevel" points="564.157,158.046 564.157,99.2126"/>
<polyline class="Stem" stroke="#000000" stroke-width="2.73" stroke-linejoin="bevel" points="656.388,182.849 656.388,99.2126"/>
<polyline class="Stem" stroke="#000000" stroke-width="2.73" stroke-linejoin="bevel" points="748.618,158.046 748.618,93.0118"/>
<polyline class="Stem" stroke="#000000" stroke-width="1.91" stroke-linejoin="bevel" points="691.76,183.801 691.76,125.256"/>
<polyline class="Stem" stroke="#000000" stroke-width="2.73" stroke-linejoin="bevel" points="840.848,182.849 840.848,93.0118"/>
<polyline class="Stem" stroke="#000000" stroke-width="2.73" stroke-linejoin="bevel" points="933.078,158.046 933.078,93.0118"/>
<polyline class="Stem" stroke="#000000" stroke-width="2.73" stroke-linejoin="bevel" points="1025.31,182.849 1025.31,99.2126"/>
<polyline class="Stem" stroke="#000000" stroke-width="1.91" stroke-linejoin="bevel" points="968.451,158.998 968.451,100.453"/>
<polyline class="Stem" stroke="#000000" stroke-width="2.73" stroke-linejoin="bevel" points="1117.54,158.046 1117.54,99.2126"/>
<polyline class="Stem" stroke="#000000" stroke-width="2.73" stroke-linejoin="bevel" points="1209.77,182.849 1209.77,99.2126"/>
<path class="Note" transform="matrix(0.992126,0,0,0.992126,164.364,161.22)" d="M31.5,-8.09375 C29.7031,-11.4063 25.9063,-13.2031 21.2969,-13.2031 C17.9063,-13.2031 14.2031,-12.2031 10.5938,-10.2969 C4,-6.79688 0,-0.90625 0,4.20313 C0,5.59375 0.296875,7 1,8.29688 C2.79688,11.5938 6.59375,13.2969 11.2031,13.2969 C14.5938,13.2969 18.2969,12.4063 21.9063,10.5 C28.5,7 32.5,1.09375 32.5,-4 C32.5,-5.40625 32.2031,-6.79688 31.5,-8.09375"/>
<path class="Note" transform="matrix(0.694488,0,0,0.694488,116.769,186.024)" d="M31.5,-8.09375 C29.7031,-11.4063 25.9063,-13.2031 21.2969,-13.2031 C17.9063,-13.2031 14.2031,-12.2031 10.5938,-10.2969 C4,-6.79688 0,-0.90625 0,4.20313 C0,5.59375 0.296875,7 1,8.29688 C2.79688,11.5938 6.59375,13.2969 11.2031,13.2969 C14.5938,13.2969 18.2969,12.4063 21.9063,10.5 C28.5,7 32.5,1.09375 32.5,-4 C32.5,-5.40625 32.2031,-6.79688 31.5,-8.09375"/>
<path class="Note" transform="matrix(0.992126,0,0,0.992126,256.595,186.024)" d="M31.5,-8.09375 C29.7031,-11.4063 25.9063,-13.2031 21.2969,-13.2031 C17.9063,-13.2031 14.2031,-12.2031 10.5938,-10.2969 C4,-6.79688 0,-0.90625 0,4.20313 C0,5.59375 0.296875,7 1,8.29688 C2.79688,11.5938 6.59375,13.2969 11.2031,13.2969 C14.5938,13.2969 18.2969,12.4063 21.9063,10.5 C28.5,7 32.5,1.09375 32.5,-4 C32.5,-5.40625 32.2031,-6.79688 31.5,-8.09375"/>
<path class="Note" transform="matrix(0.992126,0,0,0.992126,348.825,161.22)" d="M31.5,-8.09375 C29.7031,-11.4063 25.9063,-13.2031 21.2969,-13.2031 C17.9063,-13.2031 14.2031,-12.2031 10.5938,-10.2969 C4,-6.79688 0,-0.90625 0,4.20313 C0,5.59375 0.296875,7 1,8.29688 C2.79688,11.5938 6.59375,13.2969 11.2031,13.2969 C14.5938,13.2969 18.2969,12.4063 21.9063,10.5 C28.5,7 32.5,1.09375 32.5,-4 C32.5,-5.40625 32.2031,-6.79688 31.5,-8.09375"/>
<path class="Note" transform="matrix(0.992126,0,0,0.992126,441.055,186.024)" d="M31.5,-8.09375 C29.7031,-11.4063 25.9063,-13.2031 21.2969,-13.2031 C17.9063,-13.2031 14.2031,-12.2031 10.5938,-10.2969 C4,-6.79688 0,-0.90625 0,4.20313 C0,5.59375 0.296875,7 1,8.29688 C2.79688,11.5938 6.59375,13.2969 11.2031,13.2969 C14.5938,13.2969 18.2969,12.4063 21.9063,10.5 C28.5,7 32.5,1.09375 32.5,-4 C32.5,-5.40625 32.2031,-6.79688 31.5,-8.09375"/>
<path class="Note" transform="matrix(0.694488,0,0,0.694488,393.459,161.22)" d="M31.5,-8.09375 C29.7031,-11.4063 25.9063,-13.2031 21.2969,-13.2031 C17.9063,-13.2031 14.2031,-12.2031 10.5938,-10.2969 C4,-6.79688 0,-0.90625 0,4.20313 C0,5.59375 0.296875,7 1,8.29688 C2.79688,11.5938 6.59375,13.2969 11.2031,13.2969 C14.5938,13.2969 18.2969,12.4063 21.9063,10.5 C28.5,7 32.5,1.09375 32.5,-4 C32.5,-5.40625 32.2031,-6.79688 31.5,-8.09375"/>
<path class="Note" transform="matrix(0.992126,0,0,0.992126,533.285,161.22)" d="M31.5,-8.09375 C29.7031,-11.4063 25.9063,-13.2031 21.2969,-13.2031 C17.9063,-13.2031 14.2031,-12.2031 10.5938,-10.2969 C4,-6.79688 0,-0.90625 0,4.20313 C0,5.59375 0.296875,7 1,8.29688 C2.79688,11.5938 6.59375,13.2969 11.2031,13.2969 C14.5938,13.2969 18.2969,12.4063 21.9063,10.5 C28.5,7 32.5,1.09375 32.5,-4 C32.5,-5.40625 32.2031,-6.79688 31.5,-8.09375"/>
<path class="Note" transform="matrix(0.992126,0,0,0.992126,625.515,186.024)" d="M31.5,-8.09375 C29.7031,-11.4063 25.9063,-13.2031 21.2969,-13.2031 C17.9063,-13.2031 14.2031,-12.2031 10.5938,-10.2969 C4,-6.79688 0,-0.90625 0,4.20313 C0,5.59375 0.296875,7 1,8.29688 C2.79688,11.5938 6.59375,13.2969 11.2031,13.2969 C14.5938,13.2969 18.2969,12.4063 21.9063,10.5 C28.5,7 32.5,1.09375 32.5,-4 C32.5,-5.40625 32.2031,-6.79688 31.5,-8.09375"/>
<path class="Note" transform="matrix(0.992126,0,0,0.992126,717.746,161.22)" d="M31.5,-8.09375 C29.7031,-11.4063 25.9063,-13.2031 21.2969,-13.2031 C17.9063,-13.2031 14.2031,-12.2031 10.5938,-10.2969 C4,-6.79688 0,-0.90625 0,4.20313 C0,5.59375 0.296875,7 1,8.29688 C2.79688,11.5938 6.59375,13.2969 11.2031,13.2969 C14.5938,13.2969 18.2969,12.4063 21.9063,10.5 C28.5,7 32.5,1.09375 32.5,-4 C32.5,-5.40625 32.2031,-6.79688 31.5,-8.09375"/>
<path class="Note" transform="matrix(0.694488,0,0,0.694488,670.15,186.024)" d="M31.5,-8.09375 C29.7031,-11.4063 25.9063,-13.2031 21.2969,-13.2031 C17.9063,-13.2031 14.2031,-12.2031 10.5938,-10.2969 C4,-6.79688 0,-0.90625 0,4.20313 C0,5.59375 0.296875,7 1,8.29688 C2.79688,11.5938 6.59375,13.2969 11.2031,13.2969 C14.5938,13.2969 18.2969,12.4063 21.9063,10.5 C28.5,7 32.5,1.09375 32.5,-4 C32.5,-5.40625 32.2031,-6.79688 31.5,-8.09375"/>
<path class="Note" transform="matrix(0.992126,0,0,0.992126,809.976,186.024)" d="M31.5,-8.09375 C29.7031,-11.4063 25.9063,-13.2031 21.2969,-13.2031 C17.9063,-13.2031 14.2031,-12.2031 10.5938,-10.2969 C4,-6.79688 0,-0.90625 0,4.20313 C0,5.59375 0.296875,7 1,8.29688 C2.79688,11.5938 6.59375,13.2969 11.2031,13.2969 C14.5938,13.2969 18.2969,12.4063 21.9063,10.5 C28.5,7 32.5,1.09375 32.5,-4 C32.5,-5.40625 32.2031,-6.79688 31.5,-8.09375"/>
<path class="Note" transform="matrix(0.992126,0,0,0.992126,902.206,161.22)" d="M31.5,-8.09375 C29.7031,-11.4063 25.9063,-13.2031 21.2969,-13.2031 C17.9063,-13.2031 14.2031,-12.2031 10.5938,-10.2969 C4,-6.79688 0,-0.90625 0,4.20313 C0,5.59375 0.296875,7 1,8.29688 C2.79688,11.5938 6.59375,13.2969 11.2031,13.2969 C14.5938,13.2969 18.2969,12.4063 21.9063,10.5 C28.5,7 32.5,1.09375 32.5,-4 C32.5,-5.40625 32.2031,-6.79688 31.5,-8.09375"/>
<path class="Note" transform="matrix(0.992126,0,0,0.992126,994.436,186.024)" d="M31.5,-8.09375 C29.7031,-11.4063 25.9063,-13.2031 21.2969,-13.2031 C17.9063,-13.2031 14.2031,-12.2031 10.5938,-10.2969 C4,-6.79688 0,-0.90625 0,4.20313 C0,5.59375 0.296875,7 1,8.29688 C2.79688,11.5938 6.59375,13.2969 11.2031,13.2969 C14.5938,13.2969 18.2969,12.4063 21.9063,10.5 C28.5,7 32.5,1.09375 32.5,-4 C32.5,-5.40625 32.2031,-6.79688 31.5,-8.09375"/>
<path class="Note" transform="matrix(0.694488,0,0,0.694488,946.841,161.22)" d="M31.5,-8.09375 C29.7031,-11.4063 25.9063,-13.2031 21.2969,-13.2031 C17.9063,-13.2031 14.2031,-12.2031 10.5938,-10.2969 C4,-6.79688 0,-0.90625 0,4.20313 C0,5.59375 0.296875,7 1,8.29688 C2.79688,11.5938 6.59375,13.2969 11.2031,13.2969 C14.5938,13.2969 18.2969,12.4063 21.9063,10.5 C28.5,7 32.5,1.09375 32.5,-4 C32.5,-5.40625 32.2031,-6.79688 31.5,-8.09375"/>
<path class="Note" transform="matrix(0.992126,0,0,0.992126,1086.67,161.22)" d="M31.5,-8.09375 C29.7031,-11.4063 25.9063,-13.2031 21.2969,-13.2031 C17.9063,-13.2031 14.2031,-12.2031 10.5938,-10.2969 C4,-6.79688 0,-0.90625 0,4.20313 C0,5.59375 0.296875,7 1,8.29688 C2.79688,11.5938 6.59375,13.2969 11.2031,13.2969 C14.5938,13.2969 18.2969,12.4063 21.9063,10.5 C28.5,7 32.5,1.09375 32.5,-4 C32.5,-5.40625 32.2031,-6.79688 31.5,-8.09375"/>
<path class="Note" transform="matrix(0.992126,0,0,0.992126,1178.9,186.024)" d="M31.5,-8.09375 C29.7031,-11.4063 25.9063,-13.2031 21.2969,-13.2031 C17.9063,-13.2031 14.2031,-12.2031 10.5938,-10.2969 C4,-6.79688 0,-0.90625 0,4.20313 C0,5.59375 0.296875,7 1,8.29688 C2.79688,11.5938 6.59375,13.2969 11.2031,13.2969 C14.5938,13.2969 18.2969,12.4063 21.9063,10.5 C28.5,7 32.5,1.09375 32.5,-4 C32.5,-5.40625 32.2031,-6.79688 31.5,-8.09375"/>
<path class="Clef" transform="matrix(0.992126,0,0,0.992126,19.8425,173.622)" d="M12.2969,-25.2031 L1.29688,-25.2031 C0.59375,-25.2031 0,-24.5938 0,-23.9063 L0,23.9063 C0,24.5938 0.59375,25.2031 1.29688,25.2031 L12.2969,25.2031 C13,25.2031 13.5938,24.5938 13.5938,23.9063 L13.5938,-23.9063 C13.5938,-24.5938 13,-25.2031 12.2969,-25.2031 M33.9063,-25.2031 L22.9063,-25.2031 C22.2031,-25.2031 21.5938,-24.5938 21.5938,-23.9063 L21.5938,23.9063 C21.5938,24.5938 22.2031,25.2031 22.9063,25.2031 L33.9063,25.2031 C34.6094,25.2031 35.2031,24.5938 35.2031,23.9063 L35.2031,-23.9063 C35.2031,-24.5938 34.6094,-25.2031 33.9063,-25.2031"/>
<path class="Articulation" transform="matrix(0.992126,0,0,0.992126,162.578,212.191)" d="M35.1094,10.4063 L1.79688,0.09375 C1.70313,0.09375 1.5,0 1.40625,0 C0.59375,0 0,0.59375 0,1.40625 L0,3.70313 C0,4.29688 0.5,4.79688 1,5 L22.4063,11.7031 L1,18.5 C0.5,18.7031 0,19.2031 0,19.7969 L0,22.0938 C0,22.9063 0.59375,23.5 1.40625,23.5 C1.5,23.5 1.70313,23.4063 1.79688,23.4063 L35.1094,13.0938 C35.6094,12.9063 36.1094,12.2969 36.1094,11.7031 C36.1094,11.0938 35.6094,10.5938 35.1094,10.4063"/>
<path class="Articulation" transform="matrix(0.992126,0,0,0.992126,439.268,228.424)" d="M35.1094,10.4063 L1.79688,0.09375 C1.70313,0.09375 1.5,0 1.40625,0 C0.59375,0 0,0.59375 0,1.40625 L0,3.70313 C0,4.29688 0.5,4.79688 1,5 L22.4063,11.7031 L1,18.5 C0.5,18.7031 0,19.2031 0,19.7969 L0,22.0938 C0,22.9063 0.59375,23.5 1.40625,23.5 C1.5,23.5 1.70313,23.4063 1.79688,23.4063 L35.1094,13.0938 C35.6094,12.9063 36.1094,12.2969 36.1094,11.7031 C36.1094,11.0938 35.6094,10.5938 35.1094,10.4063"/>
<path class="Articulation" transform="matrix(0.992126,0,0,0.992126,715.959,212.191)" d="M35.1094,10.4063 L1.79688,0.09375 C1.70313,0.09375 1.5,0 1.40625,0 C0.59375,0 0,0.59375 0,1.40625 L0,3.70313 C0,4.29688 0.5,4.79688 1,5 L22.4063,11.7031 L1,18.5 C0.5,18.7031 0,19.2031 0,19.7969 L0,22.0938 C0,22.9063 0.59375,23.5 1.40625,23.5 C1.5,23.5 1.70313,23.4063 1.79688,23.4063 L35.1094,13.0938 C35.6094,12.9063 36.1094,12.2969 36.1094,11.7031 C36.1094,11.0938 35.6094,10.5938 35.1094,10.4063"/>
<path class="Articulation" transform="matrix(0.992126,0,0,0.992126,992.65,228.424)" d="M35.1094,10.4063 L1.79688,0.09375 C1.70313,0.09375 1.5,0 1.40625,0 C0.59375,0 0,0.59375 0,1.40625 L0,3.70313 C0,4.29688 0.5,4.79688 1,5 L22.4063,11.7031 L1,18.5 C0.5,18.7031 0,19.2031 0,19.7969 L0,22.0938 C0,22.9063 0.59375,23.5 1.40625,23.5 C1.5,23.5 1.70313,23.4063 1.79688,23.4063 L35.1094,13.0938 C35.6094,12.9063 36.1094,12.2969 36.1094,11.7031 C36.1094,11.0938 35.6094,10.5938 35.1094,10.4063"/>
<path class="Beam" fill-rule="evenodd" d="M193.872,86.811 L381.061,86.811 L381.061,99.2126 L193.872,99.2126 L193.872,86.811 "/>
<path class="Beam" fill-rule="evenodd" d="M470.563,93.0118 L657.752,93.0118 L657.752,105.413 L470.563,105.413 L470.563,93.0118 "/>
<path class="Beam" fill-rule="evenodd" d="M747.254,86.811 L934.442,86.811 L934.442,99.2126 L747.254,99.2126 L747.254,86.811 "/>
<path class="Beam" fill-rule="evenodd" d="M1023.94,93.0118 L1211.13,93.0118 L1211.13,105.413 L1023.94,105.413 L1023.94,93.0118 "/>
<path class="Hook" transform="matrix(0.694488,0,0,0.694488,137.424,125.256)" d="M3.5,3.5 C3.40625,3.20313 2.5,-0.296875 2.5,-0.5 C2.40625,-0.90625 1.79688,-1.20313 1.29688,-1.20313 C0.59375,-1.20313 0,-0.59375 0,0.09375 L0,16.5 L0,22.7031 C0,23.2031 0.40625,23.5938 0.796875,23.7969 C5,25.0938 13.7031,30.6094 20.2031,41.7031 C22,44.7969 24.9063,49 24.9063,57.4063 C24.9063,64.6094 23.7969,72.2031 22,79.2031 C21.7031,80.3125 21.4063,81.3125 22.5,81.7031 C23.5938,82.1094 24,81.3125 24.4063,80.3125 C28,71.5 28.9063,62.2969 28.9063,56.1094 L28.9063,54.2031 C28.4063,41.2969 21,31.7969 21,31.7969 C21.2969,31.7969 11.7969,19.5 9.09375,15.2969 C5.40625,9.59375 3.59375,3.90625 3.5,3.5"/>
<path class="Hook" transform="matrix(0.694488,0,0,0.694488,414.115,100.453)" d="M3.5,3.5 C3.40625,3.20313 2.5,-0.296875 2.5,-0.5 C2.40625,-0.90625 1.79688,-1.20313 1.29688,-1.20313 C0.59375,-1.20313 0,-0.59375 0,0.09375 L0,16.5 L0,22.7031 C0,23.2031 0.40625,23.5938 0.796875,23.7969 C5,25.0938 13.7031,30.6094 20.2031,41.7031 C22,44.7969 24.9063,49 24.9063,57.4063 C24.9063,64.6094 23.7969,72.2031 22,79.2031 C21.7031,80.3125 21.4063,81.3125 22.5,81.7031 C23.5938,82.1094 24,81.3125 24.4063,80.3125 C28,71.5 28.9063,62.2969 28.9063,56.1094 L28.9063,54.2031 C28.4063,41.2969 21,31.7969 21,31.7969 C21.2969,31.7969 11.7969,19.5 9.09375,15.2969 C5.40625,9.59375 3.59375,3.90625 3.5,3.5"/>
<path class="Hook" transform="matrix(0.694488,0,0,0.694488,690.806,125.256)" d="M3.5,3.5 C3.40625,3.20313 2.5,-0.296875 2.5,-0.5 C2.40625,-0.90625 1.79688,-1.20313 1.29688,-1.20313 C0.59375,-1.20313 0,-0.59375 0,0.09375 L0,16.5 L0,22.7031 C0,23.2031 0.40625,23.5938 0.796875,23.7969 C5,25.0938 13.7031,30.6094 20.2031,41.7031 C22,44.7969 24.9063,49 24.9063,57.4063 C24.9063,64.6094 23.7969,72.2031 22,79.2031 C21.7031,80.3125 21.4063,81.3125 22.5,81.7031 C23.5938,82.1094 24,81.3125 24.4063,80.3125 C28,71.5 28.9063,62.2969 28.9063,56.1094 L28.9063,54.2031 C28.4063,41.2969 21,31.7969 21,31.7969 C21.2969,31.7969 11.7969,19.5 9.09375,15.2969 C5.40625,9.59375 3.59375,3.90625 3.5,3.5"/>
<path class="Hook" transform="matrix(0.694488,0,0,0.694488,967.496,100.453)" d="M3.5,3.5 C3.40625,3.20313 2.5,-0.296875 2.5,-0.5 C2.40625,-0.90625 1.79688,-1.20313 1.29688,-1.20313 C0.59375,-1.20313 0,-0.59375 0,0.09375 L0,16.5 L0,22.7031 C0,23.2031 0.40625,23.5938 0.796875,23.7969 C5,25.0938 13.7031,30.6094 20.2031,41.7031 C22,44.7969 24.9063,49 24.9063,57.4063 C24.9063,64.6094 23.7969,72.2031 22,79.2031 C21.7031,80.3125 21.4063,81.3125 22.5,81.7031 C23.5938,82.1094 24,81.3125 24.4063,80.3125 C28,71.5 28.9063,62.2969 28.9063,56.1094 L28.9063,54.2031 C28.4063,41.2969 21,31.7969 21,31.7969 C21.2969,31.7969 11.7969,19.5 9.09375,15.2969 C5.40625,9.59375 3.59375,3.90625 3.5,3.5"/>
<path class="Tuplet" d="M290.399,53.5679 C292.524,52.896 293.368,52.521 294.446,51.8023 C296.571,50.4117 297.868,47.9429 297.868,45.4117 C297.868,41.146 294.446,38.271 289.415,38.271 C284.509,38.271 280.368,41.3179 280.368,45.021 C280.368,46.8648 281.493,48.1148 283.196,48.1148 C284.681,48.1148 285.774,47.0367 285.774,45.5523 C285.774,44.7867 285.54,44.2554 284.821,43.5367 C284.368,43.1304 284.196,42.8023 284.196,42.4898 C284.196,41.4117 286.446,40.2867 288.556,40.2867 C291.571,40.2867 293.368,41.9585 293.368,44.7398 C293.368,48.7554 290.54,52.521 287.524,52.521 C287.384,52.521 286.977,52.4898 286.493,52.4429 C285.181,52.3492 285.181,52.3492 284.915,52.3492 C283.915,52.3492 283.384,52.8023 283.384,53.6148 C283.384,54.3335 283.884,54.771 284.681,54.771 C284.915,54.771 285.227,54.7398 285.587,54.6929 C286.212,54.5523 286.899,54.5054 287.29,54.5054 C289.415,54.5054 290.852,56.396 290.852,59.1929 C290.852,61.3492 290.352,63.4117 289.368,65.1304 C288.024,67.5523 285.946,68.7242 283.024,68.7242 C280.509,68.7242 278.337,67.4742 278.337,66.021 C278.337,65.5367 278.524,65.3492 279.243,65.0367 C280.54,64.4585 281.087,63.646 281.087,62.4273 C281.087,60.8492 279.821,59.646 278.212,59.646 C276.274,59.646 275.009,61.1617 275.009,63.5054 C275.009,67.8804 278.337,70.6148 283.743,70.6148 C290.54,70.6148 295.712,66.0679 295.712,60.0367 C295.712,58.4273 295.212,57.021 294.274,55.896 C293.274,54.7398 292.384,54.1929 290.399,53.5679"/>
<path class="Tuplet" d="M567.09,59.7687 C569.215,59.0968 570.059,58.7218 571.137,58.0031 C573.262,56.6125 574.559,54.1437 574.559,51.6125 C574.559,47.3468 571.137,44.4718 566.106,44.4718 C561.199,44.4718 557.059,47.5187 557.059,51.2218 C557.059,53.0656 558.184,54.3156 559.887,54.3156 C561.371,54.3156 562.465,53.2375 562.465,51.7531 C562.465,50.9875 562.231,50.4562 561.512,49.7375 C561.059,49.3312 560.887,49.0031 560.887,48.6906 C560.887,47.6125 563.137,46.4875 565.246,46.4875 C568.262,46.4875 570.059,48.1593 570.059,50.9406 C570.059,54.9562 567.231,58.7218 564.215,58.7218 C564.074,58.7218 563.668,58.6906 563.184,58.6437 C561.871,58.55 561.871,58.55 561.606,58.55 C560.606,58.55 560.074,59.0031 560.074,59.8156 C560.074,60.5343 560.574,60.9718 561.371,60.9718 C561.606,60.9718 561.918,60.9406 562.278,60.8937 C562.903,60.7531 563.59,60.7062 563.981,60.7062 C566.106,60.7062 567.543,62.5968 567.543,65.3937 C567.543,67.55 567.043,69.6125 566.059,71.3312 C564.715,73.7531 562.637,74.925 559.715,74.925 C557.199,74.925 555.028,73.675 555.028,72.2218 C555.028,71.7375 555.215,71.55 555.934,71.2375 C557.231,70.6593 557.778,69.8468 557.778,68.6281 C557.778,67.05 556.512,65.8468 554.903,65.8468 C552.965,65.8468 551.699,67.3625 551.699,69.7062 C551.699,74.0812 555.028,76.8156 560.434,76.8156 C567.231,76.8156 572.403,72.2687 572.403,66.2375 C572.403,64.6281 571.903,63.2218 570.965,62.0968 C569.965,60.9406 569.074,60.3937 567.09,59.7687"/>
<path class="Tuplet" d="M843.781,53.5679 C845.906,52.896 846.75,52.521 847.828,51.8023 C849.953,50.4117 851.25,47.9429 851.25,45.4117 C851.25,41.146 847.828,38.271 842.796,38.271 C837.89,38.271 833.75,41.3179 833.75,45.021 C833.75,46.8648 834.875,48.1148 836.578,48.1148 C838.062,48.1148 839.156,47.0367 839.156,45.5523 C839.156,44.7867 838.921,44.2554 838.203,43.5367 C837.75,43.1304 837.578,42.8023 837.578,42.4898 C837.578,41.4117 839.828,40.2867 841.937,40.2867 C844.953,40.2867 846.75,41.9585 846.75,44.7398 C846.75,48.7554 843.921,52.521 840.906,52.521 C840.765,52.521 840.359,52.4898 839.875,52.4429 C838.562,52.3492 838.562,52.3492 838.296,52.3492 C837.296,52.3492 836.765,52.8023 836.765,53.6148 C836.765,54.3335 837.265,54.771 838.062,54.771 C838.296,54.771 838.609,54.7398 838.968,54.6929 C839.593,54.5523 840.281,54.5054 840.671,54.5054 C842.796,54.5054 844.234,56.396 844.234,59.1929 C844.234,61.3492 843.734,63.4117 842.75,65.1304 C841.406,67.5523 839.328,68.7242 836.406,68.7242 C833.89,68.7242 831.718,67.4742 831.718,66.021 C831.718,65.5367 831.906,65.3492 832.625,65.0367 C833.921,64.4585 834.468,63.646 834.468,62.4273 C834.468,60.8492 833.203,59.646 831.593,59.646 C829.656,59.646 828.39,61.1617 828.39,63.5054 C828.39,67.8804 831.718,70.6148 837.125,70.6148 C843.921,70.6148 849.093,66.0679 849.093,60.0367 C849.093,58.4273 848.593,57.021 847.656,55.896 C846.656,54.7398 845.765,54.1929 843.781,53.5679"/>
<path class="Tuplet" d="M1120.47,59.7687 C1122.6,59.0968 1123.44,58.7218 1124.52,58.0031 C1126.64,56.6125 1127.94,54.1437 1127.94,51.6125 C1127.94,47.3468 1124.52,44.4718 1119.49,44.4718 C1114.58,44.4718 1110.44,47.5187 1110.44,51.2218 C1110.44,53.0656 1111.57,54.3156 1113.27,54.3156 C1114.75,54.3156 1115.85,53.2375 1115.85,51.7531 C1115.85,50.9875 1115.61,50.4562 1114.89,49.7375 C1114.44,49.3312 1114.27,49.0031 1114.27,48.6906 C1114.27,47.6125 1116.52,46.4875 1118.63,46.4875 C1121.64,46.4875 1123.44,48.1593 1123.44,50.9406 C1123.44,54.9562 1120.61,58.7218 1117.6,58.7218 C1117.46,58.7218 1117.05,58.6906 1116.57,58.6437 C1115.25,58.55 1115.25,58.55 1114.99,58.55 C1113.99,58.55 1113.46,59.0031 1113.46,59.8156 C1113.46,60.5343 1113.96,60.9718 1114.75,60.9718 C1114.99,60.9718 1115.3,60.9406 1115.66,60.8937 C1116.28,60.7531 1116.97,60.7062 1117.36,60.7062 C1119.49,60.7062 1120.92,62.5968 1120.92,65.3937 C1120.92,67.55 1120.42,69.6125 1119.44,71.3312 C1118.1,73.7531 1116.02,74.925 1113.1,74.925 C1110.58,74.925 1108.41,73.675 1108.41,72.2218 C1108.41,71.7375 1108.6,71.55 1109.32,71.2375 C1110.61,70.6593 1111.16,69.8468 1111.16,68.6281 C1111.16,67.05 1109.89,65.8468 1108.28,65.8468 C1106.35,65.8468 1105.08,67.3625 1105.08,69.7062 C1105.08,74.0812 1108.41,76.8156 1113.82,76.8156 C1120.61,76.8156 1125.78,72.2687 1125.78,66.2375 C1125.78,64.6281 1125.28,63.2218 1124.35,62.0968 C1123.35,60.9406 1122.46,60.3937 1120.47,59.7687"/>
</svg>
