<?xml version="1.0" encoding="UTF-8" standalone="no"?>
<svg width="1275.59px" height="283.465px" viewBox="0 0 1275.59 283.465"
 xmlns="http://www.w3.org/2000/svg" xmlns:xlink="http://www.w3.org/1999/xlink" version="1.2" baseProfile="tiny">
<title>drum_rudiments (6)</title>
<desc>Generated by MuseScore 3.6.2</desc>
<polyline class="StaffLines" fill="none" stroke="#000000" stroke-width="2.73" stroke-linejoin="bevel" points="0,173.622 1275.59,173.622"/>
<path class="MeasureNumber" d="M5.3125,61.0188 C6,57.4876 6.79688,55.3001 8.3125,52.6126 C10.125,49.4563 12.2813,47.8469 14.6719,47.8469 C15.9219,47.8469 16.6719,48.3313 16.6719,49.0969 C16.6719,49.3782 16.5938,49.5344 16.3125,50.0501 C15.9531,50.7376 15.7969,51.2063 15.7969,51.8157 C15.7969,53.0969 16.75,53.9719 18.1094,53.9719 C19.75,53.9719 20.875,52.7688 20.875,50.9719 C20.875,48.2532 18.3125,46.2532 14.75,46.2532 C11,46.2532 7.64063,48.2532 4.92188,52.0969 C2.125,56.0501 0.4375,61.1282 0.4375,65.5657 C0.4375,71.4563 3.35938,75.0032 8.23438,75.0032 C11.2344,75.0032 13.9219,73.8157 15.8438,71.6907 C17.5938,69.6907 18.6719,66.8157 18.6719,64.1751 C18.6719,60.0969 15.9219,57.2532 11.9219,57.2532 C9.125,57.2532 6.95313,58.4563 5.3125,61.0188 M10.6406,59.5657 C13.125,59.5657 14.4844,61.2844 14.4844,64.4094 C14.4844,69.4876 11.7969,73.3626 8.23438,73.3626 C5.67188,73.3626 4.15625,71.4876 4.15625,68.2844 C4.15625,63.2844 6.92188,59.5657 10.6406,59.5657"/>
<polyline class="BarLine" fill="none" stroke="#000000" stroke-width="4.46" stroke-linejoin="bevel" points="1273.36,122.652 1273.36,224.593"/>
<polyline class="Stem" fill="none" stroke="#000000" stroke-width="2.73" stroke-linejoin="bevel" points="147.641,158.046 147.641,93.0118"/>
<polyline class="Stem" fill="none" stroke="#000000" stroke-width="2.73" stroke-linejoin="bevel" points="243.837,158.046 243.837,93.0118"/>
<polyline class="Stem" fill="none" stroke="#000000" stroke-width="2.73" stroke-linejoin="bevel" points="340.034,158.046 340.034,93.0118"/>
<polyline class="Stem" fill="none" stroke="#000000" stroke-width="2.73" stroke-linejoin="bevel" points="436.23,182.849 436.23,117.815"/>
<polyline class="Stem" fill="none" stroke="#000000" stroke-width="2.73" stroke-linejoin="bevel" points="532.427,182.849 532.427,117.815"/>
<polyline class="Stem" fill="none" stroke="#000000" stroke-width="2.73" stroke-linejoin="bevel" points="628.623,182.849 628.623,117.815"/>
<polyline class="Stem" fill="none" stroke="#000000" stroke-width="2.73" stroke-linejoin="bevel" points="724.82,158.046 724.82,93.0118"/>
<polyline class="Stem" fill="none" stroke="#000000" stroke-width="2.73" stroke-linejoin="bevel" points="821.017,158.046 821.017,93.0118"/>
<polyline class="Stem" fill="none" stroke="#000000" stroke-width="2.73" stroke-linejoin="bevel" points="917.213,158.046 917.213,93.0118"/>
<polyline class="Stem" fill="none" stroke="#000000" stroke-width="2.73" stroke-linejoin="bevel" points="1013.41,182.849 1013.41,117.815"/>
<polyline class="Stem" fill="none" stroke="#000000" stroke-width="2.73" stroke-linejoin="bevel" points="1109.61,182.849 1109.61,117.815"/>
<polyline class="Stem" fill="none" stroke="#000000" stroke-width="2.73" stroke-linejoin="bevel" points="1205.8,182.849 1205.8,117.815"/>
<path class="Note" transform="matrix(0.992126,0,0,0.992126,116.769,161.22)" d="M31.5,-8.09375 C29.7031,-11.4063 25.9063,-13.2031 21.2969,-13.2031 C17.9063,-13.2031 14.2031,-12.2031 10.5938,-10.2969 C4,-6.79688 0,-0.90625 0,4.20313 C0,5.59375 0.296875,7 1,8.29688 C2.79688,11.5938 6.59375,13.2969 11.2031,13.2969 C14.5938,13.2969 18.2969,12.4063 21.9063,10.5 C28.5,7 32.5,1.09375 32.5,-4 C32.5,-5.40625 32.2031,-6.79688 31.5,-8.09375"/>
<path class="Note" transform="matrix(0.992126,0,0,0.992126,212.965,161.22)" d="M31.5,-8.09375 C29.7031,-11.4063 25.9063,-13.2031 21.2969,-13.2031 C17.9063,-13.2031 14.2031,-12.2031 10.5938,-10.2969 C4,-6.79688 0,-0.90625 0,4.20313 C0,5.59375 0.296875,7 1,8.29688 C2.79688,11.5938 6.59375,13.2969 11.2031,13.2969 C14.5938,13.2969 18.2969,12.4063 21.9063,10.5 C28.5,7 32.5,1.09375 32.5,-4 C32.5,-5.40625 32.2031,-6.79688 31.5,-8.09375"/>
<path class="Note" transform="matrix(0.992126,0,0,0.992126,309.162,161.22)" d="M31.5,-8.09375 C29.7031,-11.4063 25.9063,-13.2031 21.2969,-13.2031 C17.9063,-13.2031 14.2031,-12.2031 10.5938,-10.2969 C4,-6.79688 0,-0.90625 0,4.20313 C0,5.59375 0.296875,7 1,8.29688 C2.79688,11.5938 6.59375,13.2969 11.2031,13.2969 C14.5938,13.2969 18.2969,12.4063 21.9063,10.5 C28.5,7 32.5,1.09375 32.5,-4 C32.5,-5.40625 32.2031,-6.79688 31.5,-8.09375"/>
<path class="Note" transform="matrix(0.992126,0,0,0.992126,405.358,186.024)" d="M31.5,-8.09375 C29.7031,-11.4063 25.9063,-13.2031 21.2969,-13.2031 C17.9063,-13.2031 14.2031,-12.2031 10.5938,-10.2969 C4,-6.79688 0,-0.90625 0,4.20313 C0,5.59375 0.296875,7 1,8.29688 C2.79688,11.5938 6.59375,13.2969 11.2031,13.2969 C14.5938,13.2969 18.2969,12.4063 21.9063,10.5 C28.5,7 32.5,1.09375 32.5,-4 C32.5,-5.40625 32.2031,-6.79688 31.5,-8.09375"/>
<path class="Note" transform="matrix(0.992126,0,0,0.992126,501.555,186.024)" d="M31.5,-8.09375 C29.7031,-11.4063 25.9063,-13.2031 21.2969,-13.2031 C17.9063,-13.2031 14.2031,-12.2031 10.5938,-10.2969 C4,-6.79688 0,-0.90625 0,4.20313 C0,5.59375 0.296875,7 1,8.29688 C2.79688,11.5938 6.59375,13.2969 11.2031,13.2969 C14.5938,13.2969 18.2969,12.4063 21.9063,10.5 C28.5,7 32.5,1.09375 32.5,-4 C32.5,-5.40625 32.2031,-6.79688 31.5,-8.09375"/>
<path class="Note" transform="matrix(0.992126,0,0,0.992126,597.751,186.024)" d="M31.5,-8.09375 C29.7031,-11.4063 25.9063,-13.2031 21.2969,-13.2031 C17.9063,-13.2031 14.2031,-12.2031 10.5938,-10.2969 C4,-6.79688 0,-0.90625 0,4.20313 C0,5.59375 0.296875,7 1,8.29688 C2.79688,11.5938 6.59375,13.2969 11.2031,13.2969 C14.5938,13.2969 18.2969,12.4063 21.9063,10.5 C28.5,7 32.5,1.09375 32.5,-4 C32.5,-5.40625 32.2031,-6.79688 31.5,-8.09375"/>
<path class="Note" transform="matrix(0.992126,0,0,0.992126,693.948,161.22)" d="M31.5,-8.09375 C29.7031,-11.4063 25.9063,-13.2031 21.2969,-13.2031 C17.9063,-13.2031 14.2031,-12.2031 10.5938,-10.2969 C4,-6.79688 0,-0.90625 0,4.20313 C0,5.59375 0.296875,7 1,8.29688 C2.79688,11.5938 6.59375,13.2969 11.2031,13.2969 C14.5938,13.2969 18.2969,12.4063 21.9063,10.5 C28.5,7 32.5,1.09375 32.5,-4 C32.5,-5.40625 32.2031,-6.79688 31.5,-8.09375"/>
<path class="Note" transform="matrix(0.992126,0,0,0.992126,790.144,161.22)" d="M31.5,-8.09375 C29.7031,-11.4063 25.9063,-13.2031 21.2969,-13.2031 C17.9063,-13.2031 14.2031,-12.2031 10.5938,-10.2969 C4,-6.79688 0,-0.90625 0,4.20313 C0,5.59375 0.296875,7 1,8.29688 C2.79688,11.5938 6.59375,13.2969 11.2031,13.2969 C14.5938,13.2969 18.2969,12.4063 21.9063,10.5 C28.5,7 32.5,1.09375 32.5,-4 C32.5,-5.40625 32.2031,-6.79688 31.5,-8.09375"/>
<path class="Note" transform="matrix(0.992126,0,0,0.992126,886.341,161.22)" d="M31.5,-8.09375 C29.7031,-11.4063 25.9063,-13.2031 21.2969,-13.2031 C17.9063,-13.2031 14.2031,-12.2031 10.5938,-10.2969 C4,-6.79688 0,-0.90625 0,4.20313 C0,5.59375 0.296875,7 1,8.29688 C2.79688,11.5938 6.59375,13.2969 11.2031,13.2969 C14.5938,13.2969 18.2969,12.4063 21.9063,10.5 C28.5,7 32.5,1.09375 32.5,-4 C32.5,-5.40625 32.2031,-6.79688 31.5,-8.09375"/>
<path class="Note" transform="matrix(0.992126,0,0,0.992126,982.537,186.024)" d="M31.5,-8.09375 C29.7031,-11.4063 25.9063,-13.2031 21.2969,-13.2031 C17.9063,-13.2031 14.2031,-12.2031 10.5938,-10.2969 C4,-6.79688 0,-0.90625 0,4.20313 C0,5.59375 0.296875,7 1,8.29688 C2.79688,11.5938 6.59375,13.2969 11.2031,13.2969 C14.5938,13.2969 18.2969,12.4063 21.9063,10.5 C28.5,7 32.5,1.09375 32.5,-4 C32.5,-5.40625 32.2031,-6.79688 31.5,-8.09375"/>
<path class="Note" transform="matrix(0.992126,0,0,0.992126,1078.73,186.024)" d="M31.5,-8.09375 C29.7031,-11.4063 25.9063,-13.2031 21.2969,-13.2031 C17.9063,-13.2031 14.2031,-12.2031 10.5938,-10.2969 C4,-6.79688 0,-0.90625 0,4.20313 C0,5.59375 0.296875,7 1,8.29688 C2.79688,11.5938 6.59375,13.2969 11.2031,13.2969 C14.5938,13.2969 18.2969,12.4063 21.9063,10.5 C28.5,7 32.5,1.09375 32.5,-4 C32.5,-5.40625 32.2031,-6.79688 31.5,-8.09375"/>
<path class="Note" transform="matrix(0.992126,0,0,0.992126,1174.93,186.024)" d="M31.5,-8.09375 C29.7031,-11.4063 25.9063,-13.2031 21.2969,-13.2031 C17.9063,-13.2031 14.2031,-12.2031 10.5938,-10.2969 C4,-6.79688 0,-0.90625 0,4.20313 C0,5.59375 0.296875,7 1,8.29688 C2.79688,11.5938 6.59375,13.2969 11.2031,13.2969 C14.5938,13.2969 18.2969,12.4063 21.9063,10.5 C28.5,7 32.5,1.09375 32.5,-4 C32.5,-5.40625 32.2031,-6.79688 31.5,-8.09375"/>
<path class="Clef" transform="matrix(0.992126,0,0,0.992126,19.8425,173.622)" d="M12.2969,-25.2031 L1.29688,-25.2031 C0.59375,-25.2031 0,-24.5938 0,-23.9063 L0,23.9063 C0,24.5938 0.59375,25.2031 1.29688,25.2031 L12.2969,25.2031 C13,25.2031 13.5938,24.5938 13.5938,23.9063 L13.5938,-23.9063 C13.5938,-24.5938 13,-25.2031 12.2969,-25.2031 M33.9063,-25.2031 L22.9063,-25.2031 C22.2031,-25.2031 21.5938,-24.5938 21.5938,-23.9063 L21.5938,23.9063 C21.5938,24.5938 22.2031,25.2031 22.9063,25.2031 L33.9063,25.2031 C34.6094,25.2031 35.2031,24.5938 35.2031,23.9063 L35.2031,-23.9063 C35.2031,-24.5938 34.6094,-25.2031 33.9063,-25.2031"/>
<path class="Beam" fill-rule="evenodd" d="M146.277,86.811 L341.398,86.811 L341.398,99.2126 L146.277,99.2126 L146.277,86.811 "/>
<path class="Beam" fill-rule="evenodd" d="M434.866,111.614 L629.988,111.614 L629.988,124.016 L434.866,124.016 L434.866,111.614 "/>
<path class="Beam" fill-rule="evenodd" d="M723.456,86.811 L918.577,86.811 L918.577,99.2126 L723.456,99.2126 L723.456,86.811 "/>
<path class="Beam" fill-rule="evenodd" d="M1012.05,111.614 L1207.17,111.614 L1207.17,124.016 L1012.05,124.016 L1012.05,111.614 "/>
<path class="Tuplet" d="M246.77,53.5679 C248.895,52.896 249.739,52.521 250.817,51.8023 C252.942,50.4117 254.239,47.9429 254.239,45.4117 C254.239,41.146 250.817,38.271 245.786,38.271 C240.879,38.271 236.739,41.3179 236.739,45.021 C236.739,46.8648 237.864,48.1148 239.567,48.1148 C241.051,48.1148 242.145,47.0367 242.145,45.5523 C242.145,44.7867 241.911,44.2554 241.192,43.5367 C240.739,43.1304 240.567,42.8023 240.567,42.4898 C240.567,41.4117 242.817,40.2867 244.926,40.2867 C247.942,40.2867 249.739,41.9585 249.739,44.7398 C249.739,48.7554 246.911,52.521 243.895,52.521 C243.754,52.521 243.348,52.4898 242.864,52.4429 C241.551,52.3492 241.551,52.3492 241.286,52.3492 C240.286,52.3492 239.754,52.8023 239.754,53.6148 C239.754,54.3335 240.254,54.771 241.051,54.771 C241.286,54.771 241.598,54.7398 241.957,54.6929 C242.582,54.5523 243.27,54.5054 243.661,54.5054 C245.786,54.5054 247.223,56.396 247.223,59.1929 C247.223,61.3492 246.723,63.4117 245.739,65.1304 C244.395,67.5523 242.317,68.7242 239.395,68.7242 C236.879,68.7242 234.707,67.4742 234.707,66.021 C234.707,65.5367 234.895,65.3492 235.614,65.0367 C236.911,64.4585 237.457,63.646 237.457,62.4273 C237.457,60.8492 236.192,59.646 234.582,59.646 C232.645,59.646 231.379,61.1617 231.379,63.5054 C231.379,67.8804 234.707,70.6148 240.114,70.6148 C246.911,70.6148 252.082,66.0679 252.082,60.0367 C252.082,58.4273 251.582,57.021 250.645,55.896 C249.645,54.7398 248.754,54.1929 246.77,53.5679"/>
<path class="Tuplet" d="M535.36,78.3711 C537.485,77.6992 538.328,77.3242 539.406,76.6054 C541.531,75.2148 542.828,72.7461 542.828,70.2148 C542.828,65.9492 539.406,63.0742 534.375,63.0742 C529.469,63.0742 525.328,66.1211 525.328,69.8242 C525.328,71.6679 526.453,72.9179 528.156,72.9179 C529.641,72.9179 530.735,71.8398 530.735,70.3554 C530.735,69.5898 530.5,69.0586 529.781,68.3398 C529.328,67.9336 529.156,67.6054 529.156,67.2929 C529.156,66.2148 531.406,65.0898 533.516,65.0898 C536.531,65.0898 538.328,66.7617 538.328,69.5429 C538.328,73.5586 535.5,77.3242 532.485,77.3242 C532.344,77.3242 531.938,77.2929 531.453,77.2461 C530.141,77.1523 530.141,77.1523 529.875,77.1523 C528.875,77.1523 528.344,77.6054 528.344,78.4179 C528.344,79.1367 528.844,79.5742 529.641,79.5742 C529.875,79.5742 530.188,79.5429 530.547,79.4961 C531.172,79.3554 531.86,79.3086 532.25,79.3086 C534.375,79.3086 535.813,81.1992 535.813,83.9961 C535.813,86.1523 535.313,88.2148 534.328,89.9336 C532.985,92.3554 530.906,93.5273 527.985,93.5273 C525.469,93.5273 523.297,92.2773 523.297,90.8242 C523.297,90.3398 523.485,90.1523 524.203,89.8398 C525.5,89.2617 526.047,88.4492 526.047,87.2304 C526.047,85.6523 524.781,84.4492 523.172,84.4492 C521.235,84.4492 519.969,85.9648 519.969,88.3086 C519.969,92.6836 523.297,95.4179 528.703,95.4179 C535.5,95.4179 540.672,90.8711 540.672,84.8398 C540.672,83.2304 540.172,81.8242 539.235,80.6992 C538.235,79.5429 537.344,78.9961 535.36,78.3711"/>
<path class="Tuplet" d="M823.949,53.5679 C826.074,52.896 826.918,52.521 827.996,51.8023 C830.121,50.4117 831.418,47.9429 831.418,45.4117 C831.418,41.146 827.996,38.271 822.965,38.271 C818.059,38.271 813.918,41.3179 813.918,45.021 C813.918,46.8648 815.043,48.1148 816.746,48.1148 C818.23,48.1148 819.324,47.0367 819.324,45.5523 C819.324,44.7867 819.09,44.2554 818.371,43.5367 C817.918,43.1304 817.746,42.8023 817.746,42.4898 C817.746,41.4117 819.996,40.2867 822.105,40.2867 C825.121,40.2867 826.918,41.9585 826.918,44.7398 C826.918,48.7554 824.09,52.521 821.074,52.521 C820.934,52.521 820.527,52.4898 820.043,52.4429 C818.73,52.3492 818.73,52.3492 818.465,52.3492 C817.465,52.3492 816.934,52.8023 816.934,53.6148 C816.934,54.3335 817.434,54.771 818.23,54.771 C818.465,54.771 818.777,54.7398 819.137,54.6929 C819.762,54.5523 820.449,54.5054 820.84,54.5054 C822.965,54.5054 824.402,56.396 824.402,59.1929 C824.402,61.3492 823.902,63.4117 822.918,65.1304 C821.574,67.5523 819.496,68.7242 816.574,68.7242 C814.059,68.7242 811.887,67.4742 811.887,66.021 C811.887,65.5367 812.074,65.3492 812.793,65.0367 C814.09,64.4585 814.637,63.646 814.637,62.4273 C814.637,60.8492 813.371,59.646 811.762,59.646 C809.824,59.646 808.559,61.1617 808.559,63.5054 C808.559,67.8804 811.887,70.6148 817.293,70.6148 C824.09,70.6148 829.262,66.0679 829.262,60.0367 C829.262,58.4273 828.762,57.021 827.824,55.896 C826.824,54.7398 825.934,54.1929 823.949,53.5679"/>
<path class="Tuplet" d="M1112.54,78.3711 C1114.66,77.6992 1115.51,77.3242 1116.59,76.6054 C1118.71,75.2148 1120.01,72.7461 1120.01,70.2148 C1120.01,65.9492 1116.59,63.0742 1111.55,63.0742 C1106.65,63.0742 1102.51,66.1211 1102.51,69.8242 C1102.51,71.6679 1103.63,72.9179 1105.34,72.9179 C1106.82,72.9179 1107.91,71.8398 1107.91,70.3554 C1107.91,69.5898 1107.68,69.0586 1106.96,68.3398 C1106.51,67.9336 1106.34,67.6054 1106.34,67.2929 C1106.34,66.2148 1108.59,65.0898 1110.7,65.0898 C1113.71,65.0898 1115.51,66.7617 1115.51,69.5429 C1115.51,73.5586 1112.68,77.3242 1109.66,77.3242 C1109.52,77.3242 1109.12,77.2929 1108.63,77.2461 C1107.32,77.1523 1107.32,77.1523 1107.05,77.1523 C1106.05,77.1523 1105.52,77.6054 1105.52,78.4179 C1105.52,79.1367 1106.02,79.5742 1106.82,79.5742 C1107.05,79.5742 1107.37,79.5429 1107.73,79.4961 C1108.35,79.3554 1109.04,79.3086 1109.43,79.3086 C1111.55,79.3086 1112.99,81.1992 1112.99,83.9961 C1112.99,86.1523 1112.49,88.2148 1111.51,89.9336 C1110.16,92.3554 1108.09,93.5273 1105.16,93.5273 C1102.65,93.5273 1100.48,92.2773 1100.48,90.8242 C1100.48,90.3398 1100.66,90.1523 1101.38,89.8398 C1102.68,89.2617 1103.23,88.4492 1103.23,87.2304 C1103.23,85.6523 1101.96,84.4492 1100.35,84.4492 C1098.41,84.4492 1097.15,85.9648 1097.15,88.3086 C1097.15,92.6836 1100.48,95.4179 1105.88,95.4179 C1112.68,95.4179 1117.85,90.8711 1117.85,84.8398 C1117.85,83.2304 1117.35,81.8242 1116.41,80.6992 C1115.41,79.5429 1114.52,78.9961 1112.54,78.3711"/>
</svg>
