<?xml version="1.0" encoding="UTF-8" standalone="no"?>
<svg width="1275.59px" height="283.465px" viewBox="0 0 1275.59 283.465"
 xmlns="http://www.w3.org/2000/svg" xmlns:xlink="http://www.w3.org/1999/xlink" version="1.2" baseProfile="tiny">
<title>drum_rudiments (12)</title>
<desc>Generated by MuseScore 3.6.2</desc>
<polyline class="StaffLines" fill="none" stroke="#000000" stroke-width="2.73" stroke-linejoin="bevel" points="0,173.622 1275.59,173.622"/>
<path class="MeasureNumber" d="M17.3594,46.0969 L16.2031,46.0969 C14,47.7376 9.76563,49.1282 6.875,49.1282 L6.40625,50.8938 L9.15625,50.8938 C11.5938,50.8938 11.875,50.9719 11.875,51.6907 C11.875,52.0501 11.875,52.0501 11.4844,53.4876 L7.20313,69.4876 C6.67188,71.4876 6.64063,71.6126 6.28125,71.9719 C5.875,72.3626 5.03125,72.4876 2.92188,72.5344 L1.20313,72.5344 L1,74.4094 L15.7969,74.4094 L16.0313,72.5344 L13.875,72.5344 C11.2813,72.5344 10.7188,72.3313 10.7188,71.4563 C10.7188,71.1751 10.875,70.2532 11.0781,69.4876 L17.3594,46.0969 M38.625,66.1282 L37.5938,67.9719 C35.9844,70.7376 35.6719,70.9719 33.625,71.0032 L24.3594,71.0032 C25.3125,69.7376 27.0781,68.2532 30.2656,66.0032 C35.5469,62.3782 35.9063,62.1282 37.0313,61.2532 C40.2344,58.7688 41.5469,56.4094 41.5469,53.2532 C41.5469,49.0501 38.4375,46.2532 33.8281,46.2532 C28.7188,46.2532 24.2813,50.0188 24.2813,54.3782 C24.2813,56.6126 25.4688,58.0501 27.3906,58.0501 C28.8281,58.0501 29.9531,56.9719 29.9531,55.4876 C29.9531,54.4563 29.4375,53.7688 28.1094,53.0501 C27.1563,52.5657 27,52.3782 27,51.8938 C27,50.1751 29.9531,48.2532 32.6719,48.2532 C35.4688,48.2532 37.3594,50.1282 37.3594,52.9407 C37.3594,55.9251 36.0313,58.1282 32.4375,61.2532 C21.7969,70.4876 20.1875,72.1751 19.8281,74.4094 L36.9844,74.4094 L40.0781,66.6907 L38.625,66.1282 "/>
<polyline class="BarLine" fill="none" stroke="#000000" stroke-width="4.46" stroke-linejoin="bevel" points="1273.36,122.652 1273.36,224.593"/>
<polyline class="Stem" fill="none" stroke="#000000" stroke-width="2.73" stroke-linejoin="bevel" points="202.525,158.046 202.525,80.6102"/>
<polyline class="Stem" fill="none" stroke="#000000" stroke-width="2.73" stroke-linejoin="bevel" points="297.308,158.046 297.308,80.6102"/>
<polyline class="Stem" fill="none" stroke="#000000" stroke-width="2.73" stroke-linejoin="bevel" points="392.09,182.849 392.09,80.6102"/>
<polyline class="Stem" fill="none" stroke="#000000" stroke-width="2.73" stroke-linejoin="bevel" points="486.872,182.849 486.872,80.6102"/>
<polyline class="Stem" fill="none" stroke="#000000" stroke-width="2.73" stroke-linejoin="bevel" points="581.654,158.046 581.654,80.6102"/>
<polyline class="Stem" fill="none" stroke="#000000" stroke-width="2.73" stroke-linejoin="bevel" points="676.437,158.046 676.437,80.6102"/>
<polyline class="Stem" fill="none" stroke="#000000" stroke-width="2.73" stroke-linejoin="bevel" points="771.219,182.849 771.219,80.6102"/>
<polyline class="Stem" fill="none" stroke="#000000" stroke-width="2.73" stroke-linejoin="bevel" points="866.001,182.849 866.001,80.6102"/>
<polyline class="Stem" fill="none" stroke="#000000" stroke-width="2.73" stroke-linejoin="bevel" points="960.783,158.046 960.783,80.6102"/>
<polyline class="Stem" fill="none" stroke="#000000" stroke-width="2.73" stroke-linejoin="bevel" points="1055.57,158.046 1055.57,80.6102"/>
<polyline class="Stem" fill="none" stroke="#000000" stroke-width="2.73" stroke-linejoin="bevel" points="1150.35,182.849 1150.35,80.6102"/>
<path class="Note" transform="matrix(0.992126,0,0,0.992126,171.653,161.22)" d="M31.5,-8.09375 C29.7031,-11.4063 25.9063,-13.2031 21.2969,-13.2031 C17.9063,-13.2031 14.2031,-12.2031 10.5938,-10.2969 C4,-6.79688 0,-0.90625 0,4.20313 C0,5.59375 0.296875,7 1,8.29688 C2.79688,11.5938 6.59375,13.2969 11.2031,13.2969 C14.5938,13.2969 18.2969,12.4063 21.9063,10.5 C28.5,7 32.5,1.09375 32.5,-4 C32.5,-5.40625 32.2031,-6.79688 31.5,-8.09375"/>
<path class="Note" transform="matrix(0.992126,0,0,0.992126,266.436,161.22)" d="M31.5,-8.09375 C29.7031,-11.4063 25.9063,-13.2031 21.2969,-13.2031 C17.9063,-13.2031 14.2031,-12.2031 10.5938,-10.2969 C4,-6.79688 0,-0.90625 0,4.20313 C0,5.59375 0.296875,7 1,8.29688 C2.79688,11.5938 6.59375,13.2969 11.2031,13.2969 C14.5938,13.2969 18.2969,12.4063 21.9063,10.5 C28.5,7 32.5,1.09375 32.5,-4 C32.5,-5.40625 32.2031,-6.79688 31.5,-8.09375"/>
<path class="Note" transform="matrix(0.992126,0,0,0.992126,361.218,186.024)" d="M31.5,-8.09375 C29.7031,-11.4063 25.9063,-13.2031 21.2969,-13.2031 C17.9063,-13.2031 14.2031,-12.2031 10.5938,-10.2969 C4,-6.79688 0,-0.90625 0,4.20313 C0,5.59375 0.296875,7 1,8.29688 C2.79688,11.5938 6.59375,13.2969 11.2031,13.2969 C14.5938,13.2969 18.2969,12.4063 21.9063,10.5 C28.5,7 32.5,1.09375 32.5,-4 C32.5,-5.40625 32.2031,-6.79688 31.5,-8.09375"/>
<path class="Note" transform="matrix(0.992126,0,0,0.992126,456,186.024)" d="M31.5,-8.09375 C29.7031,-11.4063 25.9063,-13.2031 21.2969,-13.2031 C17.9063,-13.2031 14.2031,-12.2031 10.5938,-10.2969 C4,-6.79688 0,-0.90625 0,4.20313 C0,5.59375 0.296875,7 1,8.29688 C2.79688,11.5938 6.59375,13.2969 11.2031,13.2969 C14.5938,13.2969 18.2969,12.4063 21.9063,10.5 C28.5,7 32.5,1.09375 32.5,-4 C32.5,-5.40625 32.2031,-6.79688 31.5,-8.09375"/>
<path class="Note" transform="matrix(0.992126,0,0,0.992126,550.782,161.22)" d="M31.5,-8.09375 C29.7031,-11.4063 25.9063,-13.2031 21.2969,-13.2031 C17.9063,-13.2031 14.2031,-12.2031 10.5938,-10.2969 C4,-6.79688 0,-0.90625 0,4.20313 C0,5.59375 0.296875,7 1,8.29688 C2.79688,11.5938 6.59375,13.2969 11.2031,13.2969 C14.5938,13.2969 18.2969,12.4063 21.9063,10.5 C28.5,7 32.5,1.09375 32.5,-4 C32.5,-5.40625 32.2031,-6.79688 31.5,-8.09375"/>
<path class="Note" transform="matrix(0.992126,0,0,0.992126,645.564,161.22)" d="M31.5,-8.09375 C29.7031,-11.4063 25.9063,-13.2031 21.2969,-13.2031 C17.9063,-13.2031 14.2031,-12.2031 10.5938,-10.2969 C4,-6.79688 0,-0.90625 0,4.20313 C0,5.59375 0.296875,7 1,8.29688 C2.79688,11.5938 6.59375,13.2969 11.2031,13.2969 C14.5938,13.2969 18.2969,12.4063 21.9063,10.5 C28.5,7 32.5,1.09375 32.5,-4 C32.5,-5.40625 32.2031,-6.79688 31.5,-8.09375"/>
<path class="Note" transform="matrix(0.992126,0,0,0.992126,740.347,186.024)" d="M31.5,-8.09375 C29.7031,-11.4063 25.9063,-13.2031 21.2969,-13.2031 C17.9063,-13.2031 14.2031,-12.2031 10.5938,-10.2969 C4,-6.79688 0,-0.90625 0,4.20313 C0,5.59375 0.296875,7 1,8.29688 C2.79688,11.5938 6.59375,13.2969 11.2031,13.2969 C14.5938,13.2969 18.2969,12.4063 21.9063,10.5 C28.5,7 32.5,1.09375 32.5,-4 C32.5,-5.40625 32.2031,-6.79688 31.5,-8.09375"/>
<path class="Note" transform="matrix(0.992126,0,0,0.992126,835.129,186.024)" d="M31.5,-8.09375 C29.7031,-11.4063 25.9063,-13.2031 21.2969,-13.2031 C17.9063,-13.2031 14.2031,-12.2031 10.5938,-10.2969 C4,-6.79688 0,-0.90625 0,4.20313 C0,5.59375 0.296875,7 1,8.29688 C2.79688,11.5938 6.59375,13.2969 11.2031,13.2969 C14.5938,13.2969 18.2969,12.4063 21.9063,10.5 C28.5,7 32.5,1.09375 32.5,-4 C32.5,-5.40625 32.2031,-6.79688 31.5,-8.09375"/>
<path class="Note" transform="matrix(0.992126,0,0,0.992126,929.911,161.22)" d="M31.5,-8.09375 C29.7031,-11.4063 25.9063,-13.2031 21.2969,-13.2031 C17.9063,-13.2031 14.2031,-12.2031 10.5938,-10.2969 C4,-6.79688 0,-0.90625 0,4.20313 C0,5.59375 0.296875,7 1,8.29688 C2.79688,11.5938 6.59375,13.2969 11.2031,13.2969 C14.5938,13.2969 18.2969,12.4063 21.9063,10.5 C28.5,7 32.5,1.09375 32.5,-4 C32.5,-5.40625 32.2031,-6.79688 31.5,-8.09375"/>
<path class="Note" transform="matrix(0.992126,0,0,0.992126,1024.69,161.22)" d="M31.5,-8.09375 C29.7031,-11.4063 25.9063,-13.2031 21.2969,-13.2031 C17.9063,-13.2031 14.2031,-12.2031 10.5938,-10.2969 C4,-6.79688 0,-0.90625 0,4.20313 C0,5.59375 0.296875,7 1,8.29688 C2.79688,11.5938 6.59375,13.2969 11.2031,13.2969 C14.5938,13.2969 18.2969,12.4063 21.9063,10.5 C28.5,7 32.5,1.09375 32.5,-4 C32.5,-5.40625 32.2031,-6.79688 31.5,-8.09375"/>
<path class="Note" transform="matrix(0.992126,0,0,0.992126,1119.48,186.024)" d="M31.5,-8.09375 C29.7031,-11.4063 25.9063,-13.2031 21.2969,-13.2031 C17.9063,-13.2031 14.2031,-12.2031 10.5938,-10.2969 C4,-6.79688 0,-0.90625 0,4.20313 C0,5.59375 0.296875,7 1,8.29688 C2.79688,11.5938 6.59375,13.2969 11.2031,13.2969 C14.5938,13.2969 18.2969,12.4063 21.9063,10.5 C28.5,7 32.5,1.09375 32.5,-4 C32.5,-5.40625 32.2031,-6.79688 31.5,-8.09375"/>
<path class="Clef" transform="matrix(0.992126,0,0,0.992126,19.8425,173.622)" d="M12.2969,-25.2031 L1.29688,-25.2031 C0.59375,-25.2031 0,-24.5938 0,-23.9063 L0,23.9063 C0,24.5938 0.59375,25.2031 1.29688,25.2031 L12.2969,25.2031 C13,25.2031 13.5938,24.5938 13.5938,23.9063 L13.5938,-23.9063 C13.5938,-24.5938 13,-25.2031 12.2969,-25.2031 M33.9063,-25.2031 L22.9063,-25.2031 C22.2031,-25.2031 21.5938,-24.5938 21.5938,-23.9063 L21.5938,23.9063 C21.5938,24.5938 22.2031,25.2031 22.9063,25.2031 L33.9063,25.2031 C34.6094,25.2031 35.2031,24.5938 35.2031,23.9063 L35.2031,-23.9063 C35.2031,-24.5938 34.6094,-25.2031 33.9063,-25.2031"/>
<path class="TimeSig" transform="matrix(0.992126,0,0,0.992126,82.1217,149.315)" d="M27.0156,-1.59375 L27.2188,-1.59375 C35.2188,-4.70313 35.7188,-9.90625 35.7188,-11.7031 L35.7188,-12.2031 C35.7188,-13.0938 35.4219,-24.4063 18.2188,-24.4063 C1.01563,-24.4063 1.51563,-12.2031 1.51563,-12.2031 L1.625,-12.2031 L1.51563,-12 C1.51563,-8.40625 4.42188,-5.59375 8.01563,-5.59375 C11.625,-5.59375 14.4219,-8.40625 14.4219,-12 C14.4219,-14.9063 12.2188,-17.7031 9.42188,-18.2969 L9.71875,-18.5938 C11.125,-19.5938 13.0156,-20.0938 14.9219,-20.0938 C19.125,-20.0938 23.625,-17.5938 23.625,-12.2031 C23.625,-5.90625 18.9219,-5 17.7188,-4.79688 C16.5156,-4.59375 10.9219,-4.20313 9.71875,-4.20313 C8.51563,-4.20313 8.42188,-2.79688 8.42188,-2.79688 L8.42188,-0.796875 C8.42188,-0.796875 8.625,0.296875 9.71875,0.40625 C11.4219,0.5 13.7188,0.5 16.9219,1 C21.3125,1.59375 23.625,4.59375 23.625,11.5938 C23.625,18.2969 19.125,20.0938 14.9219,20.0938 C12.125,20.0938 9.51563,19.2969 8.42188,18.5 C11.7188,18.2969 14.4219,15.4063 14.4219,12.0938 C14.4219,8.5 11.625,5.59375 8.01563,5.59375 C4.42188,5.59375 1.51563,8.5 1.51563,12.0938 C1.51563,12.0938 1.01563,16.5938 5.42188,20.7031 C9.3125,24.2969 14.2188,24.4063 16.4219,24.4063 C26.0156,24.4063 36.4219,21.0938 36.4219,10.2031 C36.4219,2.90625 31.4219,-0.203125 27.0156,-1.59375"/>
<path class="TimeSig" transform="matrix(0.992126,0,0,0.992126,78.1997,198.293)" d="M3.59375,12.625 L20.7656,12.625 L20.7656,20.0781 L12.5469,20.0781 C11.7656,20.0781 11.125,20.7031 11.125,21.4844 L11.125,23.3906 C11.125,24.1719 11.7656,24.7969 12.5469,24.7969 L42.7969,24.7969 C43.5781,24.7969 44.2031,24.1719 44.2031,23.3906 L44.2031,21.4844 C44.2031,20.7031 43.5781,20.0781 42.7969,20.0781 L33.8594,20.0781 L33.8594,12.625 L42.7969,12.625 C43.5781,12.625 44.2031,12 44.2031,11.2188 L44.2031,9.3125 C44.2031,8.53125 43.5781,7.90625 42.7969,7.90625 L33.8594,7.90625 L33.8594,-8.0625 C33.8594,-8.59375 33.5469,-9.07813 33.0781,-9.3125 L31.8594,-9.92188 C31.3281,-10.1719 30.7031,-10.0781 30.2656,-9.6875 L21.2188,-1.375 C20.9375,-1.09375 20.7656,-0.734375 20.7656,-0.328125 L20.7656,7.90625 L9.25,7.90625 C9.25,7.90625 20.375,-4.125 32.2188,-19.8906 C33.0781,-21.0469 32.5781,-22.0938 32.3906,-22.2813 L30.2188,-24.4844 C29.9531,-24.75 29.5938,-24.9063 29.2188,-24.9063 C28.625,-24.9063 15.0625,-24.875 14.3438,-24.9063 C13.625,-24.9219 13.0938,-24.2969 13.0156,-23.6875 C13.0156,-23.6875 12.4844,-16.3281 9.875,-8.1875 C7.28125,-0.078125 4.34375,4.90625 1.6875,8.53125 C1.6875,8.53125 1.14063,9.51563 1.5,10.2656 C1.84375,11.0156 2.48438,12.0938 2.48438,12.0938 C2.48438,12.0938 2.73438,12.625 3.59375,12.625"/>
<path class="Articulation" transform="matrix(0.992126,0,0,0.992126,1117.69,212.191)" d="M35.1094,10.4063 L1.79688,0.09375 C1.70313,0.09375 1.5,0 1.40625,0 C0.59375,0 0,0.59375 0,1.40625 L0,3.70313 C0,4.29688 0.5,4.79688 1,5 L22.4063,11.7031 L1,18.5 C0.5,18.7031 0,19.2031 0,19.7969 L0,22.0938 C0,22.9063 0.59375,23.5 1.40625,23.5 C1.5,23.5 1.70313,23.4063 1.79688,23.4063 L35.1094,13.0938 C35.6094,12.9063 36.1094,12.2969 36.1094,11.7031 C36.1094,11.0938 35.6094,10.5938 35.1094,10.4063"/>
<path class="Beam" fill-rule="evenodd" d="M201.161,74.4094 L488.236,74.4094 L488.236,86.811 L201.161,86.811 L201.161,74.4094 "/>
<path class="Beam" fill-rule="evenodd" d="M201.161,93.0118 L488.236,93.0118 L488.236,105.413 L201.161,105.413 L201.161,93.0118 "/>
<path class="Beam" fill-rule="evenodd" d="M580.29,74.4094 L867.365,74.4094 L867.365,86.811 L580.29,86.811 L580.29,74.4094 "/>
<path class="Beam" fill-rule="evenodd" d="M580.29,93.0118 L867.365,93.0118 L867.365,105.413 L580.29,105.413 L580.29,93.0118 "/>
<path class="Beam" fill-rule="evenodd" d="M959.419,74.4094 L1151.71,74.4094 L1151.71,86.811 L959.419,86.811 L959.419,74.4094 "/>
<path class="Beam" fill-rule="evenodd" d="M959.419,93.0118 L1056.93,93.0118 L1056.93,105.413 L959.419,105.413 L959.419,93.0118 "/>
</svg>
