<?xml version="1.0" encoding="UTF-8" standalone="no"?>
<svg width="1275.59px" height="283.465px" viewBox="0 0 1275.59 283.465"
 xmlns="http://www.w3.org/2000/svg" xmlns:xlink="http://www.w3.org/1999/xlink" version="1.2" baseProfile="tiny">
<title>drum_rudiments (30)</title>
<desc>Generated by MuseScore 3.6.2</desc>
<polyline class="StaffLines" fill="none" stroke="#000000" stroke-width="2.73" stroke-linejoin="bevel" points="0,173.622 1275.59,173.622"/>
<path class="MeasureNumber" d="M14.5938,59.8469 C16.4844,59.2532 17.2344,58.9251 18.2031,58.2844 C20.0781,57.0501 21.2344,54.8469 21.2344,52.6126 C21.2344,48.8157 18.2031,46.2532 13.7188,46.2532 C9.35938,46.2532 5.67188,48.9719 5.67188,52.2532 C5.67188,53.8938 6.67188,55.0188 8.20313,55.0188 C9.51563,55.0188 10.4844,54.0501 10.4844,52.7376 C10.4844,52.0501 10.2813,51.5657 9.64063,50.9407 C9.23438,50.5657 9.07813,50.3001 9.07813,50.0188 C9.07813,49.0501 11.0781,48.0501 12.9531,48.0501 C15.6406,48.0501 17.2344,49.5344 17.2344,52.0188 C17.2344,55.5657 14.7188,58.9251 12.0313,58.9251 C11.9219,58.9251 11.5625,58.8938 11.125,58.8469 C9.95313,58.7688 9.95313,58.7688 9.71875,58.7688 C8.84375,58.7688 8.35938,59.1751 8.35938,59.8938 C8.35938,60.5344 8.79688,60.9251 9.51563,60.9251 C9.71875,60.9251 10,60.8938 10.3125,60.8469 C10.875,60.7376 11.4844,60.6907 11.8438,60.6907 C13.7188,60.6907 15,62.3782 15,64.8469 C15,66.7688 14.5625,68.6126 13.6719,70.1282 C12.4844,72.2844 10.6406,73.3313 8.03125,73.3313 C5.79688,73.3313 3.875,72.2063 3.875,70.9251 C3.875,70.4876 4.04688,70.3313 4.67188,70.0501 C5.84375,69.5344 6.3125,68.8157 6.3125,67.7376 C6.3125,66.3313 5.20313,65.2532 3.76563,65.2532 C2.04688,65.2532 0.921875,66.6126 0.921875,68.6907 C0.921875,72.5657 3.875,75.0032 8.67188,75.0032 C14.7188,75.0032 19.3125,70.9719 19.3125,65.6126 C19.3125,64.1751 18.875,62.9251 18.0313,61.9251 C17.1563,60.8938 16.3594,60.4094 14.5938,59.8469 M37.2656,46.2532 C34.625,46.2532 32.1563,47.4563 29.9531,49.7688 C26.6406,53.3782 24.3906,59.5344 24.3906,65.1282 C24.3906,70.9251 27.2813,75.0032 31.3594,75.0032 C38.1875,75.0032 44.3125,66.1282 44.3125,56.2063 C44.3125,50.2532 41.4688,46.2532 37.2656,46.2532 M37.2344,47.8469 C39.3125,47.8469 40.4375,49.6907 40.4375,53.1282 C40.4375,57.0501 39.4375,62.1282 37.7969,66.2532 C35.875,71.2532 33.9531,73.4094 31.5469,73.4094 C29.3906,73.4094 28.1875,71.4876 28.1875,68.0969 C28.1875,62.8938 30.0313,55.9251 32.5938,51.3001 C33.8281,49.0501 35.4375,47.8469 37.2344,47.8469"/>
<path class="SlurSegment" stroke="#000000" stroke-width="1.74" stroke-linecap="round" stroke-linejoin="round" fill-rule="evenodd" d="M128.051,208.346 C146.418,213.262 172.633,200.861 180.482,183.543 C175.603,207.139 149.388,219.54 128.051,208.346"/>
<path class="SlurSegment" stroke="#000000" stroke-width="1.74" stroke-linecap="round" stroke-linejoin="round" fill-rule="evenodd" d="M404.742,183.543 C412.591,200.861 438.807,213.262 457.173,208.346 C435.837,219.54 409.621,207.139 404.742,183.543"/>
<path class="SlurSegment" stroke="#000000" stroke-width="1.74" stroke-linecap="round" stroke-linejoin="round" fill-rule="evenodd" d="M681.433,208.346 C699.799,213.262 726.015,200.861 733.864,183.543 C728.985,207.139 702.769,219.54 681.433,208.346"/>
<path class="SlurSegment" stroke="#000000" stroke-width="1.74" stroke-linecap="round" stroke-linejoin="round" fill-rule="evenodd" d="M958.123,183.543 C965.972,200.861 992.188,213.262 1010.55,208.346 C989.218,219.54 963.003,207.139 958.123,183.543"/>
<polyline class="BarLine" stroke="#000000" stroke-width="4.46" stroke-linejoin="bevel" points="1273.36,122.652 1273.36,224.593"/>
<polyline class="Stem" stroke="#000000" stroke-width="2.73" stroke-linejoin="bevel" points="195.236,158.046 195.236,93.0118"/>
<polyline class="Stem" stroke="#000000" stroke-width="1.91" stroke-linejoin="bevel" points="138.379,183.801 138.379,125.256"/>
<polyline class="Stem" stroke="#000000" stroke-width="2.73" stroke-linejoin="bevel" points="287.467,182.849 287.467,93.0118"/>
<polyline class="Stem" stroke="#000000" stroke-width="2.73" stroke-linejoin="bevel" points="379.697,158.046 379.697,93.0118"/>
<polyline class="Stem" stroke="#000000" stroke-width="2.73" stroke-linejoin="bevel" points="471.927,182.849 471.927,93.0118"/>
<polyline class="Stem" stroke="#000000" stroke-width="1.91" stroke-linejoin="bevel" points="415.07,158.998 415.07,100.453"/>
<polyline class="Stem" stroke="#000000" stroke-width="2.73" stroke-linejoin="bevel" points="564.157,158.046 564.157,93.0118"/>
<polyline class="Stem" stroke="#000000" stroke-width="2.73" stroke-linejoin="bevel" points="656.388,182.849 656.388,93.0118"/>
<polyline class="Stem" stroke="#000000" stroke-width="2.73" stroke-linejoin="bevel" points="748.618,158.046 748.618,93.0118"/>
<polyline class="Stem" stroke="#000000" stroke-width="1.91" stroke-linejoin="bevel" points="691.76,183.801 691.76,125.256"/>
<polyline class="Stem" stroke="#000000" stroke-width="2.73" stroke-linejoin="bevel" points="840.848,182.849 840.848,93.0118"/>
<polyline class="Stem" stroke="#000000" stroke-width="2.73" stroke-linejoin="bevel" points="933.078,158.046 933.078,93.0118"/>
<polyline class="Stem" stroke="#000000" stroke-width="2.73" stroke-linejoin="bevel" points="1025.31,182.849 1025.31,93.0118"/>
<polyline class="Stem" stroke="#000000" stroke-width="1.91" stroke-linejoin="bevel" points="968.451,158.998 968.451,100.453"/>
<polyline class="Stem" stroke="#000000" stroke-width="2.73" stroke-linejoin="bevel" points="1117.54,158.046 1117.54,93.0118"/>
<polyline class="Stem" stroke="#000000" stroke-width="2.73" stroke-linejoin="bevel" points="1209.77,182.849 1209.77,93.0118"/>
<path class="Note" transform="matrix(0.992126,0,0,0.992126,164.364,161.22)" d="M31.5,-8.09375 C29.7031,-11.4063 25.9063,-13.2031 21.2969,-13.2031 C17.9063,-13.2031 14.2031,-12.2031 10.5938,-10.2969 C4,-6.79688 0,-0.90625 0,4.20313 C0,5.59375 0.296875,7 1,8.29688 C2.79688,11.5938 6.59375,13.2969 11.2031,13.2969 C14.5938,13.2969 18.2969,12.4063 21.9063,10.5 C28.5,7 32.5,1.09375 32.5,-4 C32.5,-5.40625 32.2031,-6.79688 31.5,-8.09375"/>
<path class="Note" transform="matrix(0.694488,0,0,0.694488,116.769,186.024)" d="M31.5,-8.09375 C29.7031,-11.4063 25.9063,-13.2031 21.2969,-13.2031 C17.9063,-13.2031 14.2031,-12.2031 10.5938,-10.2969 C4,-6.79688 0,-0.90625 0,4.20313 C0,5.59375 0.296875,7 1,8.29688 C2.79688,11.5938 6.59375,13.2969 11.2031,13.2969 C14.5938,13.2969 18.2969,12.4063 21.9063,10.5 C28.5,7 32.5,1.09375 32.5,-4 C32.5,-5.40625 32.2031,-6.79688 31.5,-8.09375"/>
<path class="Note" transform="matrix(0.992126,0,0,0.992126,256.595,186.024)" d="M31.5,-8.09375 C29.7031,-11.4063 25.9063,-13.2031 21.2969,-13.2031 C17.9063,-13.2031 14.2031,-12.2031 10.5938,-10.2969 C4,-6.79688 0,-0.90625 0,4.20313 C0,5.59375 0.296875,7 1,8.29688 C2.79688,11.5938 6.59375,13.2969 11.2031,13.2969 C14.5938,13.2969 18.2969,12.4063 21.9063,10.5 C28.5,7 32.5,1.09375 32.5,-4 C32.5,-5.40625 32.2031,-6.79688 31.5,-8.09375"/>
<path class="Note" transform="matrix(0.992126,0,0,0.992126,348.825,161.22)" d="M31.5,-8.09375 C29.7031,-11.4063 25.9063,-13.2031 21.2969,-13.2031 C17.9063,-13.2031 14.2031,-12.2031 10.5938,-10.2969 C4,-6.79688 0,-0.90625 0,4.20313 C0,5.59375 0.296875,7 1,8.29688 C2.79688,11.5938 6.59375,13.2969 11.2031,13.2969 C14.5938,13.2969 18.2969,12.4063 21.9063,10.5 C28.5,7 32.5,1.09375 32.5,-4 C32.5,-5.40625 32.2031,-6.79688 31.5,-8.09375"/>
<path class="Note" transform="matrix(0.992126,0,0,0.992126,441.055,186.024)" d="M31.5,-8.09375 C29.7031,-11.4063 25.9063,-13.2031 21.2969,-13.2031 C17.9063,-13.2031 14.2031,-12.2031 10.5938,-10.2969 C4,-6.79688 0,-0.90625 0,4.20313 C0,5.59375 0.296875,7 1,8.29688 C2.79688,11.5938 6.59375,13.2969 11.2031,13.2969 C14.5938,13.2969 18.2969,12.4063 21.9063,10.5 C28.5,7 32.5,1.09375 32.5,-4 C32.5,-5.40625 32.2031,-6.79688 31.5,-8.09375"/>
<path class="Note" transform="matrix(0.694488,0,0,0.694488,393.459,161.22)" d="M31.5,-8.09375 C29.7031,-11.4063 25.9063,-13.2031 21.2969,-13.2031 C17.9063,-13.2031 14.2031,-12.2031 10.5938,-10.2969 C4,-6.79688 0,-0.90625 0,4.20313 C0,5.59375 0.296875,7 1,8.29688 C2.79688,11.5938 6.59375,13.2969 11.2031,13.2969 C14.5938,13.2969 18.2969,12.4063 21.9063,10.5 C28.5,7 32.5,1.09375 32.5,-4 C32.5,-5.40625 32.2031,-6.79688 31.5,-8.09375"/>
<path class="Note" transform="matrix(0.992126,0,0,0.992126,533.285,161.22)" d="M31.5,-8.09375 C29.7031,-11.4063 25.9063,-13.2031 21.2969,-13.2031 C17.9063,-13.2031 14.2031,-12.2031 10.5938,-10.2969 C4,-6.79688 0,-0.90625 0,4.20313 C0,5.59375 0.296875,7 1,8.29688 C2.79688,11.5938 6.59375,13.2969 11.2031,13.2969 C14.5938,13.2969 18.2969,12.4063 21.9063,10.5 C28.5,7 32.5,1.09375 32.5,-4 C32.5,-5.40625 32.2031,-6.79688 31.5,-8.09375"/>
<path class="Note" transform="matrix(0.992126,0,0,0.992126,625.515,186.024)" d="M31.5,-8.09375 C29.7031,-11.4063 25.9063,-13.2031 21.2969,-13.2031 C17.9063,-13.2031 14.2031,-12.2031 10.5938,-10.2969 C4,-6.79688 0,-0.90625 0,4.20313 C0,5.59375 0.296875,7 1,8.29688 C2.79688,11.5938 6.59375,13.2969 11.2031,13.2969 C14.5938,13.2969 18.2969,12.4063 21.9063,10.5 C28.5,7 32.5,1.09375 32.5,-4 C32.5,-5.40625 32.2031,-6.79688 31.5,-8.09375"/>
<path class="Note" transform="matrix(0.992126,0,0,0.992126,717.746,161.22)" d="M31.5,-8.09375 C29.7031,-11.4063 25.9063,-13.2031 21.2969,-13.2031 C17.9063,-13.2031 14.2031,-12.2031 10.5938,-10.2969 C4,-6.79688 0,-0.90625 0,4.20313 C0,5.59375 0.296875,7 1,8.29688 C2.79688,11.5938 6.59375,13.2969 11.2031,13.2969 C14.5938,13.2969 18.2969,12.4063 21.9063,10.5 C28.5,7 32.5,1.09375 32.5,-4 C32.5,-5.40625 32.2031,-6.79688 31.5,-8.09375"/>
<path class="Note" transform="matrix(0.694488,0,0,0.694488,670.15,186.024)" d="M31.5,-8.09375 C29.7031,-11.4063 25.9063,-13.2031 21.2969,-13.2031 C17.9063,-13.2031 14.2031,-12.2031 10.5938,-10.2969 C4,-6.79688 0,-0.90625 0,4.20313 C0,5.59375 0.296875,7 1,8.29688 C2.79688,11.5938 6.59375,13.2969 11.2031,13.2969 C14.5938,13.2969 18.2969,12.4063 21.9063,10.5 C28.5,7 32.5,1.09375 32.5,-4 C32.5,-5.40625 32.2031,-6.79688 31.5,-8.09375"/>
<path class="Note" transform="matrix(0.992126,0,0,0.992126,809.976,186.024)" d="M31.5,-8.09375 C29.7031,-11.4063 25.9063,-13.2031 21.2969,-13.2031 C17.9063,-13.2031 14.2031,-12.2031 10.5938,-10.2969 C4,-6.79688 0,-0.90625 0,4.20313 C0,5.59375 0.296875,7 1,8.29688 C2.79688,11.5938 6.59375,13.2969 11.2031,13.2969 C14.5938,13.2969 18.2969,12.4063 21.9063,10.5 C28.5,7 32.5,1.09375 32.5,-4 C32.5,-5.40625 32.2031,-6.79688 31.5,-8.09375"/>
<path class="Note" transform="matrix(0.992126,0,0,0.992126,902.206,161.22)" d="M31.5,-8.09375 C29.7031,-11.4063 25.9063,-13.2031 21.2969,-13.2031 C17.9063,-13.2031 14.2031,-12.2031 10.5938,-10.2969 C4,-6.79688 0,-0.90625 0,4.20313 C0,5.59375 0.296875,7 1,8.29688 C2.79688,11.5938 6.59375,13.2969 11.2031,13.2969 C14.5938,13.2969 18.2969,12.4063 21.9063,10.5 C28.5,7 32.5,1.09375 32.5,-4 C32.5,-5.40625 32.2031,-6.79688 31.5,-8.09375"/>
<path class="Note" transform="matrix(0.992126,0,0,0.992126,994.436,186.024)" d="M31.5,-8.09375 C29.7031,-11.4063 25.9063,-13.2031 21.2969,-13.2031 C17.9063,-13.2031 14.2031,-12.2031 10.5938,-10.2969 C4,-6.79688 0,-0.90625 0,4.20313 C0,5.59375 0.296875,7 1,8.29688 C2.79688,11.5938 6.59375,13.2969 11.2031,13.2969 C14.5938,13.2969 18.2969,12.4063 21.9063,10.5 C28.5,7 32.5,1.09375 32.5,-4 C32.5,-5.40625 32.2031,-6.79688 31.5,-8.09375"/>
<path class="Note" transform="matrix(0.694488,0,0,0.694488,946.841,161.22)" d="M31.5,-8.09375 C29.7031,-11.4063 25.9063,-13.2031 21.2969,-13.2031 C17.9063,-13.2031 14.2031,-12.2031 10.5938,-10.2969 C4,-6.79688 0,-0.90625 0,4.20313 C0,5.59375 0.296875,7 1,8.29688 C2.79688,11.5938 6.59375,13.2969 11.2031,13.2969 C14.5938,13.2969 18.2969,12.4063 21.9063,10.5 C28.5,7 32.5,1.09375 32.5,-4 C32.5,-5.40625 32.2031,-6.79688 31.5,-8.09375"/>
<path class="Note" transform="matrix(0.992126,0,0,0.992126,1086.67,161.22)" d="M31.5,-8.09375 C29.7031,-11.4063 25.9063,-13.2031 21.2969,-13.2031 C17.9063,-13.2031 14.2031,-12.2031 10.5938,-10.2969 C4,-6.79688 0,-0.90625 0,4.20313 C0,5.59375 0.296875,7 1,8.29688 C2.79688,11.5938 6.59375,13.2969 11.2031,13.2969 C14.5938,13.2969 18.2969,12.4063 21.9063,10.5 C28.5,7 32.5,1.09375 32.5,-4 C32.5,-5.40625 32.2031,-6.79688 31.5,-8.09375"/>
<path class="Note" transform="matrix(0.992126,0,0,0.992126,1178.9,186.024)" d="M31.5,-8.09375 C29.7031,-11.4063 25.9063,-13.2031 21.2969,-13.2031 C17.9063,-13.2031 14.2031,-12.2031 10.5938,-10.2969 C4,-6.79688 0,-0.90625 0,4.20313 C0,5.59375 0.296875,7 1,8.29688 C2.79688,11.5938 6.59375,13.2969 11.2031,13.2969 C14.5938,13.2969 18.2969,12.4063 21.9063,10.5 C28.5,7 32.5,1.09375 32.5,-4 C32.5,-5.40625 32.2031,-6.79688 31.5,-8.09375"/>
<path class="Clef" transform="matrix(0.992126,0,0,0.992126,19.8425,173.622)" d="M12.2969,-25.2031 L1.29688,-25.2031 C0.59375,-25.2031 0,-24.5938 0,-23.9063 L0,23.9063 C0,24.5938 0.59375,25.2031 1.29688,25.2031 L12.2969,25.2031 C13,25.2031 13.5938,24.5938 13.5938,23.9063 L13.5938,-23.9063 C13.5938,-24.5938 13,-25.2031 12.2969,-25.2031 M33.9063,-25.2031 L22.9063,-25.2031 C22.2031,-25.2031 21.5938,-24.5938 21.5938,-23.9063 L21.5938,23.9063 C21.5938,24.5938 22.2031,25.2031 22.9063,25.2031 L33.9063,25.2031 C34.6094,25.2031 35.2031,24.5938 35.2031,23.9063 L35.2031,-23.9063 C35.2031,-24.5938 34.6094,-25.2031 33.9063,-25.2031"/>
<path class="Articulation" transform="matrix(0.992126,0,0,0.992126,162.578,212.191)" d="M35.1094,10.4063 L1.79688,0.09375 C1.70313,0.09375 1.5,0 1.40625,0 C0.59375,0 0,0.59375 0,1.40625 L0,3.70313 C0,4.29688 0.5,4.79688 1,5 L22.4063,11.7031 L1,18.5 C0.5,18.7031 0,19.2031 0,19.7969 L0,22.0938 C0,22.9063 0.59375,23.5 1.40625,23.5 C1.5,23.5 1.70313,23.4063 1.79688,23.4063 L35.1094,13.0938 C35.6094,12.9063 36.1094,12.2969 36.1094,11.7031 C36.1094,11.0938 35.6094,10.5938 35.1094,10.4063"/>
<path class="Articulation" transform="matrix(0.992126,0,0,0.992126,439.268,228.424)" d="M35.1094,10.4063 L1.79688,0.09375 C1.70313,0.09375 1.5,0 1.40625,0 C0.59375,0 0,0.59375 0,1.40625 L0,3.70313 C0,4.29688 0.5,4.79688 1,5 L22.4063,11.7031 L1,18.5 C0.5,18.7031 0,19.2031 0,19.7969 L0,22.0938 C0,22.9063 0.59375,23.5 1.40625,23.5 C1.5,23.5 1.70313,23.4063 1.79688,23.4063 L35.1094,13.0938 C35.6094,12.9063 36.1094,12.2969 36.1094,11.7031 C36.1094,11.0938 35.6094,10.5938 35.1094,10.4063"/>
<path class="Articulation" transform="matrix(0.992126,0,0,0.992126,715.959,212.191)" d="M35.1094,10.4063 L1.79688,0.09375 C1.70313,0.09375 1.5,0 1.40625,0 C0.59375,0 0,0.59375 0,1.40625 L0,3.70313 C0,4.29688 0.5,4.79688 1,5 L22.4063,11.7031 L1,18.5 C0.5,18.7031 0,19.2031 0,19.7969 L0,22.0938 C0,22.9063 0.59375,23.5 1.40625,23.5 C1.5,23.5 1.70313,23.4063 1.79688,23.4063 L35.1094,13.0938 C35.6094,12.9063 36.1094,12.2969 36.1094,11.7031 C36.1094,11.0938 35.6094,10.5938 35.1094,10.4063"/>
<path class="Articulation" transform="matrix(0.992126,0,0,0.992126,992.65,228.424)" d="M35.1094,10.4063 L1.79688,0.09375 C1.70313,0.09375 1.5,0 1.40625,0 C0.59375,0 0,0.59375 0,1.40625 L0,3.70313 C0,4.29688 0.5,4.79688 1,5 L22.4063,11.7031 L1,18.5 C0.5,18.7031 0,19.2031 0,19.7969 L0,22.0938 C0,22.9063 0.59375,23.5 1.40625,23.5 C1.5,23.5 1.70313,23.4063 1.79688,23.4063 L35.1094,13.0938 C35.6094,12.9063 36.1094,12.2969 36.1094,11.7031 C36.1094,11.0938 35.6094,10.5938 35.1094,10.4063"/>
<path class="Beam" fill-rule="evenodd" d="M193.872,86.811 L381.061,86.811 L381.061,99.2126 L193.872,99.2126 L193.872,86.811 "/>
<path class="Beam" fill-rule="evenodd" d="M470.563,86.811 L657.752,86.811 L657.752,99.2126 L470.563,99.2126 L470.563,86.811 "/>
<path class="Beam" fill-rule="evenodd" d="M747.254,86.811 L934.442,86.811 L934.442,99.2126 L747.254,99.2126 L747.254,86.811 "/>
<path class="Beam" fill-rule="evenodd" d="M1023.94,86.811 L1211.13,86.811 L1211.13,99.2126 L1023.94,99.2126 L1023.94,86.811 "/>
<path class="Hook" transform="matrix(0.694488,0,0,0.694488,137.424,125.256)" d="M3.5,3.5 C3.40625,3.20313 2.5,-0.296875 2.5,-0.5 C2.40625,-0.90625 1.79688,-1.20313 1.29688,-1.20313 C0.59375,-1.20313 0,-0.59375 0,0.09375 L0,16.5 L0,22.7031 C0,23.2031 0.40625,23.5938 0.796875,23.7969 C5,25.0938 13.7031,30.6094 20.2031,41.7031 C22,44.7969 24.9063,49 24.9063,57.4063 C24.9063,64.6094 23.7969,72.2031 22,79.2031 C21.7031,80.3125 21.4063,81.3125 22.5,81.7031 C23.5938,82.1094 24,81.3125 24.4063,80.3125 C28,71.5 28.9063,62.2969 28.9063,56.1094 L28.9063,54.2031 C28.4063,41.2969 21,31.7969 21,31.7969 C21.2969,31.7969 11.7969,19.5 9.09375,15.2969 C5.40625,9.59375 3.59375,3.90625 3.5,3.5"/>
<path class="Hook" transform="matrix(0.694488,0,0,0.694488,414.115,100.453)" d="M3.5,3.5 C3.40625,3.20313 2.5,-0.296875 2.5,-0.5 C2.40625,-0.90625 1.79688,-1.20313 1.29688,-1.20313 C0.59375,-1.20313 0,-0.59375 0,0.09375 L0,16.5 L0,22.7031 C0,23.2031 0.40625,23.5938 0.796875,23.7969 C5,25.0938 13.7031,30.6094 20.2031,41.7031 C22,44.7969 24.9063,49 24.9063,57.4063 C24.9063,64.6094 23.7969,72.2031 22,79.2031 C21.7031,80.3125 21.4063,81.3125 22.5,81.7031 C23.5938,82.1094 24,81.3125 24.4063,80.3125 C28,71.5 28.9063,62.2969 28.9063,56.1094 L28.9063,54.2031 C28.4063,41.2969 21,31.7969 21,31.7969 C21.2969,31.7969 11.7969,19.5 9.09375,15.2969 C5.40625,9.59375 3.59375,3.90625 3.5,3.5"/>
<path class="Hook" transform="matrix(0.694488,0,0,0.694488,690.806,125.256)" d="M3.5,3.5 C3.40625,3.20313 2.5,-0.296875 2.5,-0.5 C2.40625,-0.90625 1.79688,-1.20313 1.29688,-1.20313 C0.59375,-1.20313 0,-0.59375 0,0.09375 L0,16.5 L0,22.7031 C0,23.2031 0.40625,23.5938 0.796875,23.7969 C5,25.0938 13.7031,30.6094 20.2031,41.7031 C22,44.7969 24.9063,49 24.9063,57.4063 C24.9063,64.6094 23.7969,72.2031 22,79.2031 C21.7031,80.3125 21.4063,81.3125 22.5,81.7031 C23.5938,82.1094 24,81.3125 24.4063,80.3125 C28,71.5 28.9063,62.2969 28.9063,56.1094 L28.9063,54.2031 C28.4063,41.2969 21,31.7969 21,31.7969 C21.2969,31.7969 11.7969,19.5 9.09375,15.2969 C5.40625,9.59375 3.59375,3.90625 3.5,3.5"/>
<path class="Hook" transform="matrix(0.694488,0,0,0.694488,967.496,100.453)" d="M3.5,3.5 C3.40625,3.20313 2.5,-0.296875 2.5,-0.5 C2.40625,-0.90625 1.79688,-1.20313 1.29688,-1.20313 C0.59375,-1.20313 0,-0.59375 0,0.09375 L0,16.5 L0,22.7031 C0,23.2031 0.40625,23.5938 0.796875,23.7969 C5,25.0938 13.7031,30.6094 20.2031,41.7031 C22,44.7969 24.9063,49 24.9063,57.4063 C24.9063,64.6094 23.7969,72.2031 22,79.2031 C21.7031,80.3125 21.4063,81.3125 22.5,81.7031 C23.5938,82.1094 24,81.3125 24.4063,80.3125 C28,71.5 28.9063,62.2969 28.9063,56.1094 L28.9063,54.2031 C28.4063,41.2969 21,31.7969 21,31.7969 C21.2969,31.7969 11.7969,19.5 9.09375,15.2969 C5.40625,9.59375 3.59375,3.90625 3.5,3.5"/>
<path class="Tuplet" d="M290.399,53.5679 C292.524,52.896 293.368,52.521 294.446,51.8023 C296.571,50.4117 297.868,47.9429 297.868,45.4117 C297.868,41.146 294.446,38.271 289.415,38.271 C284.509,38.271 280.368,41.3179 280.368,45.021 C280.368,46.8648 281.493,48.1148 283.196,48.1148 C284.681,48.1148 285.774,47.0367 285.774,45.5523 C285.774,44.7867 285.54,44.2554 284.821,43.5367 C284.368,43.1304 284.196,42.8023 284.196,42.4898 C284.196,41.4117 286.446,40.2867 288.556,40.2867 C291.571,40.2867 293.368,41.9585 293.368,44.7398 C293.368,48.7554 290.54,52.521 287.524,52.521 C287.384,52.521 286.977,52.4898 286.493,52.4429 C285.181,52.3492 285.181,52.3492 284.915,52.3492 C283.915,52.3492 283.384,52.8023 283.384,53.6148 C283.384,54.3335 283.884,54.771 284.681,54.771 C284.915,54.771 285.227,54.7398 285.587,54.6929 C286.212,54.5523 286.899,54.5054 287.29,54.5054 C289.415,54.5054 290.852,56.396 290.852,59.1929 C290.852,61.3492 290.352,63.4117 289.368,65.1304 C288.024,67.5523 285.946,68.7242 283.024,68.7242 C280.509,68.7242 278.337,67.4742 278.337,66.021 C278.337,65.5367 278.524,65.3492 279.243,65.0367 C280.54,64.4585 281.087,63.646 281.087,62.4273 C281.087,60.8492 279.821,59.646 278.212,59.646 C276.274,59.646 275.009,61.1617 275.009,63.5054 C275.009,67.8804 278.337,70.6148 283.743,70.6148 C290.54,70.6148 295.712,66.0679 295.712,60.0367 C295.712,58.4273 295.212,57.021 294.274,55.896 C293.274,54.7398 292.384,54.1929 290.399,53.5679"/>
<path class="Tuplet" d="M567.09,53.5679 C569.215,52.896 570.059,52.521 571.137,51.8023 C573.262,50.4117 574.559,47.9429 574.559,45.4117 C574.559,41.146 571.137,38.271 566.106,38.271 C561.199,38.271 557.059,41.3179 557.059,45.021 C557.059,46.8648 558.184,48.1148 559.887,48.1148 C561.371,48.1148 562.465,47.0367 562.465,45.5523 C562.465,44.7867 562.231,44.2554 561.512,43.5367 C561.059,43.1304 560.887,42.8023 560.887,42.4898 C560.887,41.4117 563.137,40.2867 565.246,40.2867 C568.262,40.2867 570.059,41.9585 570.059,44.7398 C570.059,48.7554 567.231,52.521 564.215,52.521 C564.074,52.521 563.668,52.4898 563.184,52.4429 C561.871,52.3492 561.871,52.3492 561.606,52.3492 C560.606,52.3492 560.074,52.8023 560.074,53.6148 C560.074,54.3335 560.574,54.771 561.371,54.771 C561.606,54.771 561.918,54.7398 562.278,54.6929 C562.903,54.5523 563.59,54.5054 563.981,54.5054 C566.106,54.5054 567.543,56.396 567.543,59.1929 C567.543,61.3492 567.043,63.4117 566.059,65.1304 C564.715,67.5523 562.637,68.7242 559.715,68.7242 C557.199,68.7242 555.028,67.4742 555.028,66.021 C555.028,65.5367 555.215,65.3492 555.934,65.0367 C557.231,64.4585 557.778,63.646 557.778,62.4273 C557.778,60.8492 556.512,59.646 554.903,59.646 C552.965,59.646 551.699,61.1617 551.699,63.5054 C551.699,67.8804 555.028,70.6148 560.434,70.6148 C567.231,70.6148 572.403,66.0679 572.403,60.0367 C572.403,58.4273 571.903,57.021 570.965,55.896 C569.965,54.7398 569.074,54.1929 567.09,53.5679"/>
<path class="Tuplet" d="M843.781,53.5679 C845.906,52.896 846.75,52.521 847.828,51.8023 C849.953,50.4117 851.25,47.9429 851.25,45.4117 C851.25,41.146 847.828,38.271 842.796,38.271 C837.89,38.271 833.75,41.3179 833.75,45.021 C833.75,46.8648 834.875,48.1148 836.578,48.1148 C838.062,48.1148 839.156,47.0367 839.156,45.5523 C839.156,44.7867 838.921,44.2554 838.203,43.5367 C837.75,43.1304 837.578,42.8023 837.578,42.4898 C837.578,41.4117 839.828,40.2867 841.937,40.2867 C844.953,40.2867 846.75,41.9585 846.75,44.7398 C846.75,48.7554 843.921,52.521 840.906,52.521 C840.765,52.521 840.359,52.4898 839.875,52.4429 C838.562,52.3492 838.562,52.3492 838.296,52.3492 C837.296,52.3492 836.765,52.8023 836.765,53.6148 C836.765,54.3335 837.265,54.771 838.062,54.771 C838.296,54.771 838.609,54.7398 838.968,54.6929 C839.593,54.5523 840.281,54.5054 840.671,54.5054 C842.796,54.5054 844.234,56.396 844.234,59.1929 C844.234,61.3492 843.734,63.4117 842.75,65.1304 C841.406,67.5523 839.328,68.7242 836.406,68.7242 C833.89,68.7242 831.718,67.4742 831.718,66.021 C831.718,65.5367 831.906,65.3492 832.625,65.0367 C833.921,64.4585 834.468,63.646 834.468,62.4273 C834.468,60.8492 833.203,59.646 831.593,59.646 C829.656,59.646 828.39,61.1617 828.39,63.5054 C828.39,67.8804 831.718,70.6148 837.125,70.6148 C843.921,70.6148 849.093,66.0679 849.093,60.0367 C849.093,58.4273 848.593,57.021 847.656,55.896 C846.656,54.7398 845.765,54.1929 843.781,53.5679"/>
<path class="Tuplet" d="M1120.47,53.5679 C1122.6,52.896 1123.44,52.521 1124.52,51.8023 C1126.64,50.4117 1127.94,47.9429 1127.94,45.4117 C1127.94,41.146 1124.52,38.271 1119.49,38.271 C1114.58,38.271 1110.44,41.3179 1110.44,45.021 C1110.44,46.8648 1111.57,48.1148 1113.27,48.1148 C1114.75,48.1148 1115.85,47.0367 1115.85,45.5523 C1115.85,44.7867 1115.61,44.2554 1114.89,43.5367 C1114.44,43.1304 1114.27,42.8023 1114.27,42.4898 C1114.27,41.4117 1116.52,40.2867 1118.63,40.2867 C1121.64,40.2867 1123.44,41.9585 1123.44,44.7398 C1123.44,48.7554 1120.61,52.521 1117.6,52.521 C1117.46,52.521 1117.05,52.4898 1116.57,52.4429 C1115.25,52.3492 1115.25,52.3492 1114.99,52.3492 C1113.99,52.3492 1113.46,52.8023 1113.46,53.6148 C1113.46,54.3335 1113.96,54.771 1114.75,54.771 C1114.99,54.771 1115.3,54.7398 1115.66,54.6929 C1116.28,54.5523 1116.97,54.5054 1117.36,54.5054 C1119.49,54.5054 1120.92,56.396 1120.92,59.1929 C1120.92,61.3492 1120.42,63.4117 1119.44,65.1304 C1118.1,67.5523 1116.02,68.7242 1113.1,68.7242 C1110.58,68.7242 1108.41,67.4742 1108.41,66.021 C1108.41,65.5367 1108.6,65.3492 1109.32,65.0367 C1110.61,64.4585 1111.16,63.646 1111.16,62.4273 C1111.16,60.8492 1109.89,59.646 1108.28,59.646 C1106.35,59.646 1105.08,61.1617 1105.08,63.5054 C1105.08,67.8804 1108.41,70.6148 1113.82,70.6148 C1120.61,70.6148 1125.78,66.0679 1125.78,60.0367 C1125.78,58.4273 1125.28,57.021 1124.35,55.896 C1123.35,54.7398 1122.46,54.1929 1120.47,53.5679"/>
<path class="Tremolo" fill-rule="evenodd" d="M272.585,142.618 L302.349,130.217 L302.349,142.618 L272.585,155.02 L272.585,142.618 "/>
<path class="Tremolo" fill-rule="evenodd" d="M549.275,117.815 L579.039,105.413 L579.039,117.815 L549.275,130.217 L549.275,117.815 "/>
<path class="Tremolo" fill-rule="evenodd" d="M825.966,142.618 L855.73,130.217 L855.73,142.618 L825.966,155.02 L825.966,142.618 "/>
<path class="Tremolo" fill-rule="evenodd" d="M1102.66,117.815 L1132.42,105.413 L1132.42,117.815 L1102.66,130.217 L1102.66,117.815 "/>
</svg>
