<?xml version="1.0" encoding="UTF-8" standalone="no"?>
<svg width="1275.59px" height="283.465px" viewBox="0 0 1275.59 283.465"
 xmlns="http://www.w3.org/2000/svg" xmlns:xlink="http://www.w3.org/1999/xlink" version="1.2" baseProfile="tiny">
<title>drum_rudiments_alternate_sticking (2)</title>
<desc>Generated by MuseScore 3.6.2</desc>
<polyline class="StaffLines" fill="none" stroke="#000000" stroke-width="2.73" stroke-linejoin="bevel" points="0,173.622 1275.59,173.622"/>
<path class="MeasureNumber" d="M19.3906,66.1282 L18.3594,67.9719 C16.75,70.7376 16.4375,70.9719 14.3906,71.0032 L5.125,71.0032 C6.07813,69.7376 7.84375,68.2532 11.0313,66.0032 C16.3125,62.3782 16.6719,62.1282 17.7969,61.2532 C21,58.7688 22.3125,56.4094 22.3125,53.2532 C22.3125,49.0501 19.2031,46.2532 14.5938,46.2532 C9.48438,46.2532 5.04688,50.0188 5.04688,54.3782 C5.04688,56.6126 6.23438,58.0501 8.15625,58.0501 C9.59375,58.0501 10.7188,56.9719 10.7188,55.4876 C10.7188,54.4563 10.2031,53.7688 8.875,53.0501 C7.92188,52.5657 7.76563,52.3782 7.76563,51.8938 C7.76563,50.1751 10.7188,48.2532 13.4375,48.2532 C16.2344,48.2532 18.125,50.1282 18.125,52.9407 C18.125,55.9251 16.7969,58.1282 13.2031,61.2532 C2.5625,70.4876 0.953125,72.1751 0.59375,74.4094 L17.75,74.4094 L20.8438,66.6907 L19.3906,66.1282 "/>
<polyline class="BarLine" fill="none" stroke="#000000" stroke-width="4.46" stroke-linejoin="bevel" points="1273.36,122.652 1273.36,224.593"/>
<polyline class="Stem" fill="none" stroke="#000000" stroke-width="2.73" stroke-linejoin="bevel" points="147.641,182.849 147.641,80.6102"/>
<polyline class="Stem" fill="none" stroke="#000000" stroke-width="2.73" stroke-linejoin="bevel" points="205.93,158.046 205.93,80.6102"/>
<polyline class="Stem" fill="none" stroke="#000000" stroke-width="2.73" stroke-linejoin="bevel" points="264.22,182.849 264.22,80.6102"/>
<polyline class="Stem" fill="none" stroke="#000000" stroke-width="2.73" stroke-linejoin="bevel" points="322.509,158.046 322.509,80.6102"/>
<polyline class="Stem" fill="none" stroke="#000000" stroke-width="2.73" stroke-linejoin="bevel" points="436.23,182.849 436.23,80.6102"/>
<polyline class="Stem" fill="none" stroke="#000000" stroke-width="2.73" stroke-linejoin="bevel" points="494.52,158.046 494.52,80.6102"/>
<polyline class="Stem" fill="none" stroke="#000000" stroke-width="2.73" stroke-linejoin="bevel" points="552.809,182.849 552.809,80.6102"/>
<polyline class="Stem" fill="none" stroke="#000000" stroke-width="2.73" stroke-linejoin="bevel" points="611.099,158.046 611.099,80.6102"/>
<polyline class="Stem" fill="none" stroke="#000000" stroke-width="2.73" stroke-linejoin="bevel" points="724.82,182.849 724.82,80.6102"/>
<polyline class="Stem" fill="none" stroke="#000000" stroke-width="2.73" stroke-linejoin="bevel" points="783.109,158.046 783.109,80.6102"/>
<polyline class="Stem" fill="none" stroke="#000000" stroke-width="2.73" stroke-linejoin="bevel" points="841.399,182.849 841.399,80.6102"/>
<polyline class="Stem" fill="none" stroke="#000000" stroke-width="2.73" stroke-linejoin="bevel" points="899.688,158.046 899.688,80.6102"/>
<polyline class="Stem" fill="none" stroke="#000000" stroke-width="2.73" stroke-linejoin="bevel" points="1013.41,182.849 1013.41,80.6102"/>
<polyline class="Stem" fill="none" stroke="#000000" stroke-width="2.73" stroke-linejoin="bevel" points="1071.7,158.046 1071.7,80.6102"/>
<polyline class="Stem" fill="none" stroke="#000000" stroke-width="2.73" stroke-linejoin="bevel" points="1129.99,182.849 1129.99,80.6102"/>
<polyline class="Stem" fill="none" stroke="#000000" stroke-width="2.73" stroke-linejoin="bevel" points="1188.28,158.046 1188.28,80.6102"/>
<path class="Note" transform="matrix(0.992126,0,0,0.992126,116.769,186.024)" d="M31.5,-8.09375 C29.7031,-11.4063 25.9063,-13.2031 21.2969,-13.2031 C17.9063,-13.2031 14.2031,-12.2031 10.5938,-10.2969 C4,-6.79688 0,-0.90625 0,4.20313 C0,5.59375 0.296875,7 1,8.29688 C2.79688,11.5938 6.59375,13.2969 11.2031,13.2969 C14.5938,13.2969 18.2969,12.4063 21.9063,10.5 C28.5,7 32.5,1.09375 32.5,-4 C32.5,-5.40625 32.2031,-6.79688 31.5,-8.09375"/>
<path class="Note" transform="matrix(0.992126,0,0,0.992126,175.058,161.22)" d="M31.5,-8.09375 C29.7031,-11.4063 25.9063,-13.2031 21.2969,-13.2031 C17.9063,-13.2031 14.2031,-12.2031 10.5938,-10.2969 C4,-6.79688 0,-0.90625 0,4.20313 C0,5.59375 0.296875,7 1,8.29688 C2.79688,11.5938 6.59375,13.2969 11.2031,13.2969 C14.5938,13.2969 18.2969,12.4063 21.9063,10.5 C28.5,7 32.5,1.09375 32.5,-4 C32.5,-5.40625 32.2031,-6.79688 31.5,-8.09375"/>
<path class="Note" transform="matrix(0.992126,0,0,0.992126,233.347,186.024)" d="M31.5,-8.09375 C29.7031,-11.4063 25.9063,-13.2031 21.2969,-13.2031 C17.9063,-13.2031 14.2031,-12.2031 10.5938,-10.2969 C4,-6.79688 0,-0.90625 0,4.20313 C0,5.59375 0.296875,7 1,8.29688 C2.79688,11.5938 6.59375,13.2969 11.2031,13.2969 C14.5938,13.2969 18.2969,12.4063 21.9063,10.5 C28.5,7 32.5,1.09375 32.5,-4 C32.5,-5.40625 32.2031,-6.79688 31.5,-8.09375"/>
<path class="Note" transform="matrix(0.992126,0,0,0.992126,291.637,161.22)" d="M31.5,-8.09375 C29.7031,-11.4063 25.9063,-13.2031 21.2969,-13.2031 C17.9063,-13.2031 14.2031,-12.2031 10.5938,-10.2969 C4,-6.79688 0,-0.90625 0,4.20313 C0,5.59375 0.296875,7 1,8.29688 C2.79688,11.5938 6.59375,13.2969 11.2031,13.2969 C14.5938,13.2969 18.2969,12.4063 21.9063,10.5 C28.5,7 32.5,1.09375 32.5,-4 C32.5,-5.40625 32.2031,-6.79688 31.5,-8.09375"/>
<path class="Note" transform="matrix(0.992126,0,0,0.992126,405.358,186.024)" d="M31.5,-8.09375 C29.7031,-11.4063 25.9063,-13.2031 21.2969,-13.2031 C17.9063,-13.2031 14.2031,-12.2031 10.5938,-10.2969 C4,-6.79688 0,-0.90625 0,4.20313 C0,5.59375 0.296875,7 1,8.29688 C2.79688,11.5938 6.59375,13.2969 11.2031,13.2969 C14.5938,13.2969 18.2969,12.4063 21.9063,10.5 C28.5,7 32.5,1.09375 32.5,-4 C32.5,-5.40625 32.2031,-6.79688 31.5,-8.09375"/>
<path class="Note" transform="matrix(0.992126,0,0,0.992126,463.648,161.22)" d="M31.5,-8.09375 C29.7031,-11.4063 25.9063,-13.2031 21.2969,-13.2031 C17.9063,-13.2031 14.2031,-12.2031 10.5938,-10.2969 C4,-6.79688 0,-0.90625 0,4.20313 C0,5.59375 0.296875,7 1,8.29688 C2.79688,11.5938 6.59375,13.2969 11.2031,13.2969 C14.5938,13.2969 18.2969,12.4063 21.9063,10.5 C28.5,7 32.5,1.09375 32.5,-4 C32.5,-5.40625 32.2031,-6.79688 31.5,-8.09375"/>
<path class="Note" transform="matrix(0.992126,0,0,0.992126,521.937,186.024)" d="M31.5,-8.09375 C29.7031,-11.4063 25.9063,-13.2031 21.2969,-13.2031 C17.9063,-13.2031 14.2031,-12.2031 10.5938,-10.2969 C4,-6.79688 0,-0.90625 0,4.20313 C0,5.59375 0.296875,7 1,8.29688 C2.79688,11.5938 6.59375,13.2969 11.2031,13.2969 C14.5938,13.2969 18.2969,12.4063 21.9063,10.5 C28.5,7 32.5,1.09375 32.5,-4 C32.5,-5.40625 32.2031,-6.79688 31.5,-8.09375"/>
<path class="Note" transform="matrix(0.992126,0,0,0.992126,580.226,161.22)" d="M31.5,-8.09375 C29.7031,-11.4063 25.9063,-13.2031 21.2969,-13.2031 C17.9063,-13.2031 14.2031,-12.2031 10.5938,-10.2969 C4,-6.79688 0,-0.90625 0,4.20313 C0,5.59375 0.296875,7 1,8.29688 C2.79688,11.5938 6.59375,13.2969 11.2031,13.2969 C14.5938,13.2969 18.2969,12.4063 21.9063,10.5 C28.5,7 32.5,1.09375 32.5,-4 C32.5,-5.40625 32.2031,-6.79688 31.5,-8.09375"/>
<path class="Note" transform="matrix(0.992126,0,0,0.992126,693.948,186.024)" d="M31.5,-8.09375 C29.7031,-11.4063 25.9063,-13.2031 21.2969,-13.2031 C17.9063,-13.2031 14.2031,-12.2031 10.5938,-10.2969 C4,-6.79688 0,-0.90625 0,4.20313 C0,5.59375 0.296875,7 1,8.29688 C2.79688,11.5938 6.59375,13.2969 11.2031,13.2969 C14.5938,13.2969 18.2969,12.4063 21.9063,10.5 C28.5,7 32.5,1.09375 32.5,-4 C32.5,-5.40625 32.2031,-6.79688 31.5,-8.09375"/>
<path class="Note" transform="matrix(0.992126,0,0,0.992126,752.237,161.22)" d="M31.5,-8.09375 C29.7031,-11.4063 25.9063,-13.2031 21.2969,-13.2031 C17.9063,-13.2031 14.2031,-12.2031 10.5938,-10.2969 C4,-6.79688 0,-0.90625 0,4.20313 C0,5.59375 0.296875,7 1,8.29688 C2.79688,11.5938 6.59375,13.2969 11.2031,13.2969 C14.5938,13.2969 18.2969,12.4063 21.9063,10.5 C28.5,7 32.5,1.09375 32.5,-4 C32.5,-5.40625 32.2031,-6.79688 31.5,-8.09375"/>
<path class="Note" transform="matrix(0.992126,0,0,0.992126,810.527,186.024)" d="M31.5,-8.09375 C29.7031,-11.4063 25.9063,-13.2031 21.2969,-13.2031 C17.9063,-13.2031 14.2031,-12.2031 10.5938,-10.2969 C4,-6.79688 0,-0.90625 0,4.20313 C0,5.59375 0.296875,7 1,8.29688 C2.79688,11.5938 6.59375,13.2969 11.2031,13.2969 C14.5938,13.2969 18.2969,12.4063 21.9063,10.5 C28.5,7 32.5,1.09375 32.5,-4 C32.5,-5.40625 32.2031,-6.79688 31.5,-8.09375"/>
<path class="Note" transform="matrix(0.992126,0,0,0.992126,868.816,161.22)" d="M31.5,-8.09375 C29.7031,-11.4063 25.9063,-13.2031 21.2969,-13.2031 C17.9063,-13.2031 14.2031,-12.2031 10.5938,-10.2969 C4,-6.79688 0,-0.90625 0,4.20313 C0,5.59375 0.296875,7 1,8.29688 C2.79688,11.5938 6.59375,13.2969 11.2031,13.2969 C14.5938,13.2969 18.2969,12.4063 21.9063,10.5 C28.5,7 32.5,1.09375 32.5,-4 C32.5,-5.40625 32.2031,-6.79688 31.5,-8.09375"/>
<path class="Note" transform="matrix(0.992126,0,0,0.992126,982.537,186.024)" d="M31.5,-8.09375 C29.7031,-11.4063 25.9063,-13.2031 21.2969,-13.2031 C17.9063,-13.2031 14.2031,-12.2031 10.5938,-10.2969 C4,-6.79688 0,-0.90625 0,4.20313 C0,5.59375 0.296875,7 1,8.29688 C2.79688,11.5938 6.59375,13.2969 11.2031,13.2969 C14.5938,13.2969 18.2969,12.4063 21.9063,10.5 C28.5,7 32.5,1.09375 32.5,-4 C32.5,-5.40625 32.2031,-6.79688 31.5,-8.09375"/>
<path class="Note" transform="matrix(0.992126,0,0,0.992126,1040.83,161.22)" d="M31.5,-8.09375 C29.7031,-11.4063 25.9063,-13.2031 21.2969,-13.2031 C17.9063,-13.2031 14.2031,-12.2031 10.5938,-10.2969 C4,-6.79688 0,-0.90625 0,4.20313 C0,5.59375 0.296875,7 1,8.29688 C2.79688,11.5938 6.59375,13.2969 11.2031,13.2969 C14.5938,13.2969 18.2969,12.4063 21.9063,10.5 C28.5,7 32.5,1.09375 32.5,-4 C32.5,-5.40625 32.2031,-6.79688 31.5,-8.09375"/>
<path class="Note" transform="matrix(0.992126,0,0,0.992126,1099.12,186.024)" d="M31.5,-8.09375 C29.7031,-11.4063 25.9063,-13.2031 21.2969,-13.2031 C17.9063,-13.2031 14.2031,-12.2031 10.5938,-10.2969 C4,-6.79688 0,-0.90625 0,4.20313 C0,5.59375 0.296875,7 1,8.29688 C2.79688,11.5938 6.59375,13.2969 11.2031,13.2969 C14.5938,13.2969 18.2969,12.4063 21.9063,10.5 C28.5,7 32.5,1.09375 32.5,-4 C32.5,-5.40625 32.2031,-6.79688 31.5,-8.09375"/>
<path class="Note" transform="matrix(0.992126,0,0,0.992126,1157.41,161.22)" d="M31.5,-8.09375 C29.7031,-11.4063 25.9063,-13.2031 21.2969,-13.2031 C17.9063,-13.2031 14.2031,-12.2031 10.5938,-10.2969 C4,-6.79688 0,-0.90625 0,4.20313 C0,5.59375 0.296875,7 1,8.29688 C2.79688,11.5938 6.59375,13.2969 11.2031,13.2969 C14.5938,13.2969 18.2969,12.4063 21.9063,10.5 C28.5,7 32.5,1.09375 32.5,-4 C32.5,-5.40625 32.2031,-6.79688 31.5,-8.09375"/>
<path class="Clef" transform="matrix(0.992126,0,0,0.992126,19.8425,173.622)" d="M12.2969,-25.2031 L1.29688,-25.2031 C0.59375,-25.2031 0,-24.5938 0,-23.9063 L0,23.9063 C0,24.5938 0.59375,25.2031 1.29688,25.2031 L12.2969,25.2031 C13,25.2031 13.5938,24.5938 13.5938,23.9063 L13.5938,-23.9063 C13.5938,-24.5938 13,-25.2031 12.2969,-25.2031 M33.9063,-25.2031 L22.9063,-25.2031 C22.2031,-25.2031 21.5938,-24.5938 21.5938,-23.9063 L21.5938,23.9063 C21.5938,24.5938 22.2031,25.2031 22.9063,25.2031 L33.9063,25.2031 C34.6094,25.2031 35.2031,24.5938 35.2031,23.9063 L35.2031,-23.9063 C35.2031,-24.5938 34.6094,-25.2031 33.9063,-25.2031"/>
<path class="Beam" fill-rule="evenodd" d="M146.277,74.4094 L323.873,74.4094 L323.873,86.811 L146.277,86.811 L146.277,74.4094 "/>
<path class="Beam" fill-rule="evenodd" d="M146.277,93.0118 L265.584,93.0118 L265.584,105.413 L146.277,105.413 L146.277,93.0118 "/>
<path class="Beam" fill-rule="evenodd" d="M434.866,74.4094 L612.463,74.4094 L612.463,86.811 L434.866,86.811 L434.866,74.4094 "/>
<path class="Beam" fill-rule="evenodd" d="M434.866,93.0118 L554.173,93.0118 L554.173,105.413 L434.866,105.413 L434.866,93.0118 "/>
<path class="Beam" fill-rule="evenodd" d="M723.456,74.4094 L901.052,74.4094 L901.052,86.811 L723.456,86.811 L723.456,74.4094 "/>
<path class="Beam" fill-rule="evenodd" d="M723.456,93.0118 L842.763,93.0118 L842.763,105.413 L723.456,105.413 L723.456,93.0118 "/>
<path class="Beam" fill-rule="evenodd" d="M1012.05,74.4094 L1189.64,74.4094 L1189.64,86.811 L1012.05,86.811 L1012.05,74.4094 "/>
<path class="Beam" fill-rule="evenodd" d="M1012.05,93.0118 L1131.35,93.0118 L1131.35,105.413 L1012.05,105.413 L1012.05,93.0118 "/>
<path class="Tuplet" d="M208.863,41.1663 C210.988,40.4945 211.832,40.1195 212.91,39.4007 C215.035,38.0101 216.332,35.5413 216.332,33.0101 C216.332,28.7445 212.91,25.8695 207.878,25.8695 C202.972,25.8695 198.832,28.9163 198.832,32.6195 C198.832,34.4632 199.957,35.7132 201.66,35.7132 C203.144,35.7132 204.238,34.6351 204.238,33.1507 C204.238,32.3851 204.003,31.8538 203.285,31.1351 C202.832,30.7288 202.66,30.4007 202.66,30.0882 C202.66,29.0101 204.91,27.8851 207.019,27.8851 C210.035,27.8851 211.832,29.557 211.832,32.3382 C211.832,36.3538 209.003,40.1195 205.988,40.1195 C205.847,40.1195 205.441,40.0882 204.957,40.0413 C203.644,39.9476 203.644,39.9476 203.378,39.9476 C202.378,39.9476 201.847,40.4007 201.847,41.2132 C201.847,41.932 202.347,42.3695 203.144,42.3695 C203.378,42.3695 203.691,42.3382 204.05,42.2913 C204.675,42.1507 205.363,42.1038 205.753,42.1038 C207.878,42.1038 209.316,43.9945 209.316,46.7913 C209.316,48.9476 208.816,51.0101 207.832,52.7288 C206.488,55.1507 204.41,56.3226 201.488,56.3226 C198.972,56.3226 196.8,55.0726 196.8,53.6195 C196.8,53.1351 196.988,52.9476 197.707,52.6351 C199.003,52.057 199.55,51.2445 199.55,50.0257 C199.55,48.4476 198.285,47.2445 196.675,47.2445 C194.738,47.2445 193.472,48.7601 193.472,51.1038 C193.472,55.4788 196.8,58.2132 202.207,58.2132 C209.003,58.2132 214.175,53.6663 214.175,47.6351 C214.175,46.0257 213.675,44.6195 212.738,43.4945 C211.738,42.3382 210.847,41.7913 208.863,41.1663"/>
<path class="Tuplet" d="M497.452,41.1663 C499.577,40.4945 500.421,40.1195 501.499,39.4007 C503.624,38.0101 504.921,35.5413 504.921,33.0101 C504.921,28.7445 501.499,25.8695 496.468,25.8695 C491.562,25.8695 487.421,28.9163 487.421,32.6195 C487.421,34.4632 488.546,35.7132 490.249,35.7132 C491.734,35.7132 492.827,34.6351 492.827,33.1507 C492.827,32.3851 492.593,31.8538 491.874,31.1351 C491.421,30.7288 491.249,30.4007 491.249,30.0882 C491.249,29.0101 493.499,27.8851 495.609,27.8851 C498.624,27.8851 500.421,29.557 500.421,32.3382 C500.421,36.3538 497.593,40.1195 494.577,40.1195 C494.437,40.1195 494.031,40.0882 493.546,40.0413 C492.234,39.9476 492.234,39.9476 491.968,39.9476 C490.968,39.9476 490.437,40.4007 490.437,41.2132 C490.437,41.932 490.937,42.3695 491.734,42.3695 C491.968,42.3695 492.281,42.3382 492.64,42.2913 C493.265,42.1507 493.952,42.1038 494.343,42.1038 C496.468,42.1038 497.906,43.9945 497.906,46.7913 C497.906,48.9476 497.406,51.0101 496.421,52.7288 C495.077,55.1507 492.999,56.3226 490.077,56.3226 C487.562,56.3226 485.39,55.0726 485.39,53.6195 C485.39,53.1351 485.577,52.9476 486.296,52.6351 C487.593,52.057 488.14,51.2445 488.14,50.0257 C488.14,48.4476 486.874,47.2445 485.265,47.2445 C483.327,47.2445 482.062,48.7601 482.062,51.1038 C482.062,55.4788 485.39,58.2132 490.796,58.2132 C497.593,58.2132 502.765,53.6663 502.765,47.6351 C502.765,46.0257 502.265,44.6195 501.327,43.4945 C500.327,42.3382 499.437,41.7913 497.452,41.1663"/>
<path class="Tuplet" d="M786.042,41.1663 C788.167,40.4945 789.011,40.1195 790.089,39.4007 C792.214,38.0101 793.511,35.5413 793.511,33.0101 C793.511,28.7445 790.089,25.8695 785.058,25.8695 C780.151,25.8695 776.011,28.9163 776.011,32.6195 C776.011,34.4632 777.136,35.7132 778.839,35.7132 C780.323,35.7132 781.417,34.6351 781.417,33.1507 C781.417,32.3851 781.183,31.8538 780.464,31.1351 C780.011,30.7288 779.839,30.4007 779.839,30.0882 C779.839,29.0101 782.089,27.8851 784.198,27.8851 C787.214,27.8851 789.011,29.557 789.011,32.3382 C789.011,36.3538 786.183,40.1195 783.167,40.1195 C783.026,40.1195 782.62,40.0882 782.136,40.0413 C780.823,39.9476 780.823,39.9476 780.558,39.9476 C779.558,39.9476 779.026,40.4007 779.026,41.2132 C779.026,41.932 779.526,42.3695 780.323,42.3695 C780.558,42.3695 780.87,42.3382 781.23,42.2913 C781.855,42.1507 782.542,42.1038 782.933,42.1038 C785.058,42.1038 786.495,43.9945 786.495,46.7913 C786.495,48.9476 785.995,51.0101 785.011,52.7288 C783.667,55.1507 781.589,56.3226 778.667,56.3226 C776.151,56.3226 773.98,55.0726 773.98,53.6195 C773.98,53.1351 774.167,52.9476 774.886,52.6351 C776.183,52.057 776.73,51.2445 776.73,50.0257 C776.73,48.4476 775.464,47.2445 773.855,47.2445 C771.917,47.2445 770.651,48.7601 770.651,51.1038 C770.651,55.4788 773.98,58.2132 779.386,58.2132 C786.183,58.2132 791.355,53.6663 791.355,47.6351 C791.355,46.0257 790.855,44.6195 789.917,43.4945 C788.917,42.3382 788.026,41.7913 786.042,41.1663"/>
<path class="Tuplet" d="M1074.63,41.1663 C1076.76,40.4945 1077.6,40.1195 1078.68,39.4007 C1080.8,38.0101 1082.1,35.5413 1082.1,33.0101 C1082.1,28.7445 1078.68,25.8695 1073.65,25.8695 C1068.74,25.8695 1064.6,28.9163 1064.6,32.6195 C1064.6,34.4632 1065.73,35.7132 1067.43,35.7132 C1068.91,35.7132 1070.01,34.6351 1070.01,33.1507 C1070.01,32.3851 1069.77,31.8538 1069.05,31.1351 C1068.6,30.7288 1068.43,30.4007 1068.43,30.0882 C1068.43,29.0101 1070.68,27.8851 1072.79,27.8851 C1075.8,27.8851 1077.6,29.557 1077.6,32.3382 C1077.6,36.3538 1074.77,40.1195 1071.76,40.1195 C1071.62,40.1195 1071.21,40.0882 1070.73,40.0413 C1069.41,39.9476 1069.41,39.9476 1069.15,39.9476 C1068.15,39.9476 1067.62,40.4007 1067.62,41.2132 C1067.62,41.932 1068.12,42.3695 1068.91,42.3695 C1069.15,42.3695 1069.46,42.3382 1069.82,42.2913 C1070.44,42.1507 1071.13,42.1038 1071.52,42.1038 C1073.65,42.1038 1075.08,43.9945 1075.08,46.7913 C1075.08,48.9476 1074.58,51.0101 1073.6,52.7288 C1072.26,55.1507 1070.18,56.3226 1067.26,56.3226 C1064.74,56.3226 1062.57,55.0726 1062.57,53.6195 C1062.57,53.1351 1062.76,52.9476 1063.48,52.6351 C1064.77,52.057 1065.32,51.2445 1065.32,50.0257 C1065.32,48.4476 1064.05,47.2445 1062.44,47.2445 C1060.51,47.2445 1059.24,48.7601 1059.24,51.1038 C1059.24,55.4788 1062.57,58.2132 1067.98,58.2132 C1074.77,58.2132 1079.94,53.6663 1079.94,47.6351 C1079.94,46.0257 1079.44,44.6195 1078.51,43.4945 C1077.51,42.3382 1076.62,41.7913 1074.63,41.1663"/>
</svg>
