<?xml version="1.0" encoding="UTF-8" standalone="no"?>
<svg width="1275.59px" height="283.465px" viewBox="0 0 1275.59 283.465"
 xmlns="http://www.w3.org/2000/svg" xmlns:xlink="http://www.w3.org/1999/xlink" version="1.2" baseProfile="tiny">
<title>drum_rudiments (36)</title>
<desc>Generated by MuseScore 3.6.2</desc>
<polyline class="StaffLines" fill="none" stroke="#000000" stroke-width="2.73" stroke-linejoin="bevel" points="0,173.622 1275.59,173.622"/>
<path class="MeasureNumber" d="M14.5938,59.8469 C16.4844,59.2532 17.2344,58.9251 18.2031,58.2844 C20.0781,57.0501 21.2344,54.8469 21.2344,52.6126 C21.2344,48.8157 18.2031,46.2532 13.7188,46.2532 C9.35938,46.2532 5.67188,48.9719 5.67188,52.2532 C5.67188,53.8938 6.67188,55.0188 8.20313,55.0188 C9.51563,55.0188 10.4844,54.0501 10.4844,52.7376 C10.4844,52.0501 10.2813,51.5657 9.64063,50.9407 C9.23438,50.5657 9.07813,50.3001 9.07813,50.0188 C9.07813,49.0501 11.0781,48.0501 12.9531,48.0501 C15.6406,48.0501 17.2344,49.5344 17.2344,52.0188 C17.2344,55.5657 14.7188,58.9251 12.0313,58.9251 C11.9219,58.9251 11.5625,58.8938 11.125,58.8469 C9.95313,58.7688 9.95313,58.7688 9.71875,58.7688 C8.84375,58.7688 8.35938,59.1751 8.35938,59.8938 C8.35938,60.5344 8.79688,60.9251 9.51563,60.9251 C9.71875,60.9251 10,60.8938 10.3125,60.8469 C10.875,60.7376 11.4844,60.6907 11.8438,60.6907 C13.7188,60.6907 15,62.3782 15,64.8469 C15,66.7688 14.5625,68.6126 13.6719,70.1282 C12.4844,72.2844 10.6406,73.3313 8.03125,73.3313 C5.79688,73.3313 3.875,72.2063 3.875,70.9251 C3.875,70.4876 4.04688,70.3313 4.67188,70.0501 C5.84375,69.5344 6.3125,68.8157 6.3125,67.7376 C6.3125,66.3313 5.20313,65.2532 3.76563,65.2532 C2.04688,65.2532 0.921875,66.6126 0.921875,68.6907 C0.921875,72.5657 3.875,75.0032 8.67188,75.0032 C14.7188,75.0032 19.3125,70.9719 19.3125,65.6126 C19.3125,64.1751 18.875,62.9251 18.0313,61.9251 C17.1563,60.8938 16.3594,60.4094 14.5938,59.8469 M29.5469,61.0188 C30.2344,57.4876 31.0313,55.3001 32.5469,52.6126 C34.3594,49.4563 36.5156,47.8469 38.9063,47.8469 C40.1563,47.8469 40.9063,48.3313 40.9063,49.0969 C40.9063,49.3782 40.8281,49.5344 40.5469,50.0501 C40.1875,50.7376 40.0313,51.2063 40.0313,51.8157 C40.0313,53.0969 40.9844,53.9719 42.3438,53.9719 C43.9844,53.9719 45.1094,52.7688 45.1094,50.9719 C45.1094,48.2532 42.5469,46.2532 38.9844,46.2532 C35.2344,46.2532 31.875,48.2532 29.1563,52.0969 C26.3594,56.0501 24.6719,61.1282 24.6719,65.5657 C24.6719,71.4563 27.5938,75.0032 32.4688,75.0032 C35.4688,75.0032 38.1563,73.8157 40.0781,71.6907 C41.8281,69.6907 42.9063,66.8157 42.9063,64.1751 C42.9063,60.0969 40.1563,57.2532 36.1563,57.2532 C33.3594,57.2532 31.1875,58.4563 29.5469,61.0188 M34.875,59.5657 C37.3594,59.5657 38.7188,61.2844 38.7188,64.4094 C38.7188,69.4876 36.0313,73.3626 32.4688,73.3626 C29.9063,73.3626 28.3906,71.4876 28.3906,68.2844 C28.3906,63.2844 31.1563,59.5657 34.875,59.5657"/>
<polyline class="BarLine" fill="none" stroke="#000000" stroke-width="4.46" stroke-linejoin="bevel" points="1273.36,122.652 1273.36,224.593"/>
<polyline class="Stem" fill="none" stroke="#000000" stroke-width="2.73" stroke-linejoin="bevel" points="197.549,158.046 197.549,80.6102"/>
<polyline class="Stem" fill="none" stroke="#000000" stroke-width="2.73" stroke-linejoin="bevel" points="355.328,158.046 355.328,80.6102"/>
<polyline class="Stem" fill="none" stroke="#000000" stroke-width="1.91" stroke-linejoin="bevel" points="292.502,183.801 292.502,130.217"/>
<polyline class="Stem" fill="none" stroke="#000000" stroke-width="1.91" stroke-linejoin="bevel" points="318.54,183.801 318.54,130.217"/>
<polyline class="Stem" fill="none" stroke="#000000" stroke-width="2.73" stroke-linejoin="bevel" points="453.939,182.849 453.939,80.6102"/>
<polyline class="Stem" fill="none" stroke="#000000" stroke-width="2.73" stroke-linejoin="bevel" points="552.551,158.046 552.551,80.6102"/>
<polyline class="Stem" fill="none" stroke="#000000" stroke-width="2.73" stroke-linejoin="bevel" points="651.163,158.046 651.163,80.6102"/>
<polyline class="Stem" fill="none" stroke="#000000" stroke-width="2.73" stroke-linejoin="bevel" points="749.774,182.849 749.774,80.6102"/>
<polyline class="Stem" fill="none" stroke="#000000" stroke-width="2.73" stroke-linejoin="bevel" points="907.553,182.849 907.553,80.6102"/>
<polyline class="Stem" fill="none" stroke="#000000" stroke-width="1.91" stroke-linejoin="bevel" points="844.727,158.998 844.727,105.413"/>
<polyline class="Stem" fill="none" stroke="#000000" stroke-width="1.91" stroke-linejoin="bevel" points="870.765,158.998 870.765,105.413"/>
<polyline class="Stem" fill="none" stroke="#000000" stroke-width="2.73" stroke-linejoin="bevel" points="1006.16,158.046 1006.16,80.6102"/>
<polyline class="Stem" fill="none" stroke="#000000" stroke-width="2.73" stroke-linejoin="bevel" points="1104.78,182.849 1104.78,80.6102"/>
<polyline class="Stem" fill="none" stroke="#000000" stroke-width="2.73" stroke-linejoin="bevel" points="1203.39,182.849 1203.39,80.6102"/>
<path class="Note" transform="matrix(0.992126,0,0,0.992126,166.677,161.22)" d="M31.5,-8.09375 C29.7031,-11.4063 25.9063,-13.2031 21.2969,-13.2031 C17.9063,-13.2031 14.2031,-12.2031 10.5938,-10.2969 C4,-6.79688 0,-0.90625 0,4.20313 C0,5.59375 0.296875,7 1,8.29688 C2.79688,11.5938 6.59375,13.2969 11.2031,13.2969 C14.5938,13.2969 18.2969,12.4063 21.9063,10.5 C28.5,7 32.5,1.09375 32.5,-4 C32.5,-5.40625 32.2031,-6.79688 31.5,-8.09375"/>
<path class="Note" transform="matrix(0.992126,0,0,0.992126,324.456,161.22)" d="M31.5,-8.09375 C29.7031,-11.4063 25.9063,-13.2031 21.2969,-13.2031 C17.9063,-13.2031 14.2031,-12.2031 10.5938,-10.2969 C4,-6.79688 0,-0.90625 0,4.20313 C0,5.59375 0.296875,7 1,8.29688 C2.79688,11.5938 6.59375,13.2969 11.2031,13.2969 C14.5938,13.2969 18.2969,12.4063 21.9063,10.5 C28.5,7 32.5,1.09375 32.5,-4 C32.5,-5.40625 32.2031,-6.79688 31.5,-8.09375"/>
<path class="Note" transform="matrix(0.694488,0,0,0.694488,270.892,186.024)" d="M31.5,-8.09375 C29.7031,-11.4063 25.9063,-13.2031 21.2969,-13.2031 C17.9063,-13.2031 14.2031,-12.2031 10.5938,-10.2969 C4,-6.79688 0,-0.90625 0,4.20313 C0,5.59375 0.296875,7 1,8.29688 C2.79688,11.5938 6.59375,13.2969 11.2031,13.2969 C14.5938,13.2969 18.2969,12.4063 21.9063,10.5 C28.5,7 32.5,1.09375 32.5,-4 C32.5,-5.40625 32.2031,-6.79688 31.5,-8.09375"/>
<path class="Note" transform="matrix(0.694488,0,0,0.694488,296.93,186.024)" d="M31.5,-8.09375 C29.7031,-11.4063 25.9063,-13.2031 21.2969,-13.2031 C17.9063,-13.2031 14.2031,-12.2031 10.5938,-10.2969 C4,-6.79688 0,-0.90625 0,4.20313 C0,5.59375 0.296875,7 1,8.29688 C2.79688,11.5938 6.59375,13.2969 11.2031,13.2969 C14.5938,13.2969 18.2969,12.4063 21.9063,10.5 C28.5,7 32.5,1.09375 32.5,-4 C32.5,-5.40625 32.2031,-6.79688 31.5,-8.09375"/>
<path class="Note" transform="matrix(0.992126,0,0,0.992126,423.067,186.024)" d="M31.5,-8.09375 C29.7031,-11.4063 25.9063,-13.2031 21.2969,-13.2031 C17.9063,-13.2031 14.2031,-12.2031 10.5938,-10.2969 C4,-6.79688 0,-0.90625 0,4.20313 C0,5.59375 0.296875,7 1,8.29688 C2.79688,11.5938 6.59375,13.2969 11.2031,13.2969 C14.5938,13.2969 18.2969,12.4063 21.9063,10.5 C28.5,7 32.5,1.09375 32.5,-4 C32.5,-5.40625 32.2031,-6.79688 31.5,-8.09375"/>
<path class="Note" transform="matrix(0.992126,0,0,0.992126,521.679,161.22)" d="M31.5,-8.09375 C29.7031,-11.4063 25.9063,-13.2031 21.2969,-13.2031 C17.9063,-13.2031 14.2031,-12.2031 10.5938,-10.2969 C4,-6.79688 0,-0.90625 0,4.20313 C0,5.59375 0.296875,7 1,8.29688 C2.79688,11.5938 6.59375,13.2969 11.2031,13.2969 C14.5938,13.2969 18.2969,12.4063 21.9063,10.5 C28.5,7 32.5,1.09375 32.5,-4 C32.5,-5.40625 32.2031,-6.79688 31.5,-8.09375"/>
<path class="Note" transform="matrix(0.992126,0,0,0.992126,620.291,161.22)" d="M31.5,-8.09375 C29.7031,-11.4063 25.9063,-13.2031 21.2969,-13.2031 C17.9063,-13.2031 14.2031,-12.2031 10.5938,-10.2969 C4,-6.79688 0,-0.90625 0,4.20313 C0,5.59375 0.296875,7 1,8.29688 C2.79688,11.5938 6.59375,13.2969 11.2031,13.2969 C14.5938,13.2969 18.2969,12.4063 21.9063,10.5 C28.5,7 32.5,1.09375 32.5,-4 C32.5,-5.40625 32.2031,-6.79688 31.5,-8.09375"/>
<path class="Note" transform="matrix(0.992126,0,0,0.992126,718.902,186.024)" d="M31.5,-8.09375 C29.7031,-11.4063 25.9063,-13.2031 21.2969,-13.2031 C17.9063,-13.2031 14.2031,-12.2031 10.5938,-10.2969 C4,-6.79688 0,-0.90625 0,4.20313 C0,5.59375 0.296875,7 1,8.29688 C2.79688,11.5938 6.59375,13.2969 11.2031,13.2969 C14.5938,13.2969 18.2969,12.4063 21.9063,10.5 C28.5,7 32.5,1.09375 32.5,-4 C32.5,-5.40625 32.2031,-6.79688 31.5,-8.09375"/>
<path class="Note" transform="matrix(0.992126,0,0,0.992126,876.681,186.024)" d="M31.5,-8.09375 C29.7031,-11.4063 25.9063,-13.2031 21.2969,-13.2031 C17.9063,-13.2031 14.2031,-12.2031 10.5938,-10.2969 C4,-6.79688 0,-0.90625 0,4.20313 C0,5.59375 0.296875,7 1,8.29688 C2.79688,11.5938 6.59375,13.2969 11.2031,13.2969 C14.5938,13.2969 18.2969,12.4063 21.9063,10.5 C28.5,7 32.5,1.09375 32.5,-4 C32.5,-5.40625 32.2031,-6.79688 31.5,-8.09375"/>
<path class="Note" transform="matrix(0.694488,0,0,0.694488,823.117,161.22)" d="M31.5,-8.09375 C29.7031,-11.4063 25.9063,-13.2031 21.2969,-13.2031 C17.9063,-13.2031 14.2031,-12.2031 10.5938,-10.2969 C4,-6.79688 0,-0.90625 0,4.20313 C0,5.59375 0.296875,7 1,8.29688 C2.79688,11.5938 6.59375,13.2969 11.2031,13.2969 C14.5938,13.2969 18.2969,12.4063 21.9063,10.5 C28.5,7 32.5,1.09375 32.5,-4 C32.5,-5.40625 32.2031,-6.79688 31.5,-8.09375"/>
<path class="Note" transform="matrix(0.694488,0,0,0.694488,849.155,161.22)" d="M31.5,-8.09375 C29.7031,-11.4063 25.9063,-13.2031 21.2969,-13.2031 C17.9063,-13.2031 14.2031,-12.2031 10.5938,-10.2969 C4,-6.79688 0,-0.90625 0,4.20313 C0,5.59375 0.296875,7 1,8.29688 C2.79688,11.5938 6.59375,13.2969 11.2031,13.2969 C14.5938,13.2969 18.2969,12.4063 21.9063,10.5 C28.5,7 32.5,1.09375 32.5,-4 C32.5,-5.40625 32.2031,-6.79688 31.5,-8.09375"/>
<path class="Note" transform="matrix(0.992126,0,0,0.992126,975.292,161.22)" d="M31.5,-8.09375 C29.7031,-11.4063 25.9063,-13.2031 21.2969,-13.2031 C17.9063,-13.2031 14.2031,-12.2031 10.5938,-10.2969 C4,-6.79688 0,-0.90625 0,4.20313 C0,5.59375 0.296875,7 1,8.29688 C2.79688,11.5938 6.59375,13.2969 11.2031,13.2969 C14.5938,13.2969 18.2969,12.4063 21.9063,10.5 C28.5,7 32.5,1.09375 32.5,-4 C32.5,-5.40625 32.2031,-6.79688 31.5,-8.09375"/>
<path class="Note" transform="matrix(0.992126,0,0,0.992126,1073.9,186.024)" d="M31.5,-8.09375 C29.7031,-11.4063 25.9063,-13.2031 21.2969,-13.2031 C17.9063,-13.2031 14.2031,-12.2031 10.5938,-10.2969 C4,-6.79688 0,-0.90625 0,4.20313 C0,5.59375 0.296875,7 1,8.29688 C2.79688,11.5938 6.59375,13.2969 11.2031,13.2969 C14.5938,13.2969 18.2969,12.4063 21.9063,10.5 C28.5,7 32.5,1.09375 32.5,-4 C32.5,-5.40625 32.2031,-6.79688 31.5,-8.09375"/>
<path class="Note" transform="matrix(0.992126,0,0,0.992126,1172.52,186.024)" d="M31.5,-8.09375 C29.7031,-11.4063 25.9063,-13.2031 21.2969,-13.2031 C17.9063,-13.2031 14.2031,-12.2031 10.5938,-10.2969 C4,-6.79688 0,-0.90625 0,4.20313 C0,5.59375 0.296875,7 1,8.29688 C2.79688,11.5938 6.59375,13.2969 11.2031,13.2969 C14.5938,13.2969 18.2969,12.4063 21.9063,10.5 C28.5,7 32.5,1.09375 32.5,-4 C32.5,-5.40625 32.2031,-6.79688 31.5,-8.09375"/>
<path class="Clef" transform="matrix(0.992126,0,0,0.992126,19.8425,173.622)" d="M12.2969,-25.2031 L1.29688,-25.2031 C0.59375,-25.2031 0,-24.5938 0,-23.9063 L0,23.9063 C0,24.5938 0.59375,25.2031 1.29688,25.2031 L12.2969,25.2031 C13,25.2031 13.5938,24.5938 13.5938,23.9063 L13.5938,-23.9063 C13.5938,-24.5938 13,-25.2031 12.2969,-25.2031 M33.9063,-25.2031 L22.9063,-25.2031 C22.2031,-25.2031 21.5938,-24.5938 21.5938,-23.9063 L21.5938,23.9063 C21.5938,24.5938 22.2031,25.2031 22.9063,25.2031 L33.9063,25.2031 C34.6094,25.2031 35.2031,24.5938 35.2031,23.9063 L35.2031,-23.9063 C35.2031,-24.5938 34.6094,-25.2031 33.9063,-25.2031"/>
<path class="TimeSig" transform="matrix(0.992126,0,0,0.992126,78.378,149.315)" d="M24.7031,-4.79688 C18.5938,-4.79688 16.4063,-3 15,-1.5 C14.7031,-3.59375 14.5,-5.20313 14.5,-6.79688 C14.5,-8.40625 14.7031,-9.79688 15,-11.5938 C15.5938,-15.2969 18.0938,-19.9063 23.5,-19.9063 C26,-19.9063 27.5,-19.0938 28.5,-18 C26.4063,-17.0938 24.7031,-14.4063 24.7031,-12.0938 C24.7031,-8.5 27.5,-5.70313 31.1094,-5.70313 C34.7031,-5.70313 37.6094,-8.5 37.6094,-12.0938 L37.6094,-12.2969 L37.6094,-12.4063 C37.6094,-13.2969 37.4063,-14.7969 37,-15.5938 C35.7031,-19.2031 31.5,-24.5 21.5,-24.5 C12.5,-24.5 6,-15.9063 4,-11.2969 C3,-8.90625 1.5,-4 1.5,1.59375 C1.5,7.70313 3.20313,14.5938 9.09375,19.7969 C14.9063,24.2031 18.5938,24.4063 22.0938,24.4063 C25.6094,24.4063 38.7031,20.2969 38.7031,8.70313 C38.7031,-1.09375 31,-4.79688 24.7031,-4.79688 M21,20.2031 C17.7031,20.2031 15,15.7031 15,10.0938 C15,4.5 17.7031,-0.09375 21,-0.09375 C24.2969,-0.09375 27.1094,4.5 27.1094,10.0938 C27.1094,15.7031 24.2969,20.2031 21,20.2031"/>
<path class="TimeSig" transform="matrix(0.992126,0,0,0.992126,78.0834,197.991)" d="M32.375,-1.79688 C35.7188,-4.29688 38.0156,-7.48438 38.0156,-11.5 C38.0156,-18.7344 30.125,-24.5938 20.4063,-24.5938 C10.6719,-24.5938 2.78125,-18.7344 2.78125,-11.5 C2.78125,-7.48438 3.78125,-3.89063 8.51563,-0.9375 C3.95313,1.73438 1.5,5.40625 1.5,10.1719 C1.5,18.25 9.95313,24.7969 20.4063,24.7969 C30.8438,24.7969 39.2969,18.25 39.2969,10.1719 C39.2969,5.40625 37.5625,0.84375 32.375,-1.79688 M20.3906,19.1875 C14.0313,19.1875 8.5,15.7031 8.5,10.125 C8.5,3.42188 13.6719,1.8125 13.6719,1.8125 C20.4688,4.07813 30.2188,7.51563 30.2188,12.9688 C30.2188,15.7031 26.75,19.1875 20.3906,19.1875 M26.7813,-4.54688 C19.9688,-6.65625 12.4844,-9.95313 12.4844,-14.5 C12.4844,-18.4375 16.0938,-19.9844 20.3906,-19.9844 C26.5469,-19.9844 30.7969,-17.0938 30.7969,-12.5 C30.7969,-7.70313 28.5781,-5.42188 26.7813,-4.54688"/>
<path class="Articulation" transform="matrix(0.992126,0,0,0.992126,164.891,212.191)" d="M35.1094,10.4063 L1.79688,0.09375 C1.70313,0.09375 1.5,0 1.40625,0 C0.59375,0 0,0.59375 0,1.40625 L0,3.70313 C0,4.29688 0.5,4.79688 1,5 L22.4063,11.7031 L1,18.5 C0.5,18.7031 0,19.2031 0,19.7969 L0,22.0938 C0,22.9063 0.59375,23.5 1.40625,23.5 C1.5,23.5 1.70313,23.4063 1.79688,23.4063 L35.1094,13.0938 C35.6094,12.9063 36.1094,12.2969 36.1094,11.7031 C36.1094,11.0938 35.6094,10.5938 35.1094,10.4063"/>
<path class="Articulation" transform="matrix(0.992126,0,0,0.992126,717.115,212.191)" d="M35.1094,10.4063 L1.79688,0.09375 C1.70313,0.09375 1.5,0 1.40625,0 C0.59375,0 0,0.59375 0,1.40625 L0,3.70313 C0,4.29688 0.5,4.79688 1,5 L22.4063,11.7031 L1,18.5 C0.5,18.7031 0,19.2031 0,19.7969 L0,22.0938 C0,22.9063 0.59375,23.5 1.40625,23.5 C1.5,23.5 1.70313,23.4063 1.79688,23.4063 L35.1094,13.0938 C35.6094,12.9063 36.1094,12.2969 36.1094,11.7031 C36.1094,11.0938 35.6094,10.5938 35.1094,10.4063"/>
<path class="Beam" fill-rule="evenodd" d="M196.185,74.4094 L652.527,74.4094 L652.527,86.811 L196.185,86.811 L196.185,74.4094 "/>
<path class="Beam" fill-rule="evenodd" d="M353.964,93.0118 L652.527,93.0118 L652.527,105.413 L353.964,105.413 L353.964,93.0118 "/>
<path class="Beam" fill-rule="evenodd" d="M291.547,125.876 L319.495,125.876 L319.495,134.557 L291.547,134.557 L291.547,125.876 "/>
<path class="Beam" fill-rule="evenodd" d="M291.547,138.898 L319.495,138.898 L319.495,147.579 L291.547,147.579 L291.547,138.898 "/>
<path class="Beam" fill-rule="evenodd" d="M748.41,74.4094 L1204.75,74.4094 L1204.75,86.811 L748.41,86.811 L748.41,74.4094 "/>
<path class="Beam" fill-rule="evenodd" d="M906.189,93.0118 L1204.75,93.0118 L1204.75,105.413 L906.189,105.413 L906.189,93.0118 "/>
<path class="Beam" fill-rule="evenodd" d="M843.772,101.073 L871.72,101.073 L871.72,109.754 L843.772,109.754 L843.772,101.073 "/>
<path class="Beam" fill-rule="evenodd" d="M843.772,114.094 L871.72,114.094 L871.72,122.776 L843.772,122.776 L843.772,114.094 "/>
</svg>
