<?xml version="1.0" encoding="UTF-8" standalone="no"?>
<svg width="1275.59px" height="283.465px" viewBox="0 0 1275.59 283.465"
 xmlns="http://www.w3.org/2000/svg" xmlns:xlink="http://www.w3.org/1999/xlink" version="1.2" baseProfile="tiny">
<title>drum_rudiments (27)</title>
<desc>Generated by MuseScore 3.6.2</desc>
<polyline class="StaffLines" fill="none" stroke="#000000" stroke-width="2.73" stroke-linejoin="bevel" points="0,173.622 1275.59,173.622"/>
<path class="MeasureNumber" d="M19.3906,66.1282 L18.3594,67.9719 C16.75,70.7376 16.4375,70.9719 14.3906,71.0032 L5.125,71.0032 C6.07813,69.7376 7.84375,68.2532 11.0313,66.0032 C16.3125,62.3782 16.6719,62.1282 17.7969,61.2532 C21,58.7688 22.3125,56.4094 22.3125,53.2532 C22.3125,49.0501 19.2031,46.2532 14.5938,46.2532 C9.48438,46.2532 5.04688,50.0188 5.04688,54.3782 C5.04688,56.6126 6.23438,58.0501 8.15625,58.0501 C9.59375,58.0501 10.7188,56.9719 10.7188,55.4876 C10.7188,54.4563 10.2031,53.7688 8.875,53.0501 C7.92188,52.5657 7.76563,52.3782 7.76563,51.8938 C7.76563,50.1751 10.7188,48.2532 13.4375,48.2532 C16.2344,48.2532 18.125,50.1282 18.125,52.9407 C18.125,55.9251 16.7969,58.1282 13.2031,61.2532 C2.5625,70.4876 0.953125,72.1751 0.59375,74.4094 L17.75,74.4094 L20.8438,66.6907 L19.3906,66.1282 M46.6719,46.2532 C44.5469,46.4876 41.9531,46.6594 39.7188,46.6594 C38.5938,46.6594 37.3125,46.6126 35.875,46.5344 C34.5469,46.4563 33.2344,46.3782 31.875,46.3001 L30.875,46.2532 L27,54.6907 L28.4688,55.1751 L29.4375,53.5657 C31.3125,50.4563 32.1875,50.0188 36.2656,50.0501 L43.0313,50.0501 L38.6719,56.3001 C33.5469,63.4876 33.5469,63.4876 31.5938,66.6907 C29.8281,69.5344 29.1094,71.2844 29.1094,72.7219 C29.1094,74.1282 30,75.0032 31.3906,75.0032 C32.875,75.0032 33.625,74.2844 34.1563,72.4094 C36.1563,64.8938 37.3594,62.2844 42.9063,53.3001 L46.6719,47.4563 L46.6719,46.2532 "/>
<path class="SlurSegment" stroke="#000000" stroke-width="1.74" stroke-linecap="round" stroke-linejoin="round" fill-rule="evenodd" d="M128.051,208.346 C146.418,213.262 172.633,200.861 180.482,183.543 C175.603,207.139 149.388,219.54 128.051,208.346"/>
<path class="SlurSegment" stroke="#000000" stroke-width="1.74" stroke-linecap="round" stroke-linejoin="round" fill-rule="evenodd" d="M409.448,208.346 C427.815,213.262 454.03,200.861 461.879,183.543 C457,207.139 430.784,219.54 409.448,208.346"/>
<path class="SlurSegment" stroke="#000000" stroke-width="1.74" stroke-linecap="round" stroke-linejoin="round" fill-rule="evenodd" d="M690.845,208.346 C709.211,213.262 735.427,200.861 743.276,183.543 C738.397,207.139 712.181,219.54 690.845,208.346"/>
<path class="SlurSegment" stroke="#000000" stroke-width="1.74" stroke-linecap="round" stroke-linejoin="round" fill-rule="evenodd" d="M972.241,208.346 C990.608,213.262 1016.82,200.861 1024.67,183.543 C1019.79,207.139 993.578,219.54 972.241,208.346"/>
<polyline class="BarLine" stroke="#000000" stroke-width="4.46" stroke-linejoin="bevel" points="1273.36,122.652 1273.36,224.593"/>
<polyline class="Stem" stroke="#000000" stroke-width="2.73" stroke-linejoin="bevel" points="195.236,158.046 195.236,80.6102"/>
<polyline class="Stem" stroke="#000000" stroke-width="1.91" stroke-linejoin="bevel" points="138.379,183.801 138.379,125.256"/>
<polyline class="Stem" stroke="#000000" stroke-width="2.73" stroke-linejoin="bevel" points="233.863,182.849 233.863,80.6102"/>
<polyline class="Stem" stroke="#000000" stroke-width="2.73" stroke-linejoin="bevel" points="272.489,158.046 272.489,80.6102"/>
<polyline class="Stem" stroke="#000000" stroke-width="2.73" stroke-linejoin="bevel" points="311.115,158.046 311.115,80.6102"/>
<polyline class="Stem" stroke="#000000" stroke-width="2.73" stroke-linejoin="bevel" points="349.742,182.849 349.742,80.6102"/>
<polyline class="Stem" stroke="#000000" stroke-width="2.73" stroke-linejoin="bevel" points="388.368,182.849 388.368,80.6102"/>
<polyline class="Stem" stroke="#000000" stroke-width="2.73" stroke-linejoin="bevel" points="476.633,158.046 476.633,80.6102"/>
<polyline class="Stem" stroke="#000000" stroke-width="1.91" stroke-linejoin="bevel" points="419.776,183.801 419.776,125.256"/>
<polyline class="Stem" stroke="#000000" stroke-width="2.73" stroke-linejoin="bevel" points="515.259,182.849 515.259,80.6102"/>
<polyline class="Stem" stroke="#000000" stroke-width="2.73" stroke-linejoin="bevel" points="553.886,158.046 553.886,80.6102"/>
<polyline class="Stem" stroke="#000000" stroke-width="2.73" stroke-linejoin="bevel" points="592.512,158.046 592.512,80.6102"/>
<polyline class="Stem" stroke="#000000" stroke-width="2.73" stroke-linejoin="bevel" points="631.138,182.849 631.138,80.6102"/>
<polyline class="Stem" stroke="#000000" stroke-width="2.73" stroke-linejoin="bevel" points="669.765,182.849 669.765,80.6102"/>
<polyline class="Stem" stroke="#000000" stroke-width="2.73" stroke-linejoin="bevel" points="758.03,158.046 758.03,80.6102"/>
<polyline class="Stem" stroke="#000000" stroke-width="1.91" stroke-linejoin="bevel" points="701.172,183.801 701.172,125.256"/>
<polyline class="Stem" stroke="#000000" stroke-width="2.73" stroke-linejoin="bevel" points="796.656,182.849 796.656,80.6102"/>
<polyline class="Stem" stroke="#000000" stroke-width="2.73" stroke-linejoin="bevel" points="835.282,158.046 835.282,80.6102"/>
<polyline class="Stem" stroke="#000000" stroke-width="2.73" stroke-linejoin="bevel" points="873.909,158.046 873.909,80.6102"/>
<polyline class="Stem" stroke="#000000" stroke-width="2.73" stroke-linejoin="bevel" points="912.535,182.849 912.535,80.6102"/>
<polyline class="Stem" stroke="#000000" stroke-width="2.73" stroke-linejoin="bevel" points="951.161,182.849 951.161,80.6102"/>
<polyline class="Stem" stroke="#000000" stroke-width="2.73" stroke-linejoin="bevel" points="1039.43,158.046 1039.43,80.6102"/>
<polyline class="Stem" stroke="#000000" stroke-width="1.91" stroke-linejoin="bevel" points="982.569,183.801 982.569,125.256"/>
<polyline class="Stem" stroke="#000000" stroke-width="2.73" stroke-linejoin="bevel" points="1078.05,182.849 1078.05,80.6102"/>
<polyline class="Stem" stroke="#000000" stroke-width="2.73" stroke-linejoin="bevel" points="1116.68,158.046 1116.68,80.6102"/>
<polyline class="Stem" stroke="#000000" stroke-width="2.73" stroke-linejoin="bevel" points="1155.31,158.046 1155.31,80.6102"/>
<polyline class="Stem" stroke="#000000" stroke-width="2.73" stroke-linejoin="bevel" points="1193.93,182.849 1193.93,80.6102"/>
<polyline class="Stem" stroke="#000000" stroke-width="2.73" stroke-linejoin="bevel" points="1232.56,182.849 1232.56,80.6102"/>
<path class="Note" transform="matrix(0.992126,0,0,0.992126,164.364,161.22)" d="M31.5,-8.09375 C29.7031,-11.4063 25.9063,-13.2031 21.2969,-13.2031 C17.9063,-13.2031 14.2031,-12.2031 10.5938,-10.2969 C4,-6.79688 0,-0.90625 0,4.20313 C0,5.59375 0.296875,7 1,8.29688 C2.79688,11.5938 6.59375,13.2969 11.2031,13.2969 C14.5938,13.2969 18.2969,12.4063 21.9063,10.5 C28.5,7 32.5,1.09375 32.5,-4 C32.5,-5.40625 32.2031,-6.79688 31.5,-8.09375"/>
<path class="Note" transform="matrix(0.694488,0,0,0.694488,116.769,186.024)" d="M31.5,-8.09375 C29.7031,-11.4063 25.9063,-13.2031 21.2969,-13.2031 C17.9063,-13.2031 14.2031,-12.2031 10.5938,-10.2969 C4,-6.79688 0,-0.90625 0,4.20313 C0,5.59375 0.296875,7 1,8.29688 C2.79688,11.5938 6.59375,13.2969 11.2031,13.2969 C14.5938,13.2969 18.2969,12.4063 21.9063,10.5 C28.5,7 32.5,1.09375 32.5,-4 C32.5,-5.40625 32.2031,-6.79688 31.5,-8.09375"/>
<path class="Note" transform="matrix(0.992126,0,0,0.992126,202.991,186.024)" d="M31.5,-8.09375 C29.7031,-11.4063 25.9063,-13.2031 21.2969,-13.2031 C17.9063,-13.2031 14.2031,-12.2031 10.5938,-10.2969 C4,-6.79688 0,-0.90625 0,4.20313 C0,5.59375 0.296875,7 1,8.29688 C2.79688,11.5938 6.59375,13.2969 11.2031,13.2969 C14.5938,13.2969 18.2969,12.4063 21.9063,10.5 C28.5,7 32.5,1.09375 32.5,-4 C32.5,-5.40625 32.2031,-6.79688 31.5,-8.09375"/>
<path class="Note" transform="matrix(0.992126,0,0,0.992126,241.617,161.22)" d="M31.5,-8.09375 C29.7031,-11.4063 25.9063,-13.2031 21.2969,-13.2031 C17.9063,-13.2031 14.2031,-12.2031 10.5938,-10.2969 C4,-6.79688 0,-0.90625 0,4.20313 C0,5.59375 0.296875,7 1,8.29688 C2.79688,11.5938 6.59375,13.2969 11.2031,13.2969 C14.5938,13.2969 18.2969,12.4063 21.9063,10.5 C28.5,7 32.5,1.09375 32.5,-4 C32.5,-5.40625 32.2031,-6.79688 31.5,-8.09375"/>
<path class="Note" transform="matrix(0.992126,0,0,0.992126,280.243,161.22)" d="M31.5,-8.09375 C29.7031,-11.4063 25.9063,-13.2031 21.2969,-13.2031 C17.9063,-13.2031 14.2031,-12.2031 10.5938,-10.2969 C4,-6.79688 0,-0.90625 0,4.20313 C0,5.59375 0.296875,7 1,8.29688 C2.79688,11.5938 6.59375,13.2969 11.2031,13.2969 C14.5938,13.2969 18.2969,12.4063 21.9063,10.5 C28.5,7 32.5,1.09375 32.5,-4 C32.5,-5.40625 32.2031,-6.79688 31.5,-8.09375"/>
<path class="Note" transform="matrix(0.992126,0,0,0.992126,318.87,186.024)" d="M31.5,-8.09375 C29.7031,-11.4063 25.9063,-13.2031 21.2969,-13.2031 C17.9063,-13.2031 14.2031,-12.2031 10.5938,-10.2969 C4,-6.79688 0,-0.90625 0,4.20313 C0,5.59375 0.296875,7 1,8.29688 C2.79688,11.5938 6.59375,13.2969 11.2031,13.2969 C14.5938,13.2969 18.2969,12.4063 21.9063,10.5 C28.5,7 32.5,1.09375 32.5,-4 C32.5,-5.40625 32.2031,-6.79688 31.5,-8.09375"/>
<path class="Note" transform="matrix(0.992126,0,0,0.992126,357.496,186.024)" d="M31.5,-8.09375 C29.7031,-11.4063 25.9063,-13.2031 21.2969,-13.2031 C17.9063,-13.2031 14.2031,-12.2031 10.5938,-10.2969 C4,-6.79688 0,-0.90625 0,4.20313 C0,5.59375 0.296875,7 1,8.29688 C2.79688,11.5938 6.59375,13.2969 11.2031,13.2969 C14.5938,13.2969 18.2969,12.4063 21.9063,10.5 C28.5,7 32.5,1.09375 32.5,-4 C32.5,-5.40625 32.2031,-6.79688 31.5,-8.09375"/>
<path class="Note" transform="matrix(0.992126,0,0,0.992126,445.761,161.22)" d="M31.5,-8.09375 C29.7031,-11.4063 25.9063,-13.2031 21.2969,-13.2031 C17.9063,-13.2031 14.2031,-12.2031 10.5938,-10.2969 C4,-6.79688 0,-0.90625 0,4.20313 C0,5.59375 0.296875,7 1,8.29688 C2.79688,11.5938 6.59375,13.2969 11.2031,13.2969 C14.5938,13.2969 18.2969,12.4063 21.9063,10.5 C28.5,7 32.5,1.09375 32.5,-4 C32.5,-5.40625 32.2031,-6.79688 31.5,-8.09375"/>
<path class="Note" transform="matrix(0.694488,0,0,0.694488,398.165,186.024)" d="M31.5,-8.09375 C29.7031,-11.4063 25.9063,-13.2031 21.2969,-13.2031 C17.9063,-13.2031 14.2031,-12.2031 10.5938,-10.2969 C4,-6.79688 0,-0.90625 0,4.20313 C0,5.59375 0.296875,7 1,8.29688 C2.79688,11.5938 6.59375,13.2969 11.2031,13.2969 C14.5938,13.2969 18.2969,12.4063 21.9063,10.5 C28.5,7 32.5,1.09375 32.5,-4 C32.5,-5.40625 32.2031,-6.79688 31.5,-8.09375"/>
<path class="Note" transform="matrix(0.992126,0,0,0.992126,484.387,186.024)" d="M31.5,-8.09375 C29.7031,-11.4063 25.9063,-13.2031 21.2969,-13.2031 C17.9063,-13.2031 14.2031,-12.2031 10.5938,-10.2969 C4,-6.79688 0,-0.90625 0,4.20313 C0,5.59375 0.296875,7 1,8.29688 C2.79688,11.5938 6.59375,13.2969 11.2031,13.2969 C14.5938,13.2969 18.2969,12.4063 21.9063,10.5 C28.5,7 32.5,1.09375 32.5,-4 C32.5,-5.40625 32.2031,-6.79688 31.5,-8.09375"/>
<path class="Note" transform="matrix(0.992126,0,0,0.992126,523.014,161.22)" d="M31.5,-8.09375 C29.7031,-11.4063 25.9063,-13.2031 21.2969,-13.2031 C17.9063,-13.2031 14.2031,-12.2031 10.5938,-10.2969 C4,-6.79688 0,-0.90625 0,4.20313 C0,5.59375 0.296875,7 1,8.29688 C2.79688,11.5938 6.59375,13.2969 11.2031,13.2969 C14.5938,13.2969 18.2969,12.4063 21.9063,10.5 C28.5,7 32.5,1.09375 32.5,-4 C32.5,-5.40625 32.2031,-6.79688 31.5,-8.09375"/>
<path class="Note" transform="matrix(0.992126,0,0,0.992126,561.64,161.22)" d="M31.5,-8.09375 C29.7031,-11.4063 25.9063,-13.2031 21.2969,-13.2031 C17.9063,-13.2031 14.2031,-12.2031 10.5938,-10.2969 C4,-6.79688 0,-0.90625 0,4.20313 C0,5.59375 0.296875,7 1,8.29688 C2.79688,11.5938 6.59375,13.2969 11.2031,13.2969 C14.5938,13.2969 18.2969,12.4063 21.9063,10.5 C28.5,7 32.5,1.09375 32.5,-4 C32.5,-5.40625 32.2031,-6.79688 31.5,-8.09375"/>
<path class="Note" transform="matrix(0.992126,0,0,0.992126,600.266,186.024)" d="M31.5,-8.09375 C29.7031,-11.4063 25.9063,-13.2031 21.2969,-13.2031 C17.9063,-13.2031 14.2031,-12.2031 10.5938,-10.2969 C4,-6.79688 0,-0.90625 0,4.20313 C0,5.59375 0.296875,7 1,8.29688 C2.79688,11.5938 6.59375,13.2969 11.2031,13.2969 C14.5938,13.2969 18.2969,12.4063 21.9063,10.5 C28.5,7 32.5,1.09375 32.5,-4 C32.5,-5.40625 32.2031,-6.79688 31.5,-8.09375"/>
<path class="Note" transform="matrix(0.992126,0,0,0.992126,638.893,186.024)" d="M31.5,-8.09375 C29.7031,-11.4063 25.9063,-13.2031 21.2969,-13.2031 C17.9063,-13.2031 14.2031,-12.2031 10.5938,-10.2969 C4,-6.79688 0,-0.90625 0,4.20313 C0,5.59375 0.296875,7 1,8.29688 C2.79688,11.5938 6.59375,13.2969 11.2031,13.2969 C14.5938,13.2969 18.2969,12.4063 21.9063,10.5 C28.5,7 32.5,1.09375 32.5,-4 C32.5,-5.40625 32.2031,-6.79688 31.5,-8.09375"/>
<path class="Note" transform="matrix(0.992126,0,0,0.992126,727.158,161.22)" d="M31.5,-8.09375 C29.7031,-11.4063 25.9063,-13.2031 21.2969,-13.2031 C17.9063,-13.2031 14.2031,-12.2031 10.5938,-10.2969 C4,-6.79688 0,-0.90625 0,4.20313 C0,5.59375 0.296875,7 1,8.29688 C2.79688,11.5938 6.59375,13.2969 11.2031,13.2969 C14.5938,13.2969 18.2969,12.4063 21.9063,10.5 C28.5,7 32.5,1.09375 32.5,-4 C32.5,-5.40625 32.2031,-6.79688 31.5,-8.09375"/>
<path class="Note" transform="matrix(0.694488,0,0,0.694488,679.562,186.024)" d="M31.5,-8.09375 C29.7031,-11.4063 25.9063,-13.2031 21.2969,-13.2031 C17.9063,-13.2031 14.2031,-12.2031 10.5938,-10.2969 C4,-6.79688 0,-0.90625 0,4.20313 C0,5.59375 0.296875,7 1,8.29688 C2.79688,11.5938 6.59375,13.2969 11.2031,13.2969 C14.5938,13.2969 18.2969,12.4063 21.9063,10.5 C28.5,7 32.5,1.09375 32.5,-4 C32.5,-5.40625 32.2031,-6.79688 31.5,-8.09375"/>
<path class="Note" transform="matrix(0.992126,0,0,0.992126,765.784,186.024)" d="M31.5,-8.09375 C29.7031,-11.4063 25.9063,-13.2031 21.2969,-13.2031 C17.9063,-13.2031 14.2031,-12.2031 10.5938,-10.2969 C4,-6.79688 0,-0.90625 0,4.20313 C0,5.59375 0.296875,7 1,8.29688 C2.79688,11.5938 6.59375,13.2969 11.2031,13.2969 C14.5938,13.2969 18.2969,12.4063 21.9063,10.5 C28.5,7 32.5,1.09375 32.5,-4 C32.5,-5.40625 32.2031,-6.79688 31.5,-8.09375"/>
<path class="Note" transform="matrix(0.992126,0,0,0.992126,804.41,161.22)" d="M31.5,-8.09375 C29.7031,-11.4063 25.9063,-13.2031 21.2969,-13.2031 C17.9063,-13.2031 14.2031,-12.2031 10.5938,-10.2969 C4,-6.79688 0,-0.90625 0,4.20313 C0,5.59375 0.296875,7 1,8.29688 C2.79688,11.5938 6.59375,13.2969 11.2031,13.2969 C14.5938,13.2969 18.2969,12.4063 21.9063,10.5 C28.5,7 32.5,1.09375 32.5,-4 C32.5,-5.40625 32.2031,-6.79688 31.5,-8.09375"/>
<path class="Note" transform="matrix(0.992126,0,0,0.992126,843.037,161.22)" d="M31.5,-8.09375 C29.7031,-11.4063 25.9063,-13.2031 21.2969,-13.2031 C17.9063,-13.2031 14.2031,-12.2031 10.5938,-10.2969 C4,-6.79688 0,-0.90625 0,4.20313 C0,5.59375 0.296875,7 1,8.29688 C2.79688,11.5938 6.59375,13.2969 11.2031,13.2969 C14.5938,13.2969 18.2969,12.4063 21.9063,10.5 C28.5,7 32.5,1.09375 32.5,-4 C32.5,-5.40625 32.2031,-6.79688 31.5,-8.09375"/>
<path class="Note" transform="matrix(0.992126,0,0,0.992126,881.663,186.024)" d="M31.5,-8.09375 C29.7031,-11.4063 25.9063,-13.2031 21.2969,-13.2031 C17.9063,-13.2031 14.2031,-12.2031 10.5938,-10.2969 C4,-6.79688 0,-0.90625 0,4.20313 C0,5.59375 0.296875,7 1,8.29688 C2.79688,11.5938 6.59375,13.2969 11.2031,13.2969 C14.5938,13.2969 18.2969,12.4063 21.9063,10.5 C28.5,7 32.5,1.09375 32.5,-4 C32.5,-5.40625 32.2031,-6.79688 31.5,-8.09375"/>
<path class="Note" transform="matrix(0.992126,0,0,0.992126,920.289,186.024)" d="M31.5,-8.09375 C29.7031,-11.4063 25.9063,-13.2031 21.2969,-13.2031 C17.9063,-13.2031 14.2031,-12.2031 10.5938,-10.2969 C4,-6.79688 0,-0.90625 0,4.20313 C0,5.59375 0.296875,7 1,8.29688 C2.79688,11.5938 6.59375,13.2969 11.2031,13.2969 C14.5938,13.2969 18.2969,12.4063 21.9063,10.5 C28.5,7 32.5,1.09375 32.5,-4 C32.5,-5.40625 32.2031,-6.79688 31.5,-8.09375"/>
<path class="Note" transform="matrix(0.992126,0,0,0.992126,1008.55,161.22)" d="M31.5,-8.09375 C29.7031,-11.4063 25.9063,-13.2031 21.2969,-13.2031 C17.9063,-13.2031 14.2031,-12.2031 10.5938,-10.2969 C4,-6.79688 0,-0.90625 0,4.20313 C0,5.59375 0.296875,7 1,8.29688 C2.79688,11.5938 6.59375,13.2969 11.2031,13.2969 C14.5938,13.2969 18.2969,12.4063 21.9063,10.5 C28.5,7 32.5,1.09375 32.5,-4 C32.5,-5.40625 32.2031,-6.79688 31.5,-8.09375"/>
<path class="Note" transform="matrix(0.694488,0,0,0.694488,960.959,186.024)" d="M31.5,-8.09375 C29.7031,-11.4063 25.9063,-13.2031 21.2969,-13.2031 C17.9063,-13.2031 14.2031,-12.2031 10.5938,-10.2969 C4,-6.79688 0,-0.90625 0,4.20313 C0,5.59375 0.296875,7 1,8.29688 C2.79688,11.5938 6.59375,13.2969 11.2031,13.2969 C14.5938,13.2969 18.2969,12.4063 21.9063,10.5 C28.5,7 32.5,1.09375 32.5,-4 C32.5,-5.40625 32.2031,-6.79688 31.5,-8.09375"/>
<path class="Note" transform="matrix(0.992126,0,0,0.992126,1047.18,186.024)" d="M31.5,-8.09375 C29.7031,-11.4063 25.9063,-13.2031 21.2969,-13.2031 C17.9063,-13.2031 14.2031,-12.2031 10.5938,-10.2969 C4,-6.79688 0,-0.90625 0,4.20313 C0,5.59375 0.296875,7 1,8.29688 C2.79688,11.5938 6.59375,13.2969 11.2031,13.2969 C14.5938,13.2969 18.2969,12.4063 21.9063,10.5 C28.5,7 32.5,1.09375 32.5,-4 C32.5,-5.40625 32.2031,-6.79688 31.5,-8.09375"/>
<path class="Note" transform="matrix(0.992126,0,0,0.992126,1085.81,161.22)" d="M31.5,-8.09375 C29.7031,-11.4063 25.9063,-13.2031 21.2969,-13.2031 C17.9063,-13.2031 14.2031,-12.2031 10.5938,-10.2969 C4,-6.79688 0,-0.90625 0,4.20313 C0,5.59375 0.296875,7 1,8.29688 C2.79688,11.5938 6.59375,13.2969 11.2031,13.2969 C14.5938,13.2969 18.2969,12.4063 21.9063,10.5 C28.5,7 32.5,1.09375 32.5,-4 C32.5,-5.40625 32.2031,-6.79688 31.5,-8.09375"/>
<path class="Note" transform="matrix(0.992126,0,0,0.992126,1124.43,161.22)" d="M31.5,-8.09375 C29.7031,-11.4063 25.9063,-13.2031 21.2969,-13.2031 C17.9063,-13.2031 14.2031,-12.2031 10.5938,-10.2969 C4,-6.79688 0,-0.90625 0,4.20313 C0,5.59375 0.296875,7 1,8.29688 C2.79688,11.5938 6.59375,13.2969 11.2031,13.2969 C14.5938,13.2969 18.2969,12.4063 21.9063,10.5 C28.5,7 32.5,1.09375 32.5,-4 C32.5,-5.40625 32.2031,-6.79688 31.5,-8.09375"/>
<path class="Note" transform="matrix(0.992126,0,0,0.992126,1163.06,186.024)" d="M31.5,-8.09375 C29.7031,-11.4063 25.9063,-13.2031 21.2969,-13.2031 C17.9063,-13.2031 14.2031,-12.2031 10.5938,-10.2969 C4,-6.79688 0,-0.90625 0,4.20313 C0,5.59375 0.296875,7 1,8.29688 C2.79688,11.5938 6.59375,13.2969 11.2031,13.2969 C14.5938,13.2969 18.2969,12.4063 21.9063,10.5 C28.5,7 32.5,1.09375 32.5,-4 C32.5,-5.40625 32.2031,-6.79688 31.5,-8.09375"/>
<path class="Note" transform="matrix(0.992126,0,0,0.992126,1201.69,186.024)" d="M31.5,-8.09375 C29.7031,-11.4063 25.9063,-13.2031 21.2969,-13.2031 C17.9063,-13.2031 14.2031,-12.2031 10.5938,-10.2969 C4,-6.79688 0,-0.90625 0,4.20313 C0,5.59375 0.296875,7 1,8.29688 C2.79688,11.5938 6.59375,13.2969 11.2031,13.2969 C14.5938,13.2969 18.2969,12.4063 21.9063,10.5 C28.5,7 32.5,1.09375 32.5,-4 C32.5,-5.40625 32.2031,-6.79688 31.5,-8.09375"/>
<path class="Clef" transform="matrix(0.992126,0,0,0.992126,19.8425,173.622)" d="M12.2969,-25.2031 L1.29688,-25.2031 C0.59375,-25.2031 0,-24.5938 0,-23.9063 L0,23.9063 C0,24.5938 0.59375,25.2031 1.29688,25.2031 L12.2969,25.2031 C13,25.2031 13.5938,24.5938 13.5938,23.9063 L13.5938,-23.9063 C13.5938,-24.5938 13,-25.2031 12.2969,-25.2031 M33.9063,-25.2031 L22.9063,-25.2031 C22.2031,-25.2031 21.5938,-24.5938 21.5938,-23.9063 L21.5938,23.9063 C21.5938,24.5938 22.2031,25.2031 22.9063,25.2031 L33.9063,25.2031 C34.6094,25.2031 35.2031,24.5938 35.2031,23.9063 L35.2031,-23.9063 C35.2031,-24.5938 34.6094,-25.2031 33.9063,-25.2031"/>
<path class="Articulation" transform="matrix(0.992126,0,0,0.992126,162.578,212.191)" d="M35.1094,10.4063 L1.79688,0.09375 C1.70313,0.09375 1.5,0 1.40625,0 C0.59375,0 0,0.59375 0,1.40625 L0,3.70313 C0,4.29688 0.5,4.79688 1,5 L22.4063,11.7031 L1,18.5 C0.5,18.7031 0,19.2031 0,19.7969 L0,22.0938 C0,22.9063 0.59375,23.5 1.40625,23.5 C1.5,23.5 1.70313,23.4063 1.79688,23.4063 L35.1094,13.0938 C35.6094,12.9063 36.1094,12.2969 36.1094,11.7031 C36.1094,11.0938 35.6094,10.5938 35.1094,10.4063"/>
<path class="Articulation" transform="matrix(0.992126,0,0,0.992126,443.974,212.191)" d="M35.1094,10.4063 L1.79688,0.09375 C1.70313,0.09375 1.5,0 1.40625,0 C0.59375,0 0,0.59375 0,1.40625 L0,3.70313 C0,4.29688 0.5,4.79688 1,5 L22.4063,11.7031 L1,18.5 C0.5,18.7031 0,19.2031 0,19.7969 L0,22.0938 C0,22.9063 0.59375,23.5 1.40625,23.5 C1.5,23.5 1.70313,23.4063 1.79688,23.4063 L35.1094,13.0938 C35.6094,12.9063 36.1094,12.2969 36.1094,11.7031 C36.1094,11.0938 35.6094,10.5938 35.1094,10.4063"/>
<path class="Articulation" transform="matrix(0.992126,0,0,0.992126,725.371,212.191)" d="M35.1094,10.4063 L1.79688,0.09375 C1.70313,0.09375 1.5,0 1.40625,0 C0.59375,0 0,0.59375 0,1.40625 L0,3.70313 C0,4.29688 0.5,4.79688 1,5 L22.4063,11.7031 L1,18.5 C0.5,18.7031 0,19.2031 0,19.7969 L0,22.0938 C0,22.9063 0.59375,23.5 1.40625,23.5 C1.5,23.5 1.70313,23.4063 1.79688,23.4063 L35.1094,13.0938 C35.6094,12.9063 36.1094,12.2969 36.1094,11.7031 C36.1094,11.0938 35.6094,10.5938 35.1094,10.4063"/>
<path class="Articulation" transform="matrix(0.992126,0,0,0.992126,1006.77,212.191)" d="M35.1094,10.4063 L1.79688,0.09375 C1.70313,0.09375 1.5,0 1.40625,0 C0.59375,0 0,0.59375 0,1.40625 L0,3.70313 C0,4.29688 0.5,4.79688 1,5 L22.4063,11.7031 L1,18.5 C0.5,18.7031 0,19.2031 0,19.7969 L0,22.0938 C0,22.9063 0.59375,23.5 1.40625,23.5 C1.5,23.5 1.70313,23.4063 1.79688,23.4063 L35.1094,13.0938 C35.6094,12.9063 36.1094,12.2969 36.1094,11.7031 C36.1094,11.0938 35.6094,10.5938 35.1094,10.4063"/>
<path class="Beam" fill-rule="evenodd" d="M193.872,74.4094 L389.732,74.4094 L389.732,86.811 L193.872,86.811 L193.872,74.4094 "/>
<path class="Beam" fill-rule="evenodd" d="M193.872,93.0118 L273.853,93.0118 L273.853,105.413 L193.872,105.413 L193.872,93.0118 "/>
<path class="Beam" fill-rule="evenodd" d="M309.751,93.0118 L389.732,93.0118 L389.732,105.413 L309.751,105.413 L309.751,93.0118 "/>
<path class="Beam" fill-rule="evenodd" d="M475.269,74.4094 L671.129,74.4094 L671.129,86.811 L475.269,86.811 L475.269,74.4094 "/>
<path class="Beam" fill-rule="evenodd" d="M475.269,93.0118 L555.25,93.0118 L555.25,105.413 L475.269,105.413 L475.269,93.0118 "/>
<path class="Beam" fill-rule="evenodd" d="M591.148,93.0118 L671.129,93.0118 L671.129,105.413 L591.148,105.413 L591.148,93.0118 "/>
<path class="Beam" fill-rule="evenodd" d="M756.666,74.4094 L952.526,74.4094 L952.526,86.811 L756.666,86.811 L756.666,74.4094 "/>
<path class="Beam" fill-rule="evenodd" d="M756.666,93.0118 L836.647,93.0118 L836.647,105.413 L756.666,105.413 L756.666,93.0118 "/>
<path class="Beam" fill-rule="evenodd" d="M872.545,93.0118 L952.526,93.0118 L952.526,105.413 L872.545,105.413 L872.545,93.0118 "/>
<path class="Beam" fill-rule="evenodd" d="M1038.06,74.4094 L1233.92,74.4094 L1233.92,86.811 L1038.06,86.811 L1038.06,74.4094 "/>
<path class="Beam" fill-rule="evenodd" d="M1038.06,93.0118 L1118.04,93.0118 L1118.04,105.413 L1038.06,105.413 L1038.06,93.0118 "/>
<path class="Beam" fill-rule="evenodd" d="M1153.94,93.0118 L1233.92,93.0118 L1233.92,105.413 L1153.94,105.413 L1153.94,93.0118 "/>
<path class="Hook" transform="matrix(0.694488,0,0,0.694488,137.424,125.256)" d="M3.5,3.5 C3.40625,3.20313 2.5,-0.296875 2.5,-0.5 C2.40625,-0.90625 1.79688,-1.20313 1.29688,-1.20313 C0.59375,-1.20313 0,-0.59375 0,0.09375 L0,16.5 L0,22.7031 C0,23.2031 0.40625,23.5938 0.796875,23.7969 C5,25.0938 13.7031,30.6094 20.2031,41.7031 C22,44.7969 24.9063,49 24.9063,57.4063 C24.9063,64.6094 23.7969,72.2031 22,79.2031 C21.7031,80.3125 21.4063,81.3125 22.5,81.7031 C23.5938,82.1094 24,81.3125 24.4063,80.3125 C28,71.5 28.9063,62.2969 28.9063,56.1094 L28.9063,54.2031 C28.4063,41.2969 21,31.7969 21,31.7969 C21.2969,31.7969 11.7969,19.5 9.09375,15.2969 C5.40625,9.59375 3.59375,3.90625 3.5,3.5"/>
<path class="Hook" transform="matrix(0.694488,0,0,0.694488,418.821,125.256)" d="M3.5,3.5 C3.40625,3.20313 2.5,-0.296875 2.5,-0.5 C2.40625,-0.90625 1.79688,-1.20313 1.29688,-1.20313 C0.59375,-1.20313 0,-0.59375 0,0.09375 L0,16.5 L0,22.7031 C0,23.2031 0.40625,23.5938 0.796875,23.7969 C5,25.0938 13.7031,30.6094 20.2031,41.7031 C22,44.7969 24.9063,49 24.9063,57.4063 C24.9063,64.6094 23.7969,72.2031 22,79.2031 C21.7031,80.3125 21.4063,81.3125 22.5,81.7031 C23.5938,82.1094 24,81.3125 24.4063,80.3125 C28,71.5 28.9063,62.2969 28.9063,56.1094 L28.9063,54.2031 C28.4063,41.2969 21,31.7969 21,31.7969 C21.2969,31.7969 11.7969,19.5 9.09375,15.2969 C5.40625,9.59375 3.59375,3.90625 3.5,3.5"/>
<path class="Hook" transform="matrix(0.694488,0,0,0.694488,700.218,125.256)" d="M3.5,3.5 C3.40625,3.20313 2.5,-0.296875 2.5,-0.5 C2.40625,-0.90625 1.79688,-1.20313 1.29688,-1.20313 C0.59375,-1.20313 0,-0.59375 0,0.09375 L0,16.5 L0,22.7031 C0,23.2031 0.40625,23.5938 0.796875,23.7969 C5,25.0938 13.7031,30.6094 20.2031,41.7031 C22,44.7969 24.9063,49 24.9063,57.4063 C24.9063,64.6094 23.7969,72.2031 22,79.2031 C21.7031,80.3125 21.4063,81.3125 22.5,81.7031 C23.5938,82.1094 24,81.3125 24.4063,80.3125 C28,71.5 28.9063,62.2969 28.9063,56.1094 L28.9063,54.2031 C28.4063,41.2969 21,31.7969 21,31.7969 C21.2969,31.7969 11.7969,19.5 9.09375,15.2969 C5.40625,9.59375 3.59375,3.90625 3.5,3.5"/>
<path class="Hook" transform="matrix(0.694488,0,0,0.694488,981.614,125.256)" d="M3.5,3.5 C3.40625,3.20313 2.5,-0.296875 2.5,-0.5 C2.40625,-0.90625 1.79688,-1.20313 1.29688,-1.20313 C0.59375,-1.20313 0,-0.59375 0,0.09375 L0,16.5 L0,22.7031 C0,23.2031 0.40625,23.5938 0.796875,23.7969 C5,25.0938 13.7031,30.6094 20.2031,41.7031 C22,44.7969 24.9063,49 24.9063,57.4063 C24.9063,64.6094 23.7969,72.2031 22,79.2031 C21.7031,80.3125 21.4063,81.3125 22.5,81.7031 C23.5938,82.1094 24,81.3125 24.4063,80.3125 C28,71.5 28.9063,62.2969 28.9063,56.1094 L28.9063,54.2031 C28.4063,41.2969 21,31.7969 21,31.7969 C21.2969,31.7969 11.7969,19.5 9.09375,15.2969 C5.40625,9.59375 3.59375,3.90625 3.5,3.5"/>
<path class="Tuplet" d="M236.795,41.1663 C238.92,40.4945 239.764,40.1195 240.842,39.4007 C242.967,38.0101 244.264,35.5413 244.264,33.0101 C244.264,28.7445 240.842,25.8695 235.811,25.8695 C230.905,25.8695 226.764,28.9163 226.764,32.6195 C226.764,34.4632 227.889,35.7132 229.592,35.7132 C231.077,35.7132 232.17,34.6351 232.17,33.1507 C232.17,32.3851 231.936,31.8538 231.217,31.1351 C230.764,30.7288 230.592,30.4007 230.592,30.0882 C230.592,29.0101 232.842,27.8851 234.952,27.8851 C237.967,27.8851 239.764,29.557 239.764,32.3382 C239.764,36.3538 236.936,40.1195 233.92,40.1195 C233.78,40.1195 233.374,40.0882 232.889,40.0413 C231.577,39.9476 231.577,39.9476 231.311,39.9476 C230.311,39.9476 229.78,40.4007 229.78,41.2132 C229.78,41.932 230.28,42.3695 231.077,42.3695 C231.311,42.3695 231.624,42.3382 231.983,42.2913 C232.608,42.1507 233.295,42.1038 233.686,42.1038 C235.811,42.1038 237.249,43.9945 237.249,46.7913 C237.249,48.9476 236.749,51.0101 235.764,52.7288 C234.42,55.1507 232.342,56.3226 229.42,56.3226 C226.905,56.3226 224.733,55.0726 224.733,53.6195 C224.733,53.1351 224.92,52.9476 225.639,52.6351 C226.936,52.057 227.483,51.2445 227.483,50.0257 C227.483,48.4476 226.217,47.2445 224.608,47.2445 C222.67,47.2445 221.405,48.7601 221.405,51.1038 C221.405,55.4788 224.733,58.2132 230.139,58.2132 C236.936,58.2132 242.108,53.6663 242.108,47.6351 C242.108,46.0257 241.608,44.6195 240.67,43.4945 C239.67,42.3382 238.78,41.7913 236.795,41.1663"/>
<path class="Tuplet" d="M352.674,41.1663 C354.799,40.4945 355.643,40.1195 356.721,39.4007 C358.846,38.0101 360.143,35.5413 360.143,33.0101 C360.143,28.7445 356.721,25.8695 351.69,25.8695 C346.784,25.8695 342.643,28.9163 342.643,32.6195 C342.643,34.4632 343.768,35.7132 345.471,35.7132 C346.956,35.7132 348.049,34.6351 348.049,33.1507 C348.049,32.3851 347.815,31.8538 347.096,31.1351 C346.643,30.7288 346.471,30.4007 346.471,30.0882 C346.471,29.0101 348.721,27.8851 350.831,27.8851 C353.846,27.8851 355.643,29.557 355.643,32.3382 C355.643,36.3538 352.815,40.1195 349.799,40.1195 C349.659,40.1195 349.253,40.0882 348.768,40.0413 C347.456,39.9476 347.456,39.9476 347.19,39.9476 C346.19,39.9476 345.659,40.4007 345.659,41.2132 C345.659,41.932 346.159,42.3695 346.956,42.3695 C347.19,42.3695 347.503,42.3382 347.862,42.2913 C348.487,42.1507 349.174,42.1038 349.565,42.1038 C351.69,42.1038 353.128,43.9945 353.128,46.7913 C353.128,48.9476 352.628,51.0101 351.643,52.7288 C350.299,55.1507 348.221,56.3226 345.299,56.3226 C342.784,56.3226 340.612,55.0726 340.612,53.6195 C340.612,53.1351 340.799,52.9476 341.518,52.6351 C342.815,52.057 343.362,51.2445 343.362,50.0257 C343.362,48.4476 342.096,47.2445 340.487,47.2445 C338.549,47.2445 337.284,48.7601 337.284,51.1038 C337.284,55.4788 340.612,58.2132 346.018,58.2132 C352.815,58.2132 357.987,53.6663 357.987,47.6351 C357.987,46.0257 357.487,44.6195 356.549,43.4945 C355.549,42.3382 354.659,41.7913 352.674,41.1663"/>
<path class="Tuplet" d="M518.192,41.1663 C520.317,40.4945 521.161,40.1195 522.239,39.4007 C524.364,38.0101 525.661,35.5413 525.661,33.0101 C525.661,28.7445 522.239,25.8695 517.208,25.8695 C512.302,25.8695 508.161,28.9163 508.161,32.6195 C508.161,34.4632 509.286,35.7132 510.989,35.7132 C512.473,35.7132 513.567,34.6351 513.567,33.1507 C513.567,32.3851 513.333,31.8538 512.614,31.1351 C512.161,30.7288 511.989,30.4007 511.989,30.0882 C511.989,29.0101 514.239,27.8851 516.348,27.8851 C519.364,27.8851 521.161,29.557 521.161,32.3382 C521.161,36.3538 518.333,40.1195 515.317,40.1195 C515.177,40.1195 514.77,40.0882 514.286,40.0413 C512.973,39.9476 512.973,39.9476 512.708,39.9476 C511.708,39.9476 511.177,40.4007 511.177,41.2132 C511.177,41.932 511.677,42.3695 512.473,42.3695 C512.708,42.3695 513.02,42.3382 513.38,42.2913 C514.005,42.1507 514.692,42.1038 515.083,42.1038 C517.208,42.1038 518.645,43.9945 518.645,46.7913 C518.645,48.9476 518.145,51.0101 517.161,52.7288 C515.817,55.1507 513.739,56.3226 510.817,56.3226 C508.302,56.3226 506.13,55.0726 506.13,53.6195 C506.13,53.1351 506.317,52.9476 507.036,52.6351 C508.333,52.057 508.88,51.2445 508.88,50.0257 C508.88,48.4476 507.614,47.2445 506.005,47.2445 C504.067,47.2445 502.802,48.7601 502.802,51.1038 C502.802,55.4788 506.13,58.2132 511.536,58.2132 C518.333,58.2132 523.505,53.6663 523.505,47.6351 C523.505,46.0257 523.005,44.6195 522.067,43.4945 C521.067,42.3382 520.177,41.7913 518.192,41.1663"/>
<path class="Tuplet" d="M634.071,41.1663 C636.196,40.4945 637.04,40.1195 638.118,39.4007 C640.243,38.0101 641.54,35.5413 641.54,33.0101 C641.54,28.7445 638.118,25.8695 633.087,25.8695 C628.18,25.8695 624.04,28.9163 624.04,32.6195 C624.04,34.4632 625.165,35.7132 626.868,35.7132 C628.352,35.7132 629.446,34.6351 629.446,33.1507 C629.446,32.3851 629.212,31.8538 628.493,31.1351 C628.04,30.7288 627.868,30.4007 627.868,30.0882 C627.868,29.0101 630.118,27.8851 632.227,27.8851 C635.243,27.8851 637.04,29.557 637.04,32.3382 C637.04,36.3538 634.212,40.1195 631.196,40.1195 C631.055,40.1195 630.649,40.0882 630.165,40.0413 C628.852,39.9476 628.852,39.9476 628.587,39.9476 C627.587,39.9476 627.055,40.4007 627.055,41.2132 C627.055,41.932 627.555,42.3695 628.352,42.3695 C628.587,42.3695 628.899,42.3382 629.259,42.2913 C629.884,42.1507 630.571,42.1038 630.962,42.1038 C633.087,42.1038 634.524,43.9945 634.524,46.7913 C634.524,48.9476 634.024,51.0101 633.04,52.7288 C631.696,55.1507 629.618,56.3226 626.696,56.3226 C624.18,56.3226 622.009,55.0726 622.009,53.6195 C622.009,53.1351 622.196,52.9476 622.915,52.6351 C624.212,52.057 624.759,51.2445 624.759,50.0257 C624.759,48.4476 623.493,47.2445 621.884,47.2445 C619.946,47.2445 618.68,48.7601 618.68,51.1038 C618.68,55.4788 622.009,58.2132 627.415,58.2132 C634.212,58.2132 639.384,53.6663 639.384,47.6351 C639.384,46.0257 638.884,44.6195 637.946,43.4945 C636.946,42.3382 636.055,41.7913 634.071,41.1663"/>
<path class="Tuplet" d="M799.589,41.1663 C801.714,40.4945 802.558,40.1195 803.636,39.4007 C805.761,38.0101 807.058,35.5413 807.058,33.0101 C807.058,28.7445 803.636,25.8695 798.604,25.8695 C793.698,25.8695 789.558,28.9163 789.558,32.6195 C789.558,34.4632 790.683,35.7132 792.386,35.7132 C793.87,35.7132 794.964,34.6351 794.964,33.1507 C794.964,32.3851 794.729,31.8538 794.011,31.1351 C793.558,30.7288 793.386,30.4007 793.386,30.0882 C793.386,29.0101 795.636,27.8851 797.745,27.8851 C800.761,27.8851 802.558,29.557 802.558,32.3382 C802.558,36.3538 799.729,40.1195 796.714,40.1195 C796.573,40.1195 796.167,40.0882 795.683,40.0413 C794.37,39.9476 794.37,39.9476 794.104,39.9476 C793.104,39.9476 792.573,40.4007 792.573,41.2132 C792.573,41.932 793.073,42.3695 793.87,42.3695 C794.104,42.3695 794.417,42.3382 794.776,42.2913 C795.401,42.1507 796.089,42.1038 796.479,42.1038 C798.604,42.1038 800.042,43.9945 800.042,46.7913 C800.042,48.9476 799.542,51.0101 798.558,52.7288 C797.214,55.1507 795.136,56.3226 792.214,56.3226 C789.698,56.3226 787.526,55.0726 787.526,53.6195 C787.526,53.1351 787.714,52.9476 788.433,52.6351 C789.729,52.057 790.276,51.2445 790.276,50.0257 C790.276,48.4476 789.011,47.2445 787.401,47.2445 C785.464,47.2445 784.198,48.7601 784.198,51.1038 C784.198,55.4788 787.526,58.2132 792.933,58.2132 C799.729,58.2132 804.901,53.6663 804.901,47.6351 C804.901,46.0257 804.401,44.6195 803.464,43.4945 C802.464,42.3382 801.573,41.7913 799.589,41.1663"/>
<path class="Tuplet" d="M915.468,41.1663 C917.593,40.4945 918.437,40.1195 919.515,39.4007 C921.64,38.0101 922.937,35.5413 922.937,33.0101 C922.937,28.7445 919.515,25.8695 914.483,25.8695 C909.577,25.8695 905.437,28.9163 905.437,32.6195 C905.437,34.4632 906.562,35.7132 908.265,35.7132 C909.749,35.7132 910.843,34.6351 910.843,33.1507 C910.843,32.3851 910.608,31.8538 909.89,31.1351 C909.437,30.7288 909.265,30.4007 909.265,30.0882 C909.265,29.0101 911.515,27.8851 913.624,27.8851 C916.64,27.8851 918.437,29.557 918.437,32.3382 C918.437,36.3538 915.608,40.1195 912.593,40.1195 C912.452,40.1195 912.046,40.0882 911.562,40.0413 C910.249,39.9476 910.249,39.9476 909.983,39.9476 C908.983,39.9476 908.452,40.4007 908.452,41.2132 C908.452,41.932 908.952,42.3695 909.749,42.3695 C909.983,42.3695 910.296,42.3382 910.655,42.2913 C911.28,42.1507 911.968,42.1038 912.358,42.1038 C914.483,42.1038 915.921,43.9945 915.921,46.7913 C915.921,48.9476 915.421,51.0101 914.437,52.7288 C913.093,55.1507 911.015,56.3226 908.093,56.3226 C905.577,56.3226 903.405,55.0726 903.405,53.6195 C903.405,53.1351 903.593,52.9476 904.312,52.6351 C905.608,52.057 906.155,51.2445 906.155,50.0257 C906.155,48.4476 904.89,47.2445 903.28,47.2445 C901.343,47.2445 900.077,48.7601 900.077,51.1038 C900.077,55.4788 903.405,58.2132 908.812,58.2132 C915.608,58.2132 920.78,53.6663 920.78,47.6351 C920.78,46.0257 920.28,44.6195 919.343,43.4945 C918.343,42.3382 917.452,41.7913 915.468,41.1663"/>
<path class="Tuplet" d="M1080.99,41.1663 C1083.11,40.4945 1083.95,40.1195 1085.03,39.4007 C1087.16,38.0101 1088.45,35.5413 1088.45,33.0101 C1088.45,28.7445 1085.03,25.8695 1080,25.8695 C1075.09,25.8695 1070.95,28.9163 1070.95,32.6195 C1070.95,34.4632 1072.08,35.7132 1073.78,35.7132 C1075.27,35.7132 1076.36,34.6351 1076.36,33.1507 C1076.36,32.3851 1076.13,31.8538 1075.41,31.1351 C1074.95,30.7288 1074.78,30.4007 1074.78,30.0882 C1074.78,29.0101 1077.03,27.8851 1079.14,27.8851 C1082.16,27.8851 1083.95,29.557 1083.95,32.3382 C1083.95,36.3538 1081.13,40.1195 1078.11,40.1195 C1077.97,40.1195 1077.56,40.0882 1077.08,40.0413 C1075.77,39.9476 1075.77,39.9476 1075.5,39.9476 C1074.5,39.9476 1073.97,40.4007 1073.97,41.2132 C1073.97,41.932 1074.47,42.3695 1075.27,42.3695 C1075.5,42.3695 1075.81,42.3382 1076.17,42.2913 C1076.8,42.1507 1077.49,42.1038 1077.88,42.1038 C1080,42.1038 1081.44,43.9945 1081.44,46.7913 C1081.44,48.9476 1080.94,51.0101 1079.95,52.7288 C1078.61,55.1507 1076.53,56.3226 1073.61,56.3226 C1071.09,56.3226 1068.92,55.0726 1068.92,53.6195 C1068.92,53.1351 1069.11,52.9476 1069.83,52.6351 C1071.13,52.057 1071.67,51.2445 1071.67,50.0257 C1071.67,48.4476 1070.41,47.2445 1068.8,47.2445 C1066.86,47.2445 1065.59,48.7601 1065.59,51.1038 C1065.59,55.4788 1068.92,58.2132 1074.33,58.2132 C1081.13,58.2132 1086.3,53.6663 1086.3,47.6351 C1086.3,46.0257 1085.8,44.6195 1084.86,43.4945 C1083.86,42.3382 1082.97,41.7913 1080.99,41.1663"/>
<path class="Tuplet" d="M1196.86,41.1663 C1198.99,40.4945 1199.83,40.1195 1200.91,39.4007 C1203.04,38.0101 1204.33,35.5413 1204.33,33.0101 C1204.33,28.7445 1200.91,25.8695 1195.88,25.8695 C1190.97,25.8695 1186.83,28.9163 1186.83,32.6195 C1186.83,34.4632 1187.96,35.7132 1189.66,35.7132 C1191.15,35.7132 1192.24,34.6351 1192.24,33.1507 C1192.24,32.3851 1192.01,31.8538 1191.29,31.1351 C1190.83,30.7288 1190.66,30.4007 1190.66,30.0882 C1190.66,29.0101 1192.91,27.8851 1195.02,27.8851 C1198.04,27.8851 1199.83,29.557 1199.83,32.3382 C1199.83,36.3538 1197.01,40.1195 1193.99,40.1195 C1193.85,40.1195 1193.44,40.0882 1192.96,40.0413 C1191.65,39.9476 1191.65,39.9476 1191.38,39.9476 C1190.38,39.9476 1189.85,40.4007 1189.85,41.2132 C1189.85,41.932 1190.35,42.3695 1191.15,42.3695 C1191.38,42.3695 1191.69,42.3382 1192.05,42.2913 C1192.68,42.1507 1193.36,42.1038 1193.76,42.1038 C1195.88,42.1038 1197.32,43.9945 1197.32,46.7913 C1197.32,48.9476 1196.82,51.0101 1195.83,52.7288 C1194.49,55.1507 1192.41,56.3226 1189.49,56.3226 C1186.97,56.3226 1184.8,55.0726 1184.8,53.6195 C1184.8,53.1351 1184.99,52.9476 1185.71,52.6351 C1187.01,52.057 1187.55,51.2445 1187.55,50.0257 C1187.55,48.4476 1186.29,47.2445 1184.68,47.2445 C1182.74,47.2445 1181.47,48.7601 1181.47,51.1038 C1181.47,55.4788 1184.8,58.2132 1190.21,58.2132 C1197.01,58.2132 1202.18,53.6663 1202.18,47.6351 C1202.18,46.0257 1201.68,44.6195 1200.74,43.4945 C1199.74,42.3382 1198.85,41.7913 1196.86,41.1663"/>
</svg>
