<?xml version="1.0" encoding="UTF-8" standalone="no"?>
<svg width="1275.59px" height="283.465px" viewBox="0 0 1275.59 283.465"
 xmlns="http://www.w3.org/2000/svg" xmlns:xlink="http://www.w3.org/1999/xlink" version="1.2" baseProfile="tiny">
<title>drum_rudiments (33)</title>
<desc>Generated by MuseScore 3.6.2</desc>
<polyline class="StaffLines" fill="none" stroke="#000000" stroke-width="2.73" stroke-linejoin="bevel" points="0,173.622 1275.59,173.622"/>
<path class="MeasureNumber" d="M14.5938,59.8469 C16.4844,59.2532 17.2344,58.9251 18.2031,58.2844 C20.0781,57.0501 21.2344,54.8469 21.2344,52.6126 C21.2344,48.8157 18.2031,46.2532 13.7188,46.2532 C9.35938,46.2532 5.67188,48.9719 5.67188,52.2532 C5.67188,53.8938 6.67188,55.0188 8.20313,55.0188 C9.51563,55.0188 10.4844,54.0501 10.4844,52.7376 C10.4844,52.0501 10.2813,51.5657 9.64063,50.9407 C9.23438,50.5657 9.07813,50.3001 9.07813,50.0188 C9.07813,49.0501 11.0781,48.0501 12.9531,48.0501 C15.6406,48.0501 17.2344,49.5344 17.2344,52.0188 C17.2344,55.5657 14.7188,58.9251 12.0313,58.9251 C11.9219,58.9251 11.5625,58.8938 11.125,58.8469 C9.95313,58.7688 9.95313,58.7688 9.71875,58.7688 C8.84375,58.7688 8.35938,59.1751 8.35938,59.8938 C8.35938,60.5344 8.79688,60.9251 9.51563,60.9251 C9.71875,60.9251 10,60.8938 10.3125,60.8469 C10.875,60.7376 11.4844,60.6907 11.8438,60.6907 C13.7188,60.6907 15,62.3782 15,64.8469 C15,66.7688 14.5625,68.6126 13.6719,70.1282 C12.4844,72.2844 10.6406,73.3313 8.03125,73.3313 C5.79688,73.3313 3.875,72.2063 3.875,70.9251 C3.875,70.4876 4.04688,70.3313 4.67188,70.0501 C5.84375,69.5344 6.3125,68.8157 6.3125,67.7376 C6.3125,66.3313 5.20313,65.2532 3.76563,65.2532 C2.04688,65.2532 0.921875,66.6126 0.921875,68.6907 C0.921875,72.5657 3.875,75.0032 8.67188,75.0032 C14.7188,75.0032 19.3125,70.9719 19.3125,65.6126 C19.3125,64.1751 18.875,62.9251 18.0313,61.9251 C17.1563,60.8938 16.3594,60.4094 14.5938,59.8469 M36.8281,59.8469 C38.7188,59.2532 39.4688,58.9251 40.4375,58.2844 C42.3125,57.0501 43.4688,54.8469 43.4688,52.6126 C43.4688,48.8157 40.4375,46.2532 35.9531,46.2532 C31.5938,46.2532 27.9063,48.9719 27.9063,52.2532 C27.9063,53.8938 28.9063,55.0188 30.4375,55.0188 C31.75,55.0188 32.7188,54.0501 32.7188,52.7376 C32.7188,52.0501 32.5156,51.5657 31.875,50.9407 C31.4688,50.5657 31.3125,50.3001 31.3125,50.0188 C31.3125,49.0501 33.3125,48.0501 35.1875,48.0501 C37.875,48.0501 39.4688,49.5344 39.4688,52.0188 C39.4688,55.5657 36.9531,58.9251 34.2656,58.9251 C34.1563,58.9251 33.7969,58.8938 33.3594,58.8469 C32.1875,58.7688 32.1875,58.7688 31.9531,58.7688 C31.0781,58.7688 30.5938,59.1751 30.5938,59.8938 C30.5938,60.5344 31.0313,60.9251 31.75,60.9251 C31.9531,60.9251 32.2344,60.8938 32.5469,60.8469 C33.1094,60.7376 33.7188,60.6907 34.0781,60.6907 C35.9531,60.6907 37.2344,62.3782 37.2344,64.8469 C37.2344,66.7688 36.7969,68.6126 35.9063,70.1282 C34.7188,72.2844 32.875,73.3313 30.2656,73.3313 C28.0313,73.3313 26.1094,72.2063 26.1094,70.9251 C26.1094,70.4876 26.2813,70.3313 26.9063,70.0501 C28.0781,69.5344 28.5469,68.8157 28.5469,67.7376 C28.5469,66.3313 27.4375,65.2532 26,65.2532 C24.2813,65.2532 23.1563,66.6126 23.1563,68.6907 C23.1563,72.5657 26.1094,75.0032 30.9063,75.0032 C36.9531,75.0032 41.5469,70.9719 41.5469,65.6126 C41.5469,64.1751 41.1094,62.9251 40.2656,61.9251 C39.3906,60.8938 38.5938,60.4094 36.8281,59.8469"/>
<path class="SlurSegment" stroke="#000000" stroke-width="1.74" stroke-linecap="round" stroke-linejoin="round" fill-rule="evenodd" d="M154.089,208.346 C165.706,210.098 185.123,195.216 186.451,183.543 C187.235,197.972 167.818,212.854 154.089,208.346"/>
<path class="SlurSegment" stroke="#000000" stroke-width="1.74" stroke-linecap="round" stroke-linejoin="round" fill-rule="evenodd" d="M248.323,208.346 C259.939,210.098 279.356,195.216 280.684,183.543 C281.469,197.972 262.052,212.854 248.323,208.346"/>
<path class="SlurSegment" stroke="#000000" stroke-width="1.74" stroke-linecap="round" stroke-linejoin="round" fill-rule="evenodd" d="M430.788,183.543 C432.116,195.216 451.533,210.098 463.15,208.346 C449.42,212.854 430.003,197.972 430.788,183.543"/>
<path class="SlurSegment" stroke="#000000" stroke-width="1.74" stroke-linecap="round" stroke-linejoin="round" fill-rule="evenodd" d="M525.021,183.543 C526.349,195.216 545.766,210.098 557.383,208.346 C543.654,212.854 524.237,197.972 525.021,183.543"/>
<path class="SlurSegment" stroke="#000000" stroke-width="1.74" stroke-linecap="round" stroke-linejoin="round" fill-rule="evenodd" d="M707.487,208.346 C719.104,210.098 738.521,195.216 739.849,183.543 C740.633,197.972 721.216,212.854 707.487,208.346"/>
<path class="SlurSegment" stroke="#000000" stroke-width="1.74" stroke-linecap="round" stroke-linejoin="round" fill-rule="evenodd" d="M801.72,208.346 C813.337,210.098 832.754,195.216 834.082,183.543 C834.867,197.972 815.45,212.854 801.72,208.346"/>
<path class="SlurSegment" stroke="#000000" stroke-width="1.74" stroke-linecap="round" stroke-linejoin="round" fill-rule="evenodd" d="M984.186,183.543 C985.514,195.216 1004.93,210.098 1016.55,208.346 C1002.82,212.854 983.401,197.972 984.186,183.543"/>
<path class="SlurSegment" stroke="#000000" stroke-width="1.74" stroke-linecap="round" stroke-linejoin="round" fill-rule="evenodd" d="M1078.42,183.543 C1079.75,195.216 1099.16,210.098 1110.78,208.346 C1097.05,212.854 1077.63,197.972 1078.42,183.543"/>
<polyline class="BarLine" stroke="#000000" stroke-width="4.46" stroke-linejoin="bevel" points="1273.36,122.652 1273.36,224.593"/>
<polyline class="Stem" stroke="#000000" stroke-width="2.73" stroke-linejoin="bevel" points="201.205,158.046 201.205,93.0118"/>
<polyline class="Stem" stroke="#000000" stroke-width="1.91" stroke-linejoin="bevel" points="138.379,183.801 138.379,136.417"/>
<polyline class="Stem" stroke="#000000" stroke-width="1.91" stroke-linejoin="bevel" points="164.417,183.801 164.417,136.417"/>
<polyline class="Stem" stroke="#000000" stroke-width="2.73" stroke-linejoin="bevel" points="295.438,158.046 295.438,93.0118"/>
<polyline class="Stem" stroke="#000000" stroke-width="1.91" stroke-linejoin="bevel" points="232.612,183.801 232.612,136.417"/>
<polyline class="Stem" stroke="#000000" stroke-width="1.91" stroke-linejoin="bevel" points="258.65,183.801 258.65,136.417"/>
<polyline class="Stem" stroke="#000000" stroke-width="2.73" stroke-linejoin="bevel" points="383.67,182.849 383.67,93.0118"/>
<polyline class="Stem" stroke="#000000" stroke-width="2.73" stroke-linejoin="bevel" points="477.904,182.849 477.904,99.2126"/>
<polyline class="Stem" stroke="#000000" stroke-width="1.91" stroke-linejoin="bevel" points="415.078,158.998 415.078,116.575"/>
<polyline class="Stem" stroke="#000000" stroke-width="1.91" stroke-linejoin="bevel" points="441.116,158.998 441.116,116.575"/>
<polyline class="Stem" stroke="#000000" stroke-width="2.73" stroke-linejoin="bevel" points="572.137,182.849 572.137,99.2126"/>
<polyline class="Stem" stroke="#000000" stroke-width="1.91" stroke-linejoin="bevel" points="509.311,158.998 509.311,116.575"/>
<polyline class="Stem" stroke="#000000" stroke-width="1.91" stroke-linejoin="bevel" points="535.349,158.998 535.349,116.575"/>
<polyline class="Stem" stroke="#000000" stroke-width="2.73" stroke-linejoin="bevel" points="660.369,158.046 660.369,99.2126"/>
<polyline class="Stem" stroke="#000000" stroke-width="2.73" stroke-linejoin="bevel" points="754.603,158.046 754.603,93.0118"/>
<polyline class="Stem" stroke="#000000" stroke-width="1.91" stroke-linejoin="bevel" points="691.777,183.801 691.777,136.417"/>
<polyline class="Stem" stroke="#000000" stroke-width="1.91" stroke-linejoin="bevel" points="717.815,183.801 717.815,136.417"/>
<polyline class="Stem" stroke="#000000" stroke-width="2.73" stroke-linejoin="bevel" points="848.836,158.046 848.836,93.0118"/>
<polyline class="Stem" stroke="#000000" stroke-width="1.91" stroke-linejoin="bevel" points="786.01,183.801 786.01,136.417"/>
<polyline class="Stem" stroke="#000000" stroke-width="1.91" stroke-linejoin="bevel" points="812.048,183.801 812.048,136.417"/>
<polyline class="Stem" stroke="#000000" stroke-width="2.73" stroke-linejoin="bevel" points="937.068,182.849 937.068,93.0118"/>
<polyline class="Stem" stroke="#000000" stroke-width="2.73" stroke-linejoin="bevel" points="1031.3,182.849 1031.3,99.2126"/>
<polyline class="Stem" stroke="#000000" stroke-width="1.91" stroke-linejoin="bevel" points="968.476,158.998 968.476,116.575"/>
<polyline class="Stem" stroke="#000000" stroke-width="1.91" stroke-linejoin="bevel" points="994.514,158.998 994.514,116.575"/>
<polyline class="Stem" stroke="#000000" stroke-width="2.73" stroke-linejoin="bevel" points="1125.53,182.849 1125.53,99.2126"/>
<polyline class="Stem" stroke="#000000" stroke-width="1.91" stroke-linejoin="bevel" points="1062.71,158.998 1062.71,116.575"/>
<polyline class="Stem" stroke="#000000" stroke-width="1.91" stroke-linejoin="bevel" points="1088.75,158.998 1088.75,116.575"/>
<polyline class="Stem" stroke="#000000" stroke-width="2.73" stroke-linejoin="bevel" points="1213.77,158.046 1213.77,99.2126"/>
<path class="Note" transform="matrix(0.992126,0,0,0.992126,170.333,161.22)" d="M31.5,-8.09375 C29.7031,-11.4063 25.9063,-13.2031 21.2969,-13.2031 C17.9063,-13.2031 14.2031,-12.2031 10.5938,-10.2969 C4,-6.79688 0,-0.90625 0,4.20313 C0,5.59375 0.296875,7 1,8.29688 C2.79688,11.5938 6.59375,13.2969 11.2031,13.2969 C14.5938,13.2969 18.2969,12.4063 21.9063,10.5 C28.5,7 32.5,1.09375 32.5,-4 C32.5,-5.40625 32.2031,-6.79688 31.5,-8.09375"/>
<path class="Note" transform="matrix(0.694488,0,0,0.694488,116.769,186.024)" d="M31.5,-8.09375 C29.7031,-11.4063 25.9063,-13.2031 21.2969,-13.2031 C17.9063,-13.2031 14.2031,-12.2031 10.5938,-10.2969 C4,-6.79688 0,-0.90625 0,4.20313 C0,5.59375 0.296875,7 1,8.29688 C2.79688,11.5938 6.59375,13.2969 11.2031,13.2969 C14.5938,13.2969 18.2969,12.4063 21.9063,10.5 C28.5,7 32.5,1.09375 32.5,-4 C32.5,-5.40625 32.2031,-6.79688 31.5,-8.09375"/>
<path class="Note" transform="matrix(0.694488,0,0,0.694488,142.806,186.024)" d="M31.5,-8.09375 C29.7031,-11.4063 25.9063,-13.2031 21.2969,-13.2031 C17.9063,-13.2031 14.2031,-12.2031 10.5938,-10.2969 C4,-6.79688 0,-0.90625 0,4.20313 C0,5.59375 0.296875,7 1,8.29688 C2.79688,11.5938 6.59375,13.2969 11.2031,13.2969 C14.5938,13.2969 18.2969,12.4063 21.9063,10.5 C28.5,7 32.5,1.09375 32.5,-4 C32.5,-5.40625 32.2031,-6.79688 31.5,-8.09375"/>
<path class="Note" transform="matrix(0.992126,0,0,0.992126,264.566,161.22)" d="M31.5,-8.09375 C29.7031,-11.4063 25.9063,-13.2031 21.2969,-13.2031 C17.9063,-13.2031 14.2031,-12.2031 10.5938,-10.2969 C4,-6.79688 0,-0.90625 0,4.20313 C0,5.59375 0.296875,7 1,8.29688 C2.79688,11.5938 6.59375,13.2969 11.2031,13.2969 C14.5938,13.2969 18.2969,12.4063 21.9063,10.5 C28.5,7 32.5,1.09375 32.5,-4 C32.5,-5.40625 32.2031,-6.79688 31.5,-8.09375"/>
<path class="Note" transform="matrix(0.694488,0,0,0.694488,211.002,186.024)" d="M31.5,-8.09375 C29.7031,-11.4063 25.9063,-13.2031 21.2969,-13.2031 C17.9063,-13.2031 14.2031,-12.2031 10.5938,-10.2969 C4,-6.79688 0,-0.90625 0,4.20313 C0,5.59375 0.296875,7 1,8.29688 C2.79688,11.5938 6.59375,13.2969 11.2031,13.2969 C14.5938,13.2969 18.2969,12.4063 21.9063,10.5 C28.5,7 32.5,1.09375 32.5,-4 C32.5,-5.40625 32.2031,-6.79688 31.5,-8.09375"/>
<path class="Note" transform="matrix(0.694488,0,0,0.694488,237.04,186.024)" d="M31.5,-8.09375 C29.7031,-11.4063 25.9063,-13.2031 21.2969,-13.2031 C17.9063,-13.2031 14.2031,-12.2031 10.5938,-10.2969 C4,-6.79688 0,-0.90625 0,4.20313 C0,5.59375 0.296875,7 1,8.29688 C2.79688,11.5938 6.59375,13.2969 11.2031,13.2969 C14.5938,13.2969 18.2969,12.4063 21.9063,10.5 C28.5,7 32.5,1.09375 32.5,-4 C32.5,-5.40625 32.2031,-6.79688 31.5,-8.09375"/>
<path class="Note" transform="matrix(0.992126,0,0,0.992126,352.798,186.024)" d="M31.5,-8.09375 C29.7031,-11.4063 25.9063,-13.2031 21.2969,-13.2031 C17.9063,-13.2031 14.2031,-12.2031 10.5938,-10.2969 C4,-6.79688 0,-0.90625 0,4.20313 C0,5.59375 0.296875,7 1,8.29688 C2.79688,11.5938 6.59375,13.2969 11.2031,13.2969 C14.5938,13.2969 18.2969,12.4063 21.9063,10.5 C28.5,7 32.5,1.09375 32.5,-4 C32.5,-5.40625 32.2031,-6.79688 31.5,-8.09375"/>
<path class="Note" transform="matrix(0.992126,0,0,0.992126,447.031,186.024)" d="M31.5,-8.09375 C29.7031,-11.4063 25.9063,-13.2031 21.2969,-13.2031 C17.9063,-13.2031 14.2031,-12.2031 10.5938,-10.2969 C4,-6.79688 0,-0.90625 0,4.20313 C0,5.59375 0.296875,7 1,8.29688 C2.79688,11.5938 6.59375,13.2969 11.2031,13.2969 C14.5938,13.2969 18.2969,12.4063 21.9063,10.5 C28.5,7 32.5,1.09375 32.5,-4 C32.5,-5.40625 32.2031,-6.79688 31.5,-8.09375"/>
<path class="Note" transform="matrix(0.694488,0,0,0.694488,393.467,161.22)" d="M31.5,-8.09375 C29.7031,-11.4063 25.9063,-13.2031 21.2969,-13.2031 C17.9063,-13.2031 14.2031,-12.2031 10.5938,-10.2969 C4,-6.79688 0,-0.90625 0,4.20313 C0,5.59375 0.296875,7 1,8.29688 C2.79688,11.5938 6.59375,13.2969 11.2031,13.2969 C14.5938,13.2969 18.2969,12.4063 21.9063,10.5 C28.5,7 32.5,1.09375 32.5,-4 C32.5,-5.40625 32.2031,-6.79688 31.5,-8.09375"/>
<path class="Note" transform="matrix(0.694488,0,0,0.694488,419.505,161.22)" d="M31.5,-8.09375 C29.7031,-11.4063 25.9063,-13.2031 21.2969,-13.2031 C17.9063,-13.2031 14.2031,-12.2031 10.5938,-10.2969 C4,-6.79688 0,-0.90625 0,4.20313 C0,5.59375 0.296875,7 1,8.29688 C2.79688,11.5938 6.59375,13.2969 11.2031,13.2969 C14.5938,13.2969 18.2969,12.4063 21.9063,10.5 C28.5,7 32.5,1.09375 32.5,-4 C32.5,-5.40625 32.2031,-6.79688 31.5,-8.09375"/>
<path class="Note" transform="matrix(0.992126,0,0,0.992126,541.265,186.024)" d="M31.5,-8.09375 C29.7031,-11.4063 25.9063,-13.2031 21.2969,-13.2031 C17.9063,-13.2031 14.2031,-12.2031 10.5938,-10.2969 C4,-6.79688 0,-0.90625 0,4.20313 C0,5.59375 0.296875,7 1,8.29688 C2.79688,11.5938 6.59375,13.2969 11.2031,13.2969 C14.5938,13.2969 18.2969,12.4063 21.9063,10.5 C28.5,7 32.5,1.09375 32.5,-4 C32.5,-5.40625 32.2031,-6.79688 31.5,-8.09375"/>
<path class="Note" transform="matrix(0.694488,0,0,0.694488,487.701,161.22)" d="M31.5,-8.09375 C29.7031,-11.4063 25.9063,-13.2031 21.2969,-13.2031 C17.9063,-13.2031 14.2031,-12.2031 10.5938,-10.2969 C4,-6.79688 0,-0.90625 0,4.20313 C0,5.59375 0.296875,7 1,8.29688 C2.79688,11.5938 6.59375,13.2969 11.2031,13.2969 C14.5938,13.2969 18.2969,12.4063 21.9063,10.5 C28.5,7 32.5,1.09375 32.5,-4 C32.5,-5.40625 32.2031,-6.79688 31.5,-8.09375"/>
<path class="Note" transform="matrix(0.694488,0,0,0.694488,513.739,161.22)" d="M31.5,-8.09375 C29.7031,-11.4063 25.9063,-13.2031 21.2969,-13.2031 C17.9063,-13.2031 14.2031,-12.2031 10.5938,-10.2969 C4,-6.79688 0,-0.90625 0,4.20313 C0,5.59375 0.296875,7 1,8.29688 C2.79688,11.5938 6.59375,13.2969 11.2031,13.2969 C14.5938,13.2969 18.2969,12.4063 21.9063,10.5 C28.5,7 32.5,1.09375 32.5,-4 C32.5,-5.40625 32.2031,-6.79688 31.5,-8.09375"/>
<path class="Note" transform="matrix(0.992126,0,0,0.992126,629.497,161.22)" d="M31.5,-8.09375 C29.7031,-11.4063 25.9063,-13.2031 21.2969,-13.2031 C17.9063,-13.2031 14.2031,-12.2031 10.5938,-10.2969 C4,-6.79688 0,-0.90625 0,4.20313 C0,5.59375 0.296875,7 1,8.29688 C2.79688,11.5938 6.59375,13.2969 11.2031,13.2969 C14.5938,13.2969 18.2969,12.4063 21.9063,10.5 C28.5,7 32.5,1.09375 32.5,-4 C32.5,-5.40625 32.2031,-6.79688 31.5,-8.09375"/>
<path class="Note" transform="matrix(0.992126,0,0,0.992126,723.73,161.22)" d="M31.5,-8.09375 C29.7031,-11.4063 25.9063,-13.2031 21.2969,-13.2031 C17.9063,-13.2031 14.2031,-12.2031 10.5938,-10.2969 C4,-6.79688 0,-0.90625 0,4.20313 C0,5.59375 0.296875,7 1,8.29688 C2.79688,11.5938 6.59375,13.2969 11.2031,13.2969 C14.5938,13.2969 18.2969,12.4063 21.9063,10.5 C28.5,7 32.5,1.09375 32.5,-4 C32.5,-5.40625 32.2031,-6.79688 31.5,-8.09375"/>
<path class="Note" transform="matrix(0.694488,0,0,0.694488,670.166,186.024)" d="M31.5,-8.09375 C29.7031,-11.4063 25.9063,-13.2031 21.2969,-13.2031 C17.9063,-13.2031 14.2031,-12.2031 10.5938,-10.2969 C4,-6.79688 0,-0.90625 0,4.20313 C0,5.59375 0.296875,7 1,8.29688 C2.79688,11.5938 6.59375,13.2969 11.2031,13.2969 C14.5938,13.2969 18.2969,12.4063 21.9063,10.5 C28.5,7 32.5,1.09375 32.5,-4 C32.5,-5.40625 32.2031,-6.79688 31.5,-8.09375"/>
<path class="Note" transform="matrix(0.694488,0,0,0.694488,696.204,186.024)" d="M31.5,-8.09375 C29.7031,-11.4063 25.9063,-13.2031 21.2969,-13.2031 C17.9063,-13.2031 14.2031,-12.2031 10.5938,-10.2969 C4,-6.79688 0,-0.90625 0,4.20313 C0,5.59375 0.296875,7 1,8.29688 C2.79688,11.5938 6.59375,13.2969 11.2031,13.2969 C14.5938,13.2969 18.2969,12.4063 21.9063,10.5 C28.5,7 32.5,1.09375 32.5,-4 C32.5,-5.40625 32.2031,-6.79688 31.5,-8.09375"/>
<path class="Note" transform="matrix(0.992126,0,0,0.992126,817.964,161.22)" d="M31.5,-8.09375 C29.7031,-11.4063 25.9063,-13.2031 21.2969,-13.2031 C17.9063,-13.2031 14.2031,-12.2031 10.5938,-10.2969 C4,-6.79688 0,-0.90625 0,4.20313 C0,5.59375 0.296875,7 1,8.29688 C2.79688,11.5938 6.59375,13.2969 11.2031,13.2969 C14.5938,13.2969 18.2969,12.4063 21.9063,10.5 C28.5,7 32.5,1.09375 32.5,-4 C32.5,-5.40625 32.2031,-6.79688 31.5,-8.09375"/>
<path class="Note" transform="matrix(0.694488,0,0,0.694488,764.4,186.024)" d="M31.5,-8.09375 C29.7031,-11.4063 25.9063,-13.2031 21.2969,-13.2031 C17.9063,-13.2031 14.2031,-12.2031 10.5938,-10.2969 C4,-6.79688 0,-0.90625 0,4.20313 C0,5.59375 0.296875,7 1,8.29688 C2.79688,11.5938 6.59375,13.2969 11.2031,13.2969 C14.5938,13.2969 18.2969,12.4063 21.9063,10.5 C28.5,7 32.5,1.09375 32.5,-4 C32.5,-5.40625 32.2031,-6.79688 31.5,-8.09375"/>
<path class="Note" transform="matrix(0.694488,0,0,0.694488,790.438,186.024)" d="M31.5,-8.09375 C29.7031,-11.4063 25.9063,-13.2031 21.2969,-13.2031 C17.9063,-13.2031 14.2031,-12.2031 10.5938,-10.2969 C4,-6.79688 0,-0.90625 0,4.20313 C0,5.59375 0.296875,7 1,8.29688 C2.79688,11.5938 6.59375,13.2969 11.2031,13.2969 C14.5938,13.2969 18.2969,12.4063 21.9063,10.5 C28.5,7 32.5,1.09375 32.5,-4 C32.5,-5.40625 32.2031,-6.79688 31.5,-8.09375"/>
<path class="Note" transform="matrix(0.992126,0,0,0.992126,906.196,186.024)" d="M31.5,-8.09375 C29.7031,-11.4063 25.9063,-13.2031 21.2969,-13.2031 C17.9063,-13.2031 14.2031,-12.2031 10.5938,-10.2969 C4,-6.79688 0,-0.90625 0,4.20313 C0,5.59375 0.296875,7 1,8.29688 C2.79688,11.5938 6.59375,13.2969 11.2031,13.2969 C14.5938,13.2969 18.2969,12.4063 21.9063,10.5 C28.5,7 32.5,1.09375 32.5,-4 C32.5,-5.40625 32.2031,-6.79688 31.5,-8.09375"/>
<path class="Note" transform="matrix(0.992126,0,0,0.992126,1000.43,186.024)" d="M31.5,-8.09375 C29.7031,-11.4063 25.9063,-13.2031 21.2969,-13.2031 C17.9063,-13.2031 14.2031,-12.2031 10.5938,-10.2969 C4,-6.79688 0,-0.90625 0,4.20313 C0,5.59375 0.296875,7 1,8.29688 C2.79688,11.5938 6.59375,13.2969 11.2031,13.2969 C14.5938,13.2969 18.2969,12.4063 21.9063,10.5 C28.5,7 32.5,1.09375 32.5,-4 C32.5,-5.40625 32.2031,-6.79688 31.5,-8.09375"/>
<path class="Note" transform="matrix(0.694488,0,0,0.694488,946.865,161.22)" d="M31.5,-8.09375 C29.7031,-11.4063 25.9063,-13.2031 21.2969,-13.2031 C17.9063,-13.2031 14.2031,-12.2031 10.5938,-10.2969 C4,-6.79688 0,-0.90625 0,4.20313 C0,5.59375 0.296875,7 1,8.29688 C2.79688,11.5938 6.59375,13.2969 11.2031,13.2969 C14.5938,13.2969 18.2969,12.4063 21.9063,10.5 C28.5,7 32.5,1.09375 32.5,-4 C32.5,-5.40625 32.2031,-6.79688 31.5,-8.09375"/>
<path class="Note" transform="matrix(0.694488,0,0,0.694488,972.903,161.22)" d="M31.5,-8.09375 C29.7031,-11.4063 25.9063,-13.2031 21.2969,-13.2031 C17.9063,-13.2031 14.2031,-12.2031 10.5938,-10.2969 C4,-6.79688 0,-0.90625 0,4.20313 C0,5.59375 0.296875,7 1,8.29688 C2.79688,11.5938 6.59375,13.2969 11.2031,13.2969 C14.5938,13.2969 18.2969,12.4063 21.9063,10.5 C28.5,7 32.5,1.09375 32.5,-4 C32.5,-5.40625 32.2031,-6.79688 31.5,-8.09375"/>
<path class="Note" transform="matrix(0.992126,0,0,0.992126,1094.66,186.024)" d="M31.5,-8.09375 C29.7031,-11.4063 25.9063,-13.2031 21.2969,-13.2031 C17.9063,-13.2031 14.2031,-12.2031 10.5938,-10.2969 C4,-6.79688 0,-0.90625 0,4.20313 C0,5.59375 0.296875,7 1,8.29688 C2.79688,11.5938 6.59375,13.2969 11.2031,13.2969 C14.5938,13.2969 18.2969,12.4063 21.9063,10.5 C28.5,7 32.5,1.09375 32.5,-4 C32.5,-5.40625 32.2031,-6.79688 31.5,-8.09375"/>
<path class="Note" transform="matrix(0.694488,0,0,0.694488,1041.1,161.22)" d="M31.5,-8.09375 C29.7031,-11.4063 25.9063,-13.2031 21.2969,-13.2031 C17.9063,-13.2031 14.2031,-12.2031 10.5938,-10.2969 C4,-6.79688 0,-0.90625 0,4.20313 C0,5.59375 0.296875,7 1,8.29688 C2.79688,11.5938 6.59375,13.2969 11.2031,13.2969 C14.5938,13.2969 18.2969,12.4063 21.9063,10.5 C28.5,7 32.5,1.09375 32.5,-4 C32.5,-5.40625 32.2031,-6.79688 31.5,-8.09375"/>
<path class="Note" transform="matrix(0.694488,0,0,0.694488,1067.14,161.22)" d="M31.5,-8.09375 C29.7031,-11.4063 25.9063,-13.2031 21.2969,-13.2031 C17.9063,-13.2031 14.2031,-12.2031 10.5938,-10.2969 C4,-6.79688 0,-0.90625 0,4.20313 C0,5.59375 0.296875,7 1,8.29688 C2.79688,11.5938 6.59375,13.2969 11.2031,13.2969 C14.5938,13.2969 18.2969,12.4063 21.9063,10.5 C28.5,7 32.5,1.09375 32.5,-4 C32.5,-5.40625 32.2031,-6.79688 31.5,-8.09375"/>
<path class="Note" transform="matrix(0.992126,0,0,0.992126,1182.89,161.22)" d="M31.5,-8.09375 C29.7031,-11.4063 25.9063,-13.2031 21.2969,-13.2031 C17.9063,-13.2031 14.2031,-12.2031 10.5938,-10.2969 C4,-6.79688 0,-0.90625 0,4.20313 C0,5.59375 0.296875,7 1,8.29688 C2.79688,11.5938 6.59375,13.2969 11.2031,13.2969 C14.5938,13.2969 18.2969,12.4063 21.9063,10.5 C28.5,7 32.5,1.09375 32.5,-4 C32.5,-5.40625 32.2031,-6.79688 31.5,-8.09375"/>
<path class="Clef" transform="matrix(0.992126,0,0,0.992126,19.8425,173.622)" d="M12.2969,-25.2031 L1.29688,-25.2031 C0.59375,-25.2031 0,-24.5938 0,-23.9063 L0,23.9063 C0,24.5938 0.59375,25.2031 1.29688,25.2031 L12.2969,25.2031 C13,25.2031 13.5938,24.5938 13.5938,23.9063 L13.5938,-23.9063 C13.5938,-24.5938 13,-25.2031 12.2969,-25.2031 M33.9063,-25.2031 L22.9063,-25.2031 C22.2031,-25.2031 21.5938,-24.5938 21.5938,-23.9063 L21.5938,23.9063 C21.5938,24.5938 22.2031,25.2031 22.9063,25.2031 L33.9063,25.2031 C34.6094,25.2031 35.2031,24.5938 35.2031,23.9063 L35.2031,-23.9063 C35.2031,-24.5938 34.6094,-25.2031 33.9063,-25.2031"/>
<path class="Articulation" transform="matrix(0.992126,0,0,0.992126,351.011,212.191)" d="M35.1094,10.4063 L1.79688,0.09375 C1.70313,0.09375 1.5,0 1.40625,0 C0.59375,0 0,0.59375 0,1.40625 L0,3.70313 C0,4.29688 0.5,4.79688 1,5 L22.4063,11.7031 L1,18.5 C0.5,18.7031 0,19.2031 0,19.7969 L0,22.0938 C0,22.9063 0.59375,23.5 1.40625,23.5 C1.5,23.5 1.70313,23.4063 1.79688,23.4063 L35.1094,13.0938 C35.6094,12.9063 36.1094,12.2969 36.1094,11.7031 C36.1094,11.0938 35.6094,10.5938 35.1094,10.4063"/>
<path class="Articulation" transform="matrix(0.992126,0,0,0.992126,627.71,212.191)" d="M35.1094,10.4063 L1.79688,0.09375 C1.70313,0.09375 1.5,0 1.40625,0 C0.59375,0 0,0.59375 0,1.40625 L0,3.70313 C0,4.29688 0.5,4.79688 1,5 L22.4063,11.7031 L1,18.5 C0.5,18.7031 0,19.2031 0,19.7969 L0,22.0938 C0,22.9063 0.59375,23.5 1.40625,23.5 C1.5,23.5 1.70313,23.4063 1.79688,23.4063 L35.1094,13.0938 C35.6094,12.9063 36.1094,12.2969 36.1094,11.7031 C36.1094,11.0938 35.6094,10.5938 35.1094,10.4063"/>
<path class="Articulation" transform="matrix(0.992126,0,0,0.992126,904.409,212.191)" d="M35.1094,10.4063 L1.79688,0.09375 C1.70313,0.09375 1.5,0 1.40625,0 C0.59375,0 0,0.59375 0,1.40625 L0,3.70313 C0,4.29688 0.5,4.79688 1,5 L22.4063,11.7031 L1,18.5 C0.5,18.7031 0,19.2031 0,19.7969 L0,22.0938 C0,22.9063 0.59375,23.5 1.40625,23.5 C1.5,23.5 1.70313,23.4063 1.79688,23.4063 L35.1094,13.0938 C35.6094,12.9063 36.1094,12.2969 36.1094,11.7031 C36.1094,11.0938 35.6094,10.5938 35.1094,10.4063"/>
<path class="Articulation" transform="matrix(0.992126,0,0,0.992126,1181.11,212.191)" d="M35.1094,10.4063 L1.79688,0.09375 C1.70313,0.09375 1.5,0 1.40625,0 C0.59375,0 0,0.59375 0,1.40625 L0,3.70313 C0,4.29688 0.5,4.79688 1,5 L22.4063,11.7031 L1,18.5 C0.5,18.7031 0,19.2031 0,19.7969 L0,22.0938 C0,22.9063 0.59375,23.5 1.40625,23.5 C1.5,23.5 1.70313,23.4063 1.79688,23.4063 L35.1094,13.0938 C35.6094,12.9063 36.1094,12.2969 36.1094,11.7031 C36.1094,11.0938 35.6094,10.5938 35.1094,10.4063"/>
<path class="Beam" fill-rule="evenodd" d="M137.424,132.077 L165.372,132.077 L165.372,140.758 L137.424,140.758 L137.424,132.077 "/>
<path class="Beam" fill-rule="evenodd" d="M137.424,145.098 L165.372,145.098 L165.372,153.78 L137.424,153.78 L137.424,145.098 "/>
<path class="Beam" fill-rule="evenodd" d="M199.841,86.811 L385.034,86.811 L385.034,99.2126 L199.841,99.2126 L199.841,86.811 "/>
<path class="Beam" fill-rule="evenodd" d="M231.658,132.077 L259.605,132.077 L259.605,140.758 L231.658,140.758 L231.658,132.077 "/>
<path class="Beam" fill-rule="evenodd" d="M231.658,145.098 L259.605,145.098 L259.605,153.78 L231.658,153.78 L231.658,145.098 "/>
<path class="Beam" fill-rule="evenodd" d="M414.123,112.234 L442.071,112.234 L442.071,120.915 L414.123,120.915 L414.123,112.234 "/>
<path class="Beam" fill-rule="evenodd" d="M414.123,125.256 L442.071,125.256 L442.071,133.937 L414.123,133.937 L414.123,125.256 "/>
<path class="Beam" fill-rule="evenodd" d="M476.539,93.0118 L661.733,93.0118 L661.733,105.413 L476.539,105.413 L476.539,93.0118 "/>
<path class="Beam" fill-rule="evenodd" d="M508.356,112.234 L536.304,112.234 L536.304,120.915 L508.356,120.915 L508.356,112.234 "/>
<path class="Beam" fill-rule="evenodd" d="M508.356,125.256 L536.304,125.256 L536.304,133.937 L508.356,133.937 L508.356,125.256 "/>
<path class="Beam" fill-rule="evenodd" d="M690.822,132.077 L718.77,132.077 L718.77,140.758 L690.822,140.758 L690.822,132.077 "/>
<path class="Beam" fill-rule="evenodd" d="M690.822,145.098 L718.77,145.098 L718.77,153.78 L690.822,153.78 L690.822,145.098 "/>
<path class="Beam" fill-rule="evenodd" d="M753.238,86.811 L938.432,86.811 L938.432,99.2126 L753.238,99.2126 L753.238,86.811 "/>
<path class="Beam" fill-rule="evenodd" d="M785.055,132.077 L813.003,132.077 L813.003,140.758 L785.055,140.758 L785.055,132.077 "/>
<path class="Beam" fill-rule="evenodd" d="M785.055,145.098 L813.003,145.098 L813.003,153.78 L785.055,153.78 L785.055,145.098 "/>
<path class="Beam" fill-rule="evenodd" d="M967.521,112.234 L995.469,112.234 L995.469,120.915 L967.521,120.915 L967.521,112.234 "/>
<path class="Beam" fill-rule="evenodd" d="M967.521,125.256 L995.469,125.256 L995.469,133.937 L967.521,133.937 L967.521,125.256 "/>
<path class="Beam" fill-rule="evenodd" d="M1029.94,93.0118 L1215.13,93.0118 L1215.13,105.413 L1029.94,105.413 L1029.94,93.0118 "/>
<path class="Beam" fill-rule="evenodd" d="M1061.75,112.234 L1089.7,112.234 L1089.7,120.915 L1061.75,120.915 L1061.75,112.234 "/>
<path class="Beam" fill-rule="evenodd" d="M1061.75,125.256 L1089.7,125.256 L1089.7,133.937 L1061.75,133.937 L1061.75,125.256 "/>
<path class="Tuplet" d="M295.37,53.5679 C297.495,52.896 298.339,52.521 299.417,51.8023 C301.542,50.4117 302.839,47.9429 302.839,45.4117 C302.839,41.146 299.417,38.271 294.386,38.271 C289.48,38.271 285.339,41.3179 285.339,45.021 C285.339,46.8648 286.464,48.1148 288.167,48.1148 C289.651,48.1148 290.745,47.0367 290.745,45.5523 C290.745,44.7867 290.511,44.2554 289.792,43.5367 C289.339,43.1304 289.167,42.8023 289.167,42.4898 C289.167,41.4117 291.417,40.2867 293.526,40.2867 C296.542,40.2867 298.339,41.9585 298.339,44.7398 C298.339,48.7554 295.511,52.521 292.495,52.521 C292.355,52.521 291.948,52.4898 291.464,52.4429 C290.151,52.3492 290.151,52.3492 289.886,52.3492 C288.886,52.3492 288.355,52.8023 288.355,53.6148 C288.355,54.3335 288.855,54.771 289.651,54.771 C289.886,54.771 290.198,54.7398 290.558,54.6929 C291.183,54.5523 291.87,54.5054 292.261,54.5054 C294.386,54.5054 295.823,56.396 295.823,59.1929 C295.823,61.3492 295.323,63.4117 294.339,65.1304 C292.995,67.5523 290.917,68.7242 287.995,68.7242 C285.48,68.7242 283.308,67.4742 283.308,66.021 C283.308,65.5367 283.495,65.3492 284.214,65.0367 C285.511,64.4585 286.058,63.646 286.058,62.4273 C286.058,60.8492 284.792,59.646 283.183,59.646 C281.245,59.646 279.98,61.1617 279.98,63.5054 C279.98,67.8804 283.308,70.6148 288.714,70.6148 C295.511,70.6148 300.683,66.0679 300.683,60.0367 C300.683,58.4273 300.183,57.021 299.245,55.896 C298.245,54.7398 297.355,54.1929 295.37,53.5679"/>
<path class="Tuplet" d="M572.069,59.7687 C574.194,59.0968 575.038,58.7218 576.116,58.0031 C578.241,56.6125 579.538,54.1437 579.538,51.6125 C579.538,47.3468 576.116,44.4718 571.085,44.4718 C566.178,44.4718 562.038,47.5187 562.038,51.2218 C562.038,53.0656 563.163,54.3156 564.866,54.3156 C566.35,54.3156 567.444,53.2375 567.444,51.7531 C567.444,50.9875 567.21,50.4562 566.491,49.7375 C566.038,49.3312 565.866,49.0031 565.866,48.6906 C565.866,47.6125 568.116,46.4875 570.225,46.4875 C573.241,46.4875 575.038,48.1593 575.038,50.9406 C575.038,54.9562 572.21,58.7218 569.194,58.7218 C569.053,58.7218 568.647,58.6906 568.163,58.6437 C566.85,58.55 566.85,58.55 566.585,58.55 C565.585,58.55 565.053,59.0031 565.053,59.8156 C565.053,60.5343 565.553,60.9718 566.35,60.9718 C566.585,60.9718 566.897,60.9406 567.257,60.8937 C567.882,60.7531 568.569,60.7062 568.96,60.7062 C571.085,60.7062 572.522,62.5968 572.522,65.3937 C572.522,67.55 572.022,69.6125 571.038,71.3312 C569.694,73.7531 567.616,74.925 564.694,74.925 C562.178,74.925 560.007,73.675 560.007,72.2218 C560.007,71.7375 560.194,71.55 560.913,71.2375 C562.21,70.6593 562.757,69.8468 562.757,68.6281 C562.757,67.05 561.491,65.8468 559.882,65.8468 C557.944,65.8468 556.678,67.3625 556.678,69.7062 C556.678,74.0812 560.007,76.8156 565.413,76.8156 C572.21,76.8156 577.382,72.2687 577.382,66.2375 C577.382,64.6281 576.882,63.2218 575.944,62.0968 C574.944,60.9406 574.053,60.3937 572.069,59.7687"/>
<path class="Tuplet" d="M848.768,53.5679 C850.893,52.896 851.737,52.521 852.815,51.8023 C854.94,50.4117 856.237,47.9429 856.237,45.4117 C856.237,41.146 852.815,38.271 847.784,38.271 C842.877,38.271 838.737,41.3179 838.737,45.021 C838.737,46.8648 839.862,48.1148 841.565,48.1148 C843.049,48.1148 844.143,47.0367 844.143,45.5523 C844.143,44.7867 843.909,44.2554 843.19,43.5367 C842.737,43.1304 842.565,42.8023 842.565,42.4898 C842.565,41.4117 844.815,40.2867 846.924,40.2867 C849.94,40.2867 851.737,41.9585 851.737,44.7398 C851.737,48.7554 848.909,52.521 845.893,52.521 C845.752,52.521 845.346,52.4898 844.862,52.4429 C843.549,52.3492 843.549,52.3492 843.284,52.3492 C842.284,52.3492 841.752,52.8023 841.752,53.6148 C841.752,54.3335 842.252,54.771 843.049,54.771 C843.284,54.771 843.596,54.7398 843.956,54.6929 C844.581,54.5523 845.268,54.5054 845.659,54.5054 C847.784,54.5054 849.221,56.396 849.221,59.1929 C849.221,61.3492 848.721,63.4117 847.737,65.1304 C846.393,67.5523 844.315,68.7242 841.393,68.7242 C838.877,68.7242 836.706,67.4742 836.706,66.021 C836.706,65.5367 836.893,65.3492 837.612,65.0367 C838.909,64.4585 839.456,63.646 839.456,62.4273 C839.456,60.8492 838.19,59.646 836.581,59.646 C834.643,59.646 833.377,61.1617 833.377,63.5054 C833.377,67.8804 836.706,70.6148 842.112,70.6148 C848.909,70.6148 854.081,66.0679 854.081,60.0367 C854.081,58.4273 853.581,57.021 852.643,55.896 C851.643,54.7398 850.752,54.1929 848.768,53.5679"/>
<path class="Tuplet" d="M1125.47,59.7687 C1127.59,59.0968 1128.44,58.7218 1129.51,58.0031 C1131.64,56.6125 1132.94,54.1437 1132.94,51.6125 C1132.94,47.3468 1129.51,44.4718 1124.48,44.4718 C1119.58,44.4718 1115.44,47.5187 1115.44,51.2218 C1115.44,53.0656 1116.56,54.3156 1118.26,54.3156 C1119.75,54.3156 1120.84,53.2375 1120.84,51.7531 C1120.84,50.9875 1120.61,50.4562 1119.89,49.7375 C1119.44,49.3312 1119.26,49.0031 1119.26,48.6906 C1119.26,47.6125 1121.51,46.4875 1123.62,46.4875 C1126.64,46.4875 1128.44,48.1593 1128.44,50.9406 C1128.44,54.9562 1125.61,58.7218 1122.59,58.7218 C1122.45,58.7218 1122.05,58.6906 1121.56,58.6437 C1120.25,58.55 1120.25,58.55 1119.98,58.55 C1118.98,58.55 1118.45,59.0031 1118.45,59.8156 C1118.45,60.5343 1118.95,60.9718 1119.75,60.9718 C1119.98,60.9718 1120.3,60.9406 1120.65,60.8937 C1121.28,60.7531 1121.97,60.7062 1122.36,60.7062 C1124.48,60.7062 1125.92,62.5968 1125.92,65.3937 C1125.92,67.55 1125.42,69.6125 1124.44,71.3312 C1123.09,73.7531 1121.01,74.925 1118.09,74.925 C1115.58,74.925 1113.4,73.675 1113.4,72.2218 C1113.4,71.7375 1113.59,71.55 1114.31,71.2375 C1115.61,70.6593 1116.15,69.8468 1116.15,68.6281 C1116.15,67.05 1114.89,65.8468 1113.28,65.8468 C1111.34,65.8468 1110.08,67.3625 1110.08,69.7062 C1110.08,74.0812 1113.4,76.8156 1118.81,76.8156 C1125.61,76.8156 1130.78,72.2687 1130.78,66.2375 C1130.78,64.6281 1130.28,63.2218 1129.34,62.0968 C1128.34,60.9406 1127.45,60.3937 1125.47,59.7687"/>
</svg>
