<?xml version="1.0" encoding="UTF-8" standalone="no"?>
<svg width="1275.59px" height="283.465px" viewBox="0 0 1275.59 283.465"
 xmlns="http://www.w3.org/2000/svg" xmlns:xlink="http://www.w3.org/1999/xlink" version="1.2" baseProfile="tiny">
<title>drum_rudiments (40)</title>
<desc>Generated by MuseScore 3.6.2</desc>
<polyline class="StaffLines" fill="none" stroke="#000000" stroke-width="2.73" stroke-linejoin="bevel" points="0,173.622 1275.59,173.622"/>
<path class="MeasureNumber" d="M21.4844,46.0969 L19.3125,46.0969 L0.6875,65.3782 L0.6875,67.0501 L11.9531,67.0501 L11.3125,69.4876 C10.7969,71.4876 10.7656,71.6126 10.3906,71.9719 C10,72.3626 9.15625,72.5344 7.03125,72.5344 L6.3125,72.5344 L6.07813,74.4094 L18.5156,74.4094 L18.7188,72.5344 L18,72.5344 C15.3594,72.5344 14.7969,72.3313 14.7969,71.4563 C14.7969,71.1282 14.875,70.7376 15.2031,69.4876 L15.875,67.0501 L20.4375,67.0501 L21.0313,64.8938 L16.4375,64.8938 L21.4844,46.0969 M12.5625,64.8938 L3.59375,64.8938 L15.9531,52.1751 L12.5625,64.8938 M37.2656,46.2532 C34.625,46.2532 32.1563,47.4563 29.9531,49.7688 C26.6406,53.3782 24.3906,59.5344 24.3906,65.1282 C24.3906,70.9251 27.2813,75.0032 31.3594,75.0032 C38.1875,75.0032 44.3125,66.1282 44.3125,56.2063 C44.3125,50.2532 41.4688,46.2532 37.2656,46.2532 M37.2344,47.8469 C39.3125,47.8469 40.4375,49.6907 40.4375,53.1282 C40.4375,57.0501 39.4375,62.1282 37.7969,66.2532 C35.875,71.2532 33.9531,73.4094 31.5469,73.4094 C29.3906,73.4094 28.1875,71.4876 28.1875,68.0969 C28.1875,62.8938 30.0313,55.9251 32.5938,51.3001 C33.8281,49.0501 35.4375,47.8469 37.2344,47.8469"/>
<path class="SlurSegment" stroke="#000000" stroke-width="1.74" stroke-linecap="round" stroke-linejoin="round" fill-rule="evenodd" d="M154.089,208.346 C165.706,210.098 185.123,195.216 186.451,183.543 C187.235,197.972 167.818,212.854 154.089,208.346"/>
<path class="SlurSegment" stroke="#000000" stroke-width="1.74" stroke-linecap="round" stroke-linejoin="round" fill-rule="evenodd" d="M272.965,208.346 C284.582,210.098 303.999,195.216 305.327,183.543 C306.111,197.972 286.694,212.854 272.965,208.346"/>
<path class="SlurSegment" stroke="#000000" stroke-width="1.74" stroke-linecap="round" stroke-linejoin="round" fill-rule="evenodd" d="M391.841,208.346 C403.458,210.098 422.875,195.216 424.202,183.543 C424.987,197.972 405.57,212.854 391.841,208.346"/>
<path class="SlurSegment" stroke="#000000" stroke-width="1.74" stroke-linecap="round" stroke-linejoin="round" fill-rule="evenodd" d="M693.511,183.543 C694.839,195.216 714.256,210.098 725.873,208.346 C712.143,212.854 692.726,197.972 693.511,183.543"/>
<path class="SlurSegment" stroke="#000000" stroke-width="1.74" stroke-linecap="round" stroke-linejoin="round" fill-rule="evenodd" d="M812.387,183.543 C813.715,195.216 833.131,210.098 844.748,208.346 C831.019,212.854 811.602,197.972 812.387,183.543"/>
<path class="SlurSegment" stroke="#000000" stroke-width="1.74" stroke-linecap="round" stroke-linejoin="round" fill-rule="evenodd" d="M931.263,183.543 C932.59,195.216 952.007,210.098 963.624,208.346 C949.895,212.854 930.478,197.972 931.263,183.543"/>
<polyline class="BarLine" stroke="#000000" stroke-width="4.46" stroke-linejoin="bevel" points="1251.41,122.652 1251.41,224.593"/>
<polyline class="BarLine" stroke="#000000" stroke-width="13.64" stroke-linejoin="bevel" points="1268.77,122.652 1268.77,224.593"/>
<polyline class="Stem" stroke="#000000" stroke-width="2.73" stroke-linejoin="bevel" points="201.205,158.046 201.205,93.0118"/>
<polyline class="Stem" stroke="#000000" stroke-width="1.91" stroke-linejoin="bevel" points="138.379,183.801 138.379,124.016"/>
<polyline class="Stem" stroke="#000000" stroke-width="1.91" stroke-linejoin="bevel" points="164.417,183.801 164.417,124.016"/>
<polyline class="Stem" stroke="#000000" stroke-width="2.73" stroke-linejoin="bevel" points="320.081,158.046 320.081,93.0118"/>
<polyline class="Stem" stroke="#000000" stroke-width="1.91" stroke-linejoin="bevel" points="257.255,183.801 257.255,130.217"/>
<polyline class="Stem" stroke="#000000" stroke-width="1.91" stroke-linejoin="bevel" points="283.293,183.801 283.293,130.217"/>
<polyline class="Stem" stroke="#000000" stroke-width="2.73" stroke-linejoin="bevel" points="438.956,158.046 438.956,80.6102"/>
<polyline class="Stem" stroke="#000000" stroke-width="1.91" stroke-linejoin="bevel" points="376.131,183.801 376.131,124.016"/>
<polyline class="Stem" stroke="#000000" stroke-width="1.91" stroke-linejoin="bevel" points="402.169,183.801 402.169,124.016"/>
<polyline class="Stem" stroke="#000000" stroke-width="2.73" stroke-linejoin="bevel" points="499.888,182.849 499.888,80.6102"/>
<polyline class="Stem" stroke="#000000" stroke-width="2.73" stroke-linejoin="bevel" points="560.819,158.046 560.819,80.6102"/>
<polyline class="Stem" stroke="#000000" stroke-width="2.73" stroke-linejoin="bevel" points="621.751,182.849 621.751,80.6102"/>
<polyline class="Stem" stroke="#000000" stroke-width="2.73" stroke-linejoin="bevel" points="740.627,182.849 740.627,93.0118"/>
<polyline class="Stem" stroke="#000000" stroke-width="1.91" stroke-linejoin="bevel" points="677.801,158.998 677.801,99.2126"/>
<polyline class="Stem" stroke="#000000" stroke-width="1.91" stroke-linejoin="bevel" points="703.839,158.998 703.839,99.2126"/>
<polyline class="Stem" stroke="#000000" stroke-width="2.73" stroke-linejoin="bevel" points="859.502,182.849 859.502,93.0118"/>
<polyline class="Stem" stroke="#000000" stroke-width="1.91" stroke-linejoin="bevel" points="796.677,158.998 796.677,105.413"/>
<polyline class="Stem" stroke="#000000" stroke-width="1.91" stroke-linejoin="bevel" points="822.715,158.998 822.715,105.413"/>
<polyline class="Stem" stroke="#000000" stroke-width="2.73" stroke-linejoin="bevel" points="978.378,182.849 978.378,80.6102"/>
<polyline class="Stem" stroke="#000000" stroke-width="1.91" stroke-linejoin="bevel" points="915.553,158.998 915.553,99.2126"/>
<polyline class="Stem" stroke="#000000" stroke-width="1.91" stroke-linejoin="bevel" points="941.591,158.998 941.591,99.2126"/>
<polyline class="Stem" stroke="#000000" stroke-width="2.73" stroke-linejoin="bevel" points="1039.31,158.046 1039.31,80.6102"/>
<polyline class="Stem" stroke="#000000" stroke-width="2.73" stroke-linejoin="bevel" points="1100.24,182.849 1100.24,80.6102"/>
<polyline class="Stem" stroke="#000000" stroke-width="2.73" stroke-linejoin="bevel" points="1161.17,158.046 1161.17,80.6102"/>
<path class="Note" transform="matrix(0.992126,0,0,0.992126,170.333,161.22)" d="M31.5,-8.09375 C29.7031,-11.4063 25.9063,-13.2031 21.2969,-13.2031 C17.9063,-13.2031 14.2031,-12.2031 10.5938,-10.2969 C4,-6.79688 0,-0.90625 0,4.20313 C0,5.59375 0.296875,7 1,8.29688 C2.79688,11.5938 6.59375,13.2969 11.2031,13.2969 C14.5938,13.2969 18.2969,12.4063 21.9063,10.5 C28.5,7 32.5,1.09375 32.5,-4 C32.5,-5.40625 32.2031,-6.79688 31.5,-8.09375"/>
<path class="Note" transform="matrix(0.694488,0,0,0.694488,116.769,186.024)" d="M31.5,-8.09375 C29.7031,-11.4063 25.9063,-13.2031 21.2969,-13.2031 C17.9063,-13.2031 14.2031,-12.2031 10.5938,-10.2969 C4,-6.79688 0,-0.90625 0,4.20313 C0,5.59375 0.296875,7 1,8.29688 C2.79688,11.5938 6.59375,13.2969 11.2031,13.2969 C14.5938,13.2969 18.2969,12.4063 21.9063,10.5 C28.5,7 32.5,1.09375 32.5,-4 C32.5,-5.40625 32.2031,-6.79688 31.5,-8.09375"/>
<path class="Note" transform="matrix(0.694488,0,0,0.694488,142.806,186.024)" d="M31.5,-8.09375 C29.7031,-11.4063 25.9063,-13.2031 21.2969,-13.2031 C17.9063,-13.2031 14.2031,-12.2031 10.5938,-10.2969 C4,-6.79688 0,-0.90625 0,4.20313 C0,5.59375 0.296875,7 1,8.29688 C2.79688,11.5938 6.59375,13.2969 11.2031,13.2969 C14.5938,13.2969 18.2969,12.4063 21.9063,10.5 C28.5,7 32.5,1.09375 32.5,-4 C32.5,-5.40625 32.2031,-6.79688 31.5,-8.09375"/>
<path class="Note" transform="matrix(0.992126,0,0,0.992126,289.208,161.22)" d="M31.5,-8.09375 C29.7031,-11.4063 25.9063,-13.2031 21.2969,-13.2031 C17.9063,-13.2031 14.2031,-12.2031 10.5938,-10.2969 C4,-6.79688 0,-0.90625 0,4.20313 C0,5.59375 0.296875,7 1,8.29688 C2.79688,11.5938 6.59375,13.2969 11.2031,13.2969 C14.5938,13.2969 18.2969,12.4063 21.9063,10.5 C28.5,7 32.5,1.09375 32.5,-4 C32.5,-5.40625 32.2031,-6.79688 31.5,-8.09375"/>
<path class="Note" transform="matrix(0.694488,0,0,0.694488,235.644,186.024)" d="M31.5,-8.09375 C29.7031,-11.4063 25.9063,-13.2031 21.2969,-13.2031 C17.9063,-13.2031 14.2031,-12.2031 10.5938,-10.2969 C4,-6.79688 0,-0.90625 0,4.20313 C0,5.59375 0.296875,7 1,8.29688 C2.79688,11.5938 6.59375,13.2969 11.2031,13.2969 C14.5938,13.2969 18.2969,12.4063 21.9063,10.5 C28.5,7 32.5,1.09375 32.5,-4 C32.5,-5.40625 32.2031,-6.79688 31.5,-8.09375"/>
<path class="Note" transform="matrix(0.694488,0,0,0.694488,261.682,186.024)" d="M31.5,-8.09375 C29.7031,-11.4063 25.9063,-13.2031 21.2969,-13.2031 C17.9063,-13.2031 14.2031,-12.2031 10.5938,-10.2969 C4,-6.79688 0,-0.90625 0,4.20313 C0,5.59375 0.296875,7 1,8.29688 C2.79688,11.5938 6.59375,13.2969 11.2031,13.2969 C14.5938,13.2969 18.2969,12.4063 21.9063,10.5 C28.5,7 32.5,1.09375 32.5,-4 C32.5,-5.40625 32.2031,-6.79688 31.5,-8.09375"/>
<path class="Note" transform="matrix(0.992126,0,0,0.992126,408.084,161.22)" d="M31.5,-8.09375 C29.7031,-11.4063 25.9063,-13.2031 21.2969,-13.2031 C17.9063,-13.2031 14.2031,-12.2031 10.5938,-10.2969 C4,-6.79688 0,-0.90625 0,4.20313 C0,5.59375 0.296875,7 1,8.29688 C2.79688,11.5938 6.59375,13.2969 11.2031,13.2969 C14.5938,13.2969 18.2969,12.4063 21.9063,10.5 C28.5,7 32.5,1.09375 32.5,-4 C32.5,-5.40625 32.2031,-6.79688 31.5,-8.09375"/>
<path class="Note" transform="matrix(0.694488,0,0,0.694488,354.52,186.024)" d="M31.5,-8.09375 C29.7031,-11.4063 25.9063,-13.2031 21.2969,-13.2031 C17.9063,-13.2031 14.2031,-12.2031 10.5938,-10.2969 C4,-6.79688 0,-0.90625 0,4.20313 C0,5.59375 0.296875,7 1,8.29688 C2.79688,11.5938 6.59375,13.2969 11.2031,13.2969 C14.5938,13.2969 18.2969,12.4063 21.9063,10.5 C28.5,7 32.5,1.09375 32.5,-4 C32.5,-5.40625 32.2031,-6.79688 31.5,-8.09375"/>
<path class="Note" transform="matrix(0.694488,0,0,0.694488,380.558,186.024)" d="M31.5,-8.09375 C29.7031,-11.4063 25.9063,-13.2031 21.2969,-13.2031 C17.9063,-13.2031 14.2031,-12.2031 10.5938,-10.2969 C4,-6.79688 0,-0.90625 0,4.20313 C0,5.59375 0.296875,7 1,8.29688 C2.79688,11.5938 6.59375,13.2969 11.2031,13.2969 C14.5938,13.2969 18.2969,12.4063 21.9063,10.5 C28.5,7 32.5,1.09375 32.5,-4 C32.5,-5.40625 32.2031,-6.79688 31.5,-8.09375"/>
<path class="Note" transform="matrix(0.992126,0,0,0.992126,469.016,186.024)" d="M31.5,-8.09375 C29.7031,-11.4063 25.9063,-13.2031 21.2969,-13.2031 C17.9063,-13.2031 14.2031,-12.2031 10.5938,-10.2969 C4,-6.79688 0,-0.90625 0,4.20313 C0,5.59375 0.296875,7 1,8.29688 C2.79688,11.5938 6.59375,13.2969 11.2031,13.2969 C14.5938,13.2969 18.2969,12.4063 21.9063,10.5 C28.5,7 32.5,1.09375 32.5,-4 C32.5,-5.40625 32.2031,-6.79688 31.5,-8.09375"/>
<path class="Note" transform="matrix(0.992126,0,0,0.992126,529.947,161.22)" d="M31.5,-8.09375 C29.7031,-11.4063 25.9063,-13.2031 21.2969,-13.2031 C17.9063,-13.2031 14.2031,-12.2031 10.5938,-10.2969 C4,-6.79688 0,-0.90625 0,4.20313 C0,5.59375 0.296875,7 1,8.29688 C2.79688,11.5938 6.59375,13.2969 11.2031,13.2969 C14.5938,13.2969 18.2969,12.4063 21.9063,10.5 C28.5,7 32.5,1.09375 32.5,-4 C32.5,-5.40625 32.2031,-6.79688 31.5,-8.09375"/>
<path class="Note" transform="matrix(0.992126,0,0,0.992126,590.879,186.024)" d="M31.5,-8.09375 C29.7031,-11.4063 25.9063,-13.2031 21.2969,-13.2031 C17.9063,-13.2031 14.2031,-12.2031 10.5938,-10.2969 C4,-6.79688 0,-0.90625 0,4.20313 C0,5.59375 0.296875,7 1,8.29688 C2.79688,11.5938 6.59375,13.2969 11.2031,13.2969 C14.5938,13.2969 18.2969,12.4063 21.9063,10.5 C28.5,7 32.5,1.09375 32.5,-4 C32.5,-5.40625 32.2031,-6.79688 31.5,-8.09375"/>
<path class="Note" transform="matrix(0.992126,0,0,0.992126,709.754,186.024)" d="M31.5,-8.09375 C29.7031,-11.4063 25.9063,-13.2031 21.2969,-13.2031 C17.9063,-13.2031 14.2031,-12.2031 10.5938,-10.2969 C4,-6.79688 0,-0.90625 0,4.20313 C0,5.59375 0.296875,7 1,8.29688 C2.79688,11.5938 6.59375,13.2969 11.2031,13.2969 C14.5938,13.2969 18.2969,12.4063 21.9063,10.5 C28.5,7 32.5,1.09375 32.5,-4 C32.5,-5.40625 32.2031,-6.79688 31.5,-8.09375"/>
<path class="Note" transform="matrix(0.694488,0,0,0.694488,656.19,161.22)" d="M31.5,-8.09375 C29.7031,-11.4063 25.9063,-13.2031 21.2969,-13.2031 C17.9063,-13.2031 14.2031,-12.2031 10.5938,-10.2969 C4,-6.79688 0,-0.90625 0,4.20313 C0,5.59375 0.296875,7 1,8.29688 C2.79688,11.5938 6.59375,13.2969 11.2031,13.2969 C14.5938,13.2969 18.2969,12.4063 21.9063,10.5 C28.5,7 32.5,1.09375 32.5,-4 C32.5,-5.40625 32.2031,-6.79688 31.5,-8.09375"/>
<path class="Note" transform="matrix(0.694488,0,0,0.694488,682.228,161.22)" d="M31.5,-8.09375 C29.7031,-11.4063 25.9063,-13.2031 21.2969,-13.2031 C17.9063,-13.2031 14.2031,-12.2031 10.5938,-10.2969 C4,-6.79688 0,-0.90625 0,4.20313 C0,5.59375 0.296875,7 1,8.29688 C2.79688,11.5938 6.59375,13.2969 11.2031,13.2969 C14.5938,13.2969 18.2969,12.4063 21.9063,10.5 C28.5,7 32.5,1.09375 32.5,-4 C32.5,-5.40625 32.2031,-6.79688 31.5,-8.09375"/>
<path class="Note" transform="matrix(0.992126,0,0,0.992126,828.63,186.024)" d="M31.5,-8.09375 C29.7031,-11.4063 25.9063,-13.2031 21.2969,-13.2031 C17.9063,-13.2031 14.2031,-12.2031 10.5938,-10.2969 C4,-6.79688 0,-0.90625 0,4.20313 C0,5.59375 0.296875,7 1,8.29688 C2.79688,11.5938 6.59375,13.2969 11.2031,13.2969 C14.5938,13.2969 18.2969,12.4063 21.9063,10.5 C28.5,7 32.5,1.09375 32.5,-4 C32.5,-5.40625 32.2031,-6.79688 31.5,-8.09375"/>
<path class="Note" transform="matrix(0.694488,0,0,0.694488,775.066,161.22)" d="M31.5,-8.09375 C29.7031,-11.4063 25.9063,-13.2031 21.2969,-13.2031 C17.9063,-13.2031 14.2031,-12.2031 10.5938,-10.2969 C4,-6.79688 0,-0.90625 0,4.20313 C0,5.59375 0.296875,7 1,8.29688 C2.79688,11.5938 6.59375,13.2969 11.2031,13.2969 C14.5938,13.2969 18.2969,12.4063 21.9063,10.5 C28.5,7 32.5,1.09375 32.5,-4 C32.5,-5.40625 32.2031,-6.79688 31.5,-8.09375"/>
<path class="Note" transform="matrix(0.694488,0,0,0.694488,801.104,161.22)" d="M31.5,-8.09375 C29.7031,-11.4063 25.9063,-13.2031 21.2969,-13.2031 C17.9063,-13.2031 14.2031,-12.2031 10.5938,-10.2969 C4,-6.79688 0,-0.90625 0,4.20313 C0,5.59375 0.296875,7 1,8.29688 C2.79688,11.5938 6.59375,13.2969 11.2031,13.2969 C14.5938,13.2969 18.2969,12.4063 21.9063,10.5 C28.5,7 32.5,1.09375 32.5,-4 C32.5,-5.40625 32.2031,-6.79688 31.5,-8.09375"/>
<path class="Note" transform="matrix(0.992126,0,0,0.992126,947.506,186.024)" d="M31.5,-8.09375 C29.7031,-11.4063 25.9063,-13.2031 21.2969,-13.2031 C17.9063,-13.2031 14.2031,-12.2031 10.5938,-10.2969 C4,-6.79688 0,-0.90625 0,4.20313 C0,5.59375 0.296875,7 1,8.29688 C2.79688,11.5938 6.59375,13.2969 11.2031,13.2969 C14.5938,13.2969 18.2969,12.4063 21.9063,10.5 C28.5,7 32.5,1.09375 32.5,-4 C32.5,-5.40625 32.2031,-6.79688 31.5,-8.09375"/>
<path class="Note" transform="matrix(0.694488,0,0,0.694488,893.942,161.22)" d="M31.5,-8.09375 C29.7031,-11.4063 25.9063,-13.2031 21.2969,-13.2031 C17.9063,-13.2031 14.2031,-12.2031 10.5938,-10.2969 C4,-6.79688 0,-0.90625 0,4.20313 C0,5.59375 0.296875,7 1,8.29688 C2.79688,11.5938 6.59375,13.2969 11.2031,13.2969 C14.5938,13.2969 18.2969,12.4063 21.9063,10.5 C28.5,7 32.5,1.09375 32.5,-4 C32.5,-5.40625 32.2031,-6.79688 31.5,-8.09375"/>
<path class="Note" transform="matrix(0.694488,0,0,0.694488,919.98,161.22)" d="M31.5,-8.09375 C29.7031,-11.4063 25.9063,-13.2031 21.2969,-13.2031 C17.9063,-13.2031 14.2031,-12.2031 10.5938,-10.2969 C4,-6.79688 0,-0.90625 0,4.20313 C0,5.59375 0.296875,7 1,8.29688 C2.79688,11.5938 6.59375,13.2969 11.2031,13.2969 C14.5938,13.2969 18.2969,12.4063 21.9063,10.5 C28.5,7 32.5,1.09375 32.5,-4 C32.5,-5.40625 32.2031,-6.79688 31.5,-8.09375"/>
<path class="Note" transform="matrix(0.992126,0,0,0.992126,1008.44,161.22)" d="M31.5,-8.09375 C29.7031,-11.4063 25.9063,-13.2031 21.2969,-13.2031 C17.9063,-13.2031 14.2031,-12.2031 10.5938,-10.2969 C4,-6.79688 0,-0.90625 0,4.20313 C0,5.59375 0.296875,7 1,8.29688 C2.79688,11.5938 6.59375,13.2969 11.2031,13.2969 C14.5938,13.2969 18.2969,12.4063 21.9063,10.5 C28.5,7 32.5,1.09375 32.5,-4 C32.5,-5.40625 32.2031,-6.79688 31.5,-8.09375"/>
<path class="Note" transform="matrix(0.992126,0,0,0.992126,1069.37,186.024)" d="M31.5,-8.09375 C29.7031,-11.4063 25.9063,-13.2031 21.2969,-13.2031 C17.9063,-13.2031 14.2031,-12.2031 10.5938,-10.2969 C4,-6.79688 0,-0.90625 0,4.20313 C0,5.59375 0.296875,7 1,8.29688 C2.79688,11.5938 6.59375,13.2969 11.2031,13.2969 C14.5938,13.2969 18.2969,12.4063 21.9063,10.5 C28.5,7 32.5,1.09375 32.5,-4 C32.5,-5.40625 32.2031,-6.79688 31.5,-8.09375"/>
<path class="Note" transform="matrix(0.992126,0,0,0.992126,1130.3,161.22)" d="M31.5,-8.09375 C29.7031,-11.4063 25.9063,-13.2031 21.2969,-13.2031 C17.9063,-13.2031 14.2031,-12.2031 10.5938,-10.2969 C4,-6.79688 0,-0.90625 0,4.20313 C0,5.59375 0.296875,7 1,8.29688 C2.79688,11.5938 6.59375,13.2969 11.2031,13.2969 C14.5938,13.2969 18.2969,12.4063 21.9063,10.5 C28.5,7 32.5,1.09375 32.5,-4 C32.5,-5.40625 32.2031,-6.79688 31.5,-8.09375"/>
<path class="Clef" transform="matrix(0.992126,0,0,0.992126,19.8425,173.622)" d="M12.2969,-25.2031 L1.29688,-25.2031 C0.59375,-25.2031 0,-24.5938 0,-23.9063 L0,23.9063 C0,24.5938 0.59375,25.2031 1.29688,25.2031 L12.2969,25.2031 C13,25.2031 13.5938,24.5938 13.5938,23.9063 L13.5938,-23.9063 C13.5938,-24.5938 13,-25.2031 12.2969,-25.2031 M33.9063,-25.2031 L22.9063,-25.2031 C22.2031,-25.2031 21.5938,-24.5938 21.5938,-23.9063 L21.5938,23.9063 C21.5938,24.5938 22.2031,25.2031 22.9063,25.2031 L33.9063,25.2031 C34.6094,25.2031 35.2031,24.5938 35.2031,23.9063 L35.2031,-23.9063 C35.2031,-24.5938 34.6094,-25.2031 33.9063,-25.2031"/>
<path class="Articulation" transform="matrix(0.992126,0,0,0.992126,589.092,212.191)" d="M35.1094,10.4063 L1.79688,0.09375 C1.70313,0.09375 1.5,0 1.40625,0 C0.59375,0 0,0.59375 0,1.40625 L0,3.70313 C0,4.29688 0.5,4.79688 1,5 L22.4063,11.7031 L1,18.5 C0.5,18.7031 0,19.2031 0,19.7969 L0,22.0938 C0,22.9063 0.59375,23.5 1.40625,23.5 C1.5,23.5 1.70313,23.4063 1.79688,23.4063 L35.1094,13.0938 C35.6094,12.9063 36.1094,12.2969 36.1094,11.7031 C36.1094,11.0938 35.6094,10.5938 35.1094,10.4063"/>
<path class="Articulation" transform="matrix(0.992126,0,0,0.992126,1128.51,212.191)" d="M35.1094,10.4063 L1.79688,0.09375 C1.70313,0.09375 1.5,0 1.40625,0 C0.59375,0 0,0.59375 0,1.40625 L0,3.70313 C0,4.29688 0.5,4.79688 1,5 L22.4063,11.7031 L1,18.5 C0.5,18.7031 0,19.2031 0,19.7969 L0,22.0938 C0,22.9063 0.59375,23.5 1.40625,23.5 C1.5,23.5 1.70313,23.4063 1.79688,23.4063 L35.1094,13.0938 C35.6094,12.9063 36.1094,12.2969 36.1094,11.7031 C36.1094,11.0938 35.6094,10.5938 35.1094,10.4063"/>
<path class="Beam" fill-rule="evenodd" d="M137.424,119.675 L165.372,119.675 L165.372,128.356 L137.424,128.356 L137.424,119.675 "/>
<path class="Beam" fill-rule="evenodd" d="M137.424,132.697 L165.372,132.697 L165.372,141.378 L137.424,141.378 L137.424,132.697 "/>
<path class="Beam" fill-rule="evenodd" d="M199.841,86.811 L321.445,86.811 L321.445,99.2126 L199.841,99.2126 L199.841,86.811 "/>
<path class="Beam" fill-rule="evenodd" d="M256.3,125.876 L284.248,125.876 L284.248,134.557 L256.3,134.557 L256.3,125.876 "/>
<path class="Beam" fill-rule="evenodd" d="M256.3,138.898 L284.248,138.898 L284.248,147.579 L256.3,147.579 L256.3,138.898 "/>
<path class="Beam" fill-rule="evenodd" d="M375.176,119.675 L403.124,119.675 L403.124,128.356 L375.176,128.356 L375.176,119.675 "/>
<path class="Beam" fill-rule="evenodd" d="M375.176,132.697 L403.124,132.697 L403.124,141.378 L375.176,141.378 L375.176,132.697 "/>
<path class="Beam" fill-rule="evenodd" d="M437.592,74.4094 L623.115,74.4094 L623.115,86.811 L437.592,86.811 L437.592,74.4094 "/>
<path class="Beam" fill-rule="evenodd" d="M437.592,93.0118 L562.183,93.0118 L562.183,105.413 L437.592,105.413 L437.592,93.0118 "/>
<path class="Beam" fill-rule="evenodd" d="M676.846,94.872 L704.794,94.872 L704.794,103.553 L676.846,103.553 L676.846,94.872 "/>
<path class="Beam" fill-rule="evenodd" d="M676.846,107.894 L704.794,107.894 L704.794,116.575 L676.846,116.575 L676.846,107.894 "/>
<path class="Beam" fill-rule="evenodd" d="M739.262,86.811 L860.867,86.811 L860.867,99.2126 L739.262,99.2126 L739.262,86.811 "/>
<path class="Beam" fill-rule="evenodd" d="M795.722,101.073 L823.67,101.073 L823.67,109.754 L795.722,109.754 L795.722,101.073 "/>
<path class="Beam" fill-rule="evenodd" d="M795.722,114.094 L823.67,114.094 L823.67,122.776 L795.722,122.776 L795.722,114.094 "/>
<path class="Beam" fill-rule="evenodd" d="M914.598,94.872 L942.545,94.872 L942.545,103.553 L914.598,103.553 L914.598,94.872 "/>
<path class="Beam" fill-rule="evenodd" d="M914.598,107.894 L942.545,107.894 L942.545,116.575 L914.598,116.575 L914.598,107.894 "/>
<path class="Beam" fill-rule="evenodd" d="M977.014,74.4094 L1162.54,74.4094 L1162.54,86.811 L977.014,86.811 L977.014,74.4094 "/>
<path class="Beam" fill-rule="evenodd" d="M977.014,93.0118 L1101.61,93.0118 L1101.61,105.413 L977.014,105.413 L977.014,93.0118 "/>
<path class="Tuplet" d="M502.821,41.1663 C504.946,40.4945 505.789,40.1195 506.867,39.4007 C508.992,38.0101 510.289,35.5413 510.289,33.0101 C510.289,28.7445 506.867,25.8695 501.836,25.8695 C496.93,25.8695 492.789,28.9163 492.789,32.6195 C492.789,34.4632 493.914,35.7132 495.617,35.7132 C497.102,35.7132 498.196,34.6351 498.196,33.1507 C498.196,32.3851 497.961,31.8538 497.242,31.1351 C496.789,30.7288 496.617,30.4007 496.617,30.0882 C496.617,29.0101 498.867,27.8851 500.977,27.8851 C503.992,27.8851 505.789,29.557 505.789,32.3382 C505.789,36.3538 502.961,40.1195 499.946,40.1195 C499.805,40.1195 499.399,40.0882 498.914,40.0413 C497.602,39.9476 497.602,39.9476 497.336,39.9476 C496.336,39.9476 495.805,40.4007 495.805,41.2132 C495.805,41.932 496.305,42.3695 497.102,42.3695 C497.336,42.3695 497.649,42.3382 498.008,42.2913 C498.633,42.1507 499.321,42.1038 499.711,42.1038 C501.836,42.1038 503.274,43.9945 503.274,46.7913 C503.274,48.9476 502.774,51.0101 501.789,52.7288 C500.446,55.1507 498.367,56.3226 495.446,56.3226 C492.93,56.3226 490.758,55.0726 490.758,53.6195 C490.758,53.1351 490.946,52.9476 491.664,52.6351 C492.961,52.057 493.508,51.2445 493.508,50.0257 C493.508,48.4476 492.242,47.2445 490.633,47.2445 C488.696,47.2445 487.43,48.7601 487.43,51.1038 C487.43,55.4788 490.758,58.2132 496.164,58.2132 C502.961,58.2132 508.133,53.6663 508.133,47.6351 C508.133,46.0257 507.633,44.6195 506.696,43.4945 C505.696,42.3382 504.805,41.7913 502.821,41.1663"/>
<path class="Tuplet" d="M1042.24,41.1663 C1044.37,40.4945 1045.21,40.1195 1046.29,39.4007 C1048.41,38.0101 1049.71,35.5413 1049.71,33.0101 C1049.71,28.7445 1046.29,25.8695 1041.26,25.8695 C1036.35,25.8695 1032.21,28.9163 1032.21,32.6195 C1032.21,34.4632 1033.34,35.7132 1035.04,35.7132 C1036.52,35.7132 1037.62,34.6351 1037.62,33.1507 C1037.62,32.3851 1037.38,31.8538 1036.66,31.1351 C1036.21,30.7288 1036.04,30.4007 1036.04,30.0882 C1036.04,29.0101 1038.29,27.8851 1040.4,27.8851 C1043.41,27.8851 1045.21,29.557 1045.21,32.3382 C1045.21,36.3538 1042.38,40.1195 1039.37,40.1195 C1039.23,40.1195 1038.82,40.0882 1038.34,40.0413 C1037.02,39.9476 1037.02,39.9476 1036.76,39.9476 C1035.76,39.9476 1035.23,40.4007 1035.23,41.2132 C1035.23,41.932 1035.73,42.3695 1036.52,42.3695 C1036.76,42.3695 1037.07,42.3382 1037.43,42.2913 C1038.05,42.1507 1038.74,42.1038 1039.13,42.1038 C1041.26,42.1038 1042.7,43.9945 1042.7,46.7913 C1042.7,48.9476 1042.2,51.0101 1041.21,52.7288 C1039.87,55.1507 1037.79,56.3226 1034.87,56.3226 C1032.35,56.3226 1030.18,55.0726 1030.18,53.6195 C1030.18,53.1351 1030.37,52.9476 1031.09,52.6351 C1032.38,52.057 1032.93,51.2445 1032.93,50.0257 C1032.93,48.4476 1031.66,47.2445 1030.05,47.2445 C1028.12,47.2445 1026.85,48.7601 1026.85,51.1038 C1026.85,55.4788 1030.18,58.2132 1035.59,58.2132 C1042.38,58.2132 1047.55,53.6663 1047.55,47.6351 C1047.55,46.0257 1047.05,44.6195 1046.12,43.4945 C1045.12,42.3382 1044.23,41.7913 1042.24,41.1663"/>
</svg>
