<?xml version="1.0" encoding="UTF-8" standalone="no"?>
<svg width="1275.59px" height="283.465px" viewBox="0 0 1275.59 283.465"
 xmlns="http://www.w3.org/2000/svg" xmlns:xlink="http://www.w3.org/1999/xlink" version="1.2" baseProfile="tiny">
<title>drum_rudiments (17)</title>
<desc>Generated by MuseScore 3.6.2</desc>
<polyline class="StaffLines" fill="none" stroke="#000000" stroke-width="2.73" stroke-linejoin="bevel" points="0,173.622 1275.59,173.622"/>
<path class="MeasureNumber" d="M17.3594,46.0969 L16.2031,46.0969 C14,47.7376 9.76563,49.1282 6.875,49.1282 L6.40625,50.8938 L9.15625,50.8938 C11.5938,50.8938 11.875,50.9719 11.875,51.6907 C11.875,52.0501 11.875,52.0501 11.4844,53.4876 L7.20313,69.4876 C6.67188,71.4876 6.64063,71.6126 6.28125,71.9719 C5.875,72.3626 5.03125,72.4876 2.92188,72.5344 L1.20313,72.5344 L1,74.4094 L15.7969,74.4094 L16.0313,72.5344 L13.875,72.5344 C11.2813,72.5344 10.7188,72.3313 10.7188,71.4563 C10.7188,71.1751 10.875,70.2532 11.0781,69.4876 L17.3594,46.0969 M43.6719,46.2532 C41.5469,46.4876 38.9531,46.6594 36.7188,46.6594 C35.5938,46.6594 34.3125,46.6126 32.875,46.5344 C31.5469,46.4563 30.2344,46.3782 28.875,46.3001 L27.875,46.2532 L24,54.6907 L25.4688,55.1751 L26.4375,53.5657 C28.3125,50.4563 29.1875,50.0188 33.2656,50.0501 L40.0313,50.0501 L35.6719,56.3001 C30.5469,63.4876 30.5469,63.4876 28.5938,66.6907 C26.8281,69.5344 26.1094,71.2844 26.1094,72.7219 C26.1094,74.1282 27,75.0032 28.3906,75.0032 C29.875,75.0032 30.625,74.2844 31.1563,72.4094 C33.1563,64.8938 34.3594,62.2844 39.9063,53.3001 L43.6719,47.4563 L43.6719,46.2532 "/>
<polyline class="BarLine" fill="none" stroke="#000000" stroke-width="4.46" stroke-linejoin="bevel" points="1273.36,122.652 1273.36,224.593"/>
<polyline class="Stem" fill="none" stroke="#000000" stroke-width="2.73" stroke-linejoin="bevel" points="147.641,158.046 147.641,80.6102"/>
<polyline class="Stem" fill="none" stroke="#000000" stroke-width="2.73" stroke-linejoin="bevel" points="194.811,182.849 194.811,80.6102"/>
<polyline class="Stem" fill="none" stroke="#000000" stroke-width="2.73" stroke-linejoin="bevel" points="241.981,158.046 241.981,80.6102"/>
<polyline class="Stem" fill="none" stroke="#000000" stroke-width="2.73" stroke-linejoin="bevel" points="289.152,182.849 289.152,80.6102"/>
<polyline class="Stem" fill="none" stroke="#000000" stroke-width="2.73" stroke-linejoin="bevel" points="336.322,158.046 336.322,80.6102"/>
<polyline class="Stem" fill="none" stroke="#000000" stroke-width="2.73" stroke-linejoin="bevel" points="383.492,158.046 383.492,80.6102"/>
<polyline class="Stem" fill="none" stroke="#000000" stroke-width="2.73" stroke-linejoin="bevel" points="430.663,182.849 430.663,80.6102"/>
<polyline class="Stem" fill="none" stroke="#000000" stroke-width="2.73" stroke-linejoin="bevel" points="477.833,158.046 477.833,80.6102"/>
<polyline class="Stem" fill="none" stroke="#000000" stroke-width="2.73" stroke-linejoin="bevel" points="525.003,182.849 525.003,80.6102"/>
<polyline class="Stem" fill="none" stroke="#000000" stroke-width="2.73" stroke-linejoin="bevel" points="572.174,158.046 572.174,80.6102"/>
<polyline class="Stem" fill="none" stroke="#000000" stroke-width="2.73" stroke-linejoin="bevel" points="619.344,182.849 619.344,80.6102"/>
<polyline class="Stem" fill="none" stroke="#000000" stroke-width="2.73" stroke-linejoin="bevel" points="666.514,182.849 666.514,80.6102"/>
<polyline class="Stem" fill="none" stroke="#000000" stroke-width="2.73" stroke-linejoin="bevel" points="713.685,158.046 713.685,80.6102"/>
<polyline class="Stem" fill="none" stroke="#000000" stroke-width="2.73" stroke-linejoin="bevel" points="760.855,182.849 760.855,80.6102"/>
<polyline class="Stem" fill="none" stroke="#000000" stroke-width="2.73" stroke-linejoin="bevel" points="808.025,158.046 808.025,80.6102"/>
<polyline class="Stem" fill="none" stroke="#000000" stroke-width="2.73" stroke-linejoin="bevel" points="855.196,182.849 855.196,80.6102"/>
<polyline class="Stem" fill="none" stroke="#000000" stroke-width="2.73" stroke-linejoin="bevel" points="902.366,158.046 902.366,80.6102"/>
<polyline class="Stem" fill="none" stroke="#000000" stroke-width="2.73" stroke-linejoin="bevel" points="949.536,158.046 949.536,80.6102"/>
<polyline class="Stem" fill="none" stroke="#000000" stroke-width="2.73" stroke-linejoin="bevel" points="996.707,182.849 996.707,80.6102"/>
<polyline class="Stem" fill="none" stroke="#000000" stroke-width="2.73" stroke-linejoin="bevel" points="1043.88,158.046 1043.88,80.6102"/>
<polyline class="Stem" fill="none" stroke="#000000" stroke-width="2.73" stroke-linejoin="bevel" points="1091.05,182.849 1091.05,80.6102"/>
<polyline class="Stem" fill="none" stroke="#000000" stroke-width="2.73" stroke-linejoin="bevel" points="1138.22,158.046 1138.22,80.6102"/>
<polyline class="Stem" fill="none" stroke="#000000" stroke-width="2.73" stroke-linejoin="bevel" points="1185.39,182.849 1185.39,80.6102"/>
<polyline class="Stem" fill="none" stroke="#000000" stroke-width="2.73" stroke-linejoin="bevel" points="1232.56,182.849 1232.56,80.6102"/>
<path class="Note" transform="matrix(0.992126,0,0,0.992126,116.769,161.22)" d="M31.5,-8.09375 C29.7031,-11.4063 25.9063,-13.2031 21.2969,-13.2031 C17.9063,-13.2031 14.2031,-12.2031 10.5938,-10.2969 C4,-6.79688 0,-0.90625 0,4.20313 C0,5.59375 0.296875,7 1,8.29688 C2.79688,11.5938 6.59375,13.2969 11.2031,13.2969 C14.5938,13.2969 18.2969,12.4063 21.9063,10.5 C28.5,7 32.5,1.09375 32.5,-4 C32.5,-5.40625 32.2031,-6.79688 31.5,-8.09375"/>
<path class="Note" transform="matrix(0.992126,0,0,0.992126,163.939,186.024)" d="M31.5,-8.09375 C29.7031,-11.4063 25.9063,-13.2031 21.2969,-13.2031 C17.9063,-13.2031 14.2031,-12.2031 10.5938,-10.2969 C4,-6.79688 0,-0.90625 0,4.20313 C0,5.59375 0.296875,7 1,8.29688 C2.79688,11.5938 6.59375,13.2969 11.2031,13.2969 C14.5938,13.2969 18.2969,12.4063 21.9063,10.5 C28.5,7 32.5,1.09375 32.5,-4 C32.5,-5.40625 32.2031,-6.79688 31.5,-8.09375"/>
<path class="Note" transform="matrix(0.992126,0,0,0.992126,211.109,161.22)" d="M31.5,-8.09375 C29.7031,-11.4063 25.9063,-13.2031 21.2969,-13.2031 C17.9063,-13.2031 14.2031,-12.2031 10.5938,-10.2969 C4,-6.79688 0,-0.90625 0,4.20313 C0,5.59375 0.296875,7 1,8.29688 C2.79688,11.5938 6.59375,13.2969 11.2031,13.2969 C14.5938,13.2969 18.2969,12.4063 21.9063,10.5 C28.5,7 32.5,1.09375 32.5,-4 C32.5,-5.40625 32.2031,-6.79688 31.5,-8.09375"/>
<path class="Note" transform="matrix(0.992126,0,0,0.992126,258.28,186.024)" d="M31.5,-8.09375 C29.7031,-11.4063 25.9063,-13.2031 21.2969,-13.2031 C17.9063,-13.2031 14.2031,-12.2031 10.5938,-10.2969 C4,-6.79688 0,-0.90625 0,4.20313 C0,5.59375 0.296875,7 1,8.29688 C2.79688,11.5938 6.59375,13.2969 11.2031,13.2969 C14.5938,13.2969 18.2969,12.4063 21.9063,10.5 C28.5,7 32.5,1.09375 32.5,-4 C32.5,-5.40625 32.2031,-6.79688 31.5,-8.09375"/>
<path class="Note" transform="matrix(0.992126,0,0,0.992126,305.45,161.22)" d="M31.5,-8.09375 C29.7031,-11.4063 25.9063,-13.2031 21.2969,-13.2031 C17.9063,-13.2031 14.2031,-12.2031 10.5938,-10.2969 C4,-6.79688 0,-0.90625 0,4.20313 C0,5.59375 0.296875,7 1,8.29688 C2.79688,11.5938 6.59375,13.2969 11.2031,13.2969 C14.5938,13.2969 18.2969,12.4063 21.9063,10.5 C28.5,7 32.5,1.09375 32.5,-4 C32.5,-5.40625 32.2031,-6.79688 31.5,-8.09375"/>
<path class="Note" transform="matrix(0.992126,0,0,0.992126,352.62,161.22)" d="M31.5,-8.09375 C29.7031,-11.4063 25.9063,-13.2031 21.2969,-13.2031 C17.9063,-13.2031 14.2031,-12.2031 10.5938,-10.2969 C4,-6.79688 0,-0.90625 0,4.20313 C0,5.59375 0.296875,7 1,8.29688 C2.79688,11.5938 6.59375,13.2969 11.2031,13.2969 C14.5938,13.2969 18.2969,12.4063 21.9063,10.5 C28.5,7 32.5,1.09375 32.5,-4 C32.5,-5.40625 32.2031,-6.79688 31.5,-8.09375"/>
<path class="Note" transform="matrix(0.992126,0,0,0.992126,399.791,186.024)" d="M31.5,-8.09375 C29.7031,-11.4063 25.9063,-13.2031 21.2969,-13.2031 C17.9063,-13.2031 14.2031,-12.2031 10.5938,-10.2969 C4,-6.79688 0,-0.90625 0,4.20313 C0,5.59375 0.296875,7 1,8.29688 C2.79688,11.5938 6.59375,13.2969 11.2031,13.2969 C14.5938,13.2969 18.2969,12.4063 21.9063,10.5 C28.5,7 32.5,1.09375 32.5,-4 C32.5,-5.40625 32.2031,-6.79688 31.5,-8.09375"/>
<path class="Note" transform="matrix(0.992126,0,0,0.992126,446.961,161.22)" d="M31.5,-8.09375 C29.7031,-11.4063 25.9063,-13.2031 21.2969,-13.2031 C17.9063,-13.2031 14.2031,-12.2031 10.5938,-10.2969 C4,-6.79688 0,-0.90625 0,4.20313 C0,5.59375 0.296875,7 1,8.29688 C2.79688,11.5938 6.59375,13.2969 11.2031,13.2969 C14.5938,13.2969 18.2969,12.4063 21.9063,10.5 C28.5,7 32.5,1.09375 32.5,-4 C32.5,-5.40625 32.2031,-6.79688 31.5,-8.09375"/>
<path class="Note" transform="matrix(0.992126,0,0,0.992126,494.131,186.024)" d="M31.5,-8.09375 C29.7031,-11.4063 25.9063,-13.2031 21.2969,-13.2031 C17.9063,-13.2031 14.2031,-12.2031 10.5938,-10.2969 C4,-6.79688 0,-0.90625 0,4.20313 C0,5.59375 0.296875,7 1,8.29688 C2.79688,11.5938 6.59375,13.2969 11.2031,13.2969 C14.5938,13.2969 18.2969,12.4063 21.9063,10.5 C28.5,7 32.5,1.09375 32.5,-4 C32.5,-5.40625 32.2031,-6.79688 31.5,-8.09375"/>
<path class="Note" transform="matrix(0.992126,0,0,0.992126,541.301,161.22)" d="M31.5,-8.09375 C29.7031,-11.4063 25.9063,-13.2031 21.2969,-13.2031 C17.9063,-13.2031 14.2031,-12.2031 10.5938,-10.2969 C4,-6.79688 0,-0.90625 0,4.20313 C0,5.59375 0.296875,7 1,8.29688 C2.79688,11.5938 6.59375,13.2969 11.2031,13.2969 C14.5938,13.2969 18.2969,12.4063 21.9063,10.5 C28.5,7 32.5,1.09375 32.5,-4 C32.5,-5.40625 32.2031,-6.79688 31.5,-8.09375"/>
<path class="Note" transform="matrix(0.992126,0,0,0.992126,588.472,186.024)" d="M31.5,-8.09375 C29.7031,-11.4063 25.9063,-13.2031 21.2969,-13.2031 C17.9063,-13.2031 14.2031,-12.2031 10.5938,-10.2969 C4,-6.79688 0,-0.90625 0,4.20313 C0,5.59375 0.296875,7 1,8.29688 C2.79688,11.5938 6.59375,13.2969 11.2031,13.2969 C14.5938,13.2969 18.2969,12.4063 21.9063,10.5 C28.5,7 32.5,1.09375 32.5,-4 C32.5,-5.40625 32.2031,-6.79688 31.5,-8.09375"/>
<path class="Note" transform="matrix(0.992126,0,0,0.992126,635.642,186.024)" d="M31.5,-8.09375 C29.7031,-11.4063 25.9063,-13.2031 21.2969,-13.2031 C17.9063,-13.2031 14.2031,-12.2031 10.5938,-10.2969 C4,-6.79688 0,-0.90625 0,4.20313 C0,5.59375 0.296875,7 1,8.29688 C2.79688,11.5938 6.59375,13.2969 11.2031,13.2969 C14.5938,13.2969 18.2969,12.4063 21.9063,10.5 C28.5,7 32.5,1.09375 32.5,-4 C32.5,-5.40625 32.2031,-6.79688 31.5,-8.09375"/>
<path class="Note" transform="matrix(0.992126,0,0,0.992126,682.812,161.22)" d="M31.5,-8.09375 C29.7031,-11.4063 25.9063,-13.2031 21.2969,-13.2031 C17.9063,-13.2031 14.2031,-12.2031 10.5938,-10.2969 C4,-6.79688 0,-0.90625 0,4.20313 C0,5.59375 0.296875,7 1,8.29688 C2.79688,11.5938 6.59375,13.2969 11.2031,13.2969 C14.5938,13.2969 18.2969,12.4063 21.9063,10.5 C28.5,7 32.5,1.09375 32.5,-4 C32.5,-5.40625 32.2031,-6.79688 31.5,-8.09375"/>
<path class="Note" transform="matrix(0.992126,0,0,0.992126,729.983,186.024)" d="M31.5,-8.09375 C29.7031,-11.4063 25.9063,-13.2031 21.2969,-13.2031 C17.9063,-13.2031 14.2031,-12.2031 10.5938,-10.2969 C4,-6.79688 0,-0.90625 0,4.20313 C0,5.59375 0.296875,7 1,8.29688 C2.79688,11.5938 6.59375,13.2969 11.2031,13.2969 C14.5938,13.2969 18.2969,12.4063 21.9063,10.5 C28.5,7 32.5,1.09375 32.5,-4 C32.5,-5.40625 32.2031,-6.79688 31.5,-8.09375"/>
<path class="Note" transform="matrix(0.992126,0,0,0.992126,777.153,161.22)" d="M31.5,-8.09375 C29.7031,-11.4063 25.9063,-13.2031 21.2969,-13.2031 C17.9063,-13.2031 14.2031,-12.2031 10.5938,-10.2969 C4,-6.79688 0,-0.90625 0,4.20313 C0,5.59375 0.296875,7 1,8.29688 C2.79688,11.5938 6.59375,13.2969 11.2031,13.2969 C14.5938,13.2969 18.2969,12.4063 21.9063,10.5 C28.5,7 32.5,1.09375 32.5,-4 C32.5,-5.40625 32.2031,-6.79688 31.5,-8.09375"/>
<path class="Note" transform="matrix(0.992126,0,0,0.992126,824.323,186.024)" d="M31.5,-8.09375 C29.7031,-11.4063 25.9063,-13.2031 21.2969,-13.2031 C17.9063,-13.2031 14.2031,-12.2031 10.5938,-10.2969 C4,-6.79688 0,-0.90625 0,4.20313 C0,5.59375 0.296875,7 1,8.29688 C2.79688,11.5938 6.59375,13.2969 11.2031,13.2969 C14.5938,13.2969 18.2969,12.4063 21.9063,10.5 C28.5,7 32.5,1.09375 32.5,-4 C32.5,-5.40625 32.2031,-6.79688 31.5,-8.09375"/>
<path class="Note" transform="matrix(0.992126,0,0,0.992126,871.494,161.22)" d="M31.5,-8.09375 C29.7031,-11.4063 25.9063,-13.2031 21.2969,-13.2031 C17.9063,-13.2031 14.2031,-12.2031 10.5938,-10.2969 C4,-6.79688 0,-0.90625 0,4.20313 C0,5.59375 0.296875,7 1,8.29688 C2.79688,11.5938 6.59375,13.2969 11.2031,13.2969 C14.5938,13.2969 18.2969,12.4063 21.9063,10.5 C28.5,7 32.5,1.09375 32.5,-4 C32.5,-5.40625 32.2031,-6.79688 31.5,-8.09375"/>
<path class="Note" transform="matrix(0.992126,0,0,0.992126,918.664,161.22)" d="M31.5,-8.09375 C29.7031,-11.4063 25.9063,-13.2031 21.2969,-13.2031 C17.9063,-13.2031 14.2031,-12.2031 10.5938,-10.2969 C4,-6.79688 0,-0.90625 0,4.20313 C0,5.59375 0.296875,7 1,8.29688 C2.79688,11.5938 6.59375,13.2969 11.2031,13.2969 C14.5938,13.2969 18.2969,12.4063 21.9063,10.5 C28.5,7 32.5,1.09375 32.5,-4 C32.5,-5.40625 32.2031,-6.79688 31.5,-8.09375"/>
<path class="Note" transform="matrix(0.992126,0,0,0.992126,965.834,186.024)" d="M31.5,-8.09375 C29.7031,-11.4063 25.9063,-13.2031 21.2969,-13.2031 C17.9063,-13.2031 14.2031,-12.2031 10.5938,-10.2969 C4,-6.79688 0,-0.90625 0,4.20313 C0,5.59375 0.296875,7 1,8.29688 C2.79688,11.5938 6.59375,13.2969 11.2031,13.2969 C14.5938,13.2969 18.2969,12.4063 21.9063,10.5 C28.5,7 32.5,1.09375 32.5,-4 C32.5,-5.40625 32.2031,-6.79688 31.5,-8.09375"/>
<path class="Note" transform="matrix(0.992126,0,0,0.992126,1013,161.22)" d="M31.5,-8.09375 C29.7031,-11.4063 25.9063,-13.2031 21.2969,-13.2031 C17.9063,-13.2031 14.2031,-12.2031 10.5938,-10.2969 C4,-6.79688 0,-0.90625 0,4.20313 C0,5.59375 0.296875,7 1,8.29688 C2.79688,11.5938 6.59375,13.2969 11.2031,13.2969 C14.5938,13.2969 18.2969,12.4063 21.9063,10.5 C28.5,7 32.5,1.09375 32.5,-4 C32.5,-5.40625 32.2031,-6.79688 31.5,-8.09375"/>
<path class="Note" transform="matrix(0.992126,0,0,0.992126,1060.18,186.024)" d="M31.5,-8.09375 C29.7031,-11.4063 25.9063,-13.2031 21.2969,-13.2031 C17.9063,-13.2031 14.2031,-12.2031 10.5938,-10.2969 C4,-6.79688 0,-0.90625 0,4.20313 C0,5.59375 0.296875,7 1,8.29688 C2.79688,11.5938 6.59375,13.2969 11.2031,13.2969 C14.5938,13.2969 18.2969,12.4063 21.9063,10.5 C28.5,7 32.5,1.09375 32.5,-4 C32.5,-5.40625 32.2031,-6.79688 31.5,-8.09375"/>
<path class="Note" transform="matrix(0.992126,0,0,0.992126,1107.35,161.22)" d="M31.5,-8.09375 C29.7031,-11.4063 25.9063,-13.2031 21.2969,-13.2031 C17.9063,-13.2031 14.2031,-12.2031 10.5938,-10.2969 C4,-6.79688 0,-0.90625 0,4.20313 C0,5.59375 0.296875,7 1,8.29688 C2.79688,11.5938 6.59375,13.2969 11.2031,13.2969 C14.5938,13.2969 18.2969,12.4063 21.9063,10.5 C28.5,7 32.5,1.09375 32.5,-4 C32.5,-5.40625 32.2031,-6.79688 31.5,-8.09375"/>
<path class="Note" transform="matrix(0.992126,0,0,0.992126,1154.52,186.024)" d="M31.5,-8.09375 C29.7031,-11.4063 25.9063,-13.2031 21.2969,-13.2031 C17.9063,-13.2031 14.2031,-12.2031 10.5938,-10.2969 C4,-6.79688 0,-0.90625 0,4.20313 C0,5.59375 0.296875,7 1,8.29688 C2.79688,11.5938 6.59375,13.2969 11.2031,13.2969 C14.5938,13.2969 18.2969,12.4063 21.9063,10.5 C28.5,7 32.5,1.09375 32.5,-4 C32.5,-5.40625 32.2031,-6.79688 31.5,-8.09375"/>
<path class="Note" transform="matrix(0.992126,0,0,0.992126,1201.69,186.024)" d="M31.5,-8.09375 C29.7031,-11.4063 25.9063,-13.2031 21.2969,-13.2031 C17.9063,-13.2031 14.2031,-12.2031 10.5938,-10.2969 C4,-6.79688 0,-0.90625 0,4.20313 C0,5.59375 0.296875,7 1,8.29688 C2.79688,11.5938 6.59375,13.2969 11.2031,13.2969 C14.5938,13.2969 18.2969,12.4063 21.9063,10.5 C28.5,7 32.5,1.09375 32.5,-4 C32.5,-5.40625 32.2031,-6.79688 31.5,-8.09375"/>
<path class="Clef" transform="matrix(0.992126,0,0,0.992126,19.8425,173.622)" d="M12.2969,-25.2031 L1.29688,-25.2031 C0.59375,-25.2031 0,-24.5938 0,-23.9063 L0,23.9063 C0,24.5938 0.59375,25.2031 1.29688,25.2031 L12.2969,25.2031 C13,25.2031 13.5938,24.5938 13.5938,23.9063 L13.5938,-23.9063 C13.5938,-24.5938 13,-25.2031 12.2969,-25.2031 M33.9063,-25.2031 L22.9063,-25.2031 C22.2031,-25.2031 21.5938,-24.5938 21.5938,-23.9063 L21.5938,23.9063 C21.5938,24.5938 22.2031,25.2031 22.9063,25.2031 L33.9063,25.2031 C34.6094,25.2031 35.2031,24.5938 35.2031,23.9063 L35.2031,-23.9063 C35.2031,-24.5938 34.6094,-25.2031 33.9063,-25.2031"/>
<path class="Articulation" transform="matrix(0.992126,0,0,0.992126,114.982,212.191)" d="M35.1094,10.4063 L1.79688,0.09375 C1.70313,0.09375 1.5,0 1.40625,0 C0.59375,0 0,0.59375 0,1.40625 L0,3.70313 C0,4.29688 0.5,4.79688 1,5 L22.4063,11.7031 L1,18.5 C0.5,18.7031 0,19.2031 0,19.7969 L0,22.0938 C0,22.9063 0.59375,23.5 1.40625,23.5 C1.5,23.5 1.70313,23.4063 1.79688,23.4063 L35.1094,13.0938 C35.6094,12.9063 36.1094,12.2969 36.1094,11.7031 C36.1094,11.0938 35.6094,10.5938 35.1094,10.4063"/>
<path class="Articulation" transform="matrix(0.992126,0,0,0.992126,398.004,212.191)" d="M35.1094,10.4063 L1.79688,0.09375 C1.70313,0.09375 1.5,0 1.40625,0 C0.59375,0 0,0.59375 0,1.40625 L0,3.70313 C0,4.29688 0.5,4.79688 1,5 L22.4063,11.7031 L1,18.5 C0.5,18.7031 0,19.2031 0,19.7969 L0,22.0938 C0,22.9063 0.59375,23.5 1.40625,23.5 C1.5,23.5 1.70313,23.4063 1.79688,23.4063 L35.1094,13.0938 C35.6094,12.9063 36.1094,12.2969 36.1094,11.7031 C36.1094,11.0938 35.6094,10.5938 35.1094,10.4063"/>
<path class="Articulation" transform="matrix(0.992126,0,0,0.992126,681.026,212.191)" d="M35.1094,10.4063 L1.79688,0.09375 C1.70313,0.09375 1.5,0 1.40625,0 C0.59375,0 0,0.59375 0,1.40625 L0,3.70313 C0,4.29688 0.5,4.79688 1,5 L22.4063,11.7031 L1,18.5 C0.5,18.7031 0,19.2031 0,19.7969 L0,22.0938 C0,22.9063 0.59375,23.5 1.40625,23.5 C1.5,23.5 1.70313,23.4063 1.79688,23.4063 L35.1094,13.0938 C35.6094,12.9063 36.1094,12.2969 36.1094,11.7031 C36.1094,11.0938 35.6094,10.5938 35.1094,10.4063"/>
<path class="Articulation" transform="matrix(0.992126,0,0,0.992126,964.048,212.191)" d="M35.1094,10.4063 L1.79688,0.09375 C1.70313,0.09375 1.5,0 1.40625,0 C0.59375,0 0,0.59375 0,1.40625 L0,3.70313 C0,4.29688 0.5,4.79688 1,5 L22.4063,11.7031 L1,18.5 C0.5,18.7031 0,19.2031 0,19.7969 L0,22.0938 C0,22.9063 0.59375,23.5 1.40625,23.5 C1.5,23.5 1.70313,23.4063 1.79688,23.4063 L35.1094,13.0938 C35.6094,12.9063 36.1094,12.2969 36.1094,11.7031 C36.1094,11.0938 35.6094,10.5938 35.1094,10.4063"/>
<path class="Beam" fill-rule="evenodd" d="M146.277,74.4094 L384.857,74.4094 L384.857,86.811 L146.277,86.811 L146.277,74.4094 "/>
<path class="Beam" fill-rule="evenodd" d="M146.277,93.0118 L243.346,93.0118 L243.346,105.413 L146.277,105.413 L146.277,93.0118 "/>
<path class="Beam" fill-rule="evenodd" d="M287.788,93.0118 L384.857,93.0118 L384.857,105.413 L287.788,105.413 L287.788,93.0118 "/>
<path class="Beam" fill-rule="evenodd" d="M429.299,74.4094 L667.878,74.4094 L667.878,86.811 L429.299,86.811 L429.299,74.4094 "/>
<path class="Beam" fill-rule="evenodd" d="M429.299,93.0118 L526.367,93.0118 L526.367,105.413 L429.299,105.413 L429.299,93.0118 "/>
<path class="Beam" fill-rule="evenodd" d="M570.809,93.0118 L667.878,93.0118 L667.878,105.413 L570.809,105.413 L570.809,93.0118 "/>
<path class="Beam" fill-rule="evenodd" d="M712.32,74.4094 L950.9,74.4094 L950.9,86.811 L712.32,86.811 L712.32,74.4094 "/>
<path class="Beam" fill-rule="evenodd" d="M712.32,93.0118 L809.389,93.0118 L809.389,105.413 L712.32,105.413 L712.32,93.0118 "/>
<path class="Beam" fill-rule="evenodd" d="M853.831,93.0118 L950.9,93.0118 L950.9,105.413 L853.831,105.413 L853.831,93.0118 "/>
<path class="Beam" fill-rule="evenodd" d="M995.342,74.4094 L1233.92,74.4094 L1233.92,86.811 L995.342,86.811 L995.342,74.4094 "/>
<path class="Beam" fill-rule="evenodd" d="M995.342,93.0118 L1092.41,93.0118 L1092.41,105.413 L995.342,105.413 L995.342,93.0118 "/>
<path class="Beam" fill-rule="evenodd" d="M1136.85,93.0118 L1233.92,93.0118 L1233.92,105.413 L1136.85,105.413 L1136.85,93.0118 "/>
<path class="Tuplet" d="M197.744,41.1663 C199.869,40.4945 200.713,40.1195 201.791,39.4007 C203.916,38.0101 205.213,35.5413 205.213,33.0101 C205.213,28.7445 201.791,25.8695 196.759,25.8695 C191.853,25.8695 187.713,28.9163 187.713,32.6195 C187.713,34.4632 188.838,35.7132 190.541,35.7132 C192.025,35.7132 193.119,34.6351 193.119,33.1507 C193.119,32.3851 192.884,31.8538 192.166,31.1351 C191.713,30.7288 191.541,30.4007 191.541,30.0882 C191.541,29.0101 193.791,27.8851 195.9,27.8851 C198.916,27.8851 200.713,29.557 200.713,32.3382 C200.713,36.3538 197.884,40.1195 194.869,40.1195 C194.728,40.1195 194.322,40.0882 193.838,40.0413 C192.525,39.9476 192.525,39.9476 192.259,39.9476 C191.259,39.9476 190.728,40.4007 190.728,41.2132 C190.728,41.932 191.228,42.3695 192.025,42.3695 C192.259,42.3695 192.572,42.3382 192.931,42.2913 C193.556,42.1507 194.244,42.1038 194.634,42.1038 C196.759,42.1038 198.197,43.9945 198.197,46.7913 C198.197,48.9476 197.697,51.0101 196.713,52.7288 C195.369,55.1507 193.291,56.3226 190.369,56.3226 C187.853,56.3226 185.681,55.0726 185.681,53.6195 C185.681,53.1351 185.869,52.9476 186.588,52.6351 C187.884,52.057 188.431,51.2445 188.431,50.0257 C188.431,48.4476 187.166,47.2445 185.556,47.2445 C183.619,47.2445 182.353,48.7601 182.353,51.1038 C182.353,55.4788 185.681,58.2132 191.088,58.2132 C197.884,58.2132 203.056,53.6663 203.056,47.6351 C203.056,46.0257 202.556,44.6195 201.619,43.4945 C200.619,42.3382 199.728,41.7913 197.744,41.1663"/>
<path class="Tuplet" d="M339.255,41.1663 C341.38,40.4945 342.223,40.1195 343.302,39.4007 C345.427,38.0101 346.723,35.5413 346.723,33.0101 C346.723,28.7445 343.302,25.8695 338.27,25.8695 C333.364,25.8695 329.223,28.9163 329.223,32.6195 C329.223,34.4632 330.348,35.7132 332.052,35.7132 C333.536,35.7132 334.63,34.6351 334.63,33.1507 C334.63,32.3851 334.395,31.8538 333.677,31.1351 C333.223,30.7288 333.052,30.4007 333.052,30.0882 C333.052,29.0101 335.302,27.8851 337.411,27.8851 C340.427,27.8851 342.223,29.557 342.223,32.3382 C342.223,36.3538 339.395,40.1195 336.38,40.1195 C336.239,40.1195 335.833,40.0882 335.348,40.0413 C334.036,39.9476 334.036,39.9476 333.77,39.9476 C332.77,39.9476 332.239,40.4007 332.239,41.2132 C332.239,41.932 332.739,42.3695 333.536,42.3695 C333.77,42.3695 334.083,42.3382 334.442,42.2913 C335.067,42.1507 335.755,42.1038 336.145,42.1038 C338.27,42.1038 339.708,43.9945 339.708,46.7913 C339.708,48.9476 339.208,51.0101 338.223,52.7288 C336.88,55.1507 334.802,56.3226 331.88,56.3226 C329.364,56.3226 327.192,55.0726 327.192,53.6195 C327.192,53.1351 327.38,52.9476 328.098,52.6351 C329.395,52.057 329.942,51.2445 329.942,50.0257 C329.942,48.4476 328.677,47.2445 327.067,47.2445 C325.13,47.2445 323.864,48.7601 323.864,51.1038 C323.864,55.4788 327.192,58.2132 332.598,58.2132 C339.395,58.2132 344.567,53.6663 344.567,47.6351 C344.567,46.0257 344.067,44.6195 343.13,43.4945 C342.13,42.3382 341.239,41.7913 339.255,41.1663"/>
<path class="Tuplet" d="M480.766,41.1663 C482.891,40.4945 483.734,40.1195 484.813,39.4007 C486.938,38.0101 488.234,35.5413 488.234,33.0101 C488.234,28.7445 484.813,25.8695 479.781,25.8695 C474.875,25.8695 470.734,28.9163 470.734,32.6195 C470.734,34.4632 471.859,35.7132 473.563,35.7132 C475.047,35.7132 476.141,34.6351 476.141,33.1507 C476.141,32.3851 475.906,31.8538 475.188,31.1351 C474.734,30.7288 474.563,30.4007 474.563,30.0882 C474.563,29.0101 476.813,27.8851 478.922,27.8851 C481.938,27.8851 483.734,29.557 483.734,32.3382 C483.734,36.3538 480.906,40.1195 477.891,40.1195 C477.75,40.1195 477.344,40.0882 476.859,40.0413 C475.547,39.9476 475.547,39.9476 475.281,39.9476 C474.281,39.9476 473.75,40.4007 473.75,41.2132 C473.75,41.932 474.25,42.3695 475.047,42.3695 C475.281,42.3695 475.594,42.3382 475.953,42.2913 C476.578,42.1507 477.266,42.1038 477.656,42.1038 C479.781,42.1038 481.219,43.9945 481.219,46.7913 C481.219,48.9476 480.719,51.0101 479.734,52.7288 C478.391,55.1507 476.313,56.3226 473.391,56.3226 C470.875,56.3226 468.703,55.0726 468.703,53.6195 C468.703,53.1351 468.891,52.9476 469.609,52.6351 C470.906,52.057 471.453,51.2445 471.453,50.0257 C471.453,48.4476 470.188,47.2445 468.578,47.2445 C466.641,47.2445 465.375,48.7601 465.375,51.1038 C465.375,55.4788 468.703,58.2132 474.109,58.2132 C480.906,58.2132 486.078,53.6663 486.078,47.6351 C486.078,46.0257 485.578,44.6195 484.641,43.4945 C483.641,42.3382 482.75,41.7913 480.766,41.1663"/>
<path class="Tuplet" d="M622.277,41.1663 C624.402,40.4945 625.245,40.1195 626.324,39.4007 C628.449,38.0101 629.745,35.5413 629.745,33.0101 C629.745,28.7445 626.324,25.8695 621.292,25.8695 C616.386,25.8695 612.245,28.9163 612.245,32.6195 C612.245,34.4632 613.37,35.7132 615.074,35.7132 C616.558,35.7132 617.652,34.6351 617.652,33.1507 C617.652,32.3851 617.417,31.8538 616.699,31.1351 C616.245,30.7288 616.074,30.4007 616.074,30.0882 C616.074,29.0101 618.324,27.8851 620.433,27.8851 C623.449,27.8851 625.245,29.557 625.245,32.3382 C625.245,36.3538 622.417,40.1195 619.402,40.1195 C619.261,40.1195 618.855,40.0882 618.37,40.0413 C617.058,39.9476 617.058,39.9476 616.792,39.9476 C615.792,39.9476 615.261,40.4007 615.261,41.2132 C615.261,41.932 615.761,42.3695 616.558,42.3695 C616.792,42.3695 617.105,42.3382 617.464,42.2913 C618.089,42.1507 618.777,42.1038 619.167,42.1038 C621.292,42.1038 622.73,43.9945 622.73,46.7913 C622.73,48.9476 622.23,51.0101 621.245,52.7288 C619.902,55.1507 617.824,56.3226 614.902,56.3226 C612.386,56.3226 610.214,55.0726 610.214,53.6195 C610.214,53.1351 610.402,52.9476 611.12,52.6351 C612.417,52.057 612.964,51.2445 612.964,50.0257 C612.964,48.4476 611.699,47.2445 610.089,47.2445 C608.152,47.2445 606.886,48.7601 606.886,51.1038 C606.886,55.4788 610.214,58.2132 615.62,58.2132 C622.417,58.2132 627.589,53.6663 627.589,47.6351 C627.589,46.0257 627.089,44.6195 626.152,43.4945 C625.152,42.3382 624.261,41.7913 622.277,41.1663"/>
<path class="Tuplet" d="M763.788,41.1663 C765.913,40.4945 766.756,40.1195 767.835,39.4007 C769.96,38.0101 771.256,35.5413 771.256,33.0101 C771.256,28.7445 767.835,25.8695 762.803,25.8695 C757.897,25.8695 753.756,28.9163 753.756,32.6195 C753.756,34.4632 754.881,35.7132 756.585,35.7132 C758.069,35.7132 759.163,34.6351 759.163,33.1507 C759.163,32.3851 758.928,31.8538 758.21,31.1351 C757.756,30.7288 757.585,30.4007 757.585,30.0882 C757.585,29.0101 759.835,27.8851 761.944,27.8851 C764.96,27.8851 766.756,29.557 766.756,32.3382 C766.756,36.3538 763.928,40.1195 760.913,40.1195 C760.772,40.1195 760.366,40.0882 759.881,40.0413 C758.569,39.9476 758.569,39.9476 758.303,39.9476 C757.303,39.9476 756.772,40.4007 756.772,41.2132 C756.772,41.932 757.272,42.3695 758.069,42.3695 C758.303,42.3695 758.616,42.3382 758.975,42.2913 C759.6,42.1507 760.288,42.1038 760.678,42.1038 C762.803,42.1038 764.241,43.9945 764.241,46.7913 C764.241,48.9476 763.741,51.0101 762.756,52.7288 C761.413,55.1507 759.335,56.3226 756.413,56.3226 C753.897,56.3226 751.725,55.0726 751.725,53.6195 C751.725,53.1351 751.913,52.9476 752.631,52.6351 C753.928,52.057 754.475,51.2445 754.475,50.0257 C754.475,48.4476 753.21,47.2445 751.6,47.2445 C749.663,47.2445 748.397,48.7601 748.397,51.1038 C748.397,55.4788 751.725,58.2132 757.131,58.2132 C763.928,58.2132 769.1,53.6663 769.1,47.6351 C769.1,46.0257 768.6,44.6195 767.663,43.4945 C766.663,42.3382 765.772,41.7913 763.788,41.1663"/>
<path class="Tuplet" d="M905.299,41.1663 C907.424,40.4945 908.267,40.1195 909.345,39.4007 C911.47,38.0101 912.767,35.5413 912.767,33.0101 C912.767,28.7445 909.345,25.8695 904.314,25.8695 C899.408,25.8695 895.267,28.9163 895.267,32.6195 C895.267,34.4632 896.392,35.7132 898.095,35.7132 C899.58,35.7132 900.674,34.6351 900.674,33.1507 C900.674,32.3851 900.439,31.8538 899.72,31.1351 C899.267,30.7288 899.095,30.4007 899.095,30.0882 C899.095,29.0101 901.345,27.8851 903.455,27.8851 C906.47,27.8851 908.267,29.557 908.267,32.3382 C908.267,36.3538 905.439,40.1195 902.424,40.1195 C902.283,40.1195 901.877,40.0882 901.392,40.0413 C900.08,39.9476 900.08,39.9476 899.814,39.9476 C898.814,39.9476 898.283,40.4007 898.283,41.2132 C898.283,41.932 898.783,42.3695 899.58,42.3695 C899.814,42.3695 900.127,42.3382 900.486,42.2913 C901.111,42.1507 901.799,42.1038 902.189,42.1038 C904.314,42.1038 905.752,43.9945 905.752,46.7913 C905.752,48.9476 905.252,51.0101 904.267,52.7288 C902.924,55.1507 900.845,56.3226 897.924,56.3226 C895.408,56.3226 893.236,55.0726 893.236,53.6195 C893.236,53.1351 893.424,52.9476 894.142,52.6351 C895.439,52.057 895.986,51.2445 895.986,50.0257 C895.986,48.4476 894.72,47.2445 893.111,47.2445 C891.174,47.2445 889.908,48.7601 889.908,51.1038 C889.908,55.4788 893.236,58.2132 898.642,58.2132 C905.439,58.2132 910.611,53.6663 910.611,47.6351 C910.611,46.0257 910.111,44.6195 909.174,43.4945 C908.174,42.3382 907.283,41.7913 905.299,41.1663"/>
<path class="Tuplet" d="M1046.81,41.1663 C1048.93,40.4945 1049.78,40.1195 1050.86,39.4007 C1052.98,38.0101 1054.28,35.5413 1054.28,33.0101 C1054.28,28.7445 1050.86,25.8695 1045.83,25.8695 C1040.92,25.8695 1036.78,28.9163 1036.78,32.6195 C1036.78,34.4632 1037.9,35.7132 1039.61,35.7132 C1041.09,35.7132 1042.18,34.6351 1042.18,33.1507 C1042.18,32.3851 1041.95,31.8538 1041.23,31.1351 C1040.78,30.7288 1040.61,30.4007 1040.61,30.0882 C1040.61,29.0101 1042.86,27.8851 1044.97,27.8851 C1047.98,27.8851 1049.78,29.557 1049.78,32.3382 C1049.78,36.3538 1046.95,40.1195 1043.93,40.1195 C1043.79,40.1195 1043.39,40.0882 1042.9,40.0413 C1041.59,39.9476 1041.59,39.9476 1041.33,39.9476 C1040.33,39.9476 1039.79,40.4007 1039.79,41.2132 C1039.79,41.932 1040.29,42.3695 1041.09,42.3695 C1041.33,42.3695 1041.64,42.3382 1042,42.2913 C1042.62,42.1507 1043.31,42.1038 1043.7,42.1038 C1045.83,42.1038 1047.26,43.9945 1047.26,46.7913 C1047.26,48.9476 1046.76,51.0101 1045.78,52.7288 C1044.43,55.1507 1042.36,56.3226 1039.43,56.3226 C1036.92,56.3226 1034.75,55.0726 1034.75,53.6195 C1034.75,53.1351 1034.93,52.9476 1035.65,52.6351 C1036.95,52.057 1037.5,51.2445 1037.5,50.0257 C1037.5,48.4476 1036.23,47.2445 1034.62,47.2445 C1032.68,47.2445 1031.42,48.7601 1031.42,51.1038 C1031.42,55.4788 1034.75,58.2132 1040.15,58.2132 C1046.95,58.2132 1052.12,53.6663 1052.12,47.6351 C1052.12,46.0257 1051.62,44.6195 1050.68,43.4945 C1049.68,42.3382 1048.79,41.7913 1046.81,41.1663"/>
<path class="Tuplet" d="M1188.32,41.1663 C1190.45,40.4945 1191.29,40.1195 1192.37,39.4007 C1194.49,38.0101 1195.79,35.5413 1195.79,33.0101 C1195.79,28.7445 1192.37,25.8695 1187.34,25.8695 C1182.43,25.8695 1178.29,28.9163 1178.29,32.6195 C1178.29,34.4632 1179.41,35.7132 1181.12,35.7132 C1182.6,35.7132 1183.7,34.6351 1183.7,33.1507 C1183.7,32.3851 1183.46,31.8538 1182.74,31.1351 C1182.29,30.7288 1182.12,30.4007 1182.12,30.0882 C1182.12,29.0101 1184.37,27.8851 1186.48,27.8851 C1189.49,27.8851 1191.29,29.557 1191.29,32.3382 C1191.29,36.3538 1188.46,40.1195 1185.45,40.1195 C1185.3,40.1195 1184.9,40.0882 1184.41,40.0413 C1183.1,39.9476 1183.1,39.9476 1182.84,39.9476 C1181.84,39.9476 1181.3,40.4007 1181.3,41.2132 C1181.3,41.932 1181.8,42.3695 1182.6,42.3695 C1182.84,42.3695 1183.15,42.3382 1183.51,42.2913 C1184.13,42.1507 1184.82,42.1038 1185.21,42.1038 C1187.34,42.1038 1188.77,43.9945 1188.77,46.7913 C1188.77,48.9476 1188.27,51.0101 1187.29,52.7288 C1185.95,55.1507 1183.87,56.3226 1180.95,56.3226 C1178.43,56.3226 1176.26,55.0726 1176.26,53.6195 C1176.26,53.1351 1176.45,52.9476 1177.16,52.6351 C1178.46,52.057 1179.01,51.2445 1179.01,50.0257 C1179.01,48.4476 1177.74,47.2445 1176.13,47.2445 C1174.2,47.2445 1172.93,48.7601 1172.93,51.1038 C1172.93,55.4788 1176.26,58.2132 1181.66,58.2132 C1188.46,58.2132 1193.63,53.6663 1193.63,47.6351 C1193.63,46.0257 1193.13,44.6195 1192.2,43.4945 C1191.2,42.3382 1190.3,41.7913 1188.32,41.1663"/>
</svg>
